<svg id="Grupo_1021722" data-name="Grupo 1021722" xmlns="http://www.w3.org/2000/svg" xmlns:xlink="http://www.w3.org/1999/xlink" width="78.142" height="82.426" viewBox="0 0 78.142 82.426">
  <defs>
    <clipPath id="clip-path">
      <rect id="Rectángulo_358096" data-name="Rectángulo 358096" width="78.142" height="82.425" fill="none"/>
    </clipPath>
  </defs>
  <rect id="Rectángulo_358094" data-name="Rectángulo 358094" width="22.818" height="8.008" transform="translate(18.116 74.417)" fill="#57dbd8"/>
  <rect id="Rectángulo_358095" data-name="Rectángulo 358095" width="22.818" height="8.008" transform="translate(45.033 74.417)" fill="#57dbd8"/>
  <g id="Grupo_1021721" data-name="Grupo 1021721">
    <g id="Grupo_1021720" data-name="Grupo 1021720" clip-path="url(#clip-path)">
      <path id="Trazado_752622" data-name="Trazado 752622" d="M41.658,7.273A29.137,29.137,0,0,0,12.6,33.541v13.97L26.94,63.436h6.244s11.55,4.749,16.207,0a30.554,30.554,0,0,1,11.452-6.8L68.2,47.7l2.42-14.344A29.248,29.248,0,0,0,41.658,7.273" transform="translate(3.047 1.759)" fill="#57dbd8"/>
      <path id="Trazado_752623" data-name="Trazado 752623" d="M22.94,68.014l-2.7-2.7L7.389,43.609,7.2,26.477H8.878c2.42,0,4.1,2.328,4.565,4.749v9.5l3.535,3.725L27.039,54.6l.931-.931-6.336-6.238c-1.581-1.679-1.023-4.755.656-6.336,0,0,.368-.374.466-.374L34.025,51.991l.558,8.2v7.543Z" transform="translate(1.741 6.402)" fill="#fff"/>
      <path id="Trazado_752624" data-name="Trazado 752624" d="M38.574,68.134H36.337v-6.8h-20.3v6.8H13.8V59.1H38.574Z" transform="translate(3.337 14.292)" fill="#1a0f91"/>
      <path id="Trazado_752625" data-name="Trazado 752625" d="M51.319,68.29,54.3,65.312l12.947-21.7.19-17.132H65.755c-2.42,0-4.1,2.328-4.565,4.749v9.5L47.5,54.6l-.931-.931,6.33-6.238c1.587-1.679,1.029-4.755-.649-6.336,0,0-.374-.374-.466-.374L40.609,51.991l-.558,8.2v7.917Z" transform="translate(9.685 6.402)" fill="#fff"/>
      <path id="Trazado_752626" data-name="Trazado 752626" d="M60.25,68.134H58.013v-6.8H37.707v6.8h-2.23V59.1H60.25Z" transform="translate(8.579 14.292)" fill="#1a0f91"/>
      <path id="Trazado_752627" data-name="Trazado 752627" d="M76.527,49.479l.092-18.437-2.7-.1a2.462,2.462,0,0,0-.839.1,31.964,31.964,0,0,0-63.241,0H6.3l.184,18.437L19.524,71.365l1.121,1.121H15.615v9.032h2.237v-6.8h20.3v6.8h2.237V72.487H35.823V66.709a16.907,16.907,0,0,0,5.68,1.023h0a15.94,15.94,0,0,0,5.588-1.023v5.778H42.532v9.032h2.23v-6.8H65.069v6.8h2.237V72.487H62.274l.931-.931ZM70.939,31.973a8.173,8.173,0,0,0-2.053,2.6H60.412a48.876,48.876,0,0,0-1.863-12.665c2.886-.466,5.588-1.115,8.2-1.771a26.964,26.964,0,0,1,4.191,11.832m-7.825,17.7c-.748-3.26-3.352-4.939-3.352-5.122a41.949,41.949,0,0,0,.649-7.733h7.825v9.032l-5.214,5.4a3.088,3.088,0,0,0,.092-1.581m2.42-31.574A62.218,62.218,0,0,1,57.9,19.675C56.037,14.277,53.243,9.9,49.885,7.1A30.4,30.4,0,0,1,65.534,18.094M42.624,6.17c5.5.656,10.245,6.054,13.039,13.878a117.723,117.723,0,0,1-13.039.931Zm0,17.046a93.073,93.073,0,0,0,13.688-1.023,46.485,46.485,0,0,1,1.863,12.383H42.624Zm15.551,13.6A48.27,48.27,0,0,1,56.686,47.99L55.571,49.1a114.946,114.946,0,0,0-12.947-.833V36.813ZM26.135,47.806a52.9,52.9,0,0,1-1.4-10.993H40.479V48.271a114.585,114.585,0,0,0-12.947.931ZM24.646,34.577a46.737,46.737,0,0,1,1.863-12.383,112.1,112.1,0,0,0,13.878,1.023v11.36ZM40.388,6.17V20.98a99.216,99.216,0,0,1-13.131-.931C30.051,12.132,34.891,6.728,40.388,6.17M33.029,7.194c-3.352,2.794-6.054,7.175-7.917,12.481-2.6-.466-5.214-.931-7.635-1.581a29.5,29.5,0,0,1,15.551-10.9M16.172,20.049a74.652,74.652,0,0,0,8.2,1.771,49.207,49.207,0,0,0-1.863,12.665H14.126a6.22,6.22,0,0,0-2.145-2.7,30.53,30.53,0,0,1,4.191-11.734m3.817,31.2-1.955-1.955-3.26-3.45V36.813h7.733a55.422,55.422,0,0,0,.741,7.917,14.834,14.834,0,0,1-1.4,1.115,6.786,6.786,0,0,0-1.863,3.824,8.928,8.928,0,0,0,0,1.581m13.6,21.237H23.715l-2.42-2.427L8.629,48.737l-.19-15.649h.466c1.863,0,3.076,1.863,3.45,3.725v9.871l3.909,4.1,10.9,10.894,2.512-2.512L22.6,52.089a2.782,2.782,0,0,1-.558-2.237,3.973,3.973,0,0,1,.833-2.047L33.12,58.051l.466,7.635Zm2.145-8.29-.466-7.175-5.87-5.864A85.035,85.035,0,0,1,40.388,50.5v15A16.774,16.774,0,0,1,35.731,64.2m11.458,0A13.673,13.673,0,0,1,42.624,65.5V50.41a105.083,105.083,0,0,1,10.986.656l-5.956,5.956ZM61.527,70.06l-2.42,2.427H49.327v-6.8l.558-7.733L59.946,47.806a3.98,3.98,0,0,1,.839,2.047,2.806,2.806,0,0,1-.558,2.237l-7.083,7.077,2.518,2.512L66.649,50.784l3.824-4.1V36.813c.368-1.863,1.673-3.725,3.444-3.725h.466L74.2,48.737Z" transform="translate(1.524 0.907)" fill="#1a0f91"/>
      <path id="Trazado_752628" data-name="Trazado 752628" d="M29.918,2.61A1.1,1.1,0,0,1,28.8,1.679,1.16,1.16,0,0,1,29.735.374c1.4-.19,2.7-.282,4.1-.374a1.075,1.075,0,0,1,1.115,1.115,1.076,1.076,0,0,1-1.115,1.121,24.875,24.875,0,0,0-3.824.374Z" transform="translate(6.962)" fill="#fff"/>
      <path id="Trazado_752629" data-name="Trazado 752629" d="M6.978,26.715a1.152,1.152,0,0,1-.741-1.4A35.331,35.331,0,0,1,27.468,2.034a1.262,1.262,0,0,1,1.489.656,1.255,1.255,0,0,1-.649,1.489,32.67,32.67,0,0,0-19.932,21.7,1.142,1.142,0,0,1-1.4.833" transform="translate(1.496 0.478)" fill="#fff"/>
      <path id="Trazado_752630" data-name="Trazado 752630" d="M6.428,23.951H4.375V21.9H2.145v2.053H0v2.237H2.145v2.138h2.23V26.187H6.428Z" transform="translate(0 5.295)" fill="#fff"/>
    </g>
  </g>
</svg>
