<svg id="Grupo_1021713" data-name="Grupo 1021713" xmlns="http://www.w3.org/2000/svg" xmlns:xlink="http://www.w3.org/1999/xlink" width="75.424" height="76" viewBox="0 0 75.424 76">
  <defs>
    <clipPath id="clip-path">
      <rect id="Rectángulo_358081" data-name="Rectángulo 358081" width="75.424" height="76" fill="none"/>
    </clipPath>
    <clipPath id="clip-path-3">
      <rect id="Rectángulo_358074" data-name="Rectángulo 358074" width="46.949" height="46.943" fill="none"/>
    </clipPath>
  </defs>
  <g id="Grupo_1021712" data-name="Grupo 1021712" clip-path="url(#clip-path)">
    <g id="Grupo_1021711" data-name="Grupo 1021711">
      <g id="Grupo_1021710" data-name="Grupo 1021710" clip-path="url(#clip-path)">
        <g id="Grupo_1021709" data-name="Grupo 1021709" transform="translate(17.506 18.854)" opacity="0.25">
          <g id="Grupo_1021708" data-name="Grupo 1021708">
            <g id="Grupo_1021707" data-name="Grupo 1021707" clip-path="url(#clip-path-3)">
              <path id="Trazado_752567" data-name="Trazado 752567" d="M60.6,38.174a23.471,23.471,0,1,1-6.875-16.6,23.473,23.473,0,0,1,6.875,16.6" transform="translate(-13.648 -14.699)" fill="#fff"/>
            </g>
          </g>
        </g>
        <path id="Trazado_752568" data-name="Trazado 752568" d="M49.885,44.287a3.269,3.269,0,0,0,0-6.538H36.511L37.663,33.7V29.185a4.107,4.107,0,0,0-4.133-4.139H31.986V31.3l-1.633,2.215-5.962,6.544a6.736,6.736,0,0,0-1.734,3.266H17.176v17.7H23.91a7.227,7.227,0,0,0,5.772,2.886H44.594a3.281,3.281,0,0,0,1.152-6.348l.095-.19h1.348A3.244,3.244,0,0,0,50.461,54.1a3.347,3.347,0,0,0-2.12-3.082v-.285a3.288,3.288,0,0,0-.19-6.544h1.734Z" transform="translate(4.856 7.081)" fill="#fff"/>
        <rect id="Rectángulo_358075" data-name="Rectángulo 358075" width="21.265" height="25.684" transform="translate(0.766 49.158)" fill="#57dbd8"/>
        <path id="Trazado_752569" data-name="Trazado 752569" d="M59.165,41.518a4.474,4.474,0,0,0-4.424-4.424H42.905l.772-2.595V29.587A5.277,5.277,0,0,0,38.386,24.3H36.842a1.112,1.112,0,0,0-1.152,1.158v5.867l-1.348,1.924-5.867,6.443a7.754,7.754,0,0,0-1.829,2.886h-.285V41.131H1.152a1.155,1.155,0,0,0,0,2.31H20.873v23.38H1.152a1.155,1.155,0,0,0,0,2.31H23.184V66.245h3.177V62.682h1.823a8.4,8.4,0,0,0,6.354,2.886H49.449a4.412,4.412,0,0,0,4.424-4.424,4.634,4.634,0,0,0-.677-2.31A4.335,4.335,0,0,0,56.563,54.6a4.066,4.066,0,0,0-1.152-2.886,4.458,4.458,0,0,0,2.019-3.652,3.734,3.734,0,0,0-.867-2.5,4.471,4.471,0,0,0,2.6-4.044M24.051,63.935h-.867V43.442h.867Zm30.69-20.3H48.677a1.152,1.152,0,1,0,0,2.3h4.329a2.117,2.117,0,0,1,0,4.234H48.677a1.155,1.155,0,0,0,0,2.31h3.462a2.117,2.117,0,1,1,0,4.234H47.81a1.155,1.155,0,0,0,0,2.31h1.639a2.114,2.114,0,1,1,0,4.228H34.538a5.907,5.907,0,0,1-4.81-2.405l-.386-.481H26.361V44.885h1.152a.989.989,0,0,0,1.057-.962,6.224,6.224,0,0,1,1.538-2.791L36.171,34.5,37.8,32.283a1.691,1.691,0,0,0,.2-.671v-5.1h.386a3,3,0,0,1,2.981,2.981v4.424l-1.158,3.949A1.239,1.239,0,0,0,41.367,39.4H54.741a2.117,2.117,0,0,1,0,4.234" transform="translate(0 6.868)" fill="#1a0f91"/>
        <path id="Trazado_752570" data-name="Trazado 752570" d="M14.581,53.864a2.117,2.117,0,1,1-2.114-2.114,2.114,2.114,0,0,1,2.114,2.114" transform="translate(2.925 14.63)" fill="#fff"/>
        <path id="Trazado_752571" data-name="Trazado 752571" d="M12.721,57.391a3.305,3.305,0,0,1-3.272-3.272,3.244,3.244,0,0,1,3.272-3.272,3.272,3.272,0,0,1,0,6.544m0-4.139a.965.965,0,0,0-.962.962.91.91,0,0,0,.962.962.962.962,0,1,0,0-1.924" transform="translate(2.671 14.374)" fill="#1a0f91"/>
        <path id="Trazado_752572" data-name="Trazado 752572" d="M35.324,30.441h15.2v4.614l4.614-4.614h4.525V13.125H35.324Z" transform="translate(9.986 3.71)" fill="#fff"/>
        <path id="Trazado_752573" data-name="Trazado 752573" d="M49.622,38.1V31.849h-15.2V25.114a1.152,1.152,0,1,1,2.3,0v4.424h15.2v2.981l2.981-2.981h3.848V14.532H43.179a1.155,1.155,0,1,1,0-2.31H61.072V31.849h-5.2Z" transform="translate(9.732 3.455)" fill="#1a0f91"/>
        <path id="Trazado_752574" data-name="Trazado 752574" d="M49.282.9H10.8V28.221h7.215l7.215,7.215V28.221H49.282Z" transform="translate(3.053 0.254)" fill="#57dbd8"/>
        <path id="Trazado_752575" data-name="Trazado 752575" d="M17.79,29.627H9.9V0h40.7V29.627H26.544v8.854Zm-5.582-2.31h6.544L24.328,32.9V27.316H48.379V2.3H12.208Z" transform="translate(2.798)" fill="#1a0f91"/>
        <rect id="Rectángulo_358076" data-name="Rectángulo 358076" width="25.594" height="2.31" transform="translate(20.487 7.791)" fill="#1a0f91"/>
        <rect id="Rectángulo_358077" data-name="Rectángulo 358077" width="25.594" height="2.31" transform="translate(20.487 13.177)" fill="#1a0f91"/>
        <rect id="Rectángulo_358078" data-name="Rectángulo 358078" width="13.373" height="2.31" transform="translate(20.487 18.563)" fill="#1a0f91"/>
        <path id="Trazado_752576" data-name="Trazado 752576" d="M62.617,15.259h-2.31V10.93H45.3V7.949H62.617Z" transform="translate(12.807 2.247)" fill="#fff"/>
        <rect id="Rectángulo_358079" data-name="Rectángulo 358079" width="2.31" height="4.234" transform="translate(73.114 19.044)" fill="#fff"/>
        <path id="Trazado_752577" data-name="Trazado 752577" d="M13.5,27.445H11.285V25.236H8.975v2.209H6.861v2.31H8.975v2.12h2.31v-2.12H13.5Z" transform="translate(1.94 7.134)" fill="#fff"/>
      </g>
    </g>
  </g>
</svg>
