<svg xmlns="http://www.w3.org/2000/svg" xmlns:xlink="http://www.w3.org/1999/xlink" width="190" height="173" viewBox="0 0 190 173">
  <defs>
    <clipPath id="clip-path">
      <rect id="Rectángulo_358120" data-name="Rectángulo 358120" width="173.93" height="173" fill="none"/>
    </clipPath>
    <clipPath id="clip-path-3">
      <rect id="Rectángulo_358107" data-name="Rectángulo 358107" width="12.933" height="25.241" transform="translate(6.585 112.933)" fill="none"/>
    </clipPath>
    <clipPath id="clip-path-4">
      <rect id="Rectángulo_358108" data-name="Rectángulo 358108" width="13.611" height="29.721" transform="translate(129.961 104.454)" fill="none"/>
    </clipPath>
    <clipPath id="clip-path-5">
      <rect id="Rectángulo_358109" data-name="Rectángulo 358109" width="79.703" height="116.81" transform="translate(17.208 24.332)" fill="none"/>
    </clipPath>
    <clipPath id="clip-path-6">
      <rect id="Rectángulo_358110" data-name="Rectángulo 358110" width="85.833" height="115.63" transform="translate(17.208 25.512)" fill="none"/>
    </clipPath>
    <clipPath id="clip-path-7">
      <rect id="Rectángulo_358111" data-name="Rectángulo 358111" width="79.702" height="116.81" transform="translate(29.471 31.412)" fill="none"/>
    </clipPath>
    <clipPath id="clip-path-8">
      <rect id="Rectángulo_358112" data-name="Rectángulo 358112" width="85.833" height="115.631" transform="translate(29.471 32.591)" fill="none"/>
    </clipPath>
    <clipPath id="clip-path-9">
      <rect id="Rectángulo_358113" data-name="Rectángulo 358113" width="79.703" height="116.81" transform="translate(43.775 39.671)" fill="none"/>
    </clipPath>
    <clipPath id="clip-path-10">
      <rect id="Rectángulo_358114" data-name="Rectángulo 358114" width="59.266" height="101.884" transform="translate(66.255)" fill="none"/>
    </clipPath>
    <clipPath id="clip-path-11">
      <rect id="Rectángulo_358115" data-name="Rectángulo 358115" width="20.436" height="35.397" transform="translate(72.386 25.574)" fill="none"/>
    </clipPath>
    <clipPath id="clip-path-12">
      <rect id="Rectángulo_358116" data-name="Rectángulo 358116" width="18.393" height="56.998" transform="translate(63.274 88.225)" fill="none"/>
    </clipPath>
    <clipPath id="clip-path-13">
      <rect id="Rectángulo_358117" data-name="Rectángulo 358117" width="87.878" height="107.371" transform="translate(64.212 65.629)" fill="none"/>
    </clipPath>
    <clipPath id="clip-path-14">
      <rect id="Rectángulo_358118" data-name="Rectángulo 358118" width="24.158" height="39.899" transform="translate(69.312 90.037)" fill="none"/>
    </clipPath>
  </defs>
  <g id="Grupo_1021785" data-name="Grupo 1021785" transform="translate(-705 -7945)">
    <rect id="Rectángulo_357770" data-name="Rectángulo 357770" width="190" height="173" transform="translate(705 7945)" fill="none"/>
    <g id="Grupo_1021784" data-name="Grupo 1021784" transform="translate(713 7945)">
      <g id="Grupo_1021783" data-name="Grupo 1021783" clip-path="url(#clip-path)">
        <path id="Trazado_752804" data-name="Trazado 752804" d="M153.493,106.107l-14.306-8.259V67.17l14.306,8.26Z" fill="#e0e0e0"/>
        <path id="Trazado_752805" data-name="Trazado 752805" d="M153.492,75.43v30.677l20.437-11.8V63.631Z" fill="#ebebeb"/>
        <path id="Trazado_752806" data-name="Trazado 752806" d="M139.187,67.171l14.3,8.259,20.437-11.8-14.306-8.259Z" fill="#f5f5f5"/>
        <path id="Trazado_752807" data-name="Trazado 752807" d="M155.536,76.61l16.349-9.439.376.217V78.751l-16.35,9.439-.376-.217Z" fill="#e0e0e0"/>
        <path id="Trazado_752808" data-name="Trazado 752808" d="M155.912,76.827l16.349-9.439V78.751l-16.35,9.439Z" fill="#f5f5f5"/>
        <g id="Grupo_1021782" data-name="Grupo 1021782">
          <g id="Grupo_1021781" data-name="Grupo 1021781" clip-path="url(#clip-path)">
            <path id="Trazado_752809" data-name="Trazado 752809" d="M162.321,75.053l2.78-1.605c.361-.209.653-.113.653.212a1.309,1.309,0,0,1-.653.968l-2.781,1.605c-.361.208-.653.113-.653-.213a1.308,1.308,0,0,1,.654-.967" fill="#e0e0e0"/>
            <path id="Trazado_752810" data-name="Trazado 752810" d="M155.161,90.988l16.349-9.439V92.912l.375.217-16.349,9.439-.376-.217Z" fill="#e0e0e0"/>
            <path id="Trazado_752811" data-name="Trazado 752811" d="M155.536,91.205l16.349-9.439V93.129l-16.35,9.439Z" fill="#f5f5f5"/>
            <path id="Trazado_752812" data-name="Trazado 752812" d="M161.945,89.431l2.78-1.605c.361-.209.654-.113.654.212a1.311,1.311,0,0,1-.654.968l-2.78,1.605c-.362.208-.654.113-.654-.213a1.31,1.31,0,0,1,.654-.967" fill="#e0e0e0"/>
            <path id="Trazado_752813" data-name="Trazado 752813" d="M17.38,138.174s.059-7.98-4.972-13.962c-4.456-5.3-6.825-8.66-5.418-10.207s4.418-1.922,8.49,2.36,4.387,16.16,3.825,18.847Z" fill="#27debf"/>
            <g id="Grupo_1021747" data-name="Grupo 1021747" opacity="0.2">
              <g id="Grupo_1021746" data-name="Grupo 1021746">
                <g id="Grupo_1021745" data-name="Grupo 1021745" clip-path="url(#clip-path-3)">
                  <path id="Trazado_752814" data-name="Trazado 752814" d="M17.38,138.174s.059-7.98-4.972-13.962c-4.456-5.3-6.825-8.66-5.418-10.207s4.418-1.922,8.49,2.36,4.387,16.16,3.825,18.847Z"/>
                </g>
              </g>
            </g>
            <path id="Trazado_752815" data-name="Trazado 752815" d="M18.247,129.6a.252.252,0,0,1-.246-.2,25.057,25.057,0,0,0-8.82-14.771.252.252,0,0,1,.31-.4,25.572,25.572,0,0,1,9,15.063.252.252,0,0,1-.193.3.326.326,0,0,1-.053.005" fill="#fff"/>
            <path id="Trazado_752816" data-name="Trazado 752816" d="M17.208,141.142l-2.044,1.18a3.7,3.7,0,0,0-2.759-2.36c-2.236-.524-4.563-.419-6.13-2.36s.341-4.052,0-5.482-.568-1.842-3.373-3.269-3.914-3.8-1.8-5.407,5.543-.427,7.609.983a11.69,11.69,0,0,0,5.648,1.843c2.054.252,5.409,1.4,4.9,6.18a37.694,37.694,0,0,1-2.044,8.692" fill="#27debf"/>
            <path id="Trazado_752817" data-name="Trazado 752817" d="M9.336,134.856a.251.251,0,0,1-.077-.491c.185-.059,4.539-1.433,6.378.043a.252.252,0,0,1-.315.393c-1.631-1.31-5.867.029-5.909.043a.262.262,0,0,1-.077.012" fill="#fff"/>
            <path id="Trazado_752818" data-name="Trazado 752818" d="M17.439,140.755a.252.252,0,0,1-.25-.225c-1.12-10.6-13.883-15.621-14.012-15.671a.252.252,0,1,1,.18-.47c.132.051,13.179,5.185,14.332,16.088a.252.252,0,0,1-.223.277h-.027" fill="#fff"/>
            <path id="Trazado_752819" data-name="Trazado 752819" d="M142.574,134.175c.058-.172,2.216-11.285,0-19.163-2.032-7.224-4.638-9.89-8.38-10.478s-5.366,2.107-3.379,5.758,6.769,8.5,7.944,16.661c.484,3.358.886,6.277.886,6.277Z" fill="#27debf"/>
            <g id="Grupo_1021750" data-name="Grupo 1021750" opacity="0.2">
              <g id="Grupo_1021749" data-name="Grupo 1021749">
                <g id="Grupo_1021748" data-name="Grupo 1021748" clip-path="url(#clip-path-4)">
                  <path id="Trazado_752820" data-name="Trazado 752820" d="M142.574,134.175c.058-.172,2.216-11.285,0-19.163-2.032-7.224-4.638-9.89-8.38-10.478s-5.366,2.107-3.379,5.758,6.769,8.5,7.944,16.661c.484,3.358.886,6.277.886,6.277Z"/>
                </g>
              </g>
            </g>
            <path id="Trazado_752821" data-name="Trazado 752821" d="M141.315,127.8H141.3a.25.25,0,0,1-.237-.265c.515-8.994-2.436-17.026-7.7-20.962a.251.251,0,1,1,.3-.4c5.4,4.035,8.427,12.233,7.9,21.394a.25.25,0,0,1-.251.237" fill="#fff"/>
            <path id="Trazado_752822" data-name="Trazado 752822" d="M148.368,139.963c-.289-2.065.9-5.168,3.721-5.9s4.082-2.356,3.063-4.127-.779-3.4,1.783-4.132,4.805-2.023,3.328-4.719c-1.07-1.956-1.307-3.222,1.319-7.08,2.178-3.2.4-5.075-2.331-4.719s-4.41,3.6-6.113,4.145-2.1-2.358-4.35-1.06-2.11,4.625-2.181,6.943-.223,2.845-2.257,2.56-4.017.052-3.978,4.967c.033,4.219,2.285,9.44,2.285,9.44Z" fill="#27debf"/>
            <path id="Trazado_752823" data-name="Trazado 752823" d="M144.8,136.817l-.029,0a.252.252,0,0,1-.222-.278c1.417-12.676,12.3-23.364,15.132-25.533a.252.252,0,0,1,.3.4c-2.8,2.141-13.54,12.69-14.936,25.189a.253.253,0,0,1-.25.224" fill="#fff"/>
            <path id="Trazado_752824" data-name="Trazado 752824" d="M149.761,123.27a.251.251,0,0,1-.088-.487,19.689,19.689,0,0,1,8.85-.768.252.252,0,0,1,.208.289.255.255,0,0,1-.288.208,19.544,19.544,0,0,0-8.594.742.248.248,0,0,1-.088.016" fill="#fff"/>
            <path id="Trazado_752825" data-name="Trazado 752825" d="M146.148,130.885a.253.253,0,0,1-.189-.085,14.8,14.8,0,0,1-3.314-6.877.251.251,0,0,1,.5-.076,14.554,14.554,0,0,0,3.2,6.62.251.251,0,0,1-.189.418" fill="#fff"/>
            <path id="Trazado_752826" data-name="Trazado 752826" d="M17.208,63.269v77.874l79.7-46.016V24.332L37.645,58.549,35.6,52.65Z" fill="#27debf"/>
            <g id="Grupo_1021753" data-name="Grupo 1021753" opacity="0.7">
              <g id="Grupo_1021752" data-name="Grupo 1021752">
                <g id="Grupo_1021751" data-name="Grupo 1021751" clip-path="url(#clip-path-5)">
                  <path id="Trazado_752827" data-name="Trazado 752827" d="M17.208,63.269v77.874l79.7-46.016V24.332L37.645,58.549,35.6,52.65Z"/>
                </g>
              </g>
            </g>
            <path id="Trazado_752828" data-name="Trazado 752828" d="M17.208,141.142,21.3,70.348,101,24.331,96.911,95.126Z" fill="#e0e0e0"/>
            <path id="Trazado_752829" data-name="Trazado 752829" d="M17.208,141.142l6.13-69.614,79.7-46.017-6.13,69.615Z" fill="#27debf"/>
            <g id="Grupo_1021756" data-name="Grupo 1021756" opacity="0.7">
              <g id="Grupo_1021755" data-name="Grupo 1021755">
                <g id="Grupo_1021754" data-name="Grupo 1021754" clip-path="url(#clip-path-6)">
                  <path id="Trazado_752830" data-name="Trazado 752830" d="M17.208,141.142l6.13-69.614,79.7-46.017-6.13,69.615Z"/>
                </g>
              </g>
            </g>
            <path id="Trazado_752831" data-name="Trazado 752831" d="M29.471,70.348v77.874l79.7-46.016V31.411L49.908,65.629l-2.044-5.9Z" fill="#27debf"/>
            <g id="Grupo_1021759" data-name="Grupo 1021759" opacity="0.5">
              <g id="Grupo_1021758" data-name="Grupo 1021758">
                <g id="Grupo_1021757" data-name="Grupo 1021757" clip-path="url(#clip-path-7)">
                  <path id="Trazado_752832" data-name="Trazado 752832" d="M29.471,70.348v77.874l79.7-46.016V31.411L49.908,65.629l-2.044-5.9Z"/>
                </g>
              </g>
            </g>
            <path id="Trazado_752833" data-name="Trazado 752833" d="M29.471,148.222l4.087-70.794,79.7-46.017-4.086,70.795Z" fill="#e0e0e0"/>
            <path id="Trazado_752834" data-name="Trazado 752834" d="M29.471,148.222,35.6,78.608l79.7-46.017-6.13,69.615Z" fill="#27debf"/>
            <g id="Grupo_1021762" data-name="Grupo 1021762" opacity="0.5">
              <g id="Grupo_1021761" data-name="Grupo 1021761">
                <g id="Grupo_1021760" data-name="Grupo 1021760" clip-path="url(#clip-path-8)">
                  <path id="Trazado_752835" data-name="Trazado 752835" d="M29.471,148.222,35.6,78.608l79.7-46.017-6.13,69.615Z"/>
                </g>
              </g>
            </g>
            <path id="Trazado_752836" data-name="Trazado 752836" d="M96.911,173c-14.306-8.26-27.578-17.239-33.637-27.776L81.667,134.6Z" fill="#e0e0e0"/>
            <path id="Trazado_752837" data-name="Trazado 752837" d="M43.775,78.607v77.874l79.7-46.016V39.67L64.212,73.887l-2.044-5.9Z" fill="#27debf"/>
            <g id="Grupo_1021765" data-name="Grupo 1021765" opacity="0.2">
              <g id="Grupo_1021764" data-name="Grupo 1021764">
                <g id="Grupo_1021763" data-name="Grupo 1021763" clip-path="url(#clip-path-9)">
                  <path id="Trazado_752838" data-name="Trazado 752838" d="M43.775,78.607v77.874l79.7-46.016V39.67L64.212,73.887l-2.044-5.9Z"/>
                </g>
              </g>
            </g>
            <path id="Trazado_752839" data-name="Trazado 752839" d="M66.737,101.632c-.2,0-.231-.232-.231-.37V34.839a1.675,1.675,0,0,1,.746-1.291L124.775.337a.55.55,0,0,1,.264-.085c.2,0,.231.232.231.37V67.044a1.677,1.677,0,0,1-.746,1.292L67,101.547a.544.544,0,0,1-.263.085" fill="#fff"/>
            <path id="Trazado_752840" data-name="Trazado 752840" d="M125.006.509a.468.468,0,0,1,.012.113V67.044a1.436,1.436,0,0,1-.62,1.074L66.875,101.329a.421.421,0,0,1-.1.046.413.413,0,0,1-.013-.113V34.839a1.439,1.439,0,0,1,.62-1.073L124.9.555a.44.44,0,0,1,.1-.046M125.039,0a.788.788,0,0,0-.389.119L67.126,33.33a1.927,1.927,0,0,0-.871,1.509v66.423c0,.394.2.622.482.622a.792.792,0,0,0,.389-.119L124.65,68.554a1.927,1.927,0,0,0,.871-1.51V.622c0-.394-.2-.622-.482-.622" fill="#27debf"/>
            <g id="Grupo_1021768" data-name="Grupo 1021768" opacity="0.7">
              <g id="Grupo_1021767" data-name="Grupo 1021767">
                <g id="Grupo_1021766" data-name="Grupo 1021766" clip-path="url(#clip-path-10)">
                  <path id="Trazado_752841" data-name="Trazado 752841" d="M125.006.509a.468.468,0,0,1,.012.113V67.044a1.436,1.436,0,0,1-.62,1.074L66.875,101.329a.421.421,0,0,1-.1.046.413.413,0,0,1-.013-.113V34.839a1.439,1.439,0,0,1,.62-1.073L124.9.555a.44.44,0,0,1,.1-.046M125.039,0a.788.788,0,0,0-.389.119L67.126,33.33a1.927,1.927,0,0,0-.871,1.509v66.423c0,.394.2.622.482.622a.792.792,0,0,0,.389-.119L124.65,68.554a1.927,1.927,0,0,0,.871-1.51V.622c0-.394-.2-.622-.482-.622" fill="#fff"/>
                </g>
              </g>
            </g>
            <path id="Trazado_752842" data-name="Trazado 752842" d="M72.386,37.373l20.436-11.8v23.6l-20.436,11.8Z" fill="#27debf"/>
            <g id="Grupo_1021771" data-name="Grupo 1021771" opacity="0.8">
              <g id="Grupo_1021770" data-name="Grupo 1021770">
                <g id="Grupo_1021769" data-name="Grupo 1021769" clip-path="url(#clip-path-11)">
                  <path id="Trazado_752843" data-name="Trazado 752843" d="M72.386,37.373l20.436-11.8v23.6l-20.436,11.8Z" fill="#fff"/>
                </g>
              </g>
            </g>
            <path id="Trazado_752844" data-name="Trazado 752844" d="M96.91,24.394c0,.652.586.842,1.307.425L118.083,13.35a2.617,2.617,0,0,0,1.307-1.935c0-.651-.585-.842-1.307-.425L98.217,22.459a2.619,2.619,0,0,0-1.307,1.935" fill="#455a64"/>
            <path id="Trazado_752845" data-name="Trazado 752845" d="M96.91,31.473c0,.652.586.842,1.307.425l19.866-11.469a2.617,2.617,0,0,0,1.307-1.935c0-.651-.585-.842-1.307-.425L98.217,29.538a2.619,2.619,0,0,0-1.307,1.935" fill="#455a64"/>
            <path id="Trazado_752846" data-name="Trazado 752846" d="M96.91,38.553c0,.652.586.842,1.307.425l19.866-11.469a2.617,2.617,0,0,0,1.307-1.935c0-.651-.585-.842-1.307-.425L98.217,36.618a2.619,2.619,0,0,0-1.307,1.935" fill="#455a64"/>
            <path id="Trazado_752847" data-name="Trazado 752847" d="M96.91,45.632c0,.652.586.842,1.307.425l19.866-11.469a2.617,2.617,0,0,0,1.307-1.935c0-.651-.585-.842-1.307-.425L98.217,43.7a2.619,2.619,0,0,0-1.307,1.935" fill="#455a64"/>
            <path id="Trazado_752848" data-name="Trazado 752848" d="M72.386,66.873c0,.652.585.842,1.307.425l44.39-25.63a2.617,2.617,0,0,0,1.307-1.935c0-.651-.585-.842-1.307-.425l-44.39,25.63a2.617,2.617,0,0,0-1.307,1.935" fill="#455a64"/>
            <path id="Trazado_752849" data-name="Trazado 752849" d="M72.386,73.952c0,.652.585.842,1.307.425l44.39-25.63a2.617,2.617,0,0,0,1.307-1.935c0-.652-.585-.842-1.307-.425l-44.39,25.63a2.617,2.617,0,0,0-1.307,1.935" fill="#455a64"/>
            <path id="Trazado_752850" data-name="Trazado 752850" d="M72.386,81.032c0,.652.585.842,1.307.425l44.39-25.63a2.617,2.617,0,0,0,1.307-1.935c0-.652-.585-.842-1.307-.425L73.693,79.1a2.617,2.617,0,0,0-1.307,1.935" fill="#455a64"/>
            <path id="Trazado_752851" data-name="Trazado 752851" d="M43.776,156.481,58.081,93.946l79.7-46.016-14.305,62.535Z" fill="#27debf"/>
            <path id="Trazado_752852" data-name="Trazado 752852" d="M63.274,98.844v46.38L81.667,134.6V88.225Z" fill="#27debf"/>
            <g id="Grupo_1021774" data-name="Grupo 1021774" opacity="0.2">
              <g id="Grupo_1021773" data-name="Grupo 1021773">
                <g id="Grupo_1021772" data-name="Grupo 1021772" clip-path="url(#clip-path-12)">
                  <path id="Trazado_752853" data-name="Trazado 752853" d="M63.274,98.844v46.38L81.667,134.6V88.225Z"/>
                </g>
              </g>
            </g>
            <path id="Trazado_752854" data-name="Trazado 752854" d="M96.928,172.7c-1.563-1.164-16.645-12.694-24.313-29.161-8.161-17.528-8.154-37.972-8.151-45.668v-.24L119.14,66.065c0,7.765.007,28.239,8.2,45.829,7.489,16.084,21.995,27.482,24.295,29.222Z" fill="#fff"/>
            <path id="Trazado_752855" data-name="Trazado 752855" d="M118.888,66.5c0,8.089.157,28.18,8.222,45.5,7.238,15.543,21,26.723,24.071,29.086L96.946,172.4c-2.12-1.6-16.636-12.931-24.1-28.966-8.138-17.477-8.13-37.881-8.128-45.562v-.094Zm.5-.871L64.212,97.486c0,7.238-.153,28.274,8.175,46.16C80.562,161.2,96.911,173,96.911,173l55.179-31.857s-16.349-11.8-24.524-29.355c-8.328-17.885-8.175-38.921-8.175-46.159" fill="#27debf"/>
            <g id="Grupo_1021777" data-name="Grupo 1021777" opacity="0.7">
              <g id="Grupo_1021776" data-name="Grupo 1021776">
                <g id="Grupo_1021775" data-name="Grupo 1021775" clip-path="url(#clip-path-13)">
                  <path id="Trazado_752856" data-name="Trazado 752856" d="M118.888,66.5c0,8.089.157,28.18,8.222,45.5,7.238,15.543,21,26.723,24.071,29.086L96.946,172.4c-2.12-1.6-16.636-12.931-24.1-28.966-8.138-17.477-8.13-37.881-8.128-45.562v-.094Zm.5-.871L64.212,97.486c0,7.238-.153,28.274,8.175,46.16C80.562,161.2,96.911,173,96.911,173l55.179-31.857s-16.349-11.8-24.524-29.355c-8.328-17.885-8.175-38.921-8.175-46.159" fill="#fff"/>
                </g>
              </g>
            </g>
            <path id="Trazado_752857" data-name="Trazado 752857" d="M113.151,76.31,95.7,86.385a2.482,2.482,0,0,0-1.267,1.909c.024.638.633.817,1.356.4l17.45-10.075A2.471,2.471,0,0,0,114.5,76.71c-.024-.638-.625-.817-1.347-.4" fill="#455a64"/>
            <path id="Trazado_752858" data-name="Trazado 752858" d="M113.522,83.175,96.071,93.25a2.321,2.321,0,0,0-1.215,1.88c.054.62.688.785,1.409.368l17.452-10.076a2.3,2.3,0,0,0,1.2-1.877c-.053-.621-.677-.787-1.4-.37" fill="#455a64"/>
            <path id="Trazado_752859" data-name="Trazado 752859" d="M114.22,89.852,96.769,99.927a2.152,2.152,0,0,0-1.157,1.846c.086.6.746.752,1.467.335l17.452-10.076a2.137,2.137,0,0,0,1.146-1.844c-.086-.6-.735-.753-1.457-.336" fill="#455a64"/>
            <path id="Trazado_752860" data-name="Trazado 752860" d="M115.266,96.328,97.815,106.4a1.994,1.994,0,0,0-1.1,1.812c.119.584.806.717,1.528.3l17.45-10.075a1.976,1.976,0,0,0,1.087-1.809c-.118-.584-.794-.72-1.516-.3" fill="#455a64"/>
            <path id="Trazado_752861" data-name="Trazado 752861" d="M116.685,102.588,99.233,112.663a1.83,1.83,0,0,0-1.032,1.775c.153.562.87.679,1.592.262l17.451-10.075a1.814,1.814,0,0,0,1.021-1.772c-.155-.562-.859-.682-1.58-.265" fill="#455a64"/>
            <path id="Trazado_752862" data-name="Trazado 752862" d="M118.5,108.619,75.969,133.175a1.66,1.66,0,0,0-.961,1.733c.195.539.945.636,1.667.219l42.532-24.555a1.646,1.646,0,0,0,.947-1.729c-.195-.539-.931-.641-1.653-.224" fill="#455a64"/>
            <path id="Trazado_752863" data-name="Trazado 752863" d="M120.767,114.379,78.235,138.935c-.722.417-1.118,1.173-.879,1.687s1.021.591,1.743.174l42.532-24.556c.722-.417,1.11-1.169.871-1.683s-1.013-.6-1.735-.178" fill="#455a64"/>
            <path id="Trazado_752864" data-name="Trazado 752864" d="M123.541,119.87,81.009,144.426c-.722.416-1.081,1.152-.8,1.639s1.11.539,1.832.122l42.532-24.556c.722-.417,1.068-1.145.782-1.632s-1.1-.546-1.819-.129" fill="#455a64"/>
            <path id="Trazado_752865" data-name="Trazado 752865" d="M126.815,125.059,84.283,149.615c-.722.416-1.046,1.133-.716,1.594a1.506,1.506,0,0,0,1.908.077l42.532-24.556c.722-.417,1.035-1.125.706-1.586a1.492,1.492,0,0,0-1.9-.085" fill="#455a64"/>
            <path id="Trazado_752866" data-name="Trazado 752866" d="M130.527,129.994,88,154.55c-.722.417-1.014,1.115-.647,1.555a1.652,1.652,0,0,0,1.977.036l42.532-24.555c.722-.417,1.005-1.107.638-1.546a1.636,1.636,0,0,0-1.968-.046" fill="#455a64"/>
            <path id="Trazado_752867" data-name="Trazado 752867" d="M134.638,134.7,92.107,159.253c-.723.417-.986,1.1-.583,1.518a1.8,1.8,0,0,0,2.04,0L136.1,136.216c.722-.417.977-1.091.574-1.51a1.782,1.782,0,0,0-2.032-.009" fill="#455a64"/>
            <path id="Trazado_752868" data-name="Trazado 752868" d="M139.135,139.187,96.6,163.743c-.722.416-.957,1.082-.52,1.482a1.953,1.953,0,0,0,2.1-.036l42.532-24.556c.721-.417.948-1.074.511-1.474a1.935,1.935,0,0,0-2.094.028" fill="#455a64"/>
            <path id="Trazado_752869" data-name="Trazado 752869" d="M89.377,90.037,69.312,101.622A117.044,117.044,0,0,0,73.4,129.936L93.47,118.351a117.043,117.043,0,0,1-4.093-28.314" fill="#27debf"/>
            <g id="Grupo_1021780" data-name="Grupo 1021780" opacity="0.8">
              <g id="Grupo_1021779" data-name="Grupo 1021779">
                <g id="Grupo_1021778" data-name="Grupo 1021778" clip-path="url(#clip-path-14)">
                  <path id="Trazado_752870" data-name="Trazado 752870" d="M89.377,90.037,69.312,101.622A117.044,117.044,0,0,0,73.4,129.936L93.47,118.351a117.043,117.043,0,0,1-4.093-28.314" fill="#fff"/>
                </g>
              </g>
            </g>
          </g>
        </g>
      </g>
    </g>
  </g>
</svg>
