<svg xmlns="http://www.w3.org/2000/svg" width="166" height="166" viewBox="0 0 166 166">
  <g id="Grupo_1024765" data-name="Grupo 1024765" transform="translate(-1131 -4146)">
    <circle id="Elipse_8445" data-name="Elipse 8445" cx="83" cy="83" r="83" transform="translate(1131 4146)" fill="#fff" opacity="0.45"/>
    <circle id="Elipse_8446" data-name="Elipse 8446" cx="67" cy="67" r="67" transform="translate(1147 4162)" fill="#fff"/>
    <g id="_036-craner" data-name="036-craner" transform="translate(1175 4192)">
      <ellipse id="Elipse_8534" data-name="Elipse 8534" cx="22.727" cy="22.727" rx="22.727" ry="22.727" transform="translate(18.908 2.608)" fill="#e9eaec"/>
      <g id="Grupo_1021673" data-name="Grupo 1021673" transform="translate(1.118 0)">
        <path id="Trazado_752481" data-name="Trazado 752481" d="M4.6,81.6v-35.4L29.563,39.5l51.7,8.2V81.6Z" transform="translate(-4.6 -8.11)" fill="#c4f2f1"/>
        <path id="Trazado_752482" data-name="Trazado 752482" d="M50.643,21.9H43.471L39,7H55.114Z" transform="translate(-6.958 -5.882)" fill="#fff"/>
        <path id="Trazado_752483" data-name="Trazado 752483" d="M51.372,22.939,56.495,5.8H37.4l5.123,17.139H45.6L45.5,26.013h1.118a2.329,2.329,0,0,1,0,4.657,2.427,2.427,0,0,1-2.049-1.211,1.086,1.086,0,1,0-1.863,1.118,4.727,4.727,0,0,0,4.005,2.235,4.572,4.572,0,0,0,4.564-4.564,4.694,4.694,0,0,0-3.446-4.471v-.838ZM44.2,20.7,40.381,7.942H53.514L49.7,20.7h-1.77l.093-2.329a1.118,1.118,0,0,0-2.235,0L45.69,20.7Z" transform="translate(-6.848 -5.8)" fill="#445976"/>
      </g>
      <g id="Grupo_1021674" data-name="Grupo 1021674" transform="translate(0 19.826)">
        <path id="Trazado_752484" data-name="Trazado 752484" d="M76.985,45.076,42.8,27.192a1.521,1.521,0,0,0-1.118,0L16.068,41.071C9.641,42.841,3.4,44.517,3.4,44.517V81.868H82.2V45.914s-2.049-.279-5.216-.838ZM13.739,79.633h-8.2V46.194l8.2-2.235Zm14.624,0H15.975V43.306L28.363,39.86Zm1.118-42.195c-.093,0-1.77.466-4.192,1.118l16.952-9.128L69.813,43.958c-15.462-2.515-40.239-6.52-40.332-6.52ZM79.965,79.633H30.6V39.86l49.367,7.917Z" transform="translate(-3.4 -27.085)" fill="#445976"/>
        <path id="Trazado_752485" data-name="Trazado 752485" d="M19.618,65.927a1.133,1.133,0,0,0,1.118-1.118V60.618a1.118,1.118,0,0,0-2.235,0v4.192A1.076,1.076,0,0,0,19.618,65.927Z" transform="translate(-4.435 -29.306)" fill="#445976"/>
        <path id="Trazado_752486" data-name="Trazado 752486" d="M12.218,60.9A1.076,1.076,0,0,0,11.1,62.018v2.888a1.076,1.076,0,0,0,1.118,1.118,1.133,1.133,0,0,0,1.118-1.118V62.018A1.076,1.076,0,0,0,12.218,60.9Z" transform="translate(-3.928 -29.402)" fill="#445976"/>
        <path id="Trazado_752487" data-name="Trazado 752487" d="M81.108,79.171a1.133,1.133,0,0,0,1.118-1.118,1.076,1.076,0,0,0-1.118-1.118.4.4,0,0,1-.373-.373V54.208a.4.4,0,0,1,.373-.373,1.118,1.118,0,0,0,0-2.235A2.665,2.665,0,0,0,78.5,54.208V76.563A2.665,2.665,0,0,0,81.108,79.171Z" transform="translate(-8.548 -28.765)" fill="#445976"/>
        <path id="Trazado_752488" data-name="Trazado 752488" d="M58.294,78.952a1.133,1.133,0,0,0,1.118-1.118,1.076,1.076,0,0,0-1.118-1.118.6.6,0,0,1-.559-.559V51.194a.6.6,0,0,1,.559-.559,1.118,1.118,0,0,0,0-2.235A2.8,2.8,0,0,0,55.5,51.194V76.157A2.8,2.8,0,0,0,58.294,78.952Z" transform="translate(-6.971 -28.546)" fill="#445976"/>
        <path id="Trazado_752489" data-name="Trazado 752489" d="M50.588,78.856a1.133,1.133,0,0,0,1.118-1.118,1.076,1.076,0,0,0-1.118-1.118.637.637,0,0,1-.652-.652V49.888a.637.637,0,0,1,.652-.652,1.118,1.118,0,0,0,0-2.235A2.9,2.9,0,0,0,47.7,49.888V75.968A2.9,2.9,0,0,0,50.588,78.856Z" transform="translate(-6.437 -28.45)" fill="#445976"/>
        <path id="Trazado_752490" data-name="Trazado 752490" d="M41.488,78.76a1.118,1.118,0,0,0,0-2.235.72.72,0,0,1-.652-.745v-27.2a.664.664,0,0,1,.652-.745,1.118,1.118,0,1,0,0-2.235A2.984,2.984,0,0,0,38.6,48.581v27.2A2.923,2.923,0,0,0,41.488,78.76Z" transform="translate(-5.813 -28.354)" fill="#445976"/>
        <path id="Trazado_752491" data-name="Trazado 752491" d="M74,79.1a1.057,1.057,0,0,0,1.118-1.025A1.076,1.076,0,0,0,74,76.96a.44.44,0,0,1-.466-.466V53.3A.44.44,0,0,1,74,52.835,1.118,1.118,0,1,0,74,50.6a2.7,2.7,0,0,0-2.7,2.7V76.4A2.7,2.7,0,0,0,74,79.1Z" transform="translate(-8.054 -28.696)" fill="#445976"/>
        <path id="Trazado_752492" data-name="Trazado 752492" d="M66.1,79.041a1.118,1.118,0,0,0,0-2.235.44.44,0,0,1-.466-.466V52.4a.44.44,0,0,1,.466-.466,1.118,1.118,0,0,0,0-2.235,2.7,2.7,0,0,0-2.7,2.7V76.34A2.7,2.7,0,0,0,66.1,79.041Z" transform="translate(-7.513 -28.635)" fill="#445976"/>
      </g>
      <g id="Grupo_1021675" data-name="Grupo 1021675" transform="translate(8.197 5.03)">
        <path id="Trazado_752493" data-name="Trazado 752493" d="M18.627,32.242H16.578V30.1H14.342v2.142H12.2v2.235h2.142v2.049h2.235V34.478h2.049Z" transform="translate(-12.2 -12.496)" fill="#bcc0c3"/>
        <path id="Trazado_752494" data-name="Trazado 752494" d="M68.427,13.249H66.285V11.2H64.049v2.049H62v2.235h2.049v2.142h2.235V15.485h2.142Z" transform="translate(-15.614 -11.2)" fill="#bcc0c3"/>
      </g>
    </g>
  </g>
</svg>
