<svg xmlns="http://www.w3.org/2000/svg" width="166" height="166" viewBox="0 0 166 166">
  <g id="Grupo_1024763" data-name="Grupo 1024763" transform="translate(-304 -4146)">
    <g id="Grupo_1024762" data-name="Grupo 1024762">
      <circle id="Elipse_8441" data-name="Elipse 8441" cx="83" cy="83" r="83" transform="translate(304 4146)" fill="#fff" opacity="0.45"/>
      <circle id="Elipse_8442" data-name="Elipse 8442" cx="67" cy="67" r="67" transform="translate(320 4162)" fill="#fff"/>
    </g>
    <g id="_023-locations" data-name="023-locations" transform="translate(350 4190)">
      <path id="Trazado_752495" data-name="Trazado 752495" d="M30.552,0A30.552,30.552,0,1,1,0,30.552,30.552,30.552,0,0,1,30.552,0Z" transform="translate(4.378 16.3)" fill="#c4f2f1"/>
      <path id="Trazado_752451" data-name="Trazado 752451" d="M24.276,46A8.507,8.507,0,0,0,15.8,54.476c0,4.657,8.476,11.829,8.476,11.829s8.476-7.172,8.476-11.829A8.507,8.507,0,0,0,24.276,46Zm0,12.668a4.192,4.192,0,1,1,4.192-4.192A4.174,4.174,0,0,1,24.276,58.668Z" transform="translate(-7.883 -6.879)" fill="#fff"/>
      <path id="Trazado_752452" data-name="Trazado 752452" d="M62.142,11.3A15.782,15.782,0,0,0,46.4,27.042c0,8.663,15.742,22.075,15.742,22.075S77.883,35.7,77.883,27.042A15.782,15.782,0,0,0,62.142,11.3Zm0,23.566a7.824,7.824,0,1,1,7.824-7.824,7.871,7.871,0,0,1-7.824,7.824Z" transform="translate(-9.98 -4.5)" fill="#fff"/>
      <path id="Trazado_752453" data-name="Trazado 752453" d="M83.714,35.295a.84.84,0,0,1-.466-.093,1.259,1.259,0,0,1-.652-1.49,13.58,13.58,0,0,0,.652-1.77,1.12,1.12,0,0,1,2.142.652c-.186.652-.466,1.4-.652,2.049a1.145,1.145,0,0,1-1.025.652Z" transform="translate(-12.457 -5.861)" fill="#445976"/>
      <path id="Trazado_752454" data-name="Trazado 752454" d="M84.67,28.092a1.155,1.155,0,0,1-1.118-1.211,16.31,16.31,0,0,0-5.682-13.227,1.122,1.122,0,0,1,1.49-1.677,18.472,18.472,0,0,1,6.52,15,1.286,1.286,0,0,1-1.211,1.118Z" transform="translate(-12.11 -4.526)" fill="#445976"/>
      <path id="Trazado_752455" data-name="Trazado 752455" d="M36.32,6.142H34.178V4H31.942V6.142H29.8V8.378h2.142v2.049h2.235V8.378H36.32Z" transform="translate(-8.842 -4)" fill="#bcc0c3"/>
      <g id="Grupo_1021657" data-name="Grupo 1021657" transform="translate(0 2.235)">
        <g id="Grupo_1021656" data-name="Grupo 1021656">
          <path id="Trazado_752456" data-name="Trazado 752456" d="M76.321,26.985A16.855,16.855,0,0,0,59.461,10.126,16.606,16.606,0,0,0,46.328,16.46a37.7,37.7,0,0,0-5.589-.466,34.844,34.844,0,0,0-14.158,3.074C27.885,17.391,29,15.435,29,13.852a7.452,7.452,0,1,0-14.9,0c0,3.353,4.378,7.638,6.148,9.221a32.614,32.614,0,0,0-7.452,8.1,33.883,33.883,0,0,0-5.5,18.35h0a33.532,33.532,0,1,0,67.065,0,32.294,32.294,0,0,0-2.329-12.2c2.422-3.54,4.285-7.172,4.285-10.339ZM16.242,13.758a5.216,5.216,0,1,1,10.432,0c0,1.956-2.981,5.4-5.216,7.452-2.235-2.049-5.216-5.5-5.216-7.452Zm43.219-1.4A14.649,14.649,0,0,1,74.085,26.985c0,3.26-2.608,7.917-7.545,13.506a97.756,97.756,0,0,1-7.079,7.079,97.757,97.757,0,0,1-7.079-7.079c-4.937-5.589-7.545-10.246-7.545-13.506a15.173,15.173,0,0,1,2.142-7.638c.186-.186.559-.931.931-1.3a14.7,14.7,0,0,1,11.55-5.682ZM16.335,49.713a7.469,7.469,0,0,1,6.241-5.589,5.729,5.729,0,0,1,1.211-.093,7.559,7.559,0,0,1,7.358,5.775,7.091,7.091,0,0,1,.279,1.956c0,3.074-4.564,8.011-7.638,10.8-2.794-2.515-7.731-7.731-7.731-10.9A7.091,7.091,0,0,1,16.335,49.713Zm40.611-1.4H41.857V36.3c1.4,0,2.794-.093,4.378-.093,3.26,4.937,8.2,9.687,10.712,12.109ZM25.091,35a106.651,106.651,0,0,0,14.531,1.211V48.222H33.008A9.979,9.979,0,0,0,23.6,41.609,52.324,52.324,0,0,1,25.091,35Zm8.476,16.673a4.535,4.535,0,0,0-.093-1.118h6.148V62.567a111.71,111.71,0,0,0-13.786.931c2.7-2.515,7.731-7.824,7.731-11.829Zm8.29,28.968V64.8a114.487,114.487,0,0,1,13.879.931C52.662,74.489,47.539,79.985,41.857,80.637ZM39.621,33.971a97.348,97.348,0,0,1-13.879-1.025c3.074-8.663,8.2-14.158,13.879-14.81Zm0,30.924V80.73c-5.682-.652-10.8-6.148-13.879-14.81A96.345,96.345,0,0,1,39.621,64.9Zm16.766-1.211A106.72,106.72,0,0,0,41.857,62.66V50.551H58.344a50.261,50.261,0,0,1-1.956,13.133ZM44.838,33.971c-1.025,0-2.049.093-2.981.093V18.229a10.373,10.373,0,0,1,2.794.745A16.785,16.785,0,0,0,42.6,26.985,15.65,15.65,0,0,0,44.838,33.971ZM31.8,19.44c-3.446,2.888-6.334,7.452-8.29,13.32q-4.331-.7-8.1-1.677A31.185,31.185,0,0,1,31.8,19.44ZM14.1,33.04c2.7.745,5.589,1.3,8.756,1.863a54.535,54.535,0,0,0-1.49,6.986v.186a9.838,9.838,0,0,0-6.986,6.241H9.442A31.856,31.856,0,0,1,14.1,33.04ZM9.442,50.551h4.471c0,.373-.093.745-.093,1.118,0,4.471,6.054,10.339,8.383,12.481a65.078,65.078,0,0,0-8.1,1.77A31.3,31.3,0,0,1,9.442,50.551ZM15.4,67.783q3.772-.978,8.1-1.677c1.956,5.775,4.844,10.339,8.29,13.32A31.482,31.482,0,0,1,15.4,67.783ZM49.588,79.426c3.446-2.888,6.334-7.452,8.29-13.32q4.331.7,8.1,1.677A30.766,30.766,0,0,1,49.588,79.426Zm17.791-13.6c-2.7-.745-5.589-1.3-8.756-1.863a52.406,52.406,0,0,0,1.956-13.413H72.036A32.658,32.658,0,0,1,67.379,65.827Zm4.657-17.511H61.976a83.081,83.081,0,0,0,8.383-8.942,36.127,36.127,0,0,1,1.677,8.942Z" transform="translate(-7.3 -6.4)" fill="#445976"/>
          <path id="Trazado_752457" data-name="Trazado 752457" d="M62.642,36.684A8.942,8.942,0,1,0,53.7,27.742a8.944,8.944,0,0,0,8.942,8.942Zm0-15.555a6.706,6.706,0,1,1-6.706,6.706A6.679,6.679,0,0,1,62.642,21.129Z" transform="translate(-10.481 -7.25)" fill="#445976"/>
          <path id="Trazado_752458" data-name="Trazado 752458" d="M25.693,14.046a3.446,3.446,0,1,0-3.446,3.446A3.381,3.381,0,0,0,25.693,14.046Zm-4.657,0a1.211,1.211,0,1,1,1.211,1.211A1.233,1.233,0,0,1,21.035,14.046Z" transform="translate(-8.088 -6.688)" fill="#445976"/>
        </g>
        <path id="Trazado_752459" data-name="Trazado 752459" d="M24.5,49.1a5.5,5.5,0,1,0,5.5,5.5A5.447,5.447,0,0,0,24.5,49.1Zm0,8.663a3.26,3.26,0,1,1,3.26-3.26A3.24,3.24,0,0,1,24.5,57.763Z" transform="translate(-8.102 -9.327)" fill="#445976"/>
      </g>
    </g>
  </g>
</svg>
