<svg id="Grupo_1024261" data-name="Grupo 1024261" xmlns="http://www.w3.org/2000/svg" xmlns:xlink="http://www.w3.org/1999/xlink" width="165.306" height="160.249" viewBox="0 0 165.306 160.249">
  <defs>
    <clipPath id="clip-path">
      <rect id="Rectángulo_358100" data-name="Rectángulo 358100" width="165.306" height="160.249" fill="none"/>
    </clipPath>
  </defs>
  <g id="Grupo_1021731" data-name="Grupo 1021731" clip-path="url(#clip-path)">
    <path id="Trazado_752638" data-name="Trazado 752638" d="M137.653,26.477a1.4,1.4,0,1,0,2.053-1.9,81.408,81.408,0,0,0-6.011-5.854,1.4,1.4,0,0,0-1.846,2.1,78.583,78.583,0,0,1,5.8,5.652" fill="#1a0f91"/>
    <path id="Trazado_752639" data-name="Trazado 752639" d="M147.355,39.422h0a1.4,1.4,0,1,0,2.4-1.437,80.924,80.924,0,0,0-4.676-6.965,1.4,1.4,0,0,0-1.959-.281,1.4,1.4,0,0,0-.28,1.959,78.714,78.714,0,0,1,4.513,6.724" fill="#1a0f91"/>
    <path id="Trazado_752640" data-name="Trazado 752640" d="M39.931,23.533A11.767,11.767,0,1,0,28.164,11.767,11.779,11.779,0,0,0,39.931,23.533M30.963,11.767a8.968,8.968,0,1,1,8.968,8.968,8.978,8.978,0,0,1-8.968-8.968" fill="#1a0f91"/>
    <path id="Trazado_752641" data-name="Trazado 752641" d="M158.329,77.93q.012.683.011,1.366c0,2.24-.1,4.505-.287,6.732a1.4,1.4,0,0,0,1.274,1.514l.122,0a1.389,1.389,0,0,0,1.392-1.279c.2-2.3.3-4.648.3-6.972q0-.708-.013-1.413a1.4,1.4,0,1,0-2.8.047" fill="#1a0f91"/>
    <path id="Trazado_752642" data-name="Trazado 752642" d="M118.647,11.468a77.97,77.97,0,0,1,6.845,4.336,1.4,1.4,0,1,0,1.618-2.283,80.919,80.919,0,0,0-7.091-4.492,1.4,1.4,0,0,0-1.064-.128,1.385,1.385,0,0,0-.841.662,1.4,1.4,0,0,0,.533,1.905" fill="#1a0f91"/>
    <path id="Trazado_752643" data-name="Trazado 752643" d="M156.381,61.87a78,78,0,0,1,1.391,7.979,1.4,1.4,0,0,0,1.389,1.231l.168-.01a1.4,1.4,0,0,0,1.222-1.557,80.482,80.482,0,0,0-1.443-8.267,1.4,1.4,0,0,0-2.549-.431,1.385,1.385,0,0,0-.178,1.055" fill="#1a0f91"/>
    <path id="Trazado_752644" data-name="Trazado 752644" d="M154.164,54.087a1.4,1.4,0,1,0,2.648-.907,80.753,80.753,0,0,0-3.13-7.782,1.4,1.4,0,0,0-2.539,1.179,77.6,77.6,0,0,1,3.021,7.51" fill="#1a0f91"/>
    <path id="Trazado_752645" data-name="Trazado 752645" d="M90,25.949H86.807a1.4,1.4,0,1,0,0,2.8H88.6v1.515a1.4,1.4,0,0,0,2.8,0V28.529A4.586,4.586,0,0,0,90,19.574a1.793,1.793,0,0,1-.1-3.583L93.19,16a1.4,1.4,0,1,0,0-2.8H91.4v-2a1.4,1.4,0,1,0-2.8,0v2.224A4.585,4.585,0,0,0,90,22.372a1.789,1.789,0,1,1,0,3.577" fill="#fe7062"/>
    <path id="Trazado_752646" data-name="Trazado 752646" d="M72.8,37.268l1.354,6.942A1.405,1.405,0,0,0,75.178,45.3a1.4,1.4,0,0,0,1.421-.454c2.918-3.47,5.734-6.593,6.632-7.365l22.231-.012a8.041,8.041,0,0,0,8.041-8.044V12.9a8.052,8.052,0,0,0-8.044-8.043H74.547A8.053,8.053,0,0,0,66.5,12.9V29.892a7.44,7.44,0,0,0,6.3,7.376m-3.5-7.376V12.9a5.252,5.252,0,0,1,5.245-5.245h30.912a5.252,5.252,0,0,1,5.246,5.245V29.422a5.252,5.252,0,0,1-5.244,5.245l-22.616.013c-.629,0-1.224,0-6.5,6.139l-1-5.126a1.4,1.4,0,0,0-1.372-1.131,4.675,4.675,0,0,1-4.67-4.67" fill="#1a0f91"/>
    <path id="Trazado_752647" data-name="Trazado 752647" d="M58.821,106.657a14.23,14.23,0,0,0-4.7-4.44,8.951,8.951,0,0,0,1.854-5.471,8.6,8.6,0,1,0-17.185,0,8.935,8.935,0,0,0,1.963,5.617,14.573,14.573,0,0,0-4.191,3.96c-2.683,3.634-3.409,9.51-3.765,14.777a6.2,6.2,0,0,0,1.649,4.633,6.086,6.086,0,0,0,4.49,1.949l17.278,0a6.086,6.086,0,0,0,4.485-1.945,6.191,6.191,0,0,0,1.655-4.617c-.334-5.141-1.015-10.88-3.536-14.465m-10.7,8.163-.547.476-.547-.476v-9.237a7.113,7.113,0,0,0,1.094-.029Zm-.74-12.026a6.054,6.054,0,1,1,5.794-6.048,5.931,5.931,0,0,1-5.794,6.048m-4.326,1.583a8.581,8.581,0,0,0,1.173.59v10.491a1.4,1.4,0,0,0,.483,1.057l1.945,1.69a1.437,1.437,0,0,0,1.836,0l1.947-1.691a1.4,1.4,0,0,0,.481-1.056V104.8a8.628,8.628,0,0,0,.9-.487c2.065.463,3.972,2.9,4.713,3.954,2.134,3.035,2.742,8.561,3.032,13.036a3.358,3.358,0,0,1-3.347,3.582H38.939a3.358,3.358,0,0,1-3.346-3.6c.309-4.58.955-10.231,3.224-13.3.669-.906,2.383-3.014,4.242-3.608" fill="#fe7062"/>
    <path id="Trazado_752648" data-name="Trazado 752648" d="M23.267,69.761c.16.014.319.025.48.025h18.8a4.564,4.564,0,0,0,.775-.07,3.05,3.05,0,0,0,.633.07H60.921A3.2,3.2,0,0,0,64.1,66.842l.262-3.461,1.068-.254a5.29,5.29,0,0,0,4.212-6.171C69.518,56.3,68.422,50.4,67,44c-.01-.043-.022-.085-.036-.127l.127-.8a3.258,3.258,0,0,0-2.1-3.577l-3.46-8.584c-.047-.114-.1-.225-.156-.349l-.061-.131a8.782,8.782,0,0,0-4.539-4.6,12.38,12.38,0,0,0-5.128-.915h-21.2A12.358,12.358,0,0,0,18.1,37.263V63.9a5.787,5.787,0,0,0,1.723,4.159,5.334,5.334,0,0,0,3.445,1.7M46.945,39.294A3.271,3.271,0,0,0,43.7,42.169L41.894,57.114H31.015a1.143,1.143,0,0,1-1.141-1.142V44.952a1.4,1.4,0,0,0-2.8,0v11.02a3.944,3.944,0,0,0,3.939,3.94H41.556l-.763,6.307a3.085,3.085,0,0,0,.006.768H23.747a2.552,2.552,0,0,1-1.922-.885,3.063,3.063,0,0,1-.927-2.2V37.263a9.557,9.557,0,0,1,9.544-9.546H51.651c1.737-.013,5.354-.029,7.108,3.871l.081.173c.031.068.063.135.09.2l2.956,7.331ZM65.49,53.1l.25-1.532c.626,3.094,1.05,5.371,1.148,5.9a2.521,2.521,0,0,1-2.045,2.922l-6.4,1.517a2.592,2.592,0,0,1-1.688-.18l-.347-.17a2.792,2.792,0,0,1-1.368-1.8c-.013-.061-.027-.121-.035-.19l-.014-.143c-.006-.072-.006-.144-.005-.218s0-.149.012-.226.017-.138.029-.21.027-.147.045-.213l.044-.15c.022-.07.051-.139.079-.2l.158-.308a3.186,3.186,0,0,1,.308-.426c.052-.057.109-.109.183-.178l.1-.083c.052-.043.106-.083.159-.121s.116-.075.169-.107l.144-.083a2.613,2.613,0,0,1,.351-.151l7.812-2.626a1.576,1.576,0,0,0,.384-.206,1.677,1.677,0,0,0,.253-.239,1.414,1.414,0,0,0,.277-.572m-2.611-1.366-7.007,2.355A5.4,5.4,0,0,0,52.184,59.4a5.545,5.545,0,0,0,2.844,4.59l.135.077a5.4,5.4,0,0,0,3.927.562l2.411-.572-.195,2.571a.393.393,0,0,1-.385.357H43.955a.385.385,0,0,1-.383-.432l2.908-24.05a.468.468,0,0,1,.465-.412H63.861a.47.47,0,0,1,.464.542Zm2.062,1.214Z" fill="#1a0f91"/>
    <path id="Trazado_752649" data-name="Trazado 752649" d="M112.165,151.923a1.4,1.4,0,0,0-1.828-.756c-2.373.984-4.819,1.857-7.269,2.6a1.4,1.4,0,0,0-.936,1.743,1.408,1.408,0,0,0,1.339,1,1.39,1.39,0,0,0,.4-.061c2.543-.767,5.078-1.672,7.532-2.69a1.4,1.4,0,0,0,.757-1.828Z" fill="#1a0f91"/>
    <path id="Trazado_752650" data-name="Trazado 752650" d="M135.807,134.042c-1.8,1.819-3.719,3.572-5.7,5.21a1.4,1.4,0,0,0,1.785,2.156c2.049-1.7,4.036-3.511,5.9-5.4a1.4,1.4,0,0,0-1.988-1.97" fill="#1a0f91"/>
    <path id="Trazado_752651" data-name="Trazado 752651" d="M75.435,125.517A31.939,31.939,0,0,0,24.941,87.4c-.661.661-1.3,1.368-1.963,2.159a32.164,32.164,0,0,0,1.963,43.013A31.99,31.99,0,0,0,63.056,137.9l19.789,19.789a8.753,8.753,0,1,0,12.379-12.379Zm19.554,25.978a5.955,5.955,0,0,1-10.166,4.211L65.5,136.388a31.864,31.864,0,0,0,8.422-8.422l19.318,19.318a5.918,5.918,0,0,1,1.744,4.211M68.134,130.6a29.129,29.129,0,1,1,0-41.214,28.947,28.947,0,0,1,0,41.214" fill="#1a0f91"/>
    <path id="Trazado_752652" data-name="Trazado 752652" d="M118.832,121.014H115.94a1.4,1.4,0,1,0,0,2.8h1.49v.681a1.4,1.4,0,0,0,2.8,0v-.917a4.29,4.29,0,0,0-1.4-8.346,1.492,1.492,0,0,1-.008-2.984l0-.569.028.568h2.875a1.4,1.4,0,0,0,0-2.8h-1.5v-.561a1.4,1.4,0,1,0-2.8,0v.8a4.29,4.29,0,0,0,1.4,8.344,1.493,1.493,0,0,1,0,2.986" fill="#fe7062"/>
    <path id="Trazado_752653" data-name="Trazado 752653" d="M163.906,107.98h-8.282a1.4,1.4,0,0,0-1.243.757l-.093.179a13.66,13.66,0,0,1-1.672,2.538,15.378,15.378,0,0,1-8.074,5.012L134.5,118.957a1.936,1.936,0,0,1-.932-3.758l5.859-1.453a1.4,1.4,0,0,0,1.062-1.358v-6.221a2.768,2.768,0,0,0-2.764-2.765H124.855l-10.383,1.382a1.7,1.7,0,0,1-1.909-1.412,1.789,1.789,0,0,1,1.533-2l7.628-1.025a55.609,55.609,0,0,1,7.367-.493h9.7a1.4,1.4,0,0,0,0-2.8l-11.385-.044a2.248,2.248,0,0,1,1.35-.814l11.354-2.124a1.4,1.4,0,0,0-.494-2.755l-9.667,1.655a2.257,2.257,0,0,1,1.433-.938l6.711-1.257a12.248,12.248,0,0,1,7.915,1.195l4.954,2.608c1.916,1.007,11.237,2.22,12.938,2.22a1.4,1.4,0,1,0,0-2.8c-1.841,0-10.454-1.277-11.635-1.9l-1.67-.879V65.068a4.211,4.211,0,0,0-4.207-4.206H130.871V57.553a4.211,4.211,0,0,0-4.207-4.206H92.817a4.211,4.211,0,0,0-4.206,4.206v34.31A4.044,4.044,0,0,0,92.65,95.9h15.691v3.476a3.985,3.985,0,0,0,.311,1.551l-8.586.064a2.887,2.887,0,0,0-2.761,2.991v22.3a2.887,2.887,0,0,0,2.761,2.992h40.828a2.888,2.888,0,0,0,2.762-2.994v-6.71l1.561-.387a18.16,18.16,0,0,0,9.534-5.919,16.049,16.049,0,0,0,1.712-2.484h7.443a1.4,1.4,0,1,0,0-2.8M115.515,60.862V56.145h11.149a1.41,1.41,0,0,1,1.408,1.408v3.309Zm10.981,2.8h5.951V76.322H126.5Zm-1.4,15.461h8.749a1.4,1.4,0,0,0,1.4-1.4V63.66h11.149a1.41,1.41,0,0,1,1.409,1.408V89.753l-.486-.256a15.058,15.058,0,0,0-9.733-1.469l-6.711,1.255a5.034,5.034,0,0,0-4.108,4.69,5.1,5.1,0,0,0-2.5,3.283c-.977.082-1.954.187-2.911.316L113.724,98.6a4.549,4.549,0,0,0-2.513,1.192,1.233,1.233,0,0,1-.071-.411V65.068a1.41,1.41,0,0,1,1.408-1.408H123.7V77.722a1.4,1.4,0,0,0,1.4,1.4M112.716,60.862h-.168a4.211,4.211,0,0,0-4.207,4.206v3.74h-1.576V56.145h5.951ZM100.1,103.792l9.686-.072.006.052a4.532,4.532,0,0,0,5.053,3.786L124.91,106.2l12.782-.034v5.126l-4.8,1.19a4.734,4.734,0,0,0,1.141,9.329,4.754,4.754,0,0,0,1.139-.139l5.682-1.41v6.016c0,.107-.038.184.008.2l-40.691.031a.353.353,0,0,1-.07-.225v-22.3c0-.106.039-.183,0-.192m5.265-32.186h2.975V93.1H92.65a1.242,1.242,0,0,1-1.241-1.24V57.553a1.41,1.41,0,0,1,1.408-1.408h11.149V70.207a1.4,1.4,0,0,0,1.4,1.4" fill="#1a0f91"/>
    <path id="Trazado_752654" data-name="Trazado 752654" d="M123.923,143.872c-2.134,1.435-4.359,2.776-6.612,3.986a1.4,1.4,0,1,0,1.324,2.465c2.338-1.254,4.643-2.644,6.849-4.129a1.4,1.4,0,0,0,.381-1.942,1.4,1.4,0,0,0-1.942-.38" fill="#1a0f91"/>
    <path id="Trazado_752655" data-name="Trazado 752655" d="M2.784,64.406l0,0a1.537,1.537,0,0,0,.284.029A1.406,1.406,0,0,0,4.44,63.322a77.572,77.572,0,0,1,2.339-8.658,1.4,1.4,0,1,0-2.654-.886A80.077,80.077,0,0,0,1.7,62.75a1.4,1.4,0,0,0,1.083,1.656" fill="#1a0f91"/>
    <path id="Trazado_752656" data-name="Trazado 752656" d="M1.448,82.6h.007a1.4,1.4,0,0,0,1.366-1.432Q2.8,80.233,2.8,79.3c0-2.368.108-4.757.32-7.1a1.4,1.4,0,0,0-1.273-1.52A1.411,1.411,0,0,0,.331,71.943C.111,74.37,0,76.844,0,79.3q0,.971.023,1.934a1.406,1.406,0,0,0,1.4,1.367Z" fill="#1a0f91"/>
    <path id="Trazado_752657" data-name="Trazado 752657" d="M3.543,90.105a1.4,1.4,0,1,0-2.771.385,80.409,80.409,0,0,0,1.809,9.115,1.4,1.4,0,0,0,2.709-.7,78,78,0,0,1-1.747-8.8" fill="#1a0f91"/>
    <path id="Trazado_752658" data-name="Trazado 752658" d="M13.923,36.521A1.4,1.4,0,0,0,12,36.975a80.607,80.607,0,0,0-4.424,8.172,1.4,1.4,0,1,0,2.534,1.188,77.664,77.664,0,0,1,4.269-7.887,1.4,1.4,0,0,0-.454-1.927" fill="#1a0f91"/>
    <path id="Trazado_752659" data-name="Trazado 752659" d="M8.045,107.435a1.4,1.4,0,1,0-2.609,1.014A80.657,80.657,0,0,0,9.3,116.9a1.4,1.4,0,0,0,2.474-1.309,77.527,77.527,0,0,1-3.725-8.158" fill="#1a0f91"/>
  </g>
</svg>
