<svg id="Grupo_1024265" data-name="Grupo 1024265" xmlns="http://www.w3.org/2000/svg" xmlns:xlink="http://www.w3.org/1999/xlink" width="174.867" height="160.591" viewBox="0 0 174.867 160.591">
  <defs>
    <clipPath id="clip-path">
      <rect id="Rectángulo_358104" data-name="Rectángulo 358104" width="174.867" height="160.591" fill="none"/>
    </clipPath>
  </defs>
  <g id="Grupo_1021739" data-name="Grupo 1021739" clip-path="url(#clip-path)">
    <path id="Trazado_752736" data-name="Trazado 752736" d="M147.509,31.6a1.394,1.394,0,0,0,1.1.528,1.408,1.408,0,0,0,.872-.305,1.4,1.4,0,0,0,.222-1.967,81.563,81.563,0,0,0-6.077-6.8,1.4,1.4,0,1,0-1.979,1.979,78.737,78.737,0,0,1,5.867,6.568" fill="#1a0f91"/>
    <path id="Trazado_752737" data-name="Trazado 752737" d="M156.844,46.5h0a1.4,1.4,0,0,0,1.866.658,1.4,1.4,0,0,0,.658-1.866,80.626,80.626,0,0,0-4.4-7.992,1.4,1.4,0,0,0-1.928-.443,1.381,1.381,0,0,0-.622.873,1.4,1.4,0,0,0,.178,1.056,77.736,77.736,0,0,1,4.245,7.714" fill="#1a0f91"/>
    <path id="Trazado_752738" data-name="Trazado 752738" d="M162.577,63.113h0a1.408,1.408,0,0,0,1.365,1.1,1.443,1.443,0,0,0,.3-.033,1.4,1.4,0,0,0,1.062-1.669,80.288,80.288,0,0,0-2.478-8.779,1.4,1.4,0,0,0-2.646.913,77.2,77.2,0,0,1,2.392,8.472" fill="#1a0f91"/>
    <path id="Trazado_752739" data-name="Trazado 752739" d="M45.387,51.124H78.349a17.377,17.377,0,0,0,2.42,2.6v4.834a1.4,1.4,0,1,0,2.8,0V53.073a1.393,1.393,0,0,0-.511-1.082,12.228,12.228,0,0,1-4.784-10.5v-.224c.007-2,.219-2.484,2.572-5.481V39.9a1.4,1.4,0,1,0,2.8,0V15.58a1.478,1.478,0,0,1,2.955,0V33.765a1.4,1.4,0,0,0,2.8,0V26.377a1.467,1.467,0,0,1,2.517-1.037,1.445,1.445,0,0,1,.432,1.037v7.388a1.4,1.4,0,0,0,2.8,0V28.62a1.479,1.479,0,0,1,1.474-1.48A1.484,1.484,0,0,1,98.1,28.62v5.145a1.4,1.4,0,0,0,2.8,0V32.259a1.48,1.48,0,0,1,1.48-1.475,1.492,1.492,0,0,1,1.475,1.475v11.1c0,2.163,0,5.783-3.251,8.665a1.407,1.407,0,0,0-.47,1.048v5.481a1.4,1.4,0,1,0,2.8,0V53.68a11.981,11.981,0,0,0,2-2.556h25.374a7.293,7.293,0,0,0,7.271-7.271V7.27A7.279,7.279,0,0,0,130.295,0H45.387a7.28,7.28,0,0,0-7.272,7.27V43.853a7.276,7.276,0,0,0,7.272,7.271m7.28-11.965L61.2,30.624a1.4,1.4,0,0,0-1.979-1.98L51.8,36.07V16.678L70.382,35.343a1.433,1.433,0,0,0,1.979.005,1.4,1.4,0,0,0,0-1.979l-18.6-18.68H73.178L65.34,22.528a1.4,1.4,0,0,0,0,1.978,1.434,1.434,0,0,0,1.979,0l8.948-8.947V37.464a6.442,6.442,0,0,0-.613,1.695Zm26.4-5.633V13.29a1.4,1.4,0,0,0-1.4-1.4H50.4a1.467,1.467,0,0,0-.533.106,1.429,1.429,0,0,0-.253.136l-.2.167a1.4,1.4,0,0,0-.311.473,1.429,1.429,0,0,0-.091.364L49,39.05a1.387,1.387,0,0,0,0,1.014v.493a1.4,1.4,0,0,0,1.4,1.4H75.472A15.324,15.324,0,0,0,76.7,48.325H45.387a4.478,4.478,0,0,1-4.473-4.472V7.27A4.477,4.477,0,0,1,45.387,2.8H86.441v8.743a4.324,4.324,0,0,0-1.338-.212,4.259,4.259,0,0,0-4.257,4.251V31.27L79.6,32.854l-.531.672M97.437,12.3a1.418,1.418,0,0,0-.312.474,1.439,1.439,0,0,0-.091.364l-.009,11.224a4.243,4.243,0,0,0-2.2.378,4.231,4.231,0,0,0-.932-1.383,4.329,4.329,0,0,0-4.491-1V15.58a4.217,4.217,0,0,0-.158-1.144V2.8h41.055a4.477,4.477,0,0,1,4.472,4.472V43.853a4.478,4.478,0,0,1-4.472,4.472H106.1a17.708,17.708,0,0,0,.55-4.965v-1.4h19.046a1.4,1.4,0,0,0,1.4-1.4V13.29a1.4,1.4,0,0,0-1.4-1.4H98.424a1.467,1.467,0,0,0-.533.106,1.4,1.4,0,0,0-.454.3m2.387,4.379,18.583,18.665a1.435,1.435,0,0,0,1.98.005,1.4,1.4,0,0,0,0-1.979l-18.6-18.68H121.2l-7.838,7.839a1.4,1.4,0,0,0,0,1.977,1.433,1.433,0,0,0,1.979,0l8.947-8.947v23.6H106.646V33.2l2.582-2.58a1.4,1.4,0,0,0,0-1.98,1.433,1.433,0,0,0-1.979,0l-1.293,1.294a4.3,4.3,0,0,0-5.078-1.684,4.226,4.226,0,0,0-1.054-2.461Zm-2.167-3.7Z" fill="#1a0f91"/>
    <path id="Trazado_752740" data-name="Trazado 752740" d="M164.295,70.774a1.392,1.392,0,0,0-.3,1.027,78.95,78.95,0,0,1,.429,8.219l0,.58a1.4,1.4,0,1,0,2.8.015v-.593a81.72,81.72,0,0,0-.444-8.514,1.4,1.4,0,0,0-2.479-.734" fill="#1a0f91"/>
    <path id="Trazado_752741" data-name="Trazado 752741" d="M89.647,138.02a8.337,8.337,0,0,0-2.405-4.848L65.805,113.056A35.8,35.8,0,0,0,10.467,68.242a35.779,35.779,0,0,0,25.311,61.09,36.134,36.134,0,0,0,14.971-3.266c1-.459,1.978-.965,2.919-1.507l21.76,20.489a8.376,8.376,0,0,0,14.3-5.922,8.631,8.631,0,0,0-.08-1.105ZM68.774,93.553A32.966,32.966,0,1,1,59.11,70.22a32.78,32.78,0,0,1,9.664,23.333m-7.685,25.311a36.6,36.6,0,0,0,3.081-3.5l21.125,19.822a5.578,5.578,0,1,1-7.918,7.858L56.11,123.016a36.008,36.008,0,0,0,4.979-4.152" fill="#1a0f91"/>
    <path id="Trazado_752742" data-name="Trazado 752742" d="M52.786,75.452l-1.236,0a.681.681,0,0,0-.163,0H19.528a1.067,1.067,0,0,0-.411.069L19,75.557a1.4,1.4,0,0,0-.454.3,1.384,1.384,0,0,0-.313.477,1.425,1.425,0,0,0-.1.514v31.483a1.388,1.388,0,0,0,0,1.112v.664a1.4,1.4,0,0,0,1.4,1.4H52.786a1.4,1.4,0,0,0,1.4-1.4V76.85a1.4,1.4,0,0,0-1.4-1.4M32.488,95.8a1.4,1.4,0,0,0-1.979,0l-9.582,9.582V80.239l23.194,23.295a1.43,1.43,0,0,0,1.978,0,1.4,1.4,0,0,0,0-1.98L22.9,78.25h25.16L37.97,88.335a1.4,1.4,0,0,0,0,1.978,1.432,1.432,0,0,0,1.979,0L51.387,78.875v29.834H21.553L32.487,97.775a1.4,1.4,0,0,0,0-1.979" fill="#fe7062"/>
    <path id="Trazado_752743" data-name="Trazado 752743" d="M104.92,155.634a77.81,77.81,0,0,1-8.773,1.585,1.4,1.4,0,0,0,.168,2.788l.171-.011a80.651,80.651,0,0,0,9.089-1.641,1.4,1.4,0,1,0-.655-2.721" fill="#1a0f91"/>
    <path id="Trazado_752744" data-name="Trazado 752744" d="M87.25,157.79l-.6,0a79.179,79.179,0,0,1-8.3-.437,1.4,1.4,0,1,0-.3,2.782,81.98,81.98,0,0,0,8.605.454l.62,0a1.4,1.4,0,0,0-.021-2.8" fill="#1a0f91"/>
    <path id="Trazado_752745" data-name="Trazado 752745" d="M27.434,28.87A1.4,1.4,0,0,0,28.48,28.4a78.537,78.537,0,0,1,6.779-6.752,1.4,1.4,0,0,0-1.849-2.1,81.167,81.167,0,0,0-7.023,6.993,1.4,1.4,0,0,0,1.047,2.329" fill="#1a0f91"/>
    <path id="Trazado_752746" data-name="Trazado 752746" d="M174.844,114.821c-.008-.045-.019-.088-.036-.149l-.041-.126a1.2,1.2,0,0,0-.054-.114l-.522.227.47-.328L163.87,96.666a5.361,5.361,0,0,0,1.358-3.561,5.238,5.238,0,0,0-5.174-5.289,5.056,5.056,0,0,0-3.466,1.368L134.254,81.7a7.63,7.63,0,0,0-3.9-4.556l-.026-4a6.352,6.352,0,0,0,2.414-2.578,6.812,6.812,0,0,0-.15-6.615L128.4,56.774a1.46,1.46,0,0,0-2.417,0l-4.191,7.176a6.815,6.815,0,0,0-.15,6.615,6.338,6.338,0,0,0,2.414,2.578l-.027,4A7.371,7.371,0,0,0,122.2,78.4L98.962,73.379a4.565,4.565,0,0,0-4.228-2.9,4.683,4.683,0,0,0-3.482,7.683L80.084,96.458l-.065.138a1.445,1.445,0,0,0-.046.148l-.027.112a.864.864,0,0,0-.015.135l-.007.16c.037,5.525,6.681,10.019,14.81,10.019s14.773-4.494,14.811-10.019l-.02-.282c-.008-.044-.018-.084-.036-.153l-.038-.117a1.186,1.186,0,0,0-.057-.122l-.524.222.472-.324-10.57-17.3,21.312,7.154a7.632,7.632,0,0,0,3.855,4.649l-.255,39.818a45.386,45.386,0,0,1-8.77,14.01h-.86a6,6,0,0,0-5.928,6.066v2.918a1.4,1.4,0,0,0,1.4,1.4h35.327a1.4,1.4,0,0,0,1.4-1.4V150.77a6,6,0,0,0-5.928-6.066h-.862a45.326,45.326,0,0,1-8.768-14.011l-.255-39.817a7.409,7.409,0,0,0,1.832-1.3l22.8,4.941a5.247,5.247,0,0,0,1.17,2.149L145.4,114.413l-.065.139a1.38,1.38,0,0,0-.045.14l-.029.122a1.171,1.171,0,0,0-.016.141l-.006.152c.038,5.525,6.682,10.019,14.811,10.019s14.773-4.494,14.811-10.018v-.031Zm-63.92,35.949a3.2,3.2,0,0,1,3.13-3.268h26.269a3.2,3.2,0,0,1,3.13,3.268v1.518H110.924Zm-4.4-52.266c-1.1,3.339-6.08,5.867-11.787,5.867S84.052,101.843,82.949,98.5ZM92.963,75.149a1.774,1.774,0,1,1,1.771,1.868,1.824,1.824,0,0,1-1.771-1.868M83.816,95.705l9.8-16.036a4.359,4.359,0,0,0,2.245,0l9.8,16.036Zm43.373-6.86a4.818,4.818,0,1,1,4.63-4.814,4.73,4.73,0,0,1-4.63,4.814m.335-17.682a4.408,4.408,0,0,1-.67,0,3.378,3.378,0,0,1-2.731-1.888,4.084,4.084,0,0,1,.082-3.913l2.984-5.107,2.983,5.107a4.081,4.081,0,0,1,.082,3.913,3.375,3.375,0,0,1-2.73,1.888m.023,5.267a6.6,6.6,0,0,0-.717,0l.016-2.463a6.525,6.525,0,0,0,.685,0Zm.795,55.922a47.34,47.34,0,0,0,7.4,12.352H118.631a47.34,47.34,0,0,0,7.4-12.352Zm-1.852-2.8.243-37.926a5.772,5.772,0,0,0,.911,0l.243,37.926Zm-6.056-48.671a7.76,7.76,0,0,0-.624,2.3L99.454,76.351Zm51.406,35.578c-1.1,3.34-6.079,5.868-11.786,5.868s-10.683-2.528-11.786-5.868ZM157.678,93.105a2.379,2.379,0,1,1,2.376,2.49,2.439,2.439,0,0,1-2.376-2.49m-8.542,20.556L158.6,98.176a5.016,5.016,0,0,0,2.917,0l9.46,15.485Zm5.951-22.029-.007.023-21.092-4.57a7.756,7.756,0,0,0,.591-2.322Z" fill="#1a0f91"/>
    <path id="Trazado_752747" data-name="Trazado 752747" d="M15.753,44.718h0a1.415,1.415,0,0,0,.644.158,1.394,1.394,0,0,0,1.241-.753,78.187,78.187,0,0,1,4.937-8.2,1.4,1.4,0,0,0-2.3-1.589,80.825,80.825,0,0,0-5.114,8.491,1.4,1.4,0,0,0,.594,1.888" fill="#1a0f91"/>
    <path id="Trazado_752748" data-name="Trazado 752748" d="M9.288,63.055a1.372,1.372,0,0,0,.323.039,1.394,1.394,0,0,0,1.361-1.078,77.55,77.55,0,0,1,2.778-9.152,1.4,1.4,0,1,0-2.622-.977,80.269,80.269,0,0,0-2.879,9.484,1.4,1.4,0,0,0,1.039,1.684" fill="#1a0f91"/>
    <path id="Trazado_752749" data-name="Trazado 752749" d="M69.543,155.9a77.779,77.779,0,0,1-8.572-2.451,1.4,1.4,0,0,0-1.722,1.928,1.384,1.384,0,0,0,.8.713,80.178,80.178,0,0,0,8.887,2.541,1.356,1.356,0,0,0,.3.034,1.4,1.4,0,0,0,.305-2.765" fill="#1a0f91"/>
    <path id="Trazado_752750" data-name="Trazado 752750" d="M31.123,134.474a1.4,1.4,0,0,0-.987-.419,1.7,1.7,0,0,0-.992.4,1.4,1.4,0,0,0-.019,1.979,81.322,81.322,0,0,0,6.83,6.213,1.4,1.4,0,0,0,1.764-2.174,78.1,78.1,0,0,1-6.6-6" fill="#1a0f91"/>
    <path id="Trazado_752751" data-name="Trazado 752751" d="M52.74,150.03h0a77.825,77.825,0,0,1-7.784-4.346,1.4,1.4,0,0,0-1.5,2.361,80.827,80.827,0,0,0,8.065,4.5,1.4,1.4,0,0,0,1.223-2.518" fill="#1a0f91"/>
  </g>
</svg>
