<svg id="Grupo_1024266" data-name="Grupo 1024266" xmlns="http://www.w3.org/2000/svg" xmlns:xlink="http://www.w3.org/1999/xlink" width="180.617" height="156.324" viewBox="0 0 180.617 156.324">
  <defs>
    <clipPath id="clip-path">
      <rect id="Rectángulo_358105" data-name="Rectángulo 358105" width="180.617" height="156.324" fill="none"/>
    </clipPath>
  </defs>
  <g id="Grupo_1021741" data-name="Grupo 1021741" clip-path="url(#clip-path)">
    <path id="Trazado_752752" data-name="Trazado 752752" d="M78.622,54.6h21.413v2.9H95.48A2.814,2.814,0,0,0,92.668,60.3v3.429a2.814,2.814,0,0,0,2.812,2.811h29.208a2.815,2.815,0,0,0,2.812-2.811V60.3a2.815,2.815,0,0,0-2.812-2.809h-4.555V55.529a25.087,25.087,0,0,0,21.485-.933c.11,0,.22-.007.329-.013l14.995,14.993c.173.173.353.335.537.486a7.078,7.078,0,0,0,9.473-10.494L151.846,44.462a24.97,24.97,0,0,0,3.034-11.94,24.694,24.694,0,0,0-5.059-15.067V8.262A8.278,8.278,0,0,0,141.545,0H78.622a8.28,8.28,0,0,0-8.276,8.262V46.334A8.28,8.28,0,0,0,78.622,54.6m86.352,6.95a4.28,4.28,0,1,1-6.053,6.052L144.279,52.955a25.3,25.3,0,0,0,6.052-6.051ZM105.022,34.8a8.864,8.864,0,0,1-2.765.446,8.965,8.965,0,1,1,0-17.929,8.873,8.873,0,0,1,6.149,2.458,24.885,24.885,0,0,0-3.491,12.743c0,.74.036,1.505.107,2.282m.688,7.191a1.407,1.407,0,0,0-1.007,1.344l.007,2.7-4.9.006v-2.7a1.4,1.4,0,0,0-1.132-1.374,14.466,14.466,0,0,1-5.391-2.286,1.39,1.39,0,0,0-.766-.229,1.411,1.411,0,0,0-1.009.43l-1.864,1.95L86.608,38.8l1.988-2a1.405,1.405,0,0,0,.175-1.76,15.332,15.332,0,0,1-2.321-5.564,1.4,1.4,0,0,0-1.372-1.125l-2.958.007-.007-4.132h2.934a1.4,1.4,0,0,0,1.373-1.134A15.483,15.483,0,0,1,88.7,17.452a1.4,1.4,0,0,0-.174-1.749l-1.955-1.97,3.015-3.047,1.845,1.884a1.4,1.4,0,0,0,1.773.188,14.722,14.722,0,0,1,5.479-2.336A1.4,1.4,0,0,0,99.81,9.049L99.8,6.533l4.9-.006V9.049a1.406,1.406,0,0,0,1,1.342,22.811,22.811,0,0,1,5.554,2.373,1.394,1.394,0,0,0,1.792-.206l1.724-1.839,1.115,1.119a24.95,24.95,0,0,0-5.9,5.6A11.768,11.768,0,1,0,105.436,37.6a24.7,24.7,0,0,0,1.217,4.1c-.353.117-.674.215-.943.294m8.5-25.16a22.188,22.188,0,1,1-6.5,15.687,22.038,22.038,0,0,1,6.5-15.687m32.812-2.5a25.011,25.011,0,0,0-28.662-3.979l-1.607-1.611a2.649,2.649,0,0,0-2.014-.82,2.774,2.774,0,0,0-1.994.876l-.961,1.021a26.684,26.684,0,0,0-4.284-1.8V6.527a2.794,2.794,0,0,0-2.791-2.792H99.8a2.794,2.794,0,0,0-2.791,2.792V7.938a17.017,17.017,0,0,0-4.369,1.869L91.588,8.729a2.791,2.791,0,0,0-3.973-.015l-3.027,3.045a2.8,2.8,0,0,0-.007,3.93l1.184,1.2a17.962,17.962,0,0,0-1.838,4.536H82.113a2.8,2.8,0,0,0-2.79,2.792v4.138a2.8,2.8,0,0,0,2.79,2.791h1.854a17.87,17.87,0,0,0,1.863,4.463l-1.206,1.214a2.8,2.8,0,0,0,0,3.94l3.04,3.046a2.808,2.808,0,0,0,2,.818,2.778,2.778,0,0,0,1.985-.857l1.089-1.134a16.518,16.518,0,0,0,4.267,1.817v1.591A2.794,2.794,0,0,0,99.8,48.836h4.907a2.794,2.794,0,0,0,2.791-2.792V44.371l.337-.113a25.069,25.069,0,0,0,9.5,9.862v4.772a1.4,1.4,0,0,0,1.4,1.4l5.968.011-.014,3.441-29.221-.012.013-3.44h5.953a1.4,1.4,0,0,0,1.4-1.4V53.2a1.4,1.4,0,0,0-1.4-1.4H78.622a5.476,5.476,0,0,1-5.476-5.463V8.262A5.476,5.476,0,0,1,78.622,2.8h62.923a5.477,5.477,0,0,1,5.478,5.463Z" fill="#1a0f91"/>
    <path id="Trazado_752753" data-name="Trazado 752753" d="M43.377,22a1.39,1.39,0,0,0,1-.421,78.618,78.618,0,0,1,6.665-6.086,1.4,1.4,0,0,0-.739-2.478,1.364,1.364,0,0,0-1.026.307,81.144,81.144,0,0,0-6.9,6.3A1.4,1.4,0,0,0,42.4,21.6a1.387,1.387,0,0,0,.977.4" fill="#1a0f91"/>
    <path id="Trazado_752754" data-name="Trazado 752754" d="M120.673,95.848a18.738,18.738,0,1,0,12.428,7.159,18.633,18.633,0,0,0-12.428-7.159m7.278,31.224a15.941,15.941,0,1,1,2.931-22.361,15.967,15.967,0,0,1-2.931,22.361" fill="#1a0f91"/>
    <path id="Trazado_752755" data-name="Trazado 752755" d="M161.135,77.433h-56.3A10.381,10.381,0,0,0,94.47,87.8v44.818a10.419,10.419,0,0,0,10.369,10.364h40.089a6.584,6.584,0,0,0,.841.929l.686.623a.3.3,0,0,1,.1.216v.821a1.9,1.9,0,0,0-1.657,1.88v5.082a1.4,1.4,0,1,0,2.8,0v-4.179h11.154v4.179a1.4,1.4,0,1,0,2.8,0v-5.082a1.9,1.9,0,0,0-1.657-1.88v-.821a.3.3,0,0,1,.1-.218l.685-.621a6.67,6.67,0,0,0,.854-.948,10.416,10.416,0,0,0,9.884-10.345V87.8a10.382,10.382,0,0,0-10.37-10.37m1.631,52.454a7.308,7.308,0,0,0,3.843-6.423v-3.138a7.308,7.308,0,0,0-7.3-7.3H145.676a7.308,7.308,0,0,0-7.3,7.3v3.138a7.269,7.269,0,0,0,5.19,6.983v8.49a6.682,6.682,0,0,0,.12,1.25H104.839a7.577,7.577,0,0,1-7.571-7.566V89.385h71.439v43.236a7.573,7.573,0,0,1-5.822,7.355,6.537,6.537,0,0,0,.084-1.039v-7.9a3.338,3.338,0,0,0-.2-1.145m-14.431,12.577-.684-.621a3.935,3.935,0,0,1-1.286-2.906V121.613a.676.676,0,1,1,1.353,0V133.05a1.4,1.4,0,0,0,2.8,0v-3.373a.676.676,0,1,1,1.353,0v3.373a1.4,1.4,0,1,0,2.8,0v-3.373a.676.676,0,1,1,1.352,0v3.373a1.4,1.4,0,0,0,2.8,0v-2.018a.677.677,0,1,1,1.353,0v7.9a3.937,3.937,0,0,1-1.285,2.906l-.684.621a3.1,3.1,0,0,0-1.014,2.289v.806h-7.838v-.806a3.1,3.1,0,0,0-1.014-2.289m-4.769-20.851v5.826a4.485,4.485,0,0,1-2.391-3.975v-3.138a4.506,4.506,0,0,1,4.5-4.5h13.633a4.506,4.506,0,0,1,4.5,4.5v3.138a4.5,4.5,0,0,1-3.161,4.29,3.517,3.517,0,0,0-2.392.031,3.472,3.472,0,0,0-2.914-1.583,3.433,3.433,0,0,0-2.075.689,3.515,3.515,0,0,0-2.752-.623v-4.655a3.475,3.475,0,0,0-6.95,0m25.043-35.026H97.366a7.613,7.613,0,0,1,7.473-6.356h56.3a7.615,7.615,0,0,1,7.474,6.356" fill="#1a0f91"/>
    <path id="Trazado_752756" data-name="Trazado 752756" d="M177.815,62.371a1.5,1.5,0,0,0,.264-.024,1.4,1.4,0,0,0,1.112-1.638,80.751,80.751,0,0,0-2.132-8.579,1.4,1.4,0,0,0-2.675.825,77.419,77.419,0,0,1,2.058,8.279,1.4,1.4,0,0,0,1.373,1.137" fill="#1a0f91"/>
    <path id="Trazado_752757" data-name="Trazado 752757" d="M178.649,85.538h0a1.4,1.4,0,0,0-1.579,1.193,77.715,77.715,0,0,1-1.642,8.374,1.4,1.4,0,0,0,1.008,1.7,1.426,1.426,0,0,0,.348.045,1.4,1.4,0,0,0,1.356-1.055,80.693,80.693,0,0,0,1.7-8.679,1.4,1.4,0,0,0-1.191-1.579" fill="#1a0f91"/>
    <path id="Trazado_752758" data-name="Trazado 752758" d="M116.312,36.438a13.3,13.3,0,0,0,1.169,2.8l-.672.676a2.416,2.416,0,0,0,0,3.4l2.21,2.213a2.441,2.441,0,0,0,1.73.708,2.4,2.4,0,0,0,1.715-.741l.584-.609a12.4,12.4,0,0,0,2.651,1.131v.866a2.415,2.415,0,0,0,2.412,2.412h3.567a2.414,2.414,0,0,0,2.411-2.412v-.94a19.826,19.826,0,0,0,2.581-1.068l.6.62a2.406,2.406,0,0,0,1.726.741,2.444,2.444,0,0,0,1.72-.708l2.209-2.213a2.416,2.416,0,0,0,0-3.4l-.673-.677a13.275,13.275,0,0,0,1.157-2.8h1.13a2.414,2.414,0,0,0,2.411-2.412V31.019a2.415,2.415,0,0,0-2.412-2.412h-1.1a13.429,13.429,0,0,0-1.164-2.851l.64-.647a2.418,2.418,0,0,0-.005-3.4l-2.2-2.208a2.456,2.456,0,0,0-1.741-.709,2.379,2.379,0,0,0-1.721.757l-.5.53a20.114,20.114,0,0,0-2.653-1.109v-.812a2.414,2.414,0,0,0-2.411-2.411h-3.567a2.414,2.414,0,0,0-2.412,2.411V18.9a12.6,12.6,0,0,0-2.728,1.168l-.56-.571a2.406,2.406,0,0,0-1.721-.724,2.469,2.469,0,0,0-1.71.711l-2.2,2.214a2.421,2.421,0,0,0-.006,3.394l.659.668a13.377,13.377,0,0,0-1.156,2.852h-1.025a2.414,2.414,0,0,0-2.411,2.412v3.007a2.415,2.415,0,0,0,2.411,2.412Zm2.449-6.167a10.885,10.885,0,0,1,1.6-3.962,1.406,1.406,0,0,0-.175-1.749l-1.151-1.166,1.653-1.662,1.065,1.086a1.4,1.4,0,0,0,1.772.189,10.345,10.345,0,0,1,3.847-1.642,1.4,1.4,0,0,0,1.127-1.373V18.546h2.792v1.446a1.408,1.408,0,0,0,1,1.342,16.165,16.165,0,0,1,3.936,1.678,1.4,1.4,0,0,0,1.791-.207l.986-1.047,1.65,1.655-1.135,1.146a1.406,1.406,0,0,0-.176,1.75,10.875,10.875,0,0,1,1.613,3.961,1.4,1.4,0,0,0,1.374,1.135h1.82v2.234h-1.842a1.4,1.4,0,0,0-1.372,1.126,10.772,10.772,0,0,1-1.615,3.908,1.407,1.407,0,0,0,.175,1.76l1.172,1.18-1.66,1.661-.906-.933a1.387,1.387,0,0,0-1-.617,1.316,1.316,0,0,0-1.06.3,16.358,16.358,0,0,1-3.747,1.555,1.408,1.408,0,0,0-1.007,1.343V46.5H128.5V44.918a1.406,1.406,0,0,0-1.132-1.374,10.139,10.139,0,0,1-3.783-1.6,1.436,1.436,0,0,0-1.775.2l-1.088,1.133-1.658-1.66,1.173-1.18a1.408,1.408,0,0,0,.174-1.76,10.766,10.766,0,0,1-1.63-3.908,1.4,1.4,0,0,0-1.373-1.126h-1.768V31.405h1.746a1.4,1.4,0,0,0,1.373-1.134" fill="#fe7062"/>
    <path id="Trazado_752759" data-name="Trazado 752759" d="M162.964,30.16h0a1.405,1.405,0,0,0,1.132.574,1.4,1.4,0,0,0,1.131-2.221,80.849,80.849,0,0,0-5.586-6.852,1.382,1.382,0,0,0-.969-.457,1.419,1.419,0,0,0-1.008.362,1.4,1.4,0,0,0-.093,1.977,78.116,78.116,0,0,1,5.393,6.616" fill="#1a0f91"/>
    <path id="Trazado_752760" data-name="Trazado 752760" d="M180.365,69.47a1.4,1.4,0,1,0-2.79.219c.162,2.055.244,4.14.243,6.195q0,1.176-.034,2.34a1.392,1.392,0,0,0,.38,1,1.413,1.413,0,0,0,1.019.438,1.391,1.391,0,0,0,1.4-1.357q.036-1.206.036-2.423c0-2.132-.084-4.29-.252-6.414" fill="#1a0f91"/>
    <path id="Trazado_752761" data-name="Trazado 752761" d="M170.031,35.936a1.4,1.4,0,1,0-2.429,1.388,78.043,78.043,0,0,1,3.823,7.629,1.4,1.4,0,1,0,2.567-1.114,80.4,80.4,0,0,0-3.961-7.9" fill="#1a0f91"/>
    <path id="Trazado_752762" data-name="Trazado 752762" d="M129.9,41.456a8.934,8.934,0,1,0-8.933-8.933,8.944,8.944,0,0,0,8.933,8.933m-6.135-8.933a6.134,6.134,0,1,1,6.135,6.135,6.142,6.142,0,0,1-6.135-6.135" fill="#fe7062"/>
    <path id="Trazado_752763" data-name="Trazado 752763" d="M31.445,36.317h0a1.4,1.4,0,0,0,1.918-.479,78.387,78.387,0,0,1,5.094-7.449,1.4,1.4,0,0,0-.252-1.964,1.4,1.4,0,0,0-1.963.253A81.24,81.24,0,0,0,30.967,34.4a1.4,1.4,0,0,0,.478,1.922" fill="#1a0f91"/>
    <path id="Trazado_752764" data-name="Trazado 752764" d="M57.614,10.436a1.4,1.4,0,0,0,.75-.219,77.836,77.836,0,0,1,7.882-4.393A1.4,1.4,0,0,0,65.027,3.3a81.336,81.336,0,0,0-8.166,4.552,1.4,1.4,0,0,0,.753,2.58" fill="#1a0f91"/>
    <path id="Trazado_752765" data-name="Trazado 752765" d="M163.42,98.574H141.566a1.4,1.4,0,1,0,0,2.8H163.42a1.4,1.4,0,1,0,0-2.8" fill="#1a0f91"/>
    <path id="Trazado_752766" data-name="Trazado 752766" d="M95.554,153.528a78.423,78.423,0,0,1-9.127-1.061,1.4,1.4,0,1,0-.487,2.755,80.732,80.732,0,0,0,9.535,1.1,1.4,1.4,0,0,0,.079-2.8" fill="#1a0f91"/>
    <path id="Trazado_752767" data-name="Trazado 752767" d="M88.284,121.361V71.714a10.414,10.414,0,0,0-10.4-10.4H28.237a10.246,10.246,0,0,0-2.094.223A14.1,14.1,0,0,0,8.75,55.795a1.4,1.4,0,0,0-.459,2.284l8.35,8.352a.538.538,0,0,1,.163.392.554.554,0,0,1-.163.394l-4.167,4.168a.562.562,0,0,1-.788,0l-8.35-8.351a1.4,1.4,0,0,0-2.283.458A14.095,14.095,0,0,0,17.832,82.416v38.945a10.417,10.417,0,0,0,10.4,10.406H77.879a10.4,10.4,0,0,0,10.4-10.406M18.619,69.2a3.353,3.353,0,0,0,0-4.745l-6.7-6.7a11.291,11.291,0,1,1-8.911,8.913l6.7,6.7a3.44,3.44,0,0,0,4.746,0Zm9.56-.367a14.067,14.067,0,0,0-.793-4.668,7.33,7.33,0,0,1,.851-.048H77.879a7.612,7.612,0,0,1,7.606,7.6v1.765H27.648l-.188-.188a14.1,14.1,0,0,0,.719-4.462m1.277,20.325-8.194-8.192a14.19,14.19,0,0,0,4.956-4.955L34.411,84.2a3.5,3.5,0,0,1,0,4.955,3.587,3.587,0,0,1-4.955,0M20.63,84.286l6.847,6.847A6.3,6.3,0,0,0,36.39,82.22l-5.943-5.942H85.485v45.083a7.616,7.616,0,0,1-7.606,7.608H28.237a7.616,7.616,0,0,1-7.607-7.608Z" fill="#1a0f91"/>
    <path id="Trazado_752768" data-name="Trazado 752768" d="M113.869,152.431a78.164,78.164,0,0,1-9.121,1.085A1.4,1.4,0,0,0,103.434,155a1.419,1.419,0,0,0,1.475,1.313h.005a81.463,81.463,0,0,0,9.449-1.123,1.4,1.4,0,1,0-.494-2.756" fill="#1a0f91"/>
    <path id="Trazado_752769" data-name="Trazado 752769" d="M163.42,106.353H141.566a1.4,1.4,0,1,0,0,2.8H163.42a1.4,1.4,0,1,0,0-2.8" fill="#1a0f91"/>
    <path id="Trazado_752770" data-name="Trazado 752770" d="M132.477,147.051a1.391,1.391,0,0,0-1.071.026,77.654,77.654,0,0,1-8.608,3.2,1.4,1.4,0,1,0,.816,2.676,80.162,80.162,0,0,0,8.922-3.317,1.4,1.4,0,0,0-.059-2.585" fill="#1a0f91"/>
    <path id="Trazado_752771" data-name="Trazado 752771" d="M118.257,109.694h3.172a1.4,1.4,0,1,0,0-2.8h-1.795v-2.005a1.4,1.4,0,0,0-2.8,0v2.225a4.586,4.586,0,0,0,1.4,8.954,1.788,1.788,0,1,1,0,3.576h-3.192a1.4,1.4,0,0,0,0,2.8h1.79v1.515a1.4,1.4,0,0,0,2.8,0v-1.733a4.586,4.586,0,0,0-1.4-8.955,1.789,1.789,0,1,1,.019-3.577" fill="#fe7062"/>
    <path id="Trazado_752772" data-name="Trazado 752772" d="M60.691,142.977a78.4,78.4,0,0,1-7.631-5.116,1.4,1.4,0,0,0-1.693,2.229,80.947,80.947,0,0,0,7.906,5.3,1.388,1.388,0,0,0,.708.195,1.405,1.405,0,0,0,1.207-.691h0a1.4,1.4,0,0,0-.5-1.914" fill="#1a0f91"/>
    <path id="Trazado_752773" data-name="Trazado 752773" d="M32.217,70.231h6.659a1.4,1.4,0,1,0,0-2.8H32.217a1.4,1.4,0,1,0,0,2.8" fill="#1a0f91"/>
    <path id="Trazado_752774" data-name="Trazado 752774" d="M43.151,111.507a1.4,1.4,0,1,0,1.979-1.979l-8.845-8.845,8.845-8.845a1.4,1.4,0,1,0-1.979-1.979l-9.833,9.834a1.4,1.4,0,0,0,0,1.98Z" fill="#fe7062"/>
    <path id="Trazado_752775" data-name="Trazado 752775" d="M24.175,53.159a1.4,1.4,0,0,0,1.758-.909,77.526,77.526,0,0,1,3.236-8.422,1.4,1.4,0,0,0-.7-1.852,1.4,1.4,0,0,0-1.852.7A80.381,80.381,0,0,0,23.266,51.4a1.4,1.4,0,0,0,.909,1.758" fill="#1a0f91"/>
    <path id="Trazado_752776" data-name="Trazado 752776" d="M77.49,150.335a77.605,77.605,0,0,1-8.617-3.18,1.4,1.4,0,0,0-1.123,2.564,80.136,80.136,0,0,0,8.93,3.294,1.4,1.4,0,1,0,.81-2.678" fill="#1a0f91"/>
    <path id="Trazado_752777" data-name="Trazado 752777" d="M46.982,117.518h0a1.4,1.4,0,0,0,1.745-.929l9.5-30.992a1.4,1.4,0,1,0-2.675-.821l-9.5,30.993a1.4,1.4,0,0,0,.928,1.749" fill="#fe7062"/>
    <path id="Trazado_752778" data-name="Trazado 752778" d="M68,100.683l-8.845,8.845a1.4,1.4,0,1,0,1.979,1.979l9.834-9.834a1.4,1.4,0,0,0,0-1.98l-9.833-9.834a1.434,1.434,0,0,0-1.98,0,1.4,1.4,0,0,0,0,1.979Z" fill="#fe7062"/>
  </g>
</svg>
