<svg xmlns="http://www.w3.org/2000/svg" width="152" height="152" viewBox="0 0 152 152">
  <g id="Grupo_1021637" data-name="Grupo 1021637" transform="translate(-409 -2772)">
    <g id="Grupo_1020472" data-name="Grupo 1020472" transform="translate(416.173 2779)">
      <circle id="Elipse_8460" data-name="Elipse 8460" cx="76" cy="76" r="76" transform="translate(-7.173 -7)" fill="#57dbd8" opacity="0.45"/>
      <circle id="Elipse_8461" data-name="Elipse 8461" cx="62" cy="62" r="62" transform="translate(6.827 7)" fill="#fff"/>
    </g>
    <g id="_016-map" data-name="016-map" transform="translate(451 2814)">
      <path id="Trazado_752224" data-name="Trazado 752224" d="M2,18l13.226,8.818L28.453,18l13.215,8.818L54.905,18l13.226,8.818V66.5L54.905,57.679,41.668,66.5,28.453,57.679,15.226,66.5,2,57.679Z" transform="translate(-0.887 0.737)" fill="#d6eff8"/>
      <path id="Trazado_752225" data-name="Trazado 752225" d="M48.861,17.431A15.431,15.431,0,1,0,30.653,32.6c.937,4.288,2.778,11.286,2.778,11.286s1.852-7,2.778-11.286A15.423,15.423,0,0,0,48.861,17.431Z" transform="translate(0.748 -0.898)" fill="#fcd192"/>
      <circle id="Elipse_8510" data-name="Elipse 8510" cx="11" cy="11" r="11" transform="translate(23.01 6)" fill="#ef9596"/>
      <path id="Trazado_752226" data-name="Trazado 752226" d="M39.226,19.818V14.307L32.613,11,26,14.307v5.511l6.613,3.307Z" transform="translate(1.566 0.022)" fill="#fab349"/>
      <path id="Trazado_752227" data-name="Trazado 752227" d="M38.613,19.511,32,22.818V17.307L38.613,14Z" transform="translate(2.179 0.329)" fill="#d6eff8"/>
      <path id="Trazado_752228" data-name="Trazado 752228" d="M34.075,37.01c6.911.11,12.378,1.532,12.378,3.3s-5.919,3.307-13.226,3.307S20,42.135,20,40.306s5.467-3.185,12.378-3.3" transform="translate(0.953 2.68)" fill="#aadff1"/>
      <circle id="Elipse_8511" data-name="Elipse 8511" cx="3.5" cy="3.5" r="3.5" transform="translate(11.01 33)" fill="#ef9596"/>
      <path id="Trazado_752229" data-name="Trazado 752229" d="M25.605,20.9l6.613,3.307a1.075,1.075,0,0,0,.992,0L39.823,20.9a1.1,1.1,0,0,0,.606-.981V14.408a1.089,1.089,0,0,0-.606-.981L33.21,10.121a1.1,1.1,0,0,0-.981,0l-6.613,3.307a1.1,1.1,0,0,0-.606.981v5.511a1.089,1.089,0,0,0,.606.981Zm12.62-1.664-4.409,2.2V18.4l4.409-2.2Zm-5.511-6.9,4.144,2.072L32.714,16.48,28.57,14.408ZM27.2,16.194l4.409,2.2V21.44l-4.409-2.2Z" transform="translate(1.465 -0.08)"/>
      <path id="Trazado_752230" data-name="Trazado 752230" d="M68.841,27.605,55.615,18.788a1.12,1.12,0,0,0-1.223,0l-3.042,2.028A16.449,16.449,0,0,0,38.685,1.34L38.211,3.5a14.4,14.4,0,0,1,11.275,14A14.5,14.5,0,0,1,37.737,31.584a1.109,1.109,0,0,0-.882.849c-.452,2.083-1.124,4.839-1.7,7.109-.573-2.259-1.245-5.015-1.7-7.109a1.08,1.08,0,0,0-.882-.849A14.321,14.321,0,0,1,32.116,3.5l-.474-2.16A16.509,16.509,0,0,0,20,24.078L15.319,27.2,2.709,18.788a1.131,1.131,0,0,0-1.135-.055,1.085,1.085,0,0,0-.584.97V59.382a1.1,1.1,0,0,0,.5.915l13.226,8.818a1.12,1.12,0,0,0,1.223,0l12.62-8.41,12.609,8.41a1.12,1.12,0,0,0,.606.187,1.092,1.092,0,0,0,.606-.187L55.009,60.7l12.62,8.41a1.131,1.131,0,0,0,1.135.055,1.085,1.085,0,0,0,.584-.97V28.52a1.1,1.1,0,0,0-.5-.915ZM33.461,41.78c.375,1.444.628,2.425.639,2.447a1.1,1.1,0,0,0,1.069.816,1.111,1.111,0,0,0,1.069-.816c0-.022.265-1.014.639-2.447,6.393.209,9.854,1.466,10.383,2.171-.617.827-4.96,2.2-12.091,2.2s-11.474-1.378-12.091-2.2C23.607,43.245,27.079,41.989,33.461,41.78ZM67.122,66.138,55.6,58.467a1.12,1.12,0,0,0-1.223,0l-12.631,8.41L29.14,58.467a1.12,1.12,0,0,0-1.223,0L16.4,66.138v-.143h-2.2v.143L3.172,58.786V21.764L14.69,29.435a1.12,1.12,0,0,0,1.223,0l5.092-3.395a16.441,16.441,0,0,0,10.438,7.55c.408,1.852.959,4.067,1.444,6-3.736.165-12.069.926-12.069,4.354s9,4.409,14.329,4.409a50.076,50.076,0,0,0,5.643-.32,5.912,5.912,0,0,0,.474,1.389l1.984-.97a3.469,3.469,0,0,1-.265-.738c3.527-.628,6.492-1.775,6.492-3.77,0-3.428-8.333-4.188-12.069-4.354.485-1.929,1.025-4.144,1.444-6a16.519,16.519,0,0,0,11.419-9.424l4.717-3.141L67.111,29.1V66.138Z" transform="translate(-0.99 -0.965)"/>
      <path id="Trazado_752231" data-name="Trazado 752231" d="M21,17.124A12.124,12.124,0,1,0,33.124,5,12.131,12.131,0,0,0,21,17.124ZM33.124,7.2a9.92,9.92,0,1,1-9.92,9.92A9.935,9.935,0,0,1,33.124,7.2Z" transform="translate(1.055 -0.591)"/>
      <path id="Trazado_752232" data-name="Trazado 752232" d="M13.809,51.59l-1.609,1.5a3.33,3.33,0,0,1,.783,1.433l2.138-.54a5.549,5.549,0,0,0-1.312-2.392Z" transform="translate(0.156 4.17)"/>
      <path id="Trazado_752233" data-name="Trazado 752233" d="M13,56h2.2v2.2H13Z" transform="translate(0.237 4.621)"/>
      <path id="Trazado_752234" data-name="Trazado 752234" d="M5.381,48.989a5.509,5.509,0,0,0,1.631,2.182L8.39,49.452a3.375,3.375,0,0,1-.981-1.312l-2.039.838Z" transform="translate(-0.542 3.817)"/>
      <path id="Trazado_752235" data-name="Trazado 752235" d="M9.5,49.95,9.11,52.121a15.054,15.054,0,0,1,2.017.254l.694-2.094a5.483,5.483,0,0,0-1.741-.276,3.624,3.624,0,0,1-.6-.055Z" transform="translate(-0.16 4.002)"/>
      <path id="Trazado_752236" data-name="Trazado 752236" d="M5,37H7.2v1.73H5Z" transform="translate(-0.58 2.679)"/>
      <path id="Trazado_752237" data-name="Trazado 752237" d="M5,44.57H7.2v2.2H5Z" transform="translate(-0.58 3.453)"/>
      <path id="Trazado_752238" data-name="Trazado 752238" d="M5,40.57H7.2v2.2H5Z" transform="translate(-0.58 3.044)"/>
      <path id="Trazado_752239" data-name="Trazado 752239" d="M54.444,33.242l.154-2.193a5.17,5.17,0,0,1-1.764-.309l-.915,2.006a5.416,5.416,0,0,0,2.282.5Z" transform="translate(4.215 2.039)"/>
      <path id="Trazado_752240" data-name="Trazado 752240" d="M57,36h2.2v2.2H57Z" transform="translate(4.734 2.577)"/>
      <path id="Trazado_752241" data-name="Trazado 752241" d="M50.1,31.263l1.764-1.323a3.278,3.278,0,0,1-.628-1.51l-2.182.309A5.444,5.444,0,0,0,50.1,31.263Z" transform="translate(3.921 1.803)"/>
      <path id="Trazado_752242" data-name="Trazado 752242" d="M56.734,34.843l1.929-1.058a5.545,5.545,0,0,0-1.852-1.995l-1.2,1.852A3.457,3.457,0,0,1,56.734,34.843Z" transform="translate(4.592 2.147)"/>
      <path id="Trazado_752243" data-name="Trazado 752243" d="M49,20.57h2.2v2.2H49Z" transform="translate(3.916 1)"/>
      <path id="Trazado_752244" data-name="Trazado 752244" d="M57,40h2.2v2.2H57Z" transform="translate(4.734 2.986)"/>
      <path id="Trazado_752245" data-name="Trazado 752245" d="M49,24.57h2.2v2.2H49Z" transform="translate(3.916 1.409)"/>
      <path id="Trazado_752246" data-name="Trazado 752246" d="M47.925,46.49,47.01,48.5a3.742,3.742,0,0,1,1.345,1.036l1.7-1.4A6.046,6.046,0,0,0,47.925,46.5Z" transform="translate(3.713 3.649)"/>
      <path id="Trazado_752247" data-name="Trazado 752247" d="M48.911,50.657a3.836,3.836,0,0,1,.1.871V52.6h2.2V51.528a5.816,5.816,0,0,0-.165-1.378l-2.149.507Z" transform="translate(3.906 4.023)"/>
      <path id="Trazado_752248" data-name="Trazado 752248" d="M39.08,47.021a6.1,6.1,0,0,0,2.436,1.135L41.968,46a3.835,3.835,0,0,1-1.532-.716Z" transform="translate(2.903 3.525)"/>
      <path id="Trazado_752249" data-name="Trazado 752249" d="M43.49,46h2.2v2.2h-2.2Z" transform="translate(3.353 3.599)"/>
      <path id="Trazado_752250" data-name="Trazado 752250" d="M14.409,30a4.409,4.409,0,1,0,4.409,4.409A4.408,4.408,0,0,0,14.409,30Zm0,6.613a2.2,2.2,0,1,1,2.2-2.2A2.211,2.211,0,0,1,14.409,36.613Z" transform="translate(-0.069 1.964)"/>
      <path id="Trazado_752251" data-name="Trazado 752251" d="M31,1h2.2V3.2H31Z" transform="translate(2.077 -1)"/>
    </g>
  </g>
</svg>
