<svg xmlns="http://www.w3.org/2000/svg" width="152" height="152" viewBox="0 0 152 152">
  <g id="Grupo_1021638" data-name="Grupo 1021638" transform="translate(-619 -2772)">
    <g id="Grupo_1020472" data-name="Grupo 1020472" transform="translate(626.173 2779)">
      <circle id="Elipse_8460" data-name="Elipse 8460" cx="76" cy="76" r="76" transform="translate(-7.173 -7)" fill="#91b3fa" opacity="0.45"/>
      <circle id="Elipse_8461" data-name="Elipse 8461" cx="62" cy="62" r="62" transform="translate(6.827 7)" fill="#fff"/>
    </g>
    <g id="_006-certificate" data-name="006-certificate" transform="translate(661 2818)">
      <path id="Trazado_752252" data-name="Trazado 752252" d="M35.575,43.22l2.447,16.29L32.511,55.1,27,59.51l2.447-16.29" transform="translate(1.657 -1.094)" fill="#aadff1"/>
      <rect id="Rectángulo_358039" data-name="Rectángulo 358039" width="66" height="37" rx="2" transform="translate(0.947 1.183)" fill="#d6eff8"/>
      <path id="Trazado_752253" data-name="Trazado 752253" d="M33.533,16l4.839,4.839h6.856v6.856l4.839,4.839-4.839,4.839v6.856H38.372l-4.839,4.839-4.839-4.839H21.839V37.372L17,32.533l4.839-4.839V20.839h6.856Z" transform="translate(0.635 -3.876)" fill="#f2f2f2"/>
      <path id="Trazado_752254" data-name="Trazado 752254" d="M39.226,33.818V28.307L32.613,25,26,28.307v5.511l6.613,3.307Z" transform="translate(1.555 -2.956)" fill="#fab349"/>
      <path id="Trazado_752255" data-name="Trazado 752255" d="M38.613,33.511,32,36.818V31.307L38.613,28Z" transform="translate(2.168 -2.65)" fill="#aadff1"/>
      <path id="Trazado_752256" data-name="Trazado 752256" d="M39.823,27.427,33.21,24.121a1.1,1.1,0,0,0-.981,0l-6.613,3.307a1.1,1.1,0,0,0-.606.981v5.511a1.089,1.089,0,0,0,.606.981l6.613,3.307a1.075,1.075,0,0,0,.992,0L39.835,34.9a1.1,1.1,0,0,0,.606-.981V28.408a1.089,1.089,0,0,0-.606-.981Zm-8.211,8.024-4.409-2.2V30.2l4.409,2.2Zm1.1-4.96L28.57,28.419l4.144-2.072,4.144,2.072Zm5.511,2.755-4.409,2.2V32.409l4.409-2.2Z" transform="translate(1.454 -3.058)"/>
      <path id="Trazado_752257" data-name="Trazado 752257" d="M45,17H58.226v2.2H45Z" transform="translate(3.497 -3.774)"/>
      <path id="Trazado_752258" data-name="Trazado 752258" d="M7,17H20.226v2.2H7Z" transform="translate(-0.387 -3.774)"/>
      <path id="Trazado_752259" data-name="Trazado 752259" d="M66.029,5H38.475V7.2H66.029a1.105,1.105,0,0,1,1.1,1.1v1.1H49.5v2.2H67.132v2.2H49.5v2.2H67.132v25.35a1.105,1.105,0,0,1-1.1,1.1H47.965V38.959l4.519-4.519a1.1,1.1,0,0,0,0-1.554l-4.519-4.519V21.974a1.105,1.105,0,0,0-1.1-1.1H40.47l-4.519-4.519a1.1,1.1,0,0,0-1.554,0l-4.519,4.519H23.485a1.105,1.105,0,0,0-1.1,1.1v6.393l-4.519,4.519a1.1,1.1,0,0,0,0,1.554l4.519,4.519v3.516H4.307a1.105,1.105,0,0,1-1.1-1.1V16.022H20.84v-2.2H3.2v-2.2H20.84v-2.2H3.2v-1.1a1.105,1.105,0,0,1,1.1-1.1H31.861V5H4.307A3.316,3.316,0,0,0,1,8.307V41.372a3.316,3.316,0,0,0,3.307,3.307H22.372v.672a1.105,1.105,0,0,0,1.1,1.1h6.393l1.058,1.058-2.37,15.739a1.083,1.083,0,0,0,.54,1.113,1.1,1.1,0,0,0,1.234-.088l4.828-3.858,4.828,3.858a1.124,1.124,0,0,0,.683.242,1.112,1.112,0,0,0,.551-.143,1.1,1.1,0,0,0,.54-1.113l-2.37-15.739,1.058-1.058H46.84a1.105,1.105,0,0,0,1.1-1.1V44.69H66.007a3.316,3.316,0,0,0,3.307-3.307V8.307A3.316,3.316,0,0,0,66.007,5ZM35.851,58.148a1.11,1.11,0,0,0-1.378,0L31.156,60.8l1.708-11.353,1.521,1.521a1.082,1.082,0,0,0,.783.32,1.129,1.129,0,0,0,.783-.32l1.521-1.521L39.18,60.8l-3.318-2.656ZM46.069,37.724a1.091,1.091,0,0,0-.32.783v5.742H40.007a1.138,1.138,0,0,0-.783.32l-4.067,4.067L31.09,44.569a1.091,1.091,0,0,0-.783-.32H24.565V38.507a1.138,1.138,0,0,0-.32-.783l-4.067-4.067,4.067-4.067a1.091,1.091,0,0,0,.32-.783V23.065h5.742a1.138,1.138,0,0,0,.783-.32l4.067-4.067,4.067,4.067a1.091,1.091,0,0,0,.783.32h5.742v5.742a1.138,1.138,0,0,0,.32.783l4.067,4.067Z" transform="translate(-1 -5)"/>
      <path id="Trazado_752260" data-name="Trazado 752260" d="M31,5h2.2V7.2H31Z" transform="translate(2.066 -5)"/>
    </g>
  </g>
</svg>
