<svg xmlns="http://www.w3.org/2000/svg" width="152" height="152" viewBox="0 0 152 152">
  <g id="Grupo_1021640" data-name="Grupo 1021640" transform="translate(-1039 -2772)">
    <g id="Grupo_1020472" data-name="Grupo 1020472" transform="translate(1046.173 2779)">
      <circle id="Elipse_8460" data-name="Elipse 8460" cx="76" cy="76" r="76" transform="translate(-7.173 -7)" fill="#57dbd8" opacity="0.45"/>
      <circle id="Elipse_8461" data-name="Elipse 8461" cx="62" cy="62" r="62" transform="translate(6.827 7)" fill="#fff"/>
    </g>
    <g id="_011-examine" data-name="011-examine" transform="translate(1086 2815)">
      <path id="Trazado_752261" data-name="Trazado 752261" d="M57.613,55.7l-3.307,8.818L51,55.7V8.307a3.307,3.307,0,1,1,6.613,0Z" transform="translate(-1.401 -1.693)" fill="#ef9596"/>
      <path id="Trazado_752262" data-name="Trazado 752262" d="M51,11h6.613V55.088H51Z" transform="translate(-1.401 -1.08)" fill="#aadff1"/>
      <path id="Trazado_752263" data-name="Trazado 752263" d="M33.453,3H51.088V66.927H7V3H26.84" transform="translate(-5.898 -1.898)" fill="#d6eff8"/>
      <path id="Trazado_752264" data-name="Trazado 752264" d="M29,9h8.818v8.818H29Z" transform="translate(-3.65 -1.285)" fill="#aadff1"/>
      <path id="Trazado_752265" data-name="Trazado 752265" d="M29,28h8.818v8.818H29Z" transform="translate(-3.65 0.657)" fill="#aadff1"/>
      <path id="Trazado_752266" data-name="Trazado 752266" d="M24.226,15.818V10.307L17.613,7,11,10.307v5.511l6.613,3.307Z" transform="translate(-5.489 -1.489)" fill="#fab349"/>
      <path id="Trazado_752267" data-name="Trazado 752267" d="M23.613,15.511,17,18.818V13.307L23.613,10Z" transform="translate(-4.876 -1.182)" fill="#aadff1"/>
      <path id="Trazado_752268" data-name="Trazado 752268" d="M24.226,34.818V29.307L17.613,26,11,29.307v5.511l6.613,3.307Z" transform="translate(-5.489 0.453)" fill="#fab349"/>
      <path id="Trazado_752269" data-name="Trazado 752269" d="M23.613,34.511,17,37.818V32.307L23.613,29Z" transform="translate(-4.876 0.759)" fill="#aadff1"/>
      <path id="Trazado_752270" data-name="Trazado 752270" d="M24.226,54.818V49.307L17.613,46,11,49.307v5.511l6.613,3.307Z" transform="translate(-5.489 2.497)" fill="#fab349"/>
      <path id="Trazado_752271" data-name="Trazado 752271" d="M23.613,54.511,17,57.818V52.307L23.613,49Z" transform="translate(-4.876 2.803)" fill="#aadff1"/>
      <path id="Trazado_752272" data-name="Trazado 752272" d="M25.43,10.408a1.089,1.089,0,0,0-.606-.981L18.21,6.121a1.1,1.1,0,0,0-.981,0L10.616,9.427a1.1,1.1,0,0,0-.606.981v5.511a1.089,1.089,0,0,0,.606.981l6.613,3.307a1.075,1.075,0,0,0,.992,0L24.835,16.9a1.1,1.1,0,0,0,.606-.981V10.408ZM16.612,17.44l-4.409-2.2V12.194l4.409,2.2Zm1.1-4.96L13.57,10.408l4.144-2.072,4.144,2.072Zm5.511,2.755-4.409,2.2V14.4l4.409-2.2Z" transform="translate(-5.59 -1.591)"/>
      <path id="Trazado_752273" data-name="Trazado 752273" d="M25.43,29.408a1.089,1.089,0,0,0-.606-.981L18.21,25.121a1.1,1.1,0,0,0-.981,0l-6.613,3.307a1.1,1.1,0,0,0-.606.981v5.511a1.089,1.089,0,0,0,.606.981l6.613,3.307a1.075,1.075,0,0,0,.992,0L24.835,35.9a1.1,1.1,0,0,0,.606-.981V29.408ZM16.612,36.44l-4.409-2.2V31.194l4.409,2.2Zm1.1-4.96L13.57,29.408l4.144-2.072,4.144,2.072Zm5.511,2.755-4.409,2.2V33.4l4.409-2.2Z" transform="translate(-5.59 0.351)"/>
      <path id="Trazado_752274" data-name="Trazado 752274" d="M24.823,48.427,18.21,45.121a1.1,1.1,0,0,0-.981,0l-6.613,3.307a1.1,1.1,0,0,0-.606.981v5.511a1.089,1.089,0,0,0,.606.981l6.613,3.307a1.075,1.075,0,0,0,.992,0L24.835,55.9a1.1,1.1,0,0,0,.606-.981V49.408a1.089,1.089,0,0,0-.606-.981Zm-8.211,8.024-4.409-2.2V51.2l4.409,2.2Zm1.1-4.96L13.57,49.419l4.144-2.072,4.144,2.072Zm5.511,2.755-4.409,2.2V53.409l4.409-2.2Z" transform="translate(-5.59 2.395)"/>
      <path id="Trazado_752275" data-name="Trazado 752275" d="M28,47H46.737v2.2H28Z" transform="translate(-3.752 2.599)"/>
      <path id="Trazado_752276" data-name="Trazado 752276" d="M28,51H46.737v2.2H28Z" transform="translate(-3.752 3.008)"/>
      <path id="Trazado_752277" data-name="Trazado 752277" d="M28,55H41.226v2.2H28Z" transform="translate(-3.752 3.416)"/>
      <path id="Trazado_752278" data-name="Trazado 752278" d="M51.19,2H33.555V4.2H50.088V65.927H8.2V4.2H26.942V2H7.1A1.105,1.105,0,0,0,6,3.1V67.029a1.105,1.105,0,0,0,1.1,1.1H51.19a1.105,1.105,0,0,0,1.1-1.1V3.1A1.105,1.105,0,0,0,51.19,2Z" transform="translate(-6 -2)"/>
      <path id="Trazado_752279" data-name="Trazado 752279" d="M37.92,8.087H29.1a1.105,1.105,0,0,0-1.1,1.1v8.818a1.105,1.105,0,0,0,1.1,1.1H37.92a1.105,1.105,0,0,0,1.1-1.1V13.344L46.2,9.035,45.062,7.15l-6.051,3.626V9.2a1.105,1.105,0,0,0-1.1-1.1Zm-1.1,4-2.039,1.223-1.6-1.6-1.554,1.554,2.2,2.2a1.11,1.11,0,0,0,.783.32,1.135,1.135,0,0,0,.562-.154l1.642-.981v2.237H30.2V10.28h6.613v1.8Z" transform="translate(-3.752 -1.474)"/>
      <path id="Trazado_752280" data-name="Trazado 752280" d="M37.92,27.087H29.1a1.105,1.105,0,0,0-1.1,1.1v8.818a1.105,1.105,0,0,0,1.1,1.1H37.92a1.105,1.105,0,0,0,1.1-1.1V32.344l7.175-4.31L45.062,26.15l-6.051,3.626V28.2a1.105,1.105,0,0,0-1.1-1.1Zm-1.1,4-2.039,1.223-1.6-1.6-1.554,1.554,2.2,2.2a1.11,1.11,0,0,0,.783.32,1.135,1.135,0,0,0,.562-.154l1.642-.981v2.237H30.2V29.28h6.613v1.8Z" transform="translate(-3.752 0.468)"/>
      <path id="Trazado_752281" data-name="Trazado 752281" d="M54.409,4A4.408,4.408,0,0,0,50,8.409V55.8a1.135,1.135,0,0,0,.066.386l3.307,8.818a1.107,1.107,0,0,0,2.072,0l3.307-8.818a1.135,1.135,0,0,0,.066-.386V8.409A4.408,4.408,0,0,0,54.409,4Zm0,57.479-1.719-4.574h3.428L54.4,61.479Zm2.2-6.778H52.2V12.818h4.409Zm0-44.088H52.2v-2.2a2.2,2.2,0,0,1,4.409,0Z" transform="translate(-1.503 -1.796)"/>
      <path id="Trazado_752282" data-name="Trazado 752282" d="M27,2h2.2V4.2H27Z" transform="translate(-3.854 -2)"/>
    </g>
  </g>
</svg>
