<svg xmlns="http://www.w3.org/2000/svg" width="152" height="152" viewBox="0 0 152 152">
  <g id="Grupo_1021641" data-name="Grupo 1021641" transform="translate(-514 -3052)">
    <g id="Grupo_1020472" data-name="Grupo 1020472" transform="translate(521.173 3059)">
      <circle id="Elipse_8460" data-name="Elipse 8460" cx="76" cy="76" r="76" transform="translate(-7.173 -7)" fill="#91b3fa" opacity="0.45"/>
      <circle id="Elipse_8461" data-name="Elipse 8461" cx="62" cy="62" r="62" transform="translate(6.827 7)" fill="#fff"/>
    </g>
    <g id="_023-want" data-name="023-want" transform="translate(556 3094)">
      <path id="Trazado_752382" data-name="Trazado 752382" d="M49.744,22.986a16.533,16.533,0,1,0-31.809,0,4.4,4.4,0,1,0,3.99,7,16.51,16.51,0,0,0,23.829,0,4.4,4.4,0,1,0,3.99-7Z" transform="translate(0.329 -0.898)" fill="#d6eff8"/>
      <ellipse id="Elipse_8522" data-name="Elipse 8522" cx="12.5" cy="12" rx="12.5" ry="12" transform="translate(21.575 5.386)" fill="#fab349"/>
      <path id="Trazado_752383" data-name="Trazado 752383" d="M26,12H39.226V23.022H26Z" transform="translate(1.555 0.124)" fill="#8b8c89"/>
      <path id="Trazado_752384" data-name="Trazado 752384" d="M34.409,12v6.613l-2.2-2.2-2.2,2.2V12" transform="translate(1.964 0.124)" fill="#e7ecef"/>
      <g id="Grupo_1021636" data-name="Grupo 1021636" transform="translate(1.102 38.577)">
        <path id="Trazado_752385" data-name="Trazado 752385" d="M2,48.409v6.613H4.2l1.1,8.818H11.92l1.1-8.818h2.2V48.409A4.408,4.408,0,0,0,10.818,44H6.409A4.408,4.408,0,0,0,2,48.409Z" transform="translate(-2 -35.182)" fill="#75777a"/>
        <ellipse id="Elipse_8523" data-name="Elipse 8523" cx="3" cy="3.5" rx="3" ry="3.5" transform="translate(3.473 -0.191)" fill="#75777a"/>
        <path id="Trazado_752386" data-name="Trazado 752386" d="M50,48.409v6.613h2.2l1.1,8.818H59.92l1.1-8.818h2.2V48.409A4.408,4.408,0,0,0,58.818,44H54.409A4.408,4.408,0,0,0,50,48.409Z" transform="translate(2.905 -35.182)" fill="#75777a"/>
        <ellipse id="Elipse_8524" data-name="Elipse 8524" cx="3" cy="3.5" rx="3" ry="3.5" transform="translate(56.473 -0.191)" fill="#75777a"/>
      </g>
      <ellipse id="Elipse_8525" data-name="Elipse 8525" cx="2" cy="2.5" rx="2" ry="2.5" transform="translate(55.575 30.386)" fill="#6096ba"/>
      <circle id="Elipse_8526" data-name="Elipse 8526" cx="2.5" cy="2.5" r="2.5" transform="translate(8.575 30.386)" fill="#6096ba"/>
      <path id="Trazado_752387" data-name="Trazado 752387" d="M19,36H47.657V53.635H19Z" transform="translate(0.84 2.577)" fill="#6096ba"/>
      <ellipse id="Elipse_8527" data-name="Elipse 8527" cx="7.5" cy="8" rx="7.5" ry="8" transform="translate(26.575 39.386)" fill="#e7ecef"/>
      <path id="Trazado_752388" data-name="Trazado 752388" d="M19,40.409A4.408,4.408,0,0,0,23.409,36H19Z" transform="translate(0.84 2.577)" fill="#274c77"/>
      <path id="Trazado_752389" data-name="Trazado 752389" d="M45.409,40.409A4.408,4.408,0,0,1,41,36h4.409Z" transform="translate(3.088 2.577)" fill="#274c77"/>
      <path id="Trazado_752390" data-name="Trazado 752390" d="M41,52.409A4.408,4.408,0,0,1,45.409,48v4.409Z" transform="translate(3.088 3.803)" fill="#274c77"/>
      <path id="Trazado_752391" data-name="Trazado 752391" d="M19,48a4.408,4.408,0,0,1,4.409,4.409H19Z" transform="translate(0.84 3.803)" fill="#274c77"/>
      <path id="Trazado_752392" data-name="Trazado 752392" d="M2.1,56.226H3.337l.981,7.848a1.105,1.105,0,0,0,1.091.97h6.613a1.105,1.105,0,0,0,1.091-.97l.981-7.848h1.234a1.105,1.105,0,0,0,1.1-1.1V48.511A5.513,5.513,0,0,0,10.92,43H6.511A5.513,5.513,0,0,0,1,48.511v6.613A1.105,1.105,0,0,0,2.1,56.226Zm1.1-7.715A3.316,3.316,0,0,1,6.511,45.2H10.92a3.316,3.316,0,0,1,3.307,3.307v5.511h-1.1a1.105,1.105,0,0,0-1.091.97l-.981,7.848H6.379L5.4,54.992a1.105,1.105,0,0,0-1.091-.97H3.2Z" transform="translate(-1 3.292)"/>
      <path id="Trazado_752393" data-name="Trazado 752393" d="M12.818,39.409a4.409,4.409,0,1,0-4.409,4.409A4.408,4.408,0,0,0,12.818,39.409Zm-4.409,2.2a2.2,2.2,0,1,1,2.2-2.2A2.211,2.211,0,0,1,8.409,41.613Z" transform="translate(-0.693 2.475)"/>
      <path id="Trazado_752394" data-name="Trazado 752394" d="M58.92,43H54.511A5.513,5.513,0,0,0,49,48.511v6.613a1.105,1.105,0,0,0,1.1,1.1h1.234l.981,7.848a1.105,1.105,0,0,0,1.091.97h6.613a1.105,1.105,0,0,0,1.091-.97l.981-7.848h1.234a1.105,1.105,0,0,0,1.1-1.1V48.511A5.513,5.513,0,0,0,58.92,43Zm3.307,11.022h-1.1a1.105,1.105,0,0,0-1.091.97l-.981,7.848H54.39l-.981-7.848a1.105,1.105,0,0,0-1.091-.97h-1.1V48.511A3.316,3.316,0,0,1,54.522,45.2h4.409a3.316,3.316,0,0,1,3.307,3.307v5.511Z" transform="translate(3.905 3.292)"/>
      <path id="Trazado_752395" data-name="Trazado 752395" d="M60.818,39.409a4.409,4.409,0,1,0-4.409,4.409A4.408,4.408,0,0,0,60.818,39.409Zm-4.409,2.2a2.2,2.2,0,1,1,2.2-2.2A2.211,2.211,0,0,1,56.409,41.613Z" transform="translate(4.212 2.475)"/>
      <path id="Trazado_752396" data-name="Trazado 752396" d="M26.1,24.226H39.329a1.105,1.105,0,0,0,1.1-1.1V12.1a1.105,1.105,0,0,0-1.1-1.1H26.1A1.105,1.105,0,0,0,25,12.1V23.124A1.105,1.105,0,0,0,26.1,24.226ZM31.613,13.2h2.2v2.855l-.32-.32a1.1,1.1,0,0,0-1.554,0l-.32.32V13.2Zm-4.409,0h2.2v5.511a1.088,1.088,0,0,0,.683,1.014,1.1,1.1,0,0,0,1.2-.242l1.422-1.422,1.422,1.422a1.11,1.11,0,0,0,.783.32.924.924,0,0,0,.419-.088,1.1,1.1,0,0,0,.683-1.014V13.193h2.2v8.818H27.2Z" transform="translate(1.453 0.022)"/>
      <path id="Trazado_752397" data-name="Trazado 752397" d="M24.664,10.68l-1.7-1.4A12.813,12.813,0,0,0,20.74,13.3l2.083.716a10.645,10.645,0,0,1,1.852-3.34Z" transform="translate(1.017 -0.154)"/>
      <path id="Trazado_752398" data-name="Trazado 752398" d="M41.4,20.775l2.072.749a13.138,13.138,0,0,0,.794-4.519V16.95l-2.2.055a10.946,10.946,0,0,1-.661,3.77Z" transform="translate(3.129 0.63)"/>
      <path id="Trazado_752399" data-name="Trazado 752399" d="M32.256,27.019a13.749,13.749,0,0,1-1.94-.209l-.386,2.171a16.3,16.3,0,0,0,2.282.231,13.356,13.356,0,0,0,2.3-.2l-.386-2.171a11.08,11.08,0,0,1-1.885.165Z" transform="translate(1.956 1.638)"/>
      <path id="Trazado_752400" data-name="Trazado 752400" d="M26.34,27.833,27.409,25.9a10.169,10.169,0,0,1-2.932-2.414L22.78,24.9a12.582,12.582,0,0,0,3.56,2.943Z" transform="translate(1.226 1.298)"/>
      <path id="Trazado_752401" data-name="Trazado 752401" d="M22.9,20.812a11.6,11.6,0,0,1-.639-3.792h-2.2a13.6,13.6,0,0,0,.761,4.519l2.083-.716Z" transform="translate(0.948 0.637)"/>
      <path id="Trazado_752402" data-name="Trazado 752402" d="M38.405,6.734A13.193,13.193,0,0,0,34.085,5.18L33.71,7.351a10.743,10.743,0,0,1,3.593,1.3l1.1-1.907Z" transform="translate(2.343 -0.573)"/>
      <path id="Trazado_752403" data-name="Trazado 752403" d="M30.675,7.391,30.29,5.22a13.894,13.894,0,0,0-4.31,1.51l1.069,1.929a11.512,11.512,0,0,1,3.626-1.268Z" transform="translate(1.553 -0.569)"/>
      <path id="Trazado_752404" data-name="Trazado 752404" d="M38.112,27.8a13.107,13.107,0,0,0,3.516-2.954L39.942,23.42a10.823,10.823,0,0,1-2.932,2.458l1.1,1.907Z" transform="translate(2.68 1.291)"/>
      <path id="Trazado_752405" data-name="Trazado 752405" d="M43.631,13.218A13.431,13.431,0,0,0,41.316,9.25L39.63,10.672a10.943,10.943,0,0,1,1.929,3.307Z" transform="translate(2.948 -0.157)"/>
      <path id="Trazado_752406" data-name="Trazado 752406" d="M13,27.453a5.513,5.513,0,0,0,5.511,5.511,5.389,5.389,0,0,0,3.549-1.312,17.594,17.594,0,0,0,23.763,0,5.447,5.447,0,0,0,3.549,1.312,5.5,5.5,0,0,0,1.819-10.691,17.632,17.632,0,1,0-34.884-3.637,17.818,17.818,0,0,0,.386,3.637A5.477,5.477,0,0,0,13,27.453Zm6.1-4.662a15.431,15.431,0,1,1,29.693,0,1.116,1.116,0,0,0,.143.915,1.1,1.1,0,0,0,.794.474,3.293,3.293,0,1,1-2.987,5.235,1.146,1.146,0,0,0-.816-.441,1.063,1.063,0,0,0-.86.342,15.393,15.393,0,0,1-22.242,0,1.093,1.093,0,0,0-.794-.342h-.066a1.108,1.108,0,0,0-.816.441,3.279,3.279,0,0,1-2.634,1.334,3.293,3.293,0,0,1-.353-6.569,1.1,1.1,0,0,0,.794-.474,1.077,1.077,0,0,0,.143-.915Z" transform="translate(0.226 -1)"/>
      <path id="Trazado_752407" data-name="Trazado 752407" d="M53.307,34.613A3.307,3.307,0,1,0,50,31.307,3.316,3.316,0,0,0,53.307,34.613Zm0-4.409a1.1,1.1,0,1,1-1.1,1.1A1.105,1.105,0,0,1,53.307,30.2Z" transform="translate(4.008 1.759)"/>
      <path id="Trazado_752408" data-name="Trazado 752408" d="M8,31.307A3.307,3.307,0,1,0,11.307,28,3.316,3.316,0,0,0,8,31.307Zm4.409,0a1.1,1.1,0,1,1-1.1-1.1A1.105,1.105,0,0,1,12.409,31.307Z" transform="translate(-0.285 1.759)"/>
      <path id="Trazado_752409" data-name="Trazado 752409" d="M25,55h2.2v8.818H25Z" transform="translate(1.453 4.519)"/>
      <path id="Trazado_752410" data-name="Trazado 752410" d="M37,55h2.2v8.818H37Z" transform="translate(2.679 4.519)"/>
      <path id="Trazado_752411" data-name="Trazado 752411" d="M31,54h2.2v7.715H31Z" transform="translate(2.066 4.416)"/>
      <path id="Trazado_752412" data-name="Trazado 752412" d="M32.307,41.307a1.105,1.105,0,0,1,1.1,1.1h2.2a3.318,3.318,0,0,0-2.2-3.108V38H31.2v1.3a3.3,3.3,0,0,0,1.1,6.415,1.1,1.1,0,1,1-1.1,1.1H29a3.318,3.318,0,0,0,2.2,3.108v1.3h2.2v-1.3a3.3,3.3,0,0,0-1.1-6.415,1.1,1.1,0,1,1,0-2.2Z" transform="translate(1.861 2.781)"/>
      <path id="Trazado_752413" data-name="Trazado 752413" d="M48.861,53.737V36.1a1.105,1.105,0,0,0-1.1-1.1H19.1A1.105,1.105,0,0,0,18,36.1V53.737a1.105,1.105,0,0,0,1.1,1.1H47.759A1.105,1.105,0,0,0,48.861,53.737ZM20.2,37.2H22.21A3.317,3.317,0,0,1,20.2,39.21Zm0,15.431V50.629a3.317,3.317,0,0,1,2.006,2.006Zm26.453,0H44.651a3.317,3.317,0,0,1,2.006-2.006Zm0-4.3a5.522,5.522,0,0,0-4.3,4.3H24.5a5.522,5.522,0,0,0-4.3-4.3V41.5a5.522,5.522,0,0,0,4.3-4.3H42.358a5.522,5.522,0,0,0,4.3,4.3Zm0-9.137a3.317,3.317,0,0,1-2.006-2.006h2.006Z" transform="translate(0.737 2.475)"/>
    </g>
  </g>
</svg>
