<svg xmlns="http://www.w3.org/2000/svg" width="152" height="152" viewBox="0 0 152 152">
  <g id="Grupo_1021642" data-name="Grupo 1021642" transform="translate(-724 -3052)">
    <g id="Grupo_1020472" data-name="Grupo 1020472" transform="translate(731.173 3059)">
      <circle id="Elipse_8460" data-name="Elipse 8460" cx="76" cy="76" r="76" transform="translate(-7.173 -7)" fill="#57dbd8" opacity="0.45"/>
      <circle id="Elipse_8461" data-name="Elipse 8461" cx="62" cy="62" r="62" transform="translate(6.827 7)" fill="#fff"/>
    </g>
    <g id="_027-trade" data-name="027-trade" transform="translate(766 3094)">
      <path id="Trazado_752300" data-name="Trazado 752300" d="M42.84,18.533V7.511L32.92,2,23,7.511V18.533l9.92,5.511Z" transform="translate(1.248 -0.898)" fill="#fab349"/>
      <path id="Trazado_752301" data-name="Trazado 752301" d="M41.92,7V18.022L32,23.533V12.511Z" transform="translate(2.168 -0.387)" fill="#fcd192"/>
      <path id="Trazado_752302" data-name="Trazado 752302" d="M21.839,40.533V29.511L11.92,24,2,29.511V40.533l9.92,5.511Z" transform="translate(-0.898 1.35)" fill="#fab349"/>
      <path id="Trazado_752303" data-name="Trazado 752303" d="M20.92,29V40.022L11,45.533V34.511Z" transform="translate(0.022 1.861)" fill="#fcd192"/>
      <path id="Trazado_752304" data-name="Trazado 752304" d="M63.839,40.533V29.511L53.92,24,44,29.511V40.533l9.92,5.511Z" transform="translate(3.394 1.35)" fill="#fab349"/>
      <path id="Trazado_752305" data-name="Trazado 752305" d="M62.92,29V40.022L53,45.533V34.511Z" transform="translate(4.314 1.861)" fill="#fcd192"/>
      <circle id="Elipse_8517" data-name="Elipse 8517" cx="10" cy="10" r="10" transform="translate(24.018 47.386)" fill="#fab349"/>
      <path id="Trazado_752306" data-name="Trazado 752306" d="M29.175,2.8,22.562,6.47A1.094,1.094,0,0,0,22,7.429V18.451a1.1,1.1,0,0,0,.562.959l9.92,5.511a1.162,1.162,0,0,0,.54.143,1.072,1.072,0,0,0,.54-.143l9.92-5.511a1.094,1.094,0,0,0,.562-.959V7.429a1.1,1.1,0,0,0-.562-.959L36.869,2.8,35.8,4.729,40.682,7.44l-7.649,4.254L25.384,7.44l4.883-2.711L29.2,2.8Zm4.949,10.79L41.839,9.3v8.5l-7.715,4.288Zm-2.2,0v8.5L24.2,17.8V9.3Z" transform="translate(1.146 -0.816)"/>
      <path id="Trazado_752307" data-name="Trazado 752307" d="M1.562,41.594l9.92,5.511a1.162,1.162,0,0,0,.54.143,1.072,1.072,0,0,0,.54-.143l9.92-5.511a1.094,1.094,0,0,0,.562-.959V29.613a1.1,1.1,0,0,0-.562-.959l-9.92-5.511a1.087,1.087,0,0,0-1.069,0L1.562,28.654A1.094,1.094,0,0,0,1,29.613V40.635a1.1,1.1,0,0,0,.562.959ZM20.84,39.985l-7.715,4.288v-8.5l7.715-4.288ZM12.022,25.358l7.649,4.254-7.649,4.254L4.373,29.613ZM3.2,31.487l7.715,4.288v8.5L3.2,39.985Z" transform="translate(-1 1.249)"/>
      <path id="Trazado_752308" data-name="Trazado 752308" d="M64.481,28.654l-9.92-5.511a1.087,1.087,0,0,0-1.069,0l-9.92,5.511a1.094,1.094,0,0,0-.562.959V40.635a1.1,1.1,0,0,0,.562.959l9.92,5.511a1.162,1.162,0,0,0,.54.143,1.072,1.072,0,0,0,.54-.143l9.92-5.511a1.094,1.094,0,0,0,.562-.959V29.613a1.1,1.1,0,0,0-.562-.959ZM52.919,44.272,45.2,39.985v-8.5l7.715,4.288Zm1.1-10.4-7.649-4.254,7.649-4.254,7.649,4.254ZM62.838,40l-7.715,4.288v-8.5L62.838,31.5Z" transform="translate(3.293 1.249)"/>
      <path id="Trazado_752309" data-name="Trazado 752309" d="M44.044,54.022A11.022,11.022,0,1,0,33.022,65.044,11.04,11.04,0,0,0,44.044,54.022ZM33.022,62.84a8.818,8.818,0,1,1,8.818-8.818A8.829,8.829,0,0,1,33.022,62.84Z" transform="translate(1.146 3.292)"/>
      <path id="Trazado_752310" data-name="Trazado 752310" d="M32.307,50.307a1.105,1.105,0,0,1,1.1,1.1h2.2a3.318,3.318,0,0,0-2.2-3.108V47H31.2v1.3a3.3,3.3,0,0,0,1.1,6.415,1.1,1.1,0,1,1-1.1,1.1H29a3.318,3.318,0,0,0,2.2,3.108v1.3h2.2v-1.3a3.3,3.3,0,0,0-1.1-6.415,1.1,1.1,0,1,1,0-2.2Z" transform="translate(1.861 3.701)"/>
      <path id="Trazado_752311" data-name="Trazado 752311" d="M31.379,39.124V28.1a1.1,1.1,0,0,0-1.885-.772l-2.2,2.2,1.554,1.554.32-.32v8.366h2.2Z" transform="translate(1.687 1.657)"/>
      <path id="Trazado_752312" data-name="Trazado 752312" d="M33,28V39.022a1.119,1.119,0,0,0,1.1,1.1,1.11,1.11,0,0,0,.783-.32l2.2-2.2-1.554-1.554-.32.32V28h-2.2Z" transform="translate(2.27 1.759)"/>
      <path id="Trazado_752313" data-name="Trazado 752313" d="M42,46h2.2v2.2H42Z" transform="translate(3.19 3.599)"/>
      <path id="Trazado_752314" data-name="Trazado 752314" d="M45,43h2.2v2.2H45Z" transform="translate(3.497 3.292)"/>
      <path id="Trazado_752315" data-name="Trazado 752315" d="M20,46h2.2v2.2H20Z" transform="translate(0.942 3.599)"/>
      <path id="Trazado_752316" data-name="Trazado 752316" d="M17,43h2.2v2.2H17Z" transform="translate(0.635 3.292)"/>
      <path id="Trazado_752317" data-name="Trazado 752317" d="M21,20h2.2v2.2H21Z" transform="translate(1.044 0.942)"/>
      <path id="Trazado_752318" data-name="Trazado 752318" d="M18,23h2.2v2.2H18Z" transform="translate(0.737 1.248)"/>
      <path id="Trazado_752319" data-name="Trazado 752319" d="M41,20h2.2v2.2H41Z" transform="translate(3.088 0.942)"/>
      <path id="Trazado_752320" data-name="Trazado 752320" d="M44,23h2.2v2.2H44Z" transform="translate(3.394 1.248)"/>
      <path id="Trazado_752321" data-name="Trazado 752321" d="M31,1h2.2V3.2H31Z" transform="translate(2.066 -1)"/>
    </g>
  </g>
</svg>
