<svg id="Grupo_1021679" data-name="Grupo 1021679" xmlns="http://www.w3.org/2000/svg" xmlns:xlink="http://www.w3.org/1999/xlink" width="90" height="90" viewBox="0 0 90 90">
  <defs>
    <clipPath id="clip-path">
      <rect id="Rectángulo_358060" data-name="Rectángulo 358060" width="90" height="90" fill="none"/>
    </clipPath>
  </defs>
  <g id="Grupo_1021687" data-name="Grupo 1021687" clip-path="url(#clip-path)">
    <path id="Trazado_752536" data-name="Trazado 752536" d="M66.569,45a21.568,21.568,0,1,1-6.317-15.249A21.567,21.567,0,0,1,66.569,45" fill="#e9eaec"/>
    <path id="Trazado_752537" data-name="Trazado 752537" d="M67.728,70.254H22.271L23.534,65.2H66.465Z" fill="#e9eaec"/>
    <path id="Trazado_752538" data-name="Trazado 752538" d="M31.11,75.3H26.059L29.847,58.89H34.9Z" fill="#cccde4"/>
    <path id="Trazado_752539" data-name="Trazado 752539" d="M58.89,75.3h5.051L60.153,58.89H55.1Z" fill="#cccde4"/>
    <path id="Trazado_752540" data-name="Trazado 752540" d="M65.2,37.424H24.8v-20.2L33.636,14.7H56.364L65.2,17.221Z" fill="#57dbd8"/>
    <path id="Trazado_752541" data-name="Trazado 752541" d="M29.848,21.009H41.212a1.262,1.262,0,0,1,1.263,1.263V24.8a1.263,1.263,0,0,1-1.263,1.263H29.848A1.264,1.264,0,0,1,28.585,24.8V22.272a1.263,1.263,0,0,1,1.263-1.263" fill="#fff"/>
    <path id="Trazado_752542" data-name="Trazado 752542" d="M41.212,26.943H29.848A2.148,2.148,0,0,1,27.7,24.8V22.272a2.149,2.149,0,0,1,2.147-2.147H41.212a2.149,2.149,0,0,1,2.147,2.147V24.8a2.148,2.148,0,0,1-2.147,2.146m-11.364-5.05a.379.379,0,0,0-.379.379V24.8a.379.379,0,0,0,.379.378H41.212a.378.378,0,0,0,.378-.378V22.272a.379.379,0,0,0-.378-.379Z" fill="#445976"/>
    <path id="Trazado_752543" data-name="Trazado 752543" d="M48.788,21.009H60.152a1.262,1.262,0,0,1,1.263,1.263V24.8a1.263,1.263,0,0,1-1.263,1.263H48.788A1.264,1.264,0,0,1,47.525,24.8V22.272a1.263,1.263,0,0,1,1.263-1.263" fill="#fff"/>
    <path id="Trazado_752544" data-name="Trazado 752544" d="M60.152,26.943H48.788A2.148,2.148,0,0,1,46.641,24.8V22.272a2.149,2.149,0,0,1,2.147-2.147H60.152A2.149,2.149,0,0,1,62.3,22.272V24.8a2.148,2.148,0,0,1-2.147,2.146m-11.364-5.05a.379.379,0,0,0-.379.379V24.8a.379.379,0,0,0,.379.378H60.152a.378.378,0,0,0,.378-.378V22.272a.379.379,0,0,0-.378-.379Z" fill="#445976"/>
    <path id="Trazado_752545" data-name="Trazado 752545" d="M45,31.111,22.272,35.63V52.576H67.728V35.63Z" fill="#57dbd8"/>
    <path id="Trazado_752546" data-name="Trazado 752546" d="M22.272,52.576v7.576L45,62.678l22.729-2.526V52.576L45,47.525Z" fill="#e9eaec"/>
    <rect id="Rectángulo_358058" data-name="Rectángulo 358058" width="5.051" height="10.102" transform="translate(19.746 21.009)" fill="#cccde4"/>
    <rect id="Rectángulo_358059" data-name="Rectángulo 358059" width="5.051" height="10.102" transform="translate(65.203 21.009)" fill="#cccde4"/>
    <path id="Trazado_752547" data-name="Trazado 752547" d="M31.11,41.212a2.526,2.526,0,1,1-2.525-2.525,2.525,2.525,0,0,1,2.525,2.525" fill="#fff"/>
    <path id="Trazado_752548" data-name="Trazado 752548" d="M28.585,44.621a3.409,3.409,0,1,1,3.409-3.409,3.413,3.413,0,0,1-3.409,3.409m0-5.05a1.641,1.641,0,1,0,1.641,1.641,1.643,1.643,0,0,0-1.641-1.641" fill="#445976"/>
    <path id="Trazado_752549" data-name="Trazado 752549" d="M63.94,41.212a2.525,2.525,0,1,1-2.525-2.525,2.525,2.525,0,0,1,2.525,2.525" fill="#fff"/>
    <path id="Trazado_752550" data-name="Trazado 752550" d="M61.415,44.621a3.409,3.409,0,1,1,3.41-3.409,3.413,3.413,0,0,1-3.41,3.409m0-5.05a1.641,1.641,0,1,0,1.641,1.641,1.643,1.643,0,0,0-1.641-1.641" fill="#445976"/>
    <path id="Trazado_752551" data-name="Trazado 752551" d="M70.254,32.078a.969.969,0,0,0,.968-.968v-10.1a.969.969,0,0,0-.968-.968H66.172v-2.82a.972.972,0,0,0-.7-.931l-8.838-2.526a1,1,0,0,0-.266-.037H33.636a1,1,0,0,0-.266.037L24.531,16.29a.973.973,0,0,0-.7.931v2.82H19.747a.969.969,0,0,0-.968.968v10.1a.969.969,0,0,0,.968.968h4.082v2.255l-1.745.347a.971.971,0,0,0-.78.95V60.152a.967.967,0,0,0,.861.962l6.022.67-.567,2.451H23.535a.965.965,0,0,0-.939.733l-1.263,5.051a.967.967,0,0,0,.939,1.2h3.736l-.891,3.865a.969.969,0,0,0,.943,1.187h5.051a.964.964,0,0,0,.943-.751l.993-4.3H56.954l.992,4.3a.966.966,0,0,0,.944.75h5.051a.968.968,0,0,0,.943-1.187l-.891-3.865h3.736a.967.967,0,0,0,.939-1.2L67.4,64.968a.966.966,0,0,0-.939-.733H62.38l-.566-2.451,6.022-.67a.967.967,0,0,0,.861-.962V35.63a.971.971,0,0,0-.78-.95l-1.745-.347V32.078Zm-4.082-10.1h3.114v8.165H66.172ZM25.765,17.951l8.048-2.288,22.456.012,7.966,2.276v16L45.189,30.16a.948.948,0,0,0-.379,0L25.765,33.948Zm-5.05,4.026h3.114v8.165H20.715Zm5.74,47.309H23.512l.778-3.115h2.884Zm3.886,5.05H27.276L30.125,62l2.986.332Zm3.152-5.05.72-3.115H55.788l.72,3.115Zm1.166-5.051.39-1.689,9.845,1.093a.741.741,0,0,0,.094.006h.026a.908.908,0,0,0,.091-.005l9.847-1.094.39,1.689H34.659Zm31.052,1.936.778,3.115H63.545l-.718-3.115Zm-2.986,8.165H59.66L56.89,62.33,59.876,62Zm4.036-15.05L45,61.7l-.032,0L23.24,59.286V53.352L45,48.517l.064.014,21.7,4.821Zm0-7.917L45.211,46.58a1,1,0,0,0-.421,0L23.24,51.369V49.508l11.937-3.58a.964.964,0,0,0,.69-.928V42.18H54.134V45a.964.964,0,0,0,.69.928l11.937,3.58ZM35.867,40.244v-.295a1.56,1.56,0,0,1,1.557-1.557H52.576a1.56,1.56,0,0,1,1.558,1.557v.295Zm30.894-3.82V47.487L56.07,44.28V39.949a3.5,3.5,0,0,0-3.494-3.493H37.424a3.5,3.5,0,0,0-3.493,3.494v4.33L23.24,47.487V36.424L45,32.1Z" fill="#445976"/>
    <path id="Trazado_752552" data-name="Trazado 752552" d="M45,50.051a1.263,1.263,0,0,0-1.263,1.263V58.89a1.263,1.263,0,0,0,2.526,0V51.314A1.263,1.263,0,0,0,45,50.051" fill="#445976"/>
    <path id="Trazado_752553" data-name="Trazado 752553" d="M40.256,51.351a1.263,1.263,0,0,0-1.531.919l-1.263,5.051a1.263,1.263,0,1,0,2.45.612l1.263-5.051a1.264,1.264,0,0,0-.919-1.531" fill="#445976"/>
    <path id="Trazado_752554" data-name="Trazado 752554" d="M51.276,52.27a1.263,1.263,0,1,0-2.45.613l1.262,5.05a1.263,1.263,0,0,0,2.451-.612Z" fill="#445976"/>
  </g>
</svg>
