<svg id="Grupo_1021677" data-name="Grupo 1021677" xmlns="http://www.w3.org/2000/svg" xmlns:xlink="http://www.w3.org/1999/xlink" width="90" height="90" viewBox="0 0 90 90">
  <defs>
    <clipPath id="clip-path">
      <rect id="Rectángulo_358050" data-name="Rectángulo 358050" width="90" height="90" fill="none"/>
    </clipPath>
  </defs>
  <g id="Grupo_1021678" data-name="Grupo 1021678" clip-path="url(#clip-path)">
    <path id="Trazado_752521" data-name="Trazado 752521" d="M26.761,18.612A4.463,4.463,0,0,0,22.608,15.6a4.075,4.075,0,0,0-3.187,1.5,4.374,4.374,0,0,0-3.269-1.5A4.463,4.463,0,0,0,12,18.612a.982.982,0,0,0,.616,1.326,1.015,1.015,0,0,0,1.326-.622,2.364,2.364,0,0,1,2.21-1.588,2.494,2.494,0,0,1,2.211,1.588,1.062,1.062,0,0,0,.971.709,1.158,1.158,0,0,0,1.064-.709,2.332,2.332,0,0,1,4.42,0,1.01,1.01,0,0,0,1.327.622,1.055,1.055,0,0,0,.616-1.326" fill="#445976"/>
    <path id="Trazado_752522" data-name="Trazado 752522" d="M66.369,33.019A21.572,21.572,0,1,1,44.8,11.453,21.572,21.572,0,0,1,66.369,33.019" fill="#e9eaec"/>
    <path id="Trazado_752523" data-name="Trazado 752523" d="M31.181,41.33V31.518H57.97V41.33" fill="#fff"/>
    <rect id="Rectángulo_358048" data-name="Rectángulo 358048" width="16.971" height="5.217" transform="translate(36.044 26.301)" fill="#fff"/>
    <path id="Trazado_752524" data-name="Trazado 752524" d="M77.42,72.981a.979.979,0,0,0-1.327.616,5.72,5.72,0,0,1-5.4,3.8A5.64,5.64,0,0,1,65.3,73.6a.95.95,0,0,0-.971-.616,1.132,1.132,0,0,0-1.058.7,5.714,5.714,0,0,1-5.4,3.8,5.63,5.63,0,0,1-5.392-3.8.955.955,0,0,0-1.058-.617,1.238,1.238,0,0,0-.972.71,5.558,5.558,0,0,1-5.3,3.71,5.631,5.631,0,0,1-5.4-3.8c-.791-2.3-.262-.617-.884-.617a1.116,1.116,0,0,0-.972.71,5.828,5.828,0,0,1-5.478,3.8,5.623,5.623,0,0,1-5.392-3.8,1.185,1.185,0,0,0-.977-.71,1.147,1.147,0,0,0-1.059.71,5.715,5.715,0,0,1-5.391,3.8,5.623,5.623,0,0,1-5.392-3.8,1.036,1.036,0,1,0-1.948.7A7.821,7.821,0,0,0,19.6,79.7a7.381,7.381,0,0,0,6.363-3.362A7.83,7.83,0,0,0,32.333,79.7,7.38,7.38,0,0,0,38.7,76.337,7.829,7.829,0,0,0,45.059,79.7a7.694,7.694,0,0,0,6.369-3.449,7.821,7.821,0,0,0,6.363,3.361,7.992,7.992,0,0,0,6.454-3.361,7.825,7.825,0,0,0,6.363,3.361,7.705,7.705,0,0,0,7.341-5.217.956.956,0,0,0-.529-1.413" fill="#445976"/>
    <path id="Trazado_752525" data-name="Trazado 752525" d="M57.528,64.054c-7.608,10.073-12.732,0-12.732,0-5.3,9.189-12.644.971-12.644.971L24.376,43.808l20.24-7.869,20.246,7.869Z" fill="#57dbd8"/>
    <rect id="Rectángulo_358049" data-name="Rectángulo 358049" width="4.95" height="9.015" transform="translate(42.057 17.286)" fill="#fff"/>
    <path id="Trazado_752526" data-name="Trazado 752526" d="M39.847,13.308A4.477,4.477,0,0,0,35.688,10.3a4.064,4.064,0,0,0-3.181,1.5,4.383,4.383,0,0,0-3.269-1.5,4.471,4.471,0,0,0-4.158,3.007.985.985,0,0,0,.622,1.326,1.017,1.017,0,0,0,1.326-.622,2.352,2.352,0,0,1,2.21-1.588,2.494,2.494,0,0,1,2.211,1.588,1.062,1.062,0,0,0,.971.709,1.144,1.144,0,0,0,1.058-.709,2.333,2.333,0,0,1,4.421,0,1.011,1.011,0,0,0,1.326.622,1.058,1.058,0,0,0,.622-1.326" fill="#445976"/>
    <path id="Trazado_752527" data-name="Trazado 752527" d="M70.435,63.432a.983.983,0,0,0-1.326.622,5.716,5.716,0,0,1-5.392,3.8A5.584,5.584,0,0,1,58.5,64.4l7.514-21.3-6.985-2.74v-9.9H54.08V25.243H48.066V16.222H40.993v9.021H34.985V30.46H30.123v9.812L22.87,43.1l7.782,21.3a5.7,5.7,0,0,1-10.608-.349,1.036,1.036,0,0,0-1.949.7,7.829,7.829,0,0,0,7.34,5.217A7.381,7.381,0,0,0,31.8,66.613a7.84,7.84,0,0,0,6.369,3.362,7.382,7.382,0,0,0,6.363-3.362A7.83,7.83,0,0,0,50.9,69.975a7.69,7.69,0,0,0,6.363-3.449,7.829,7.829,0,0,0,6.363,3.362,7.7,7.7,0,0,0,7.34-5.217c.355-.442,0-1.059-.529-1.239M43.116,18.345h2.827v6.9H43.116ZM37.1,27.366H51.956V30.46H37.1Zm6.369,36.863a5.737,5.737,0,0,1-5.3,3.623A5.5,5.5,0,0,1,32.95,64.4L25.61,44.337l17.861-6.9ZM44.442,34.7l-12.2,4.775v-6.9H56.906v6.985ZM56.377,63.961h0a5.677,5.677,0,0,1-5.392,3.891,5.753,5.753,0,0,1-5.391-3.711v-26.7l17.855,6.9Z" fill="#445976"/>
  </g>
</svg>
