<svg xmlns="http://www.w3.org/2000/svg" xmlns:xlink="http://www.w3.org/1999/xlink" width="525" height="317" viewBox="0 0 525 317">
  <defs>
    <clipPath id="clip-path">
      <rect id="Rectángulo_358006" data-name="Rectángulo 358006" width="341.864" height="289.166" fill="none"/>
    </clipPath>
    <clipPath id="clip-path-3">
      <rect id="Rectángulo_357992" data-name="Rectángulo 357992" width="145.4" height="78.786" fill="none"/>
    </clipPath>
    <clipPath id="clip-path-5">
      <rect id="Rectángulo_357994" data-name="Rectángulo 357994" width="145.669" height="78.926" fill="none"/>
    </clipPath>
    <clipPath id="clip-path-7">
      <rect id="Rectángulo_357996" data-name="Rectángulo 357996" width="169.188" height="91.694" fill="none"/>
    </clipPath>
    <clipPath id="clip-path-9">
      <rect id="Rectángulo_357998" data-name="Rectángulo 357998" width="132.611" height="104.772" fill="none"/>
    </clipPath>
    <clipPath id="clip-path-11">
      <rect id="Rectángulo_358000" data-name="Rectángulo 358000" width="31.544" height="17.073" fill="none"/>
    </clipPath>
    <clipPath id="clip-path-12">
      <rect id="Rectángulo_358001" data-name="Rectángulo 358001" width="31.532" height="17.086" fill="none"/>
    </clipPath>
    <clipPath id="clip-path-13">
      <rect id="Rectángulo_358002" data-name="Rectángulo 358002" width="31.547" height="17.082" fill="none"/>
    </clipPath>
    <clipPath id="clip-path-14">
      <rect id="Rectángulo_358003" data-name="Rectángulo 358003" width="125.531" height="68.016" fill="none"/>
    </clipPath>
    <clipPath id="clip-path-15">
      <rect id="Rectángulo_358004" data-name="Rectángulo 358004" width="5.563" height="9.358" fill="none"/>
    </clipPath>
  </defs>
  <g id="Grupo_1021607" data-name="Grupo 1021607" transform="translate(8070 8934)">
    <rect id="AdobeStock_36302863" width="525" height="317" rx="15" transform="translate(-8070 -8934)" fill="none"/>
    <g id="Grupo_1021576" data-name="Grupo 1021576" transform="translate(-7978.453 -8920.533)">
      <g id="Grupo_1021575" data-name="Grupo 1021575" clip-path="url(#clip-path)">
        <g id="Grupo_1021542" data-name="Grupo 1021542">
          <g id="Grupo_1021541" data-name="Grupo 1021541" clip-path="url(#clip-path)">
            <g id="Grupo_1021540" data-name="Grupo 1021540" transform="translate(61.929 209.751)" opacity="0.3">
              <g id="Grupo_1021539" data-name="Grupo 1021539">
                <g id="Grupo_1021538" data-name="Grupo 1021538" clip-path="url(#clip-path-3)">
                  <path id="Trazado_751719" data-name="Trazado 751719" d="M131,308.727l-63.108-34.2,82.291-44.59,63.108,34.2Z" transform="translate(-67.89 -229.941)"/>
                </g>
              </g>
            </g>
          </g>
        </g>
        <path id="Trazado_751720" data-name="Trazado 751720" d="M131,307.382l-63.108-34.2,82.291-44.6,63.108,34.21Z" transform="translate(-5.961 -20.071)" fill="#fff"/>
        <path id="Trazado_751721" data-name="Trazado 751721" d="M167.195,248l-6.188-3.349h-8.753L146.059,248l0,4.744,2.907,1.579-5.417,2.941-5.148-2.792v-8.191l10.681-5.784h15.1l10.692,5.784Z" transform="translate(-12.152 -21.117)" fill="#eb5c44"/>
        <path id="Trazado_751722" data-name="Trazado 751722" d="M149.458,254.88l3.283,1.77H161.5l6.188-3.349v-4.744l7.672-1.719v8.182l-10.693,5.788h-15.1l-5.532-2.987Z" transform="translate(-12.647 -21.673)" fill="#fdb053"/>
        <path id="Trazado_751723" data-name="Trazado 751723" d="M201.351,270.23l-21.326-11.552,2.22-1.209,21.322,11.559Z" transform="translate(-15.807 -22.607)" fill="#f4efe9"/>
        <path id="Trazado_751724" data-name="Trazado 751724" d="M195.933,273.17l-21.317-11.56,2.216-1.205,21.326,11.551Z" transform="translate(-15.332 -22.865)" fill="#f4efe9"/>
        <path id="Trazado_751725" data-name="Trazado 751725" d="M181.726,271.327,169.2,264.542l2.223-1.2,12.526,6.778Z" transform="translate(-14.856 -23.123)" fill="#f4efe9"/>
        <path id="Trazado_751726" data-name="Trazado 751726" d="M146.866,296.8,96.5,269.513l.552-.3L147.431,296.5Z" transform="translate(-8.473 -23.638)" fill="#a39685"/>
        <path id="Trazado_751727" data-name="Trazado 751727" d="M129.044,274.071l-15.368-8.335-10.957,5.946,15.369,8.327Z" transform="translate(-9.019 -23.333)" fill="#fdb053"/>
        <path id="Trazado_751728" data-name="Trazado 751728" d="M162.625,284.943l-15.381-8.331-17.687,9.6,15.377,8.318Z" transform="translate(-11.376 -24.288)" fill="#eb5c44"/>
        <path id="Trazado_751729" data-name="Trazado 751729" d="M131.139,304.752,80.766,277.46l11.68-6.328,50.369,27.3Z" transform="translate(-7.092 -23.807)" fill="#f4efe9"/>
        <g id="Grupo_1021547" data-name="Grupo 1021547">
          <g id="Grupo_1021546" data-name="Grupo 1021546" clip-path="url(#clip-path)">
            <g id="Grupo_1021545" data-name="Grupo 1021545" transform="translate(0 191.494)" opacity="0.3">
              <g id="Grupo_1021544" data-name="Grupo 1021544">
                <g id="Grupo_1021543" data-name="Grupo 1021543" clip-path="url(#clip-path-5)">
                  <path id="Trazado_751730" data-name="Trazado 751730" d="M63.22,288.853,0,254.6l82.444-44.675,63.224,34.26Z" transform="translate(0 -209.927)"/>
                </g>
              </g>
            </g>
          </g>
        </g>
        <path id="Trazado_751731" data-name="Trazado 751731" d="M0,253.509l63.22,34.264,82.45-44.67L82.445,208.838Z" transform="translate(0 -18.337)" fill="#fff"/>
        <path id="Trazado_751732" data-name="Trazado 751732" d="M93.383,272.592l-56.57-30.653.35-.2L93.737,272.4Z" transform="translate(-3.232 -21.226)" fill="#fdb053"/>
        <path id="Trazado_751733" data-name="Trazado 751733" d="M79.031,231.242l-9.855-5.335-29.23,15.8L49.8,247.05Z" transform="translate(-3.507 -19.836)" fill="#ffec7a"/>
        <path id="Trazado_751734" data-name="Trazado 751734" d="M100.743,234.986l-9.855-5.347-36.3,19.644,9.857,5.339Z" transform="translate(-4.793 -20.163)" fill="#dde65c"/>
        <path id="Trazado_751735" data-name="Trazado 751735" d="M122.46,238.727l-9.858-5.339L69.245,256.852l9.858,5.335Z" transform="translate(-6.08 -20.493)" fill="#e95156"/>
        <path id="Trazado_751736" data-name="Trazado 751736" d="M126.511,252.958l-9.855-5.339L83.894,265.346l9.861,5.339Z" transform="translate(-7.366 -21.742)" fill="#ffc654"/>
        <path id="Trazado_751737" data-name="Trazado 751737" d="M78.047,276.627,28.1,249.564l2.225-1.21,49.952,27.067Z" transform="translate(-2.467 -21.807)" fill="#f4efe9"/>
        <path id="Trazado_751738" data-name="Trazado 751738" d="M51.57,268.164,22.677,252.5l2.223-1.21,28.9,15.664Z" transform="translate(-1.991 -22.065)" fill="#f4efe9"/>
        <g id="Grupo_1021552" data-name="Grupo 1021552">
          <g id="Grupo_1021551" data-name="Grupo 1021551" clip-path="url(#clip-path)">
            <g id="Grupo_1021550" data-name="Grupo 1021550" transform="translate(19.881 139.586)" opacity="0.3">
              <g id="Grupo_1021549" data-name="Grupo 1021549">
                <g id="Grupo_1021548" data-name="Grupo 1021548" clip-path="url(#clip-path-7)">
                  <path id="Trazado_751739" data-name="Trazado 751739" d="M51.653,244.716l139.329-75.5-29.844-16.191L21.8,228.526Z" transform="translate(-21.795 -153.022)"/>
                </g>
              </g>
            </g>
          </g>
        </g>
        <path id="Trazado_751740" data-name="Trazado 751740" d="M54.7,235.656,187.31,163.825v-65.8L43.093,163.35Z" transform="translate(-3.784 -8.607)" fill="#693121"/>
        <g id="Grupo_1021557" data-name="Grupo 1021557">
          <g id="Grupo_1021556" data-name="Grupo 1021556" clip-path="url(#clip-path)">
            <g id="Grupo_1021555" data-name="Grupo 1021555" transform="translate(50.915 89.422)" opacity="0.3">
              <g id="Grupo_1021554" data-name="Grupo 1021554">
                <g id="Grupo_1021553" data-name="Grupo 1021553" clip-path="url(#clip-path-9)">
                  <path id="Trazado_751741" data-name="Trazado 751741" d="M55.816,202.8l132.611-71.9V98.029L55.816,169.911Z" transform="translate(-55.816 -98.029)"/>
                </g>
              </g>
            </g>
          </g>
        </g>
        <path id="Trazado_751742" data-name="Trazado 751742" d="M56.149,137.05,188.786,56.241l-8.671-14.1L35.221,107.39Z" transform="translate(-3.093 -3.701)" fill="#853e2a"/>
        <path id="Trazado_751743" data-name="Trazado 751743" d="M57.664,195.253,190.3,123.386V57.6L57.664,129.477l-5.189,27.216Z" transform="translate(-4.608 -5.057)" fill="#693121"/>
        <path id="Trazado_751744" data-name="Trazado 751744" d="M28.043,120.752V223.59l7.439,6.553,10.468,5.7,7.427,1.455V134.452L45.95,122.435l-10.468-5.706Z" transform="translate(-2.462 -10.249)" fill="#944e39"/>
        <path id="Trazado_751745" data-name="Trazado 751745" d="M53.378,199.022,41.772,148.888l-7.181-22.063.369-4.2-6.916-2.136,6.548-6.813,12.248,6.637,8.68,14.093v65.776Z" transform="translate(-2.462 -9.981)" fill="#944e39"/>
        <path id="Trazado_751746" data-name="Trazado 751746" d="M47.469,113.389,180.115,41.507l-12.271-6.629L35.221,106.751Z" transform="translate(-3.093 -3.062)" fill="#d18067"/>
        <path id="Trazado_751747" data-name="Trazado 751747" d="M170.733,129.362v18.115l14.868-8.046.023-18.145Z" transform="translate(-14.991 -10.649)" fill="#e2d5c5"/>
        <path id="Trazado_751748" data-name="Trazado 751748" d="M168.423,128.881v18.134l2.107,1.129V130.028Z" transform="translate(-14.788 -11.316)" fill="#bfa69d"/>
        <path id="Trazado_751749" data-name="Trazado 751749" d="M168.423,128.1l14.875-8.069,2.123,1.141-14.891,8.076Z" transform="translate(-14.788 -10.54)" fill="#f7f2e8"/>
        <path id="Trazado_751750" data-name="Trazado 751750" d="M173.447,135.331l2.3,2.313.545-1.917,1.78-2.141-3.039-.847Z" transform="translate(-15.229 -11.655)" fill="#e6e1dd"/>
        <path id="Trazado_751751" data-name="Trazado 751751" d="M173.447,138.585l2.031,1.091.769-1.782-.769-1.224-2.031-1.089Z" transform="translate(-15.229 -11.904)" fill="#bfa69d"/>
        <path id="Trazado_751752" data-name="Trazado 751752" d="M175.673,136.171v3.007l1.6.877,6.747-3.671,1.616-2.593v-3.023l-1.616-.857-6.747,3.673Z" transform="translate(-15.425 -11.407)" fill="#e2d5c5"/>
        <path id="Trazado_751753" data-name="Trazado 751753" d="M177.23,133.476l6.747-3.673-2.005-1.1-6.792,3.687Z" transform="translate(-15.382 -11.3)" fill="#f7f2e8"/>
        <path id="Trazado_751754" data-name="Trazado 751754" d="M79.2,178.983V197.1l14.882-8.055V170.9Z" transform="translate(-6.954 -15.006)" fill="#e2d5c5"/>
        <path id="Trazado_751755" data-name="Trazado 751755" d="M76.867,178.5v18.122L79,197.763V179.65Z" transform="translate(-6.749 -15.673)" fill="#bfa69d"/>
        <path id="Trazado_751756" data-name="Trazado 751756" d="M76.867,177.718l14.921-8.08,2.091,1.15L79,178.872Z" transform="translate(-6.749 -14.895)" fill="#f7f2e8"/>
        <path id="Trazado_751757" data-name="Trazado 751757" d="M81.906,184.926l2.313,2.339.543-1.923,1.781-2.152-3.074-.869Z" transform="translate(-7.192 -16.009)" fill="#e6e1dd"/>
        <path id="Trazado_751758" data-name="Trazado 751758" d="M81.906,188.177l2.041,1.091.758-1.753-.758-1.234-2.041-1.1Z" transform="translate(-7.192 -16.259)" fill="#bfa69d"/>
        <path id="Trazado_751759" data-name="Trazado 751759" d="M84.145,185.783v2.987l1.585.891,6.756-3.683,1.6-2.571v-3.013l-1.6-.879L85.73,183.2Z" transform="translate(-7.388 -15.762)" fill="#e2d5c5"/>
        <path id="Trazado_751760" data-name="Trazado 751760" d="M85.683,183.1l6.756-3.688-2.031-1.082-6.789,3.641Z" transform="translate(-7.342 -15.658)" fill="#f7f2e8"/>
        <path id="Trazado_751761" data-name="Trazado 751761" d="M140.322,61.789h3.258l2.333-1.235V58.772l-2.333-1.266h-3.258l-2.3,1.266v1.782Z" transform="translate(-12.119 -5.049)" fill="#e6e1dd"/>
        <path id="Trazado_751762" data-name="Trazado 751762" d="M144.1,62.083l2.333-1.235v2.846L144.1,64.966l-.167-2.656Z" transform="translate(-12.638 -5.343)" fill="#a39c95"/>
        <path id="Trazado_751763" data-name="Trazado 751763" d="M140.519,62.2h3.258v2.883h-3.258l-.246-2.7Z" transform="translate(-12.317 -5.462)" fill="#bfb8af"/>
        <path id="Trazado_751764" data-name="Trazado 751764" d="M138.027,60.848l2.3,1.235v2.883l-2.3-1.273Z" transform="translate(-12.119 -5.343)" fill="#d8d1c7"/>
        <path id="Trazado_751765" data-name="Trazado 751765" d="M143,45.389h-1.888l-1.283-.712V43.664l1.283-.724H143l1.316.724v1.013Z" transform="translate(-12.278 -3.77)" fill="#785b56"/>
        <path id="Trazado_751766" data-name="Trazado 751766" d="M141.114,45.557l-1.284-.712v14l1.284.7.122-13.865Z" transform="translate(-12.278 -3.938)" fill="#574943"/>
        <path id="Trazado_751767" data-name="Trazado 751767" d="M143.125,45.625h-1.888V59.611h1.888l.14-13.9Z" transform="translate(-12.401 -4.006)" fill="#362c29"/>
        <path id="Trazado_751768" data-name="Trazado 751768" d="M144.623,44.844l-1.316.712V59.542l1.316-.7Z" transform="translate(-12.583 -3.937)" fill="#0a0808"/>
        <path id="Trazado_751769" data-name="Trazado 751769" d="M84.509,92.029h3.274l2.293-1.256v-1.76L87.783,87.74H84.509L82.2,89.013v1.76Z" transform="translate(-7.217 -7.704)" fill="#e6e1dd"/>
        <path id="Trazado_751770" data-name="Trazado 751770" d="M88.3,92.321,90.6,91.065v2.867L88.3,95.181l-.176-2.64Z" transform="translate(-7.738 -7.996)" fill="#a39c95"/>
        <path id="Trazado_751771" data-name="Trazado 751771" d="M84.706,92.442H87.98V95.3H84.706l-.265-2.68Z" transform="translate(-7.414 -8.117)" fill="#bfb8af"/>
        <path id="Trazado_751772" data-name="Trazado 751772" d="M82.2,91.064l2.311,1.256v2.861L82.2,93.931Z" transform="translate(-7.217 -7.996)" fill="#d8d1c7"/>
        <path id="Trazado_751773" data-name="Trazado 751773" d="M87.19,75.618H85.338l-1.3-.7V73.887l1.3-.713H87.19l1.314.713v1.027Z" transform="translate(-7.379 -6.425)" fill="#785b56"/>
        <path id="Trazado_751774" data-name="Trazado 751774" d="M85.338,75.786l-1.3-.7V89.067l1.3.728.106-13.871Z" transform="translate(-7.379 -6.592)" fill="#574943"/>
        <path id="Trazado_751775" data-name="Trazado 751775" d="M87.315,75.854H85.463v14.01h1.852l.162-13.918Z" transform="translate(-7.504 -6.66)" fill="#362c29"/>
        <path id="Trazado_751776" data-name="Trazado 751776" d="M88.807,75.081l-1.314.7V89.8l1.314-.728Z" transform="translate(-7.682 -6.592)" fill="#0a0808"/>
        <path id="Trazado_751777" data-name="Trazado 751777" d="M144.124,39.958l-2.711-4.4-3.837-2.086L134.9,34.95V39.1l2.675,4.392,3.837,2.077,2.711-1.47Z" transform="translate(-11.845 -2.939)" fill="#bfb8af"/>
        <path id="Trazado_751778" data-name="Trazado 751778" d="M141.671,35.33l-3.837-2.086,4.364-2.357,3.839,2.084-3.873,2.41Z" transform="translate(-12.102 -2.712)" fill="#e6e1dd"/>
        <path id="Trazado_751779" data-name="Trazado 751779" d="M144.751,39.931l-2.711-4.4,4.366-2.36,2.714,4.386-3.882,2.582Z" transform="translate(-12.472 -2.913)" fill="#d8d1c7"/>
        <path id="Trazado_751780" data-name="Trazado 751780" d="M145.012,44.491V40.354l4.368-2.374v4.148Z" transform="translate(-12.733 -3.335)" fill="#a39c95"/>
        <path id="Trazado_751781" data-name="Trazado 751781" d="M91.607,67.862,89.651,64.68l-2.757-1.49-1.937,1.05v2.976l1.937,3.17,2.757,1.5,1.956-1.057Z" transform="translate(-7.46 -5.548)" fill="#785b56"/>
        <path id="Trazado_751782" data-name="Trazado 751782" d="M89.838,62.239l-2.756-1.49L133.87,35.4l2.766,1.464L90.211,62.268Z" transform="translate(-7.646 -3.108)" fill="#836e69"/>
        <path id="Trazado_751783" data-name="Trazado 751783" d="M92.059,65.563,90.1,62.38,136.9,37l1.948,3.215L92.418,65.692Z" transform="translate(-7.911 -3.249)" fill="#685750"/>
        <path id="Trazado_751784" data-name="Trazado 751784" d="M92.247,68.841V65.872l46.789-25.349v2.99Z" transform="translate(-8.1 -3.558)" fill="#403531"/>
        <path id="Trazado_751785" data-name="Trazado 751785" d="M88.314,70.193l-2.733-4.4-3.818-2.064-2.69,1.462v4.138l2.69,4.407,3.818,2.085,2.733-1.461Z" transform="translate(-6.943 -5.595)" fill="#bfb8af"/>
        <path id="Trazado_751786" data-name="Trazado 751786" d="M85.84,65.562,82.023,63.5l4.386-2.36L90.225,63.2l-3.848,2.436Z" transform="translate(-7.202 -5.368)" fill="#e6e1dd"/>
        <path id="Trazado_751787" data-name="Trazado 751787" d="M88.94,70.164l-2.733-4.4L90.593,63.4,93.3,67.8l-3.9,2.568Z" transform="translate(-7.569 -5.566)" fill="#d8d1c7"/>
        <path id="Trazado_751788" data-name="Trazado 751788" d="M89.2,74.751V70.588l4.364-2.362v4.147Z" transform="translate(-7.832 -5.991)" fill="#a39c95"/>
        <path id="Trazado_751789" data-name="Trazado 751789" d="M354.2,78.7l-6.842,11.117V250.632l-5.93,9.646-8.384,4.542-6.168-3.331-1.08,1.765,6.609,3.582,9.658-5.241,6.84-11.1V89.67l5.931-9.646,8.388-4.544,6.168,3.334,1.08-1.77-6.606-3.578Z" transform="translate(-28.606 -6.451)" fill="#d1d1d1"/>
        <path id="Trazado_751790" data-name="Trazado 751790" d="M231,0l-9.667,5.241L345.028,72.247l9.663-5.231Z" transform="translate(-19.434 0)" fill="#fff"/>
        <path id="Trazado_751791" data-name="Trazado 751791" d="M321.836,276.349,198.152,209.338l8.386-4.557L330.22,271.808Z" transform="translate(-17.399 -17.981)" fill="#fff"/>
        <path id="Trazado_751792" data-name="Trazado 751792" d="M313.89,274.9,190.207,207.878l1.087-1.753,123.676,67.011Z" transform="translate(-16.701 -18.099)" fill="#e0dedc"/>
        <path id="Trazado_751793" data-name="Trazado 751793" d="M337.529,83.868,213.846,16.845l6.831-11.1L344.371,72.751Z" transform="translate(-18.777 -0.504)" fill="#fff"/>
        <path id="Trazado_751794" data-name="Trazado 751794" d="M331.028,270.881,207.345,203.854l5.93-9.633,123.683,67.014Z" transform="translate(-18.206 -17.053)" fill="#fff"/>
        <path id="Trazado_751795" data-name="Trazado 751795" d="M337.529,245.754,213.846,178.74V17.913L337.529,84.937Z" transform="translate(-18.777 -1.573)" fill="#f4efe9"/>
        <path id="Trazado_751796" data-name="Trazado 751796" d="M337.529,137.51,213.846,70.493V39.6l123.683,67.016Z" transform="translate(-18.777 -3.477)" fill="#fe7062"/>
        <path id="Trazado_751797" data-name="Trazado 751797" d="M225.213,110.111v5.179l102.946,55.783v-5.186Z" transform="translate(-19.775 -9.668)" fill="#d1d1d1"/>
        <path id="Trazado_751798" data-name="Trazado 751798" d="M225.213,127.481l102.946,55.781v-5.19L225.213,122.294Z" transform="translate(-19.775 -10.738)" fill="#d1d1d1"/>
        <path id="Trazado_751799" data-name="Trazado 751799" d="M225.213,139.658l102.946,55.776v-5.178L225.213,134.483Z" transform="translate(-19.775 -11.808)" fill="#d1d1d1"/>
        <path id="Trazado_751800" data-name="Trazado 751800" d="M225.213,151.839l59.846,32.433v-5.189l-59.846-32.429Z" transform="translate(-19.775 -12.877)" fill="#d1d1d1"/>
        <path id="Trazado_751801" data-name="Trazado 751801" d="M293.754,224.753l40.422,21.916V245.5l-40.422-21.906Z" transform="translate(-25.793 -19.632)" fill="#d1d1d1"/>
        <g id="Grupo_1021574" data-name="Grupo 1021574">
          <g id="Grupo_1021573" data-name="Grupo 1021573" clip-path="url(#clip-path)">
            <path id="Trazado_751802" data-name="Trazado 751802" d="M322.25,235.7l-.454-1.171,1.375-1.6.05-.055-.016-.106-.549-3.871-.109-.674-.271.4-1.918,2.792-.054.056.054.1,1.038,2.445-.913,1.04-1.108-2.339-.038-.1-.065-.064-1.431-1.621,1.471-1.074.165-.119-.088-.281-1.21-4.116-.307-1.019-.387.582-2.331,3.4-.172.234.3.327,1.387,1.528-.89.628-2.1-3.514q.606-.23,1.228-.458l.255-.1-.124-.416-1.437-4.274-.436-1.307-.393.87-1.327,2.928-.109.225.2.331.832,1.383c-.7.259-1.415.514-2.105.776l-2.344-6.127c1.214-1.532,2.413-3.051,3.59-4.592l.063-.1-.051-.152-4.067-12.168-.256-.751-.37.348c-1.492,1.4-2.964,2.818-4.439,4.252l-.14.144.109.314,4.877,12.974c-.228.322-.443.628-.682.954-1.838.23-3.661.48-5.48.726,1.881-.119,3.771-.272,5.64-.421h.032l.021-.029c.2-.276.411-.531.626-.806l2.3,6.162.267.722.456-.17c.873-.318,1.735-.645,2.6-.989l2.462,4.109.339.546.292-.224,1.329-.951,1.5,1.659,1.2,2.542-2.853,3.268-.04.042v.072l.045,5.878.007.806.494-.331,3.645-2.444.079-.06-.012-.131-.271-5.81,0-.085-.054-.1-.391-.844.878-1.032.479,1.1.032.093.054.013,5.927.679Zm-19.03-26.771c1.286-1.277,2.572-2.567,3.837-3.858l3.927,11.23c-1.083,1.506-2.155,3.039-3.23,4.575Zm9.152,16.39.841-1.8.85,2.546c-.344.127-.685.254-1.015.382Zm3.532,3.416,1.833-2.5.8,2.819-1.445,1.035Zm4.759,7.808.26,5.585-3.07,2.075-.09-5.008,2.691-3.107Zm0-4.876,1.667-2.258.4,3.085-1.21,1.371Z" transform="translate(-26.436 -17.875)" fill="#836e69"/>
            <g id="Grupo_1021560" data-name="Grupo 1021560" transform="translate(123.366 180.032)" opacity="0.3">
              <g id="Grupo_1021559" data-name="Grupo 1021559">
                <g id="Grupo_1021558" data-name="Grupo 1021558" clip-path="url(#clip-path-11)">
                  <path id="Trazado_751803" data-name="Trazado 751803" d="M166.784,202.364l-9.241-5H144.487l-9.234,5-.011,7.066,9.245,5h13.057l9.241-5Z" transform="translate(-135.241 -197.361)"/>
                </g>
              </g>
            </g>
            <path id="Trazado_751804" data-name="Trazado 751804" d="M144.487,215.12l-9.245-5.013v-3.382l10.719,2.9Z" transform="translate(-11.875 -18.151)" fill="#ffd46a"/>
            <path id="Trazado_751805" data-name="Trazado 751805" d="M159.566,215.12l9.241-5.013v-3.382l-10.539,3.251Z" transform="translate(-13.897 -18.151)" fill="#cc934c"/>
            <path id="Trazado_751806" data-name="Trazado 751806" d="M158.434,215.4H145.376v-3.387l6.15-2.1,6.907,2.1Z" transform="translate(-12.765 -18.431)" fill="#e3bd5e"/>
            <path id="Trazado_751807" data-name="Trazado 751807" d="M166.784,198.479l-9.241-5H144.487l-9.234,5-.011,7.083,9.245,5h13.057l9.241-5Z" transform="translate(-11.875 -16.988)" fill="#fbe979"/>
            <path id="Trazado_751808" data-name="Trazado 751808" d="M157.069,195.239H145.23l-8.341,4.536v5.6l8.364,4.528h11.816l8.366-4.52v-5.606Z" transform="translate(-12.019 -17.143)" fill="#e3bd5e"/>
            <path id="Trazado_751809" data-name="Trazado 751809" d="M165.435,198.889v.81l-8.366-4.536H145.23l-8.341,4.536v-.81l8.341-4.52h11.838Z" transform="translate(-12.019 -17.066)" fill="#cc934c"/>
            <path id="Trazado_751810" data-name="Trazado 751810" d="M158.8,204.2l2.629-1.422V199.9l-1.037-.552,1.173-.645v-.819l-2.752.6-1.126-.6h-5.293l-3.735,2.016v2.882l1.121.6-5.15,2.8-.318-.182v-1.617l1.831-1v-.819l-4.565,1.189V206.6l1.115.628-.113.051-.982-.275v.805l1.595.87,1.069-.589,1.04.535h5.291l3.742-2.024v-2.856l-1.024-.574,5.133-2.762.233.123v1.625l-.529.276-1.3-.085v.789Zm-7.194.173v1.617l-2.142,1.163h-3.009l-.237-.124,5.144-2.8Zm.115-2.024-.321-.192v-1.625l2.141-1.158h3.014l.315.182Z" transform="translate(-12.431 -17.375)" fill="#cc934c"/>
            <path id="Trazado_751811" data-name="Trazado 751811" d="M158.8,203.3l2.629-1.418v-2.869l-1.037-.556,1.173-.653-1.581-.837-1.171.624-1.126-.607h-5.293l-3.735,2.029v2.869l1.121.6-5.15,2.8-.318-.144V203.48l1.831-1-1.942-1.052-2.623,1.426v2.873l1.115.6-1.095.6,1.595.87,1.069-.611,1.04.565h5.291l3.742-2.024v-2.873l-1.024-.552,5.133-2.788.233.119v1.626l-1.831,1.014Zm-7.194.182v1.655l-2.142,1.125h-3.009l-.237-.14,5.144-2.767Zm.115-2.033-.321-.191V199.63l2.141-1.15h3.014l.315.17Z" transform="translate(-12.431 -17.294)" fill="#fbe979"/>
            <path id="Trazado_751812" data-name="Trazado 751812" d="M145.073,210.64l-9.25-4.991v-3.4l10.728,2.894Z" transform="translate(-11.926 -17.758)" fill="#ffd46a"/>
            <path id="Trazado_751813" data-name="Trazado 751813" d="M160.154,210.64l9.239-4.991v-3.4l-10.552,3.247Z" transform="translate(-13.947 -17.758)" fill="#cc934c"/>
            <path id="Trazado_751814" data-name="Trazado 751814" d="M159.023,210.918h-13.06v-3.365l6.144-2.135,6.916,2.135Z" transform="translate(-12.816 -18.037)" fill="#e3bd5e"/>
            <path id="Trazado_751815" data-name="Trazado 751815" d="M167.371,194l-9.239-5.012H145.074L135.84,194l-.016,7.083,9.25,5.007h13.059l9.239-5.007Z" transform="translate(-11.926 -16.594)" fill="#fbe979"/>
            <path id="Trazado_751816" data-name="Trazado 751816" d="M157.656,190.773H145.838l-8.361,4.541V200.9l8.375,4.545h11.8l8.361-4.528v-5.605Z" transform="translate(-12.071 -16.751)" fill="#e3bd5e"/>
            <path id="Trazado_751817" data-name="Trazado 751817" d="M166.017,194.431v.806l-8.361-4.541H145.838l-8.361,4.541v-.806l8.361-4.537h11.818Z" transform="translate(-12.071 -16.673)" fill="#cc934c"/>
            <path id="Trazado_751818" data-name="Trazado 751818" d="M159.382,199.719l2.63-1.409v-2.861l-1.04-.585,1.173-.637v-.8L159.4,194l-1.121-.577h-5.293l-3.738,2.024v2.861l1.113.6L145.21,201.7l-.312-.178v-1.6l1.823-1v-.806l-4.575,1.163v2.868l1.127.611-.129.064-.971-.288v.81l1.6.849,1.075-.556,1.024.551h5.3l3.744-2.041v-2.868l-1.042-.569,5.155-2.792.24.157v1.6l-.55.3-1.291-.123v.827Zm-7.208.2v1.6l-2.13,1.168h-3.028l-.228-.144,5.153-2.8Zm.127-2.067-.323-.178v-1.6l2.132-1.171h3.025l.319.17Z" transform="translate(-12.481 -16.984)" fill="#cc934c"/>
            <path id="Trazado_751819" data-name="Trazado 751819" d="M159.382,198.846l2.63-1.439v-2.865l-1.04-.577,1.173-.625-1.572-.861-1.176.629-1.121-.586h-5.293l-3.738,2.02v2.865l1.113.615-5.148,2.789-.312-.182V199l1.823-.976-1.938-1.053-2.637,1.422v2.852l1.127.607-1.1.59,1.6.849,1.075-.59,1.024.552h5.3l3.744-2.008v-2.852l-1.042-.582,5.155-2.775.24.123v1.621l-1.841.984Zm-7.208.152v1.63l-2.13,1.167h-3.028l-.228-.128,5.153-2.8Zm.127-2.011-.323-.208v-1.621L154.109,194h3.025l.319.17Z" transform="translate(-12.481 -16.901)" fill="#fbe979"/>
            <path id="Trazado_751820" data-name="Trazado 751820" d="M144.489,206.164l-9.248-4.991v-3.408l10.722,2.907Z" transform="translate(-11.875 -17.365)" fill="#ffd46a"/>
            <path id="Trazado_751821" data-name="Trazado 751821" d="M159.566,206.164l9.254-4.991v-3.408l-10.552,3.229Z" transform="translate(-13.897 -17.365)" fill="#cc934c"/>
            <path id="Trazado_751822" data-name="Trazado 751822" d="M158.434,206.444H145.378v-3.379l6.153-2.113,6.9,2.113Z" transform="translate(-12.765 -17.645)" fill="#e3bd5e"/>
            <path id="Trazado_751823" data-name="Trazado 751823" d="M166.8,189.524l-9.254-5H144.488l-9.229,5-.018,7.079,9.247,5h13.055l9.254-5Z" transform="translate(-11.875 -16.202)" fill="#fbe979"/>
            <path id="Trazado_751824" data-name="Trazado 751824" d="M157.081,186.307H145.244l-8.345,4.541v5.6l8.354,4.5h11.828l8.355-4.5v-5.6Z" transform="translate(-12.02 -16.359)" fill="#e3bd5e"/>
            <path id="Trazado_751825" data-name="Trazado 751825" d="M165.435,189.956v.815l-8.355-4.541H145.245L136.9,190.77v-.815l8.346-4.528h11.836Z" transform="translate(-12.02 -16.281)" fill="#cc934c"/>
            <path id="Trazado_751826" data-name="Trazado 751826" d="M158.8,195.241l2.629-1.409v-2.877l-1.037-.573,1.173-.641v-.815l-2.745.594-1.121-.594h-5.3l-3.735,2.029v2.877l1.121.6-5.148,2.784-.319-.161V195.4l1.829-.976v-.819l-4.563,1.184v2.869l1.113.619-.113.042-.982-.271v.815l1.6.857,1.063-.595,1.054.574h5.277l3.749-2.041v-2.869l-1.031-.56,5.143-2.8.229.136V193.2l-.536.293-1.3-.106v.815Zm-7.194.161v1.655l-2.142,1.138h-3.009l-.237-.115,5.144-2.8Zm.119-2.016-.326-.187V191.57l2.141-1.15h3.014l.315.174Z" transform="translate(-12.431 -16.589)" fill="#cc934c"/>
            <path id="Trazado_751827" data-name="Trazado 751827" d="M158.8,194.355l2.629-1.435v-2.852l-1.037-.56,1.173-.662-1.574-.832-1.171.637-1.121-.611h-5.3l-3.735,2.029v2.852l1.121.607-5.148,2.789-.319-.157v-1.634l1.829-1-1.939-1.061-2.623,1.439v2.877l1.113.586-1.095.6,1.6.849,1.063-.594,1.054.56h5.277l3.749-2V193.9l-1.031-.577,5.143-2.784.229.127v1.638l-1.838,1Zm-7.194.17v1.634L149.46,197.3h-3.009l-.237-.114,5.144-2.8Zm.119-2.042-.326-.174V190.67l2.141-1.154h3.014l.315.182Z" transform="translate(-12.431 -16.508)" fill="#fbe979"/>
            <path id="Trazado_751828" data-name="Trazado 751828" d="M144.5,201.686l-9.245-5.012v-3.366l10.728,2.908Z" transform="translate(-11.876 -16.973)" fill="#ffd46a"/>
            <path id="Trazado_751829" data-name="Trazado 751829" d="M159.573,201.686l9.248-5.012v-3.366l-10.548,3.243Z" transform="translate(-13.897 -16.973)" fill="#cc934c"/>
            <path id="Trazado_751830" data-name="Trazado 751830" d="M158.442,201.966H145.389v-3.373l6.152-2.1,6.9,2.1Z" transform="translate(-12.766 -17.253)" fill="#e3bd5e"/>
            <path id="Trazado_751831" data-name="Trazado 751831" d="M166.8,185.05l-9.248-4.991H144.5l-9.238,4.991-.007,7.1,9.245,4.991h13.053l9.248-4.991Z" transform="translate(-11.876 -15.81)" fill="#fbe979"/>
            <path id="Trazado_751832" data-name="Trazado 751832" d="M157.081,181.817H145.254l-8.354,4.541v5.589l8.368,4.536h11.814l8.361-4.536v-5.589Z" transform="translate(-12.02 -15.964)" fill="#e3bd5e"/>
            <path id="Trazado_751833" data-name="Trazado 751833" d="M165.442,185.467v.815l-8.361-4.541H145.254l-8.354,4.541v-.815l8.354-4.52h11.828Z" transform="translate(-12.02 -15.888)" fill="#cc934c"/>
            <path id="Trazado_751834" data-name="Trazado 751834" d="M158.81,190.778l2.615-1.43v-2.869l-1.028-.56,1.17-.645v-.824l-2.749.62-1.118-.62h-5.3l-3.735,2.029v2.869l1.112.595-5.146,2.818-.321-.182v-1.634l1.836-1v-.789l-4.57,1.17v2.87l1.113.615-.093.047-.994-.288v.832l1.594.823,1.07-.552,1.046.544h5.3l3.745-2.02v-2.87l-1.038-.568,5.144-2.775.222.119v1.642l-.536.275-1.288-.1v.794Zm-7.2.166v1.634l-2.13,1.142h-3.026l-.228-.128,5.146-2.784Zm.12-2.029-.323-.174V187.1l2.15-1.155h3l.312.179Z" transform="translate(-12.431 -16.196)" fill="#cc934c"/>
            <path id="Trazado_751835" data-name="Trazado 751835" d="M158.81,189.883l2.615-1.43V185.6l-1.028-.573,1.17-.654-1.58-.836-1.169.624-1.118-.6h-5.3l-3.735,2.041v2.856l1.112.62-5.146,2.779-.321-.166v-1.629l1.836-.984-1.947-1.065-2.623,1.413v2.885l1.113.582-1.087.6,1.594.878,1.07-.607,1.046.56h5.3l3.745-2.012V189.42l-1.038-.544,5.144-2.784.222.11v1.622l-1.824,1.01Zm-7.2.174v1.629l-2.13,1.146h-3.026l-.228-.135,5.146-2.789Zm.12-2.041-.323-.191V186.2l2.15-1.154h3l.312.178Z" transform="translate(-12.431 -16.115)" fill="#fbe979"/>
            <path id="Trazado_751836" data-name="Trazado 751836" d="M145.078,197.554l-9.25-5.016v-3.37l10.727,2.911Z" transform="translate(-11.926 -16.61)" fill="#ffd46a"/>
            <path id="Trazado_751837" data-name="Trazado 751837" d="M160.154,197.554l9.248-5.016v-3.37L158.84,192.41Z" transform="translate(-13.947 -16.61)" fill="#cc934c"/>
            <path id="Trazado_751838" data-name="Trazado 751838" d="M159.024,197.834H145.968v-3.379l6.144-2.1,6.912,2.1Z" transform="translate(-12.817 -16.89)" fill="#e3bd5e"/>
            <path id="Trazado_751839" data-name="Trazado 751839" d="M167.381,180.929l-9.248-5.02H145.079l-9.239,5.02L135.829,188l9.25,5h13.054l9.248-5Z" transform="translate(-11.926 -15.446)" fill="#fbe979"/>
            <path id="Trazado_751840" data-name="Trazado 751840" d="M157.664,177.7H145.841l-8.357,4.524v5.594l8.368,4.541h11.811l8.355-4.541v-5.594Z" transform="translate(-12.072 -15.602)" fill="#e3bd5e"/>
            <path id="Trazado_751841" data-name="Trazado 751841" d="M166.018,181.331v.81l-8.355-4.524H145.841l-8.357,4.524v-.81l8.357-4.52h11.822Z" transform="translate(-12.072 -15.525)" fill="#cc934c"/>
            <path id="Trazado_751842" data-name="Trazado 751842" d="M159.382,186.643l2.63-1.427V182.34l-1.04-.56,1.178-.645v-.815l-2.752.6-1.121-.6h-5.293l-3.738,2.02v2.877l1.113.6-5.137,2.805-.314-.182V186.8l1.834-.984v-.815l-4.594,1.188v2.861l1.127.611-.113.059-.976-.272v.8l1.592.84,1.075-.568,1.024.56h5.3l3.744-2.029v-2.861l-1.035-.572,5.144-2.789.24.144V184.6l-.543.288-1.289-.1v.8Zm-7.2.161v1.638l-2.137,1.159h-3.016l-.24-.122,5.153-2.8Zm.124-2.02-.319-.187v-1.621l2.135-1.163h3.017l.318.171Z" transform="translate(-12.481 -15.833)" fill="#cc934c"/>
            <path id="Trazado_751843" data-name="Trazado 751843" d="M159.382,185.748l2.63-1.434v-2.869l-1.04-.544,1.178-.661-1.576-.833-1.176.62-1.121-.594h-5.293l-3.738,2.011v2.869l1.113.611-5.137,2.8-.314-.152v-1.656l1.834-.992-1.958-1.062-2.636,1.427v2.873l1.127.6-1.089.611,1.592.857,1.075-.594,1.024.547h5.3l3.744-2.02V185.29l-1.035-.56,5.144-2.771.24.106V183.7l-1.832,1Zm-7.2.17v1.656l-2.137,1.138h-3.016l-.24-.149,5.153-2.776Zm.124-2.037-.319-.178v-1.638l2.135-1.141h3.017l.318.173Z" transform="translate(-12.481 -15.753)" fill="#fbe979"/>
            <path id="Trazado_751844" data-name="Trazado 751844" d="M143.728,192.439l-9.243-5.008v-3.4l10.72,2.92Z" transform="translate(-11.808 -16.159)" fill="#ffd46a"/>
            <path id="Trazado_751845" data-name="Trazado 751845" d="M158.8,192.439l9.245-5.008v-3.4L157.5,187.283Z" transform="translate(-13.829 -16.159)" fill="#cc934c"/>
            <path id="Trazado_751846" data-name="Trazado 751846" d="M157.673,192.72H144.618v-3.387l6.144-2.1,6.912,2.1Z" transform="translate(-12.698 -16.44)" fill="#e3bd5e"/>
            <path id="Trazado_751847" data-name="Trazado 751847" d="M166.028,175.8l-9.245-5.012H143.728l-9.242,5.012v7.07l9.242,5h13.055l9.245-5Z" transform="translate(-11.808 -14.996)" fill="#fbe979"/>
            <path id="Trazado_751848" data-name="Trazado 751848" d="M156.317,172.573H144.494l-8.37,4.52v5.61l8.37,4.52h11.823l8.358-4.52v-5.61Z" transform="translate(-11.952 -15.153)" fill="#e3bd5e"/>
            <path id="Trazado_751849" data-name="Trazado 751849" d="M164.675,176.21v.806l-8.358-4.52H144.494l-8.37,4.52v-.806l8.37-4.515h11.823Z" transform="translate(-11.952 -15.076)" fill="#cc934c"/>
            <path id="Trazado_751850" data-name="Trazado 751850" d="M158.03,181.512l2.634-1.413V177.23l-1.032-.568,1.165-.646v-.823l-2.754.6-1.117-.6h-5.289l-3.74,2.037V180.1l1.106.586-5.135,2.81-.321-.174v-1.634l1.839-1v-.8l-4.581,1.17v2.878l1.119.6-.111.055-.974-.272v.815l1.581.861,1.08-.582,1.041.544h5.286l3.746-2.02v-2.878l-1.032-.552,5.142-2.791.235.13v1.635l-.534.28-1.3-.1v.81Zm-7.2.174v1.634l-2.127,1.158h-3.017l-.234-.131,5.141-2.8Zm.127-2.029-.31-.178v-1.635l2.133-1.158h3.011l.317.182Z" transform="translate(-12.363 -15.383)" fill="#cc934c"/>
            <path id="Trazado_751851" data-name="Trazado 751851" d="M158.03,180.633l2.634-1.447v-2.861l-1.032-.552,1.165-.662-1.574-.84-1.18.646-1.117-.612h-5.289l-3.74,2.021v2.861l1.106.619-5.135,2.792-.321-.152V180.79l1.839-.984-1.947-1.065-2.634,1.422v2.882l1.119.589-1.086.6,1.581.87,1.08-.6,1.041.556h5.286l3.746-2.015v-2.882l-1.032-.552,5.142-2.784.235.115v1.616l-1.836,1.018Zm-7.2.157v1.656l-2.127,1.137h-3.017l-.234-.136,5.141-2.784Zm.127-2.024-.31-.208v-1.616l2.133-1.142h3.011l.317.17Z" transform="translate(-12.363 -15.302)" fill="#fbe979"/>
            <path id="Trazado_751852" data-name="Trazado 751852" d="M144.147,188.117l-9.243-5v-3.408l10.733,2.924Z" transform="translate(-11.845 -15.78)" fill="#ffd46a"/>
            <path id="Trazado_751853" data-name="Trazado 751853" d="M159.229,188.117l9.245-5v-3.408l-10.561,3.247Z" transform="translate(-13.865 -15.78)" fill="#cc934c"/>
            <path id="Trazado_751854" data-name="Trazado 751854" d="M158.1,188.4H145.037v-3.387l6.152-2.092,6.91,2.092Z" transform="translate(-12.735 -16.061)" fill="#e3bd5e"/>
            <path id="Trazado_751855" data-name="Trazado 751855" d="M166.454,171.487l-9.245-5H144.147l-9.225,5-.018,7.066,9.243,5.016h13.062l9.245-5.016Z" transform="translate(-11.845 -14.618)" fill="#fbe979"/>
            <path id="Trazado_751856" data-name="Trazado 751856" d="M156.735,168.237H144.9l-8.345,4.546v5.589l8.368,4.545h11.809l8.37-4.527v-5.606Z" transform="translate(-11.99 -14.772)" fill="#e3bd5e"/>
            <path id="Trazado_751857" data-name="Trazado 751857" d="M165.1,171.883v.823l-8.37-4.545H144.9l-8.345,4.545v-.823l8.345-4.515h11.832Z" transform="translate(-11.99 -14.696)" fill="#cc934c"/>
            <path id="Trazado_751858" data-name="Trazado 751858" d="M158.445,177.192l2.644-1.418v-2.886l-1.038-.551,1.182-.637v-.806l-2.754.6-1.128-.6h-5.289l-3.753,1.994v2.886l1.139.6-5.168,2.8-.3-.186v-1.63l1.816-.984v-.815l-4.567,1.171v2.872l1.126.616-.11.059-.986-.288v.819l1.583.844,1.1-.568,1.024.547h5.3L154,179.606v-2.872l-1.029-.548L158.1,173.4l.24.122v1.613l-.532.306-1.3-.1v.794Zm-7.17.17v1.63l-2.161,1.17h-3l-.244-.135,5.148-2.8Zm.1-2.016-.317-.208v-1.613l2.132-1.154h3.021l.314.178Z" transform="translate(-12.401 -15.005)" fill="#cc934c"/>
            <path id="Trazado_751859" data-name="Trazado 751859" d="M158.445,176.295l2.644-1.427v-2.855l-1.038-.56,1.182-.641-1.574-.857-1.18.645-1.128-.61h-5.289l-3.753,2.024v2.855l1.139.612-5.168,2.8-.3-.161v-1.646l1.816-.992-1.936-1.053-2.632,1.417v2.878l1.126.594-1.1.595,1.583.857,1.1-.59,1.024.552h5.3L154,178.722v-2.878l-1.029-.556L158.1,172.5l.24.127v1.638l-1.834,1Zm-7.17.178v1.646l-2.161,1.133h-3l-.244-.122,5.148-2.776Zm.1-2.037-.317-.17v-1.638l2.132-1.158h3.021l.314.174Z" transform="translate(-12.401 -14.923)" fill="#fbe979"/>
            <g id="Grupo_1021563" data-name="Grupo 1021563" transform="translate(96.648 200.321)" opacity="0.3">
              <g id="Grupo_1021562" data-name="Grupo 1021562">
                <g id="Grupo_1021561" data-name="Grupo 1021561" clip-path="url(#clip-path-12)">
                  <path id="Trazado_751860" data-name="Trazado 751860" d="M137.483,224.6l-9.236-5H115.19l-9.23,5-.009,7.083,9.239,5h13.057l9.236-5Z" transform="translate(-105.951 -219.603)"/>
                </g>
              </g>
            </g>
            <path id="Trazado_751861" data-name="Trazado 751861" d="M115.19,237.349l-9.239-5v-3.4l10.727,2.912Z" transform="translate(-9.303 -20.104)" fill="#ffd46a"/>
            <path id="Trazado_751862" data-name="Trazado 751862" d="M130.268,237.349l9.236-5v-3.4l-10.54,3.243Z" transform="translate(-11.324 -20.104)" fill="#cc934c"/>
            <path id="Trazado_751863" data-name="Trazado 751863" d="M129.136,237.63H116.079v-3.374l6.145-2.1,6.912,2.1Z" transform="translate(-10.192 -20.384)" fill="#e3bd5e"/>
            <path id="Trazado_751864" data-name="Trazado 751864" d="M137.483,220.721l-9.236-5.021H115.19l-9.23,5.021-.009,7.074,9.239,5.008h13.057l9.236-5.008Z" transform="translate(-9.303 -18.939)" fill="#fbe979"/>
            <path id="Trazado_751865" data-name="Trazado 751865" d="M127.777,217.5H115.945l-8.34,4.537v5.584l8.345,4.525h11.828l8.357-4.525v-5.584Z" transform="translate(-9.448 -19.098)" fill="#e3bd5e"/>
            <path id="Trazado_751866" data-name="Trazado 751866" d="M136.134,221.145v.815l-8.357-4.536H115.945l-8.34,4.536v-.815l8.34-4.528h11.832Z" transform="translate(-9.448 -19.02)" fill="#cc934c"/>
            <path id="Trazado_751867" data-name="Trazado 751867" d="M129.489,226.43l2.629-1.409V222.14l-1.028-.56,1.164-.632v-.828l-2.74.586-1.13-.586H123.09l-3.737,2.021v2.882l1.121.586-5.139,2.81-.323-.182V226.6l1.824-1V224.8l-4.574,1.193v2.869l1.126.607-.109.047-.985-.263v.8l1.592.848,1.076-.564,1.033.539h5.3l3.745-2.016v-2.869L124,225.407l5.143-2.775.235.135v1.626l-.525.293-1.309-.114v.806Zm-7.2.173v1.63l-2.121,1.167h-3.023l-.239-.131,5.152-2.8Zm.131-2.032-.319-.179v-1.626l2.137-1.167h3.014l.323.179Z" transform="translate(-9.857 -19.327)" fill="#cc934c"/>
            <path id="Trazado_751868" data-name="Trazado 751868" d="M129.489,225.542l2.629-1.426v-2.864l-1.028-.556,1.164-.659-1.56-.84-1.18.641-1.13-.616H123.09l-3.737,2.029v2.864l1.121.6-5.139,2.8-.323-.161v-1.643l1.824-.993-1.938-1.053-2.636,1.452v2.855l1.126.6-1.094.6,1.592.862,1.076-.6,1.033.565h5.3l3.745-2.021v-2.855L124,224.52l5.143-2.767.235.11V223.5l-1.834.989Zm-7.2.166v1.643l-2.121,1.145h-3.023l-.239-.127,5.152-2.792Zm.131-2.029-.319-.178v-1.638l2.137-1.155h3.014l.323.187Z" transform="translate(-9.857 -19.247)" fill="#fbe979"/>
            <path id="Trazado_751869" data-name="Trazado 751869" d="M114.73,232.887l-9.25-5.008v-3.391l10.731,2.9Z" transform="translate(-9.262 -19.711)" fill="#ffd46a"/>
            <path id="Trazado_751870" data-name="Trazado 751870" d="M129.8,232.887l9.25-5.008v-3.391L128.5,227.731Z" transform="translate(-11.283 -19.711)" fill="#cc934c"/>
            <path id="Trazado_751871" data-name="Trazado 751871" d="M128.673,233.166H115.621v-3.379l6.147-2.122,6.905,2.122Z" transform="translate(-10.152 -19.99)" fill="#e3bd5e"/>
            <path id="Trazado_751872" data-name="Trazado 751872" d="M137.033,216.247l-9.25-5H114.73l-9.239,5-.011,7.079,9.25,5.008h13.053l9.25-5.008Z" transform="translate(-9.262 -18.549)" fill="#fbe979"/>
            <path id="Trazado_751873" data-name="Trazado 751873" d="M127.306,213.03H115.491l-8.355,4.511v5.6l8.355,4.529h11.816l8.366-4.52v-5.606Z" transform="translate(-9.407 -18.705)" fill="#e3bd5e"/>
            <path id="Trazado_751874" data-name="Trazado 751874" d="M135.672,216.652v.81l-8.366-4.511H115.491l-8.355,4.511v-.81l8.355-4.515h11.816Z" transform="translate(-9.407 -18.627)" fill="#cc934c"/>
            <path id="Trazado_751875" data-name="Trazado 751875" d="M129.026,221.976l2.629-1.447v-2.869l-1.023-.547,1.166-.641v-.832l-2.749.607-1.121-.607h-5.3l-3.74,2.02v2.869l1.124.619-5.148,2.792-.317-.178v-1.634l1.829-1v-.793l-4.567,1.179v2.861l1.124.632-.124.043-.972-.286v.824l1.585.832,1.083-.56,1.029.552h5.3l3.737-2.037v-2.861l-1.031-.573,5.146-2.784.231.123v1.629l-.531.3-1.3-.11v.819Zm-7.2.153v1.634l-2.124,1.154h-3.016l-.24-.115,5.153-2.813Zm.133-2.033-.327-.187V218.28l2.136-1.142h3.018l.307.166Z" transform="translate(-9.817 -18.934)" fill="#cc934c"/>
            <path id="Trazado_751876" data-name="Trazado 751876" d="M129.026,221.076l2.629-1.43v-2.869l-1.023-.556,1.166-.662-1.569-.84-1.18.645-1.121-.628h-5.3l-3.74,2.041v2.869l1.124.607-5.148,2.793-.317-.161v-1.651l1.829-.981-1.947-1.056-2.621,1.413v2.882l1.124.582-1.1.61,1.585.862,1.083-.611,1.029.573h5.3l3.737-2.016v-2.882l-1.031-.547,5.146-2.784.231.115v1.634l-1.831.989Zm-7.2.157v1.651L119.7,224.03h-3.016l-.24-.14,5.153-2.783Zm.133-2.011-.327-.2v-1.634l2.136-1.154h3.018l.307.161Z" transform="translate(-9.817 -18.853)" fill="#fbe979"/>
            <path id="Trazado_751877" data-name="Trazado 751877" d="M116.372,228.871l-9.236-5.016v-3.4l10.726,2.9Z" transform="translate(-9.407 -19.357)" fill="#ffd46a"/>
            <path id="Trazado_751878" data-name="Trazado 751878" d="M131.458,228.871l9.236-5.016v-3.4L130.158,223.7Z" transform="translate(-11.428 -19.357)" fill="#cc934c"/>
            <path id="Trazado_751879" data-name="Trazado 751879" d="M130.325,229.15H117.262v-3.4l6.152-2.11,6.912,2.11Z" transform="translate(-10.296 -19.637)" fill="#e3bd5e"/>
            <path id="Trazado_751880" data-name="Trazado 751880" d="M138.672,212.222l-9.236-5.012H116.372l-9.231,5.012,0,7.074,9.236,4.992h13.064l9.236-4.992Z" transform="translate(-9.407 -18.194)" fill="#fbe979"/>
            <path id="Trazado_751881" data-name="Trazado 751881" d="M128.961,208.978H117.137l-8.355,4.546v5.593l8.355,4.52h11.825l8.363-4.515v-5.6Z" transform="translate(-9.552 -18.349)" fill="#e3bd5e"/>
            <path id="Trazado_751882" data-name="Trazado 751882" d="M137.325,212.632v.815l-8.363-4.545H117.136l-8.354,4.545v-.815l8.354-4.524h11.826Z" transform="translate(-9.552 -18.273)" fill="#cc934c"/>
            <path id="Trazado_751883" data-name="Trazado 751883" d="M130.679,217.927l2.636-1.414v-2.881l-1.044-.556,1.178-.628v-.824l-2.749.6-1.13-.6h-5.282l-3.751,2.008v2.881l1.123.608-5.141,2.792-.317-.17V218.11l1.824-1V216.3l-4.569,1.184v2.87l1.119.61-.11.051-.975-.272v.827l1.583.837,1.075-.577,1.049.56h5.286l3.737-2.036v-2.87l-1.029-.564,5.148-2.784.214.131v1.63l-.522.284-1.3-.1v.811Zm-7.2.182v1.634l-2.121,1.154h-3.028l-.221-.13,5.146-2.8Zm.136-2.029-.323-.186v-1.63l2.145-1.163h3l.321.179Z" transform="translate(-9.962 -18.582)" fill="#cc934c"/>
            <path id="Trazado_751884" data-name="Trazado 751884" d="M130.679,217.038l2.636-1.418v-2.873l-1.044-.552,1.178-.653-1.574-.862-1.176.649-1.13-.611h-5.282l-3.751,2.029v2.873l1.123.594-5.141,2.792-.317-.14v-1.656l1.824-1-1.93-1.053-2.639,1.434v2.878l1.119.586-1.086.6,1.583.861,1.075-.6,1.049.568h5.286l3.737-2.011V216.6l-1.029-.572,5.148-2.776.214.11v1.634L128.734,216Zm-7.2.173v1.656L121.357,220h-3.028l-.221-.136,5.146-2.776Zm.136-2.024-.323-.2v-1.634l2.145-1.146h3l.321.17Z" transform="translate(-9.962 -18.499)" fill="#fbe979"/>
            <path id="Trazado_751885" data-name="Trazado 751885" d="M115.189,223.681l-9.245-5.012V215.3l10.717,2.9Z" transform="translate(-9.302 -18.904)" fill="#ffd46a"/>
            <path id="Trazado_751886" data-name="Trazado 751886" d="M130.256,223.681l9.248-5.012V215.3l-10.548,3.23Z" transform="translate(-11.323 -18.904)" fill="#cc934c"/>
            <path id="Trazado_751887" data-name="Trazado 751887" d="M129.125,223.96H116.079v-3.4l6.132-2.088,6.914,2.088Z" transform="translate(-10.192 -19.183)" fill="#e3bd5e"/>
            <path id="Trazado_751888" data-name="Trazado 751888" d="M137.483,207.04l-9.248-5H115.189l-9.236,5-.009,7.091,9.245,4.987h13.045l9.248-4.987Z" transform="translate(-9.302 -17.74)" fill="#fbe979"/>
            <path id="Trazado_751889" data-name="Trazado 751889" d="M127.759,203.814H115.944l-8.364,4.528v5.589l8.364,4.557h11.816l8.372-4.548v-5.6Z" transform="translate(-9.446 -17.896)" fill="#e3bd5e"/>
            <path id="Trazado_751890" data-name="Trazado 751890" d="M136.132,207.464v.8l-8.372-4.528H115.943l-8.363,4.528v-.8l8.363-4.515h11.817Z" transform="translate(-9.446 -17.82)" fill="#cc934c"/>
            <path id="Trazado_751891" data-name="Trazado 751891" d="M129.472,212.775l2.636-1.448V208.48l-1.031-.587,1.176-.628v-.819l-2.748.6-1.127-.6H123.09l-3.74,2.033v2.847l1.124.62-5.148,2.8-.314-.161v-1.651l1.824-.993v-.815l-4.574,1.176v2.869l1.124.6-.122.064-.974-.28v.836l1.6.854,1.075-.6,1.032.577h5.3l3.737-2.05V212.3L124,211.748l5.144-2.8.231.136v1.629l-.525.293-1.3-.106v.815Zm-7.185.157v1.651l-2.132,1.141h-3.021l-.234-.14,5.152-2.789Zm.122-2.029-.317-.187v-1.629l2.125-1.15h3.02l.321.17Z" transform="translate(-9.857 -18.127)" fill="#cc934c"/>
            <path id="Trazado_751892" data-name="Trazado 751892" d="M129.472,211.879l2.636-1.435v-2.873l-1.031-.547,1.176-.659-1.572-.836-1.176.624-1.127-.6H123.09l-3.74,2.021v2.873l1.124.6-5.148,2.814-.314-.179V212.04l1.824-1-1.944-1.065-2.63,1.442v2.873l1.124.594-1.1.586,1.6.862,1.075-.59,1.032.565h5.3l3.737-2.016V211.42L124,210.847l5.144-2.783.231.127v1.629l-1.829,1Zm-7.185.161v1.637l-2.132,1.155h-3.021l-.234-.136,5.152-2.784Zm.122-2.033-.317-.187v-1.629l2.125-1.158h3.02l.321.17Z" transform="translate(-9.857 -18.046)" fill="#fbe979"/>
            <path id="Trazado_751893" data-name="Trazado 751893" d="M116.365,219.419l-9.239-5.016v-3.374l10.713,2.9Z" transform="translate(-9.406 -18.529)" fill="#ffd46a"/>
            <path id="Trazado_751894" data-name="Trazado 751894" d="M131.449,219.419l9.241-5.016v-3.374l-10.552,3.243Z" transform="translate(-11.427 -18.529)" fill="#cc934c"/>
            <path id="Trazado_751895" data-name="Trazado 751895" d="M130.318,219.7H117.254v-3.391l6.143-2.1,6.921,2.1Z" transform="translate(-10.295 -18.808)" fill="#e3bd5e"/>
            <path id="Trazado_751896" data-name="Trazado 751896" d="M138.669,202.77l-9.241-5H116.364l-9.224,5-.014,7.1,9.238,5h13.064l9.241-5Z" transform="translate(-9.406 -17.365)" fill="#fbe979"/>
            <path id="Trazado_751897" data-name="Trazado 751897" d="M128.95,199.552H117.132l-8.349,4.52v5.588l8.354,4.555H128.95l8.372-4.537v-5.605Z" transform="translate(-9.552 -17.522)" fill="#e3bd5e"/>
            <path id="Trazado_751898" data-name="Trazado 751898" d="M137.322,203.2v.8l-8.372-4.52H117.132l-8.35,4.52v-.8l8.35-4.528H128.95Z" transform="translate(-9.552 -17.444)" fill="#cc934c"/>
            <path id="Trazado_751899" data-name="Trazado 751899" d="M130.679,208.5l2.623-1.434V204.2l-1.031-.577,1.178-.611v-.823l-2.749.585-1.133-.585h-5.293l-3.737,2.011v2.869l1.123.615-5.155,2.793-.3-.174v-1.659l1.82-.976v-.816l-4.565,1.2v2.856l1.119.616-.111.064-.983-.285v.811l1.585.853,1.081-.565,1.037.535h5.282l3.746-2.029V208.05l-1.037-.581,5.159-2.8.219.149v1.629l-.531.289-1.289-.1v.789Zm-7.2.14V210.3l-2.13,1.146h-3.017l-.239-.131,5.157-2.789Zm.129-2-.321-.192v-1.629l2.125-1.162h3.025l.31.178Z" transform="translate(-9.962 -17.753)" fill="#cc934c"/>
            <path id="Trazado_751900" data-name="Trazado 751900" d="M130.679,207.6l2.623-1.439v-2.852l-1.031-.568,1.178-.637-1.574-.862-1.176.641-1.133-.6h-5.293l-3.737,2.029v2.852l1.123.607-5.155,2.814-.3-.17v-1.643l1.82-1-1.942-1.048-2.623,1.426v2.865l1.119.6-1.095.6,1.585.866,1.081-.6,1.037.548h5.282l3.746-2.016v-2.865l-1.037-.56,5.159-2.788.219.122v1.626l-1.82,1.01Zm-7.2.17v1.643l-2.13,1.137h-3.017l-.239-.122,5.157-2.8Zm.129-2.045-.321-.178v-1.626l2.125-1.158h3.025l.31.174Z" transform="translate(-9.962 -17.67)" fill="#fbe979"/>
            <g id="Grupo_1021566" data-name="Grupo 1021566" transform="translate(94.69 222.465)" opacity="0.3">
              <g id="Grupo_1021565" data-name="Grupo 1021565">
                <g id="Grupo_1021564" data-name="Grupo 1021564" clip-path="url(#clip-path-13)">
                  <path id="Trazado_751901" data-name="Trazado 751901" d="M135.353,248.887l-9.252-5.008H113.05l-9.225,5.008-.02,7.074,9.245,5H126.1l9.252-5Z" transform="translate(-103.805 -243.879)"/>
                </g>
              </g>
            </g>
            <path id="Trazado_751902" data-name="Trazado 751902" d="M113.05,261.648l-9.245-5.013v-3.386l10.737,2.89Z" transform="translate(-9.115 -22.236)" fill="#ffd46a"/>
            <path id="Trazado_751903" data-name="Trazado 751903" d="M128.122,261.648l9.252-5.013v-3.386l-10.543,3.242Z" transform="translate(-11.136 -22.236)" fill="#cc934c"/>
            <path id="Trazado_751904" data-name="Trazado 751904" d="M126.99,261.926H113.94v-3.4l6.153-2.105,6.9,2.105Z" transform="translate(-10.004 -22.515)" fill="#e3bd5e"/>
            <path id="Trazado_751905" data-name="Trazado 751905" d="M135.353,244.995,126.1,240H113.05l-9.225,4.991-.02,7.091,9.245,5H126.1l9.252-5Z" transform="translate(-9.115 -21.073)" fill="#fbe979"/>
            <path id="Trazado_751906" data-name="Trazado 751906" d="M125.639,241.781H113.81l-8.361,4.528v5.6l8.37,4.512h11.82L134,251.915v-5.606Z" transform="translate(-9.259 -21.229)" fill="#e3bd5e"/>
            <path id="Trazado_751907" data-name="Trazado 751907" d="M134,245.416v.815l-8.363-4.528h-11.83l-8.361,4.528v-.815l8.361-4.524h11.83Z" transform="translate(-9.259 -21.151)" fill="#cc934c"/>
            <path id="Trazado_751908" data-name="Trazado 751908" d="M127.352,250.716l2.632-1.413v-2.9l-1.04-.543,1.182-.632V244.4l-2.749.6-1.128-.6h-5.293l-3.737,2v2.9l1.112.589-5.135,2.8-.321-.161v-1.634l1.82-1.01v-.815l-4.566,1.21v2.856l1.126.6-.106.055-.991-.272v.828l1.587.844,1.083-.594,1.029.565h5.3l3.742-2.024v-2.856l-1.034-.577,5.137-2.784.233.127v1.635l-.525.271-1.3-.1v.81Zm-7.194.178v1.634l-2.128,1.138h-3.023l-.239-.127,5.155-2.8Zm.138-2.045-.332-.17v-1.635l2.138-1.159h3.017l.307.174Z" transform="translate(-9.67 -21.46)" fill="#cc934c"/>
            <path id="Trazado_751909" data-name="Trazado 751909" d="M127.352,249.827l2.632-1.413v-2.877l-1.04-.574,1.182-.639-1.581-.855-1.169.645-1.128-.619h-5.293l-3.737,2.042v2.877l1.112.573-5.135,2.8-.321-.165v-1.637l1.82-1-1.93-1.044-2.636,1.418v2.882l1.126.589-1.1.6,1.587.861,1.083-.6,1.029.568h5.3l3.742-2.02V249.36l-1.034-.551,5.137-2.8.233.13v1.634l-1.829.99Zm-7.194.161v1.637l-2.128,1.155h-3.023l-.239-.132,5.155-2.791Zm.138-2.021-.332-.192v-1.634l2.138-1.161h3.017l.307.182Z" transform="translate(-9.67 -21.378)" fill="#fbe979"/>
            <path id="Trazado_751910" data-name="Trazado 751910" d="M113.645,257.151l-9.25-5v-3.374l10.724,2.907Z" transform="translate(-9.166 -21.843)" fill="#ffd46a"/>
            <path id="Trazado_751911" data-name="Trazado 751911" d="M128.718,257.151l9.252-5v-3.374L127.411,252Z" transform="translate(-11.187 -21.843)" fill="#cc934c"/>
            <path id="Trazado_751912" data-name="Trazado 751912" d="M127.588,257.431H114.535v-3.373l6.147-2.1,6.905,2.1Z" transform="translate(-10.057 -22.123)" fill="#e3bd5e"/>
            <path id="Trazado_751913" data-name="Trazado 751913" d="M135.949,240.535l-9.252-5.016H113.644l-9.247,5.016,0,7.074,9.25,4.991H126.7l9.252-4.991Z" transform="translate(-9.166 -20.68)" fill="#fbe979"/>
            <path id="Trazado_751914" data-name="Trazado 751914" d="M126.224,237.3H114.4l-8.355,4.541v5.589l8.368,4.52h11.816l8.363-4.52v-5.589Z" transform="translate(-9.311 -20.836)" fill="#e3bd5e"/>
            <path id="Trazado_751915" data-name="Trazado 751915" d="M134.588,240.928v.832l-8.363-4.541h-11.83l-8.354,4.541v-.832l8.354-4.507h11.83Z" transform="translate(-9.311 -20.759)" fill="#cc934c"/>
            <path id="Trazado_751916" data-name="Trazado 751916" d="M127.945,246.235l2.624-1.421v-2.857l-1.031-.577,1.171-.649v-.811l-2.748.6-1.119-.6h-5.3l-3.747,2.037v2.857l1.131.6-5.142,2.81-.323-.17v-1.647l1.832-.993v-.8l-4.579,1.158v2.869l1.115.624-.1.047-.981-.263v.819l1.592.844,1.071-.577,1.036.547h5.288l3.749-2.042v-2.869l-1.024-.547,5.13-2.776.242.115V244.2l-.543.285L126,244.393v.81Zm-7.2.174v1.647l-2.13,1.154H115.6l-.24-.136,5.15-2.8Zm.115-2.016-.307-.192v-1.637l2.132-1.163h3.008l.326.192Z" transform="translate(-9.721 -21.066)" fill="#cc934c"/>
            <path id="Trazado_751917" data-name="Trazado 751917" d="M127.945,245.356l2.624-1.439v-2.873l-1.031-.547,1.171-.658L129.127,239l-1.165.637-1.119-.61h-5.3l-3.747,2.015v2.873l1.131.616-5.142,2.788-.323-.153v-1.655l1.832-.98-1.947-1.062-2.633,1.422v2.877l1.115.59-1.08.607,1.592.853,1.071-.594,1.036.565h5.288l3.749-2.021v-2.877l-1.024-.565,5.13-2.779.242.114v1.63L126,244.313Zm-7.2.157v1.655l-2.13,1.129H115.6l-.24-.115,5.15-2.8Zm.115-2.037-.307-.182v-1.63l2.132-1.137h3.008l.326.157Z" transform="translate(-9.721 -20.986)" fill="#fbe979"/>
            <path id="Trazado_751918" data-name="Trazado 751918" d="M113.052,252.679l-9.225-5v-3.391l10.717,2.9Z" transform="translate(-9.116 -21.45)" fill="#ffd46a"/>
            <path id="Trazado_751919" data-name="Trazado 751919" d="M128.129,252.679l9.245-5v-3.391l-10.54,3.237Z" transform="translate(-11.137 -21.45)" fill="#cc934c"/>
            <path id="Trazado_751920" data-name="Trazado 751920" d="M127,252.958H113.94V249.6l6.152-2.126L127,249.6Z" transform="translate(-10.004 -21.729)" fill="#e3bd5e"/>
            <path id="Trazado_751921" data-name="Trazado 751921" d="M135.355,236.046l-9.245-5.012H113.052l-9.222,5.012,0,7.079,9.225,5.021h13.057l9.245-5.021Z" transform="translate(-9.116 -20.286)" fill="#fbe979"/>
            <path id="Trazado_751922" data-name="Trazado 751922" d="M125.641,232.825H113.811l-8.343,4.525v5.584l8.352,4.554h11.82L134,242.947v-5.6Z" transform="translate(-9.261 -20.443)" fill="#e3bd5e"/>
            <path id="Trazado_751923" data-name="Trazado 751923" d="M134,236.469v.8l-8.363-4.524h-11.83l-8.343,4.524v-.8l8.343-4.533h11.83Z" transform="translate(-9.261 -20.365)" fill="#cc934c"/>
            <path id="Trazado_751924" data-name="Trazado 751924" d="M127.352,241.764l2.643-1.426v-2.864l-1.035-.568,1.171-.641v-.8l-2.754.577-1.128-.577h-5.282l-3.748,2.011v2.864l1.123.611-5.141,2.784-.318-.17v-1.621l1.824-.993v-.81l-4.578,1.184v2.848l1.126.64-.106.051-.989-.31v.824l1.6.857,1.075-.582,1.031.556h5.311l3.731-2.037v-2.848l-1.026-.59,5.132-2.789.237.153v1.626l-.531.276-1.291-.106v.815Zm-7.184.179v1.621l-2.139,1.15h-3.014l-.248-.131,5.155-2.8Zm.127-2.05-.332-.17V238.1l2.138-1.171h3.017l.321.17Z" transform="translate(-9.67 -20.675)" fill="#cc934c"/>
            <path id="Trazado_751925" data-name="Trazado 751925" d="M127.352,240.877l2.643-1.43v-2.861l-1.035-.564,1.171-.641-1.569-.849-1.185.62-1.128-.6h-5.282l-3.748,2.032v2.861l1.123.611L113.2,242.85l-.318-.182v-1.629l1.824-.981-1.938-1.065-2.641,1.43V243.3l1.126.581-1.095.586,1.6.857,1.075-.577,1.031.548h5.311L122.9,243.3v-2.882l-1.026-.569,5.132-2.779.237.132v1.608l-1.822,1Zm-7.184.161v1.629l-2.139,1.163h-3.014l-.248-.136,5.155-2.789ZM120.3,239l-.332-.182v-1.608l2.138-1.158h3.017l.321.182Z" transform="translate(-9.67 -20.593)" fill="#fbe979"/>
            <g id="Grupo_1021569" data-name="Grupo 1021569" transform="translate(129.659 209.798)" opacity="0.3">
              <g id="Grupo_1021568" data-name="Grupo 1021568">
                <g id="Grupo_1021567" data-name="Grupo 1021567" clip-path="url(#clip-path-14)">
                  <path id="Trazado_751926" data-name="Trazado 751926" d="M227.335,298.008l-85.2-46.164,40.338-21.852,33.582,18.185.414,1.235,15.435,8.645,2.171-.115,33.589,18.2Z" transform="translate(-142.139 -229.992)"/>
                </g>
              </g>
            </g>
            <path id="Trazado_751927" data-name="Trazado 751927" d="M227.335,297.3l-33.584-18.2-1.515-1.494-15.661-8.249-.853-.03-33.582-18.186,40.338-21.863,85.192,46.173Z" transform="translate(-12.48 -20.132)" fill="#cccbb0"/>
            <path id="Trazado_751928" data-name="Trazado 751928" d="M227.335,296.022l-85.2-46.16,40.338-21.856,85.192,46.169Z" transform="translate(-12.48 -20.02)" fill="#edeccc"/>
            <path id="Trazado_751929" data-name="Trazado 751929" d="M227.335,294.747l-85.2-46.173,40.338-21.843,85.192,46.161Z" transform="translate(-12.48 -19.908)" fill="#cccbb0"/>
            <path id="Trazado_751930" data-name="Trazado 751930" d="M227.335,293.458l-85.2-46.16,40.338-21.86L267.669,271.6Z" transform="translate(-12.48 -19.794)" fill="#edeccc"/>
            <path id="Trazado_751931" data-name="Trazado 751931" d="M227.335,292.2l-85.2-46.177,40.338-21.851,85.192,46.163Z" transform="translate(-12.48 -19.683)" fill="#cccbb0"/>
            <path id="Trazado_751932" data-name="Trazado 751932" d="M227.335,290.912l-85.2-46.16,40.338-21.864,85.192,46.169Z" transform="translate(-12.48 -19.571)" fill="#edeccc"/>
            <path id="Trazado_751933" data-name="Trazado 751933" d="M227.335,289.633l-85.2-46.173L182.477,221.6l85.192,46.16Z" transform="translate(-12.48 -19.458)" fill="#cccbb0"/>
            <path id="Trazado_751934" data-name="Trazado 751934" d="M227.335,288.35l-85.2-46.169,40.338-21.846,85.192,46.16Z" transform="translate(-12.48 -19.346)" fill="#edeccc"/>
            <path id="Trazado_751935" data-name="Trazado 751935" d="M227.335,287.065l-85.2-46.16,40.338-21.86,85.192,46.168Z" transform="translate(-12.48 -19.233)" fill="#cccbb0"/>
            <path id="Trazado_751936" data-name="Trazado 751936" d="M227.335,285.782l-85.2-46.148,40.338-21.863,85.192,46.16Z" transform="translate(-12.48 -19.121)" fill="#edeccc"/>
            <path id="Trazado_751937" data-name="Trazado 751937" d="M227.335,284.512l-85.2-46.169L182.477,216.5l85.192,46.147Z" transform="translate(-12.48 -19.009)" fill="#cccbb0"/>
            <path id="Trazado_751938" data-name="Trazado 751938" d="M227.335,283.232l-85.2-46.156,40.338-21.864,85.192,46.155Z" transform="translate(-12.48 -18.897)" fill="#edeccc"/>
            <path id="Trazado_751939" data-name="Trazado 751939" d="M227.335,281.953l-85.2-46.173,40.338-21.848,85.192,46.161Z" transform="translate(-12.48 -18.784)" fill="#cccbb0"/>
            <path id="Trazado_751940" data-name="Trazado 751940" d="M227.335,280.672l-85.2-46.16,40.338-21.869,33.582,18.21.414,1.214,15.435,8.653,2.171-.11L267.669,258.8Z" transform="translate(-12.48 -18.671)" fill="#edeccc"/>
            <path id="Trazado_751941" data-name="Trazado 751941" d="M239.46,260.232h-5.577l-3.943,2.13v3.022l3.943,2.143h5.577l3.943-2.143v-3.022Z" transform="translate(-20.19 -22.85)" fill="#c3c270"/>
            <path id="Trazado_751942" data-name="Trazado 751942" d="M181.143,238.938h5.574l3.939-2.139v-3.017l-3.939-2.144h-5.574l-3.943,2.144V236.8Z" transform="translate(-15.559 -20.339)" fill="#c3c270"/>
            <path id="Trazado_751943" data-name="Trazado 751943" d="M182.9,215.276l-35.924,19.467L227.76,278.5l35.919-19.462Zm43.009,57.381-2.166,1.177-29.56-16.021h11.5l19.8-10.728v-6.243l29.561,16.029-2.162,1.167v2l2.162,1.176-23.277,12.617-2.159-1.177Zm-68.128-38.915-2.17-1.168L178.9,219.962l2.156,1.162h3.7l2.157-1.162,29.567,16.012h-11.5L185.2,246.689v6.251l-29.583-16.029,2.172-1.171Z" transform="translate(-12.905 -18.902)" fill="#c3c270"/>
            <path id="Trazado_751944" data-name="Trazado 751944" d="M196.984,266.327l-5.7-6.476-12.318-3.285v15.159l18.02,9.773Z" transform="translate(-15.714 -22.528)" fill="#f4efe9"/>
            <path id="Trazado_751945" data-name="Trazado 751945" d="M198.5,267.149l-.312-1.218h-1.933l.006,15.184,2.239,1.205Z" transform="translate(-17.232 -23.35)" fill="#e3bd5e"/>
            <path id="Trazado_751946" data-name="Trazado 751946" d="M181.2,257.759l-.3-1.43-1.944.216V271.7l2.24,1.218Z" transform="translate(-15.714 -22.507)" fill="#e3bd5e"/>
            <path id="Trazado_751947" data-name="Trazado 751947" d="M196.984,264.222l-18.02-9.76,40.33-21.869,18.029,9.77Z" transform="translate(-15.714 -20.423)" fill="#fff"/>
            <path id="Trazado_751948" data-name="Trazado 751948" d="M198.5,265.046l-2.245-1.218,40.349-21.852,2.234,1.21Z" transform="translate(-17.232 -21.247)" fill="#fbe979"/>
            <path id="Trazado_751949" data-name="Trazado 751949" d="M181.2,255.675l-2.24-1.214,40.329-21.868,2.252,1.222Z" transform="translate(-15.714 -20.423)" fill="#fbe979"/>
            <path id="Trazado_751950" data-name="Trazado 751950" d="M227.335,278.7l-33.584-18.207-1.515-1.5-15.661-8.242-.853-.016-33.582-18.2,40.338-21.86,85.192,46.164Z" transform="translate(-12.48 -18.498)" fill="#cccbb0"/>
            <path id="Trazado_751951" data-name="Trazado 751951" d="M227.335,277.421l-85.2-46.164,40.338-21.86,85.192,46.152Z" transform="translate(-12.48 -18.386)" fill="#edeccc"/>
            <path id="Trazado_751952" data-name="Trazado 751952" d="M227.335,276.133l-85.2-46.16,40.338-21.852,85.192,46.16Z" transform="translate(-12.48 -18.274)" fill="#cccbb0"/>
            <path id="Trazado_751953" data-name="Trazado 751953" d="M227.335,274.849l-85.2-46.155,40.338-21.86L267.669,253Z" transform="translate(-12.48 -18.161)" fill="#edeccc"/>
            <path id="Trazado_751954" data-name="Trazado 751954" d="M227.335,273.578l-85.2-46.16,40.338-21.864,85.192,46.164Z" transform="translate(-12.48 -18.048)" fill="#cccbb0"/>
            <path id="Trazado_751955" data-name="Trazado 751955" d="M227.335,272.3l-85.2-46.173,40.338-21.861,85.192,46.173Z" transform="translate(-12.48 -17.936)" fill="#edeccc"/>
            <path id="Trazado_751956" data-name="Trazado 751956" d="M227.335,271.015l-85.2-46.16L182.477,203l85.192,46.161Z" transform="translate(-12.48 -17.824)" fill="#cccbb0"/>
            <path id="Trazado_751957" data-name="Trazado 751957" d="M227.335,269.74l-85.2-46.16,40.338-21.861,85.192,46.165Z" transform="translate(-12.48 -17.712)" fill="#edeccc"/>
            <path id="Trazado_751958" data-name="Trazado 751958" d="M227.335,268.461l-85.2-46.173,40.338-21.843L267.669,246.6Z" transform="translate(-12.48 -17.6)" fill="#cccbb0"/>
            <path id="Trazado_751959" data-name="Trazado 751959" d="M227.335,267.177l-85.2-46.16,40.338-21.852,85.192,46.156Z" transform="translate(-12.48 -17.488)" fill="#edeccc"/>
            <path id="Trazado_751960" data-name="Trazado 751960" d="M227.335,265.9l-85.2-46.156,40.338-21.877,85.192,46.169Z" transform="translate(-12.48 -17.374)" fill="#cccbb0"/>
            <path id="Trazado_751961" data-name="Trazado 751961" d="M227.335,264.627l-85.2-46.173L182.477,196.6l85.192,46.164Z" transform="translate(-12.48 -17.263)" fill="#edeccc"/>
            <path id="Trazado_751962" data-name="Trazado 751962" d="M227.335,263.339l-85.2-46.152,40.338-21.86,85.192,46.156Z" transform="translate(-12.48 -17.151)" fill="#cccbb0"/>
            <path id="Trazado_751963" data-name="Trazado 751963" d="M227.335,262.064l-85.2-46.152,40.338-21.869L216.06,212.25l.414,1.214,15.435,8.649,2.171-.11,33.589,18.2Z" transform="translate(-12.48 -17.038)" fill="#edeccc"/>
            <path id="Trazado_751964" data-name="Trazado 751964" d="M239.46,241.609h-5.577l-3.943,2.147v3.008l3.943,2.152h5.577l3.943-2.152v-3.008Z" transform="translate(-20.19 -21.214)" fill="#c3c270"/>
            <path id="Trazado_751965" data-name="Trazado 751965" d="M181.143,220.325h5.574l3.939-2.131v-3.026l-3.939-2.138h-5.574l-3.943,2.138v3.026Z" transform="translate(-15.559 -18.705)" fill="#c3c270"/>
            <path id="Trazado_751966" data-name="Trazado 751966" d="M182.9,196.673l-35.924,19.47L227.76,259.9l35.919-19.466Zm43.009,57.376-2.166,1.171L194.185,239.2h11.5l19.8-10.727v-6.239l29.561,16.029-2.162,1.171v2.008l2.162,1.171L231.768,255.22l-2.159-1.171Zm-68.128-38.924-2.17-1.168,23.286-12.6,2.156,1.163h3.7l2.157-1.163,29.567,16.012h-11.5L185.2,228.085v6.243l-29.583-16.021,2.172-1.171Z" transform="translate(-12.905 -17.269)" fill="#c3c270"/>
            <path id="Trazado_751967" data-name="Trazado 751967" d="M196.984,247.722l-5.7-6.481-12.318-3.288v15.176l18.02,9.756Z" transform="translate(-15.714 -20.893)" fill="#f4efe9"/>
            <path id="Trazado_751968" data-name="Trazado 751968" d="M198.5,248.546l-.312-1.21h-1.933l.006,15.163,2.239,1.209Z" transform="translate(-17.232 -21.717)" fill="#e3bd5e"/>
            <path id="Trazado_751969" data-name="Trazado 751969" d="M181.2,239.141l-.3-1.421-1.944.212v15.176l2.24,1.214Z" transform="translate(-15.714 -20.873)" fill="#e3bd5e"/>
            <path id="Trazado_751970" data-name="Trazado 751970" d="M196.984,245.618l-18.02-9.77,40.33-21.86,18.029,9.765Z" transform="translate(-15.714 -18.789)" fill="#fff"/>
            <path id="Trazado_751971" data-name="Trazado 751971" d="M198.5,246.441l-2.245-1.21,40.349-21.864,2.234,1.21Z" transform="translate(-17.232 -19.613)" fill="#fbe979"/>
            <path id="Trazado_751972" data-name="Trazado 751972" d="M181.2,237.066l-2.24-1.218,40.329-21.861,2.252,1.219Z" transform="translate(-15.714 -18.789)" fill="#fbe979"/>
            <path id="Trazado_751973" data-name="Trazado 751973" d="M288.6,217.815l-.165-.836,7.538,1.014Z" transform="translate(-25.326 -19.052)" fill="#836e69"/>
            <path id="Trazado_751974" data-name="Trazado 751974" d="M288.415,219.008l.168-.861,7.389-.056Z" transform="translate(-25.324 -19.149)" fill="#403531"/>
            <path id="Trazado_751975" data-name="Trazado 751975" d="M288.776,218.4l-.3-.152.306-.649,7.193.454Z" transform="translate(-25.33 -19.106)" fill="#685750"/>
            <path id="Trazado_751976" data-name="Trazado 751976" d="M275.369,222.015l-2.225-5.042,2.279-3.888,4.69,1.668,8.106,2.346-.016,1.108-8.167,1.532Z" transform="translate(-23.983 -18.71)" fill="#d1d1d1"/>
            <path id="Trazado_751977" data-name="Trazado 751977" d="M275.583,222.508l1.621-2.614,11.213-1.192-.48.764Z" transform="translate(-24.197 -19.203)" fill="#adadad"/>
            <path id="Trazado_751978" data-name="Trazado 751978" d="M277.23,215.713l-1.587-2.627,12.327,3.226.468.789Z" transform="translate(-24.203 -18.71)" fill="#e6e1dd"/>
            <path id="Trazado_751979" data-name="Trazado 751979" d="M223.338,219.229l.009-3.875-1.657-2.745-2.372-.022-1.714,2.729-.018,3.861,1.682,2.75,2.363.013Z" transform="translate(-19.105 -18.666)" fill="#785b56"/>
            <path id="Trazado_751980" data-name="Trazado 751980" d="M223.742,215.357l-1.657-2.746,49.222.229,1.671,2.728-23.989,1.325Z" transform="translate(-19.5 -18.668)" fill="#fa5c52"/>
            <path id="Trazado_751981" data-name="Trazado 751981" d="M223.892,219.5l.009-3.875,49.236.213-.019,3.879L248.5,220.964Z" transform="translate(-19.659 -18.932)" fill="#c84030"/>
            <path id="Trazado_751982" data-name="Trazado 751982" d="M222.02,222.58l1.708-2.712,49.226.217-1.7,2.72Z" transform="translate(-19.494 -19.305)" fill="#8a1c14"/>
            <g id="Grupo_1021572" data-name="Grupo 1021572" transform="translate(201.918 193.938)" opacity="0.3">
              <g id="Grupo_1021571" data-name="Grupo 1021571">
                <g id="Grupo_1021570" data-name="Grupo 1021570" clip-path="url(#clip-path-15)">
                  <path id="Trazado_751983" data-name="Trazado 751983" d="M221.354,221.93l1.693-2.716.027-3.867-1.662-2.741,3.824.008,1.682,2.758-.029,3.853-1.7,2.738Z" transform="translate(-221.354 -212.606)"/>
                </g>
              </g>
            </g>
            <path id="Trazado_751984" data-name="Trazado 751984" d="M180.223,219.216l.025-4.4-1.89-3.132-2.722-.021-1.931,3.111-.029,4.422,1.9,3.119,2.729.026Z" transform="translate(-15.249 -18.585)" fill="#d1d1d1"/>
            <path id="Trazado_751985" data-name="Trazado 751985" d="M180.7,214.817l-1.89-3.132,41.195.186,1.911,3.141-40.852.056Z" transform="translate(-15.7 -18.587)" fill="#fa5c52"/>
            <path id="Trazado_751986" data-name="Trazado 751986" d="M180.853,219.519l.025-4.4,41.216.2-.029,4.409-40.922.153Z" transform="translate(-15.88 -18.888)" fill="#c84030"/>
            <path id="Trazado_751987" data-name="Trazado 751987" d="M178.751,223.067l1.917-3.123,41.211.2-1.938,3.115Z" transform="translate(-15.695 -19.312)" fill="#8a1c14"/>
            <path id="Trazado_751988" data-name="Trazado 751988" d="M177.423,211.683l-2.722-.021-11.653,3.216-.014,1.719,13-.369Z" transform="translate(-14.315 -18.585)" fill="#d1d1d1"/>
            <path id="Trazado_751989" data-name="Trazado 751989" d="M177.371,222.88l-2.729-.026-11.612-3.306v-1.732l12.991.514Z" transform="translate(-14.315 -19.125)" fill="gray"/>
            <path id="Trazado_751990" data-name="Trazado 751990" d="M164.187,216.608l.018-1.727,13.319-3.2,1.895,3.124-6.2,1.514Z" transform="translate(-14.416 -18.587)" fill="#e6e1dd"/>
            <path id="Trazado_751991" data-name="Trazado 751991" d="M163.27,217.8l1.587-1.4,14.482-1.291-.03,4.41-6.794.323Z" transform="translate(-14.336 -18.888)" fill="#d1d1d1"/>
            <path id="Trazado_751992" data-name="Trazado 751992" d="M164.086,219.578l-.816-1.523,1.567.3,14.473,1.422-1.917,3.128Z" transform="translate(-14.336 -19.146)" fill="#adadad"/>
            <path id="Trazado_751993" data-name="Trazado 751993" d="M164.743,218.1l.02-1.7-.733-1.218h-1.055l-.755,1.192-.012,1.719.749,1.219,1.035.008Z" transform="translate(-14.243 -18.895)" fill="#f4efe9"/>
            <path id="Trazado_751994" data-name="Trazado 751994" d="M195.849,214.882l-1.906-3.132.974,0,1.892,3.149-.6.251Z" transform="translate(-17.029 -18.592)" fill="#fbe979"/>
            <path id="Trazado_751995" data-name="Trazado 751995" d="M195.99,219.6l.038-4.418.961.013-.022,4.4-.688.348Z" transform="translate(-17.209 -18.894)" fill="#e3bd5e"/>
            <path id="Trazado_751996" data-name="Trazado 751996" d="M193.888,223.134l1.917-3.107h.976l-1.935,3.107Z" transform="translate(-17.024 -19.319)" fill="#cc934c"/>
            <path id="Trazado_751997" data-name="Trazado 751997" d="M230.859,213.128l-1.5-2.457-44.421-.2,1.151,2.742Z" transform="translate(-16.238 -18.481)" fill="#d1d1d1"/>
            <path id="Trazado_751998" data-name="Trazado 751998" d="M185.963,214.049l.379-1.129-1.5-2.444-1,1.6,1.491,2.448.629-.436Z" transform="translate(-16.142 -18.481)" fill="#f4efe9"/>
            <path id="Trazado_751999" data-name="Trazado 751999" d="M230.906,213.363l-44.419-.208-1.006,1.608h.545l.722-1.162,43.9.2Z" transform="translate(-16.286 -18.716)" fill="#adadad"/>
            <path id="Trazado_752000" data-name="Trazado 752000" d="M200.043,301.852l-25.307,13.712-.671-2.008,25.978-12.909Z" transform="translate(-15.284 -26.398)" fill="#939598"/>
            <path id="Trazado_752001" data-name="Trazado 752001" d="M174.3,316.737h-4.368l-.861-2.728,5.23.64Z" transform="translate(-14.845 -27.571)" fill="#a7a9ac"/>
            <path id="Trazado_752002" data-name="Trazado 752002" d="M165.447,314.412l-47.415-25.684v-1.2l47.756,25.017-.341.67Z" transform="translate(-10.364 -25.246)" fill="#bcbec0"/>
            <path id="Trazado_752003" data-name="Trazado 752003" d="M195.123,295.587,147.71,269.9h-4.354l-25.323,13.712v2.368l47.415,25.687h4.368l25.307-13.716Z" transform="translate(-10.364 -23.698)" fill="#d1d3d4"/>
            <path id="Trazado_752004" data-name="Trazado 752004" d="M151.9,280.82l-6.756-3.658h-2.13l-4.239,2.291v1.163l6.744,3.653h2.137l4.244-2.3Z" transform="translate(-12.185 -24.336)" fill="#fbe979"/>
            <path id="Trazado_752005" data-name="Trazado 752005" d="M141.387,286.745l-7.6-4.12h-.5l-1.02.539-.007.284,7.613,4.117h.5l1.02-.565Z" transform="translate(-11.613 -24.816)" fill="#fff"/>
            <path id="Trazado_752006" data-name="Trazado 752006" d="M145.2,296.8,126.41,286.611h-.5l-1.022.556v.272l18.788,10.181h.512l1.013-.552Z" transform="translate(-10.966 -25.166)" fill="#fff"/>
            <path id="Trazado_752007" data-name="Trazado 752007" d="M153.655,293.385l-7.606-4.112h-.5l-1.006.547v.271l7.586,4.109h.523l1.008-.535Z" transform="translate(-12.691 -25.399)" fill="#fff"/>
            <path id="Trazado_752008" data-name="Trazado 752008" d="M134.5,287.422l-4.866-2.644h-.317l-.676.36v.178l4.87,2.636h.337l.638-.353Z" transform="translate(-11.295 -25.005)" fill="#fff"/>
            <path id="Trazado_752009" data-name="Trazado 752009" d="M141.866,291.418,137,288.775h-.327l-.633.348v.191l4.854,2.623h.315l.662-.348Z" transform="translate(-11.944 -25.356)" fill="#fff"/>
            <path id="Trazado_752010" data-name="Trazado 752010" d="M165.914,300.027l-7.6-4.117H157.8l-1.006.539v.285l7.595,4.112h.515l1.006-.531Z" transform="translate(-13.768 -25.982)" fill="#fff"/>
            <path id="Trazado_752011" data-name="Trazado 752011" d="M178.179,306.688l-7.59-4.129h-.52l-1,.552v.276l7.586,4.12h.526l1-.56Z" transform="translate(-14.845 -26.566)" fill="#fff"/>
            <path id="Trazado_752012" data-name="Trazado 752012" d="M189.164,294.223l-2.291-1.243h-3.251l-2.286,1.243v1.761l2.286,1.252h3.251l2.291-1.252Z" transform="translate(-15.922 -25.725)" fill="#fa5c52"/>
            <path id="Trazado_752013" data-name="Trazado 752013" d="M193.966,296.856l-2.291-1.251h-3.231l-2.3,1.251v1.74l2.3,1.248h3.231l2.291-1.248Z" transform="translate(-16.345 -25.955)" fill="#fbe979"/>
          </g>
        </g>
      </g>
    </g>
  </g>
</svg>
