<svg xmlns="http://www.w3.org/2000/svg" xmlns:xlink="http://www.w3.org/1999/xlink" width="510" height="374.594" viewBox="0 0 510 374.594">
  <defs>
    <clipPath id="clip-path">
      <rect width="510" height="374.594" fill="none"/>
    </clipPath>
    <clipPath id="clip-path-4">
      <rect id="Rectángulo_355902" data-name="Rectángulo 355902" width="23.22" height="34.501" transform="translate(333.61 61.008)" fill="none"/>
    </clipPath>
    <clipPath id="clip-path-5">
      <rect id="Rectángulo_355903" data-name="Rectángulo 355903" width="13.19" height="19.084" transform="translate(339.533 65.031)" fill="none"/>
    </clipPath>
    <clipPath id="clip-path-6">
      <rect id="Rectángulo_355904" data-name="Rectángulo 355904" width="7.111" height="8.849" transform="translate(341.216 97.582)" fill="none"/>
    </clipPath>
    <clipPath id="clip-path-7">
      <rect id="Rectángulo_355905" data-name="Rectángulo 355905" width="23.218" height="34.503" transform="translate(230.768)" fill="none"/>
    </clipPath>
    <clipPath id="clip-path-8">
      <rect id="Rectángulo_355906" data-name="Rectángulo 355906" width="13.19" height="19.084" transform="translate(236.69 4.022)" fill="none"/>
    </clipPath>
    <clipPath id="clip-path-9">
      <rect id="Rectángulo_355907" data-name="Rectángulo 355907" width="7.109" height="8.849" transform="translate(238.374 36.576)" fill="none"/>
    </clipPath>
    <clipPath id="clip-path-10">
      <rect id="Rectángulo_355908" data-name="Rectángulo 355908" width="23.22" height="34.502" transform="translate(168.142 169.758)" fill="none"/>
    </clipPath>
    <clipPath id="clip-path-11">
      <rect id="Rectángulo_355909" data-name="Rectángulo 355909" width="13.19" height="19.084" transform="translate(174.065 173.78)" fill="none"/>
    </clipPath>
    <clipPath id="clip-path-12">
      <rect id="Rectángulo_355910" data-name="Rectángulo 355910" width="7.109" height="8.849" transform="translate(175.75 206.334)" fill="none"/>
    </clipPath>
    <clipPath id="clip-path-13">
      <rect id="Rectángulo_355911" data-name="Rectángulo 355911" width="23.217" height="34.502" transform="translate(320.947 148.961)" fill="none"/>
    </clipPath>
    <clipPath id="clip-path-14">
      <rect id="Rectángulo_355912" data-name="Rectángulo 355912" width="13.188" height="19.084" transform="translate(326.87 152.983)" fill="none"/>
    </clipPath>
    <clipPath id="clip-path-15">
      <rect id="Rectángulo_355913" data-name="Rectángulo 355913" width="7.109" height="8.849" transform="translate(328.553 185.536)" fill="none"/>
    </clipPath>
    <clipPath id="clip-path-16">
      <rect id="Rectángulo_355914" data-name="Rectángulo 355914" width="98.131" height="219.117" transform="translate(153.961 116.333)" fill="none"/>
    </clipPath>
  </defs>
  <g id="Grupo_1024762" data-name="Grupo 1024762" transform="translate(-890 -144.029)">
    <g id="Grupo_de_desplazamiento_1" data-name="Grupo de desplazamiento 1" transform="translate(890 144.029)" clip-path="url(#clip-path)" style="isolation: isolate">
      <g id="Grupo_1019162" data-name="Grupo 1019162">
        <g id="Grupo_1019161" data-name="Grupo 1019161" clip-path="url(#clip-path)">
          <g id="Grupo_1019160" data-name="Grupo 1019160">
            <g id="Grupo_1019159" data-name="Grupo 1019159" clip-path="url(#clip-path)">
              <path id="Trazado_748338" data-name="Trazado 748338" d="M272.56,16.431A165.79,165.79,0,1,1,106.769,182.223,165.791,165.791,0,0,1,272.56,16.431" fill="#91b3fa" fill-rule="evenodd"/>
              <path id="Trazado_748339" data-name="Trazado 748339" d="M272.56,22.54A159.681,159.681,0,1,1,112.88,182.223,159.682,159.682,0,0,1,272.56,22.54" fill="#dee9f0" fill-rule="evenodd"/>
              <path id="Trazado_748340" data-name="Trazado 748340" d="M348.758,78.685a26.113,26.113,0,0,1,1.9-2.731c5.858-6.223,16.382-.127,22.11-.279l.536,5.019c2.707.065,4.277-.85,4.147-3.7-.232-5.173-12.43-3.151-14.189-8.224,2.907-4.052,11.626,1.237,15.1,2.994,2.534,1.28,4.976,2.514,7.277,3.8,2.458,1.37,5.289,3.725,6.458,4.394.672-2.71.948-7.628,2.234-9.22a4.582,4.582,0,0,1,.96.027,166.573,166.573,0,0,0-29.467-25.621,6.2,6.2,0,0,1-2.391.633c-3.527.26-4.61-1.954-8.913-.6-2.163.68-5.157,2.35-7.6,1.987a35.794,35.794,0,0,0,4.279-4.25c3.7-6.6-7.723-1.7-5.671-9.588a164.964,164.964,0,0,0-17.725-7.449,5.918,5.918,0,0,0,.2,3.362c.864,3.33,1.533,5.717-.893,7.812-2,1.722-4.921,2.033-2.176,5.953,2.027,2.9,4.342,2.092,8.391,1.987.815,2.279.709,4.3,2.845,5.013,2.542.847,4.025.871,5.081,3.051-.731,1.878-2.041,2.468-2.826,4.978-2.463,7.9-.547,7.763-10.346,13.48,1.947,1.892,8.2.255,9.631,4.878,1.4,4.523-4.136,5.192-7.546,6.573-5.387,2.179-3.893,4.745-1.321,8.654,1.6,2.439,3.746,6.93,7.646,6.588,1.641-1.6.556-2.406,3.56-3.169.815,2.217,2.526,3.5,2.03,6.94-.33,2.282-1.794,4.413-2.533,6.459-.815,2.26-1.045,4.829-1.8,7.13-2.02,6.145-5.858,11.626-2.7,21.669a20.474,20.474,0,0,0,2.935,5.977c1.326,1.871,2.6,2.539,3.418,5.506,1.476,5.322,3,6.5,8.682,9.212,7.6,3.635,9.666,13.12,15.638,10.624,5.241-2.187.8-7.181,11.35-6.531,4.45.273,4.136-.68,4.84-4.491.531-2.856,2.593-3.487,5.487-2.637s5.59.136,8.029.907c4.642,1.47,1.1,7.62,3.955,13.186,1.537,2.988,5.248,9.138,7.043,10.827,2.791,2.631,7.063,5.6,3.912,11.9-2.09,4.183-4.9,8.1-2.049,13.378,7.454,13.8,12.706,9.374,12.392,23.375-.114,5.119,2.636,11.057,5.684,12.606.764-.531,1.132-.972,1.79-1.473A166.016,166.016,0,0,0,404.4,81.7l-13.345,2.785c.238,1.77,1.25,2.225,2.663,2.907-2.853,2.372-4.623,6.435-10.722,2.577-7.6-4.81-5.9.412-11.578.293a10.832,10.832,0,0,0,.141-5.192c-1.909-1.132-5.571-.6-7.514-.011-4.207,1.27-12.777,5.971-14.547,10.059l-4.979.441c1.245-1.927,3.831-2.81,3.013-6.938-.6-2.991-2.26-4.713-1.786-8.424,1.735-.658,2-.168,3.01-1.516M110.334,147.907a164.728,164.728,0,0,1,15.3-42.534c3.247.049,6.961.536,10.657-.528,5.129-1.475,14.305-5.828,16.3-8.906-5.355,2.261-7.4,4.41-15.008,3.3-.733-.769-1.265-1.971-2.027-2.9-1.458,1.583-1.693,4.279-3.979,4.631a3.481,3.481,0,0,1-3.025-.931c1.05-1.835,2.141-3.646,3.257-5.436,3.4-.655,7.81-.5,10.325-1.394,11.728-4.171,6.848-7.682,9-8.919,3.686-1.1,3.964,2.872,4.29,6.064,4.632.338,10.961-2.875,14.641.081-.1-5.52-3.516-14.482,4.434-13.814-.328-1.927.115-2.306,1.313-3.695.824-.955.2-.062.7-.944l-3.416-.009c-.257-1.5-.832-2.433.692-2.869,3.573-1.02,6.165,2.171,9.7,2.423,4.554.325,7.732-3.108,12.005-3.893,5.969-1.1,7.637,2.42,12,3.874,4.073,1.356,11.414-1.906,13.406,1.318-3.157,3.216-9.67-.714-7.992,4.3l3.734.642c-.663,3.2-1.264,3.668-.978,7.458-6,.695-10.143-1.519-15.955-1.386.825-2.569,2.136-2.677,2.042-5.95l-5.09,1.551a1.257,1.257,0,0,1-.183-.163,6.818,6.818,0,0,0-8.125-.86c1.431,3.424,1.772,3.373,1.837,7.861,1.26.966,3.311,1.188,2.146,3.5-.744,1.483-2.206,2.035-3.443,3.04-1.6,1.293-1.153,2.571-3.879,2.23a5.821,5.821,0,0,1-3.941-2.138c-.709,1.407-.98,2.482-1.754,3.881-2.1,3.8-4.949,7.263-3.02,11.684,3.19.368,14.313-1.316,18.231-1.73,13.553-1.427,4.566-7.845,4.088-9.215C197.123,93.287,200.8,86,207.688,87c3.246.468,4.342,3.294,6.468,3.668,4.555.8,4.211-1.979,5.211-4.51,3.395-.46,3.483,2.276,5.376,4.166,2.84,2.834,10.262,2.7,13.8,5.858,2.718,2.422,2.221,2.482,3.461,6.188,2.106.146,3.177-.406,4.8.9a3.722,3.722,0,0,1,1.593,4.09c-1.742,1.134-6.181,1.381-8.869,1.048-3.377-.417-3.507-2.789-4.17-5.755-2.27.289-4.05,1.312-5.931,1.8-3.039.782-4.545-1.456-5.834.92-1.611,2.97-2.954,6.93-4.6,9.754,2.938.067,4.121-3,8.526-2.783l.6,3.256,6.079-.411a7.731,7.731,0,0,1-2.993,4.948c-2.823,2.057-3.128.872-4.907-.734-8.568-.341-5.241,6.17-7.217,12.16-1.033,3.127-3.528,2.758-3.857,5.828-.568,5.279-1.47,2.174-3.936,5.216.8,2.743,3.132,2.272,1.218,7.4-.9,2.417-2.394,4.413-2.37,7.363.04,4.9,3.233,9.807,3.836,15.5a8.1,8.1,0,0,1-4.4-3.059c-4.642-5.693-6.755-5.086-13.1-1.906l-.294,2.182c-10.339,1.31-15.114,6.507-14.639,17.666.2,4.826,2.956,8.053,6.981,9.173,4.538,1.265,9.948.366,8.937-6.2,6.777-.994,4.106,2.244,6.767,6.583,2.151,3.508,5.107,3.8,9.875,2.336.432,3.17.1,3.01,2.233,4.5a23.878,23.878,0,0,0,4.072,2.693c7.368,3.665,4.518-1.313,9.9-.525,1.632,1.507.887,2.614,4.344,2.154-.04-9.918-1.574-9.717,15.929-10.592,15.108-.755,10.849-.473,17.02,3.213a9.349,9.349,0,0,0,5.133,1.275c9.135.355,13.122,5.084,21.075,5.826,6.088.568,19.633-2.748,23.64,1.648,1.426,1.565-.6,8.189-.141,11.608.444,3.337,2.225,6.84,3.487,9.707,7.135,16.236-6.318,11.783-9.5,26.893-.872,4.144-2.288,6.036-3.7,9.55-2.531,6.294,4.144,19.723-3.416,20.841-1.1-1-2.225-5.078-5.409-3.243s-.162,7.517,1.573,9.629c2.964,3.6,3.2,5-.606,8.5L301,303.8a2.116,2.116,0,0,1,.244,1.708c-.52,1.841-4.946.9-8.432,3.638-.241,6.424,1.006,11.31,2.69,16.962.637,2.13,1.191,5.8,2.7,6.93,2.431,1.816,6.978-1.345,7.217,2.866-2.889,1.338-9.81,2.637-13.576,1.01-2.406-1.039-5.221-5.5-6.794-8.584l-9.293-21.438c-1.372-4.865.608-9.372.226-14.491a31.272,31.272,0,0,0-3.4-11.975c-3.154-6.535-6.518-14.937-9.618-21.074-4.473.135-7.455.263-9.941-2.236-.851-.855-1.852-2.311-2.743-3.337a40.779,40.779,0,0,0-5.923-6.207c-1.241-.953-2.439-1.468-3.726-2.347-8.755-5.977-2.42-20.8-6.9-28.837-3.006-5.393-4.993-2.553-7.478-3.243a34.438,34.438,0,0,1-4.059-2.009c-4.508-2.081-9.071-2.147-12.924-4.954-3.75-2.731-4.3-1.908-9.409-2.284-7.727-.566-15.9,2.046-22.725.823-7.41-1.327-10.629-6.4-14.3-9.61-1.785-1.559-12.549-8.7-14.88-8.543-2.253,6.478,7.519,9.967,9.3,14.9-9.1-.046-8.126-6.77-11.658-13.067-3.47-6.188-9.871-5.189-15.1-9.19-4.4-3.365-5.944-11.645-7.321-17-1.793-6.979-5.25-10.915-7.244-16.729l-.347.863c-.463,1.584-.6,3.619-1.289,5.035a4.1,4.1,0,0,1-3.959-3.476M134.3,90.72c1.831-.211,2.384-1.388,4.038-2.014,1.4-.533,4.641.3,7.32-.227,4.617-.915,2.038-1.5,4.183-3.993,1.438-1.664,4.195-1.2,4.536-3.535-3.1-2.58-3.924.75-5.219,2.139-3.125,3.353-3.985-1.684-6.33.411-.986.882-.359,1.611-2.537,1.524a8.9,8.9,0,0,0-2.071.043Q136.2,87.85,134.3,90.72m11.388-8.859c3.955,1.491,5.76-8.874.307-1.535-1.1,1.483-.307,1.535-.307,1.535m11.629-9.878c.8,1.391,1.5,1.562,3.2,1.042,2.315-.706,1.816-.9,3.519.274l.154-2.136c-3.412-.466-6.009-2.071-6.874.82M231.58,183.921a7.377,7.377,0,0,0,7.07-.618c2.377-1.738-.823-1.237,3.91-4.344.076-.049.171-.12.239-.166l.479-.354c-2.94.1-5.581-.449-8.474.336-3.089.839-4.069,1.67-3.224,5.146m-23.87-1.005c3.827-.1,3.212-.852,5.15-2.179,4.427-3.026,8.719,2.036,11.613,1.727,1.93-.208,5.166-.352,4.875-2.444-.336-2.417-2.61-1.568-4.838-1.427-2.923.187-3.1-1.47-6.76-.893-3.533.558-9.548,1.922-10.04,5.216m76.1-127.773c.815-.869.837-1.9,1.822-2.769,2.044-1.806,8.024-.937,8.11-6.494-1.673-.125-2.265.154-3.879-.338-3.592-1.1-3.909.584-5.844,2-1.568,1.148-1.992.36-3.822.853-1.959.525-5.058,2.5-2.706,4.166a41.685,41.685,0,0,0,6.319,2.582M312.2,65.286c.817-1.592,3.871-4.729,3.724-6.118-.221-2.1-1.586-.059-.227-3.873a18.68,18.68,0,0,0,.934-3.958c4.748.983,8.57,9.1,17.6,10.222-.447,2.866.278,3.578-1.79,5.113a11.373,11.373,0,0,1-4.824,1.922c-4.563.533-4.285-4.415-6.269-6.532-4.428.024-1.11,3.9-3.651,5.251-1.828.97-4.5-1.126-5.5-2.027M177.591,59.731c-3.569.463-7.519,1.292-10,2.748.169,3.281,3.416,3.273,6.471,2.661,4.223-.845,4.767-.133,5.219,3.841,5.832.352,11.426,1.129,11.475-4.017L187,65.208c-.749-1.221-.013-.469-.934-1.192,2.194-5.1,6.292-4.528,9.323-9.734,1.231-2.117,1.373-4.921,2.789-6.851,1.649-2.249,3.811-1.324,5.017-4.943-7.219.49-8.148,4.556-14.4,7-6.006,2.347-11.789,2.555-11.207,10.245m25.847-4.488c3.051,1.638,7.106-3.416,14.732,3.081,8.635,7.355,11.748,2.528,13.591,2.46.82,4.188,1.585,6.83,3.868,9.009a46.952,46.952,0,0,0,7.76,5.468c3.99,1.746,7.53.417,8.378-3.135.9-3.751-1.143-8.675.661-11.883.791-1.4,4.808-2.469,7.937-4.924,2.551-2,4.565-3.933,7.324-5.882,1.953-1.381,7.232-3.544,7.993-5.249,1.062-2.374-3.425-6.334-2.085-10.294,1.667-.842,4.116-.063,6.216-.542,2.411-.549,1.98-1.651,2.944-3.876,1.624-3.76,7.241-2.612,5.073-7.58-3.327-1.053-8.482,4.375-10.483,5.753-3.107,2.138-3.071-.03-9.733,3.126a9.305,9.305,0,0,1-1.534.609c-1.335.276-1.472-.032-1.689-.127-.484-2.317.49-3.792,1.166-5.76.881-2.564,2.172-4.145,2.014-5.577-.468-4.228-6.843.8-10.547.926-2.437.081-4.52-.89-6.614.233-2.616,1.4-1.169,3.93-3.443,4.41-3.98.833-7.313-5.482-10.975,1.172-2.363,4.293-4.556,4.16-10.427,4.864a12.737,12.737,0,0,0-5.575,2L207.232,44c-1.7,1.857-4.246,6.5-4.331,9.415Zm-25.418,24.3-3.359-2.32.71,4.916c5.724.1,6.341,2.268,8.053,4.856,5.7-2.647-4.071-6.691-5.4-7.452" fill="#91b3fa" fill-rule="evenodd"/>
              <path id="Trazado_748341" data-name="Trazado 748341" d="M231.784,25.746a.693.693,0,0,1-.523-1.283l.24-.1.243-.094.241-.095.244-.1.245-.094.245-.1.245-.092.248-.1.246-.092.248-.092.165-.057a.693.693,0,0,1,.478,1.3l-.166.059-.243.092L233.7,25l-.241.089-.242.092-.241.095-.238.092-.24.094-.238.092-.235.1ZM174.932,214.16a.693.693,0,0,1-.029-1.386l.181,0,.578-.013.587-.017.6-.019.608-.024.2-.008a.692.692,0,1,1,.062,1.383l-.207.011-.614.022-.6.021-.6.016-.585.014Zm6.955-.317a.692.692,0,1,1-.095-1.38l.195-.014.683-.049.7-.051.7-.054.481-.038a.692.692,0,1,1,.112,1.38l-.485.041-.706.054-.7.052-.689.048Zm6.928-.579a.694.694,0,0,1-.139-1.381l.548-.054.769-.079.778-.081.656-.07a.693.693,0,1,1,.15,1.378l-.659.07-.782.081-.774.082Zm6.9-.769a.693.693,0,0,1-.171-1.375l.049-.006.83-.1.836-.109.845-.108.184-.024a.692.692,0,0,1,.184,1.372l-.19.027-.847.108-.839.109-.832.1Zm6.882-.918a.693.693,0,0,1-.2-1.372h.022l.882-.13.889-.13.895-.133.049-.008a.693.693,0,0,1,.208,1.37l-.051.008-.9.135-.893.131-.885.127Zm6.864-1.042a.693.693,0,0,1-.222-1.369l.411-.068.929-.149.933-.157.458-.076a.693.693,0,1,1,.231,1.367l-.46.079-.938.154-.931.152Zm6.844-1.161a.693.693,0,1,1-.243-1.365l.2-.035.963-.17.968-.176.6-.109a.692.692,0,1,1,.251,1.362l-.6.111-.972.176-.965.171Zm6.824-1.264a.694.694,0,0,1-.264-1.362l.226-.043.993-.192,1-.2.5-.1a.694.694,0,0,1,.272,1.361l-.506.1-1,.2-.994.192Zm6.8-1.367a.693.693,0,0,1-.284-1.357l.462-.094,1.016-.214,1.019-.219.211-.044a.693.693,0,1,1,.293,1.354l-.216.046-1.02.216-1.019.217Zm6.785-1.465a.693.693,0,0,1-.3-1.353l.866-.193,1.035-.235.8-.181a.693.693,0,1,1,.311,1.35l-.8.184-1.036.233Zm6.762-1.562a.693.693,0,1,1-.323-1.348l.36-.086,1.045-.252,1.047-.254.237-.057a.693.693,0,0,1,.333,1.345l-.241.06-1.05.254-1.048.252Zm6.739-1.662a.693.693,0,0,1-.345-1.342l.989-.252,1.055-.273.637-.166a.693.693,0,1,1,.352,1.34l-.642.168-1.058.273Zm6.713-1.762a.693.693,0,0,1-.365-1.337l.629-.171,1.057-.289.984-.274a.694.694,0,0,1,.371,1.337l-.988.271-1.06.293Zm6.685-1.868a.693.693,0,0,1-.386-1.332l.3-.086,1.056-.306,1.054-.309.242-.073a.693.693,0,0,1,.4,1.329l-.245.073-1.058.309-1.06.309Zm6.656-1.976a.694.694,0,0,1-.41-1.326l1.045-.32,1.051-.327.548-.171a.692.692,0,1,1,.416,1.321l-.552.174-1.053.327Zm6.619-2.092a.693.693,0,0,1-.432-1.318l.723-.236,1.038-.341.868-.29a.692.692,0,1,1,.439,1.313l-.87.293-1.043.343Zm6.582-2.215a.694.694,0,0,1-.46-1.31l.373-.127,1.026-.36,1.023-.363.187-.067a.693.693,0,1,1,.471,1.3l-.192.068-1.026.365-1.031.361Zm6.534-2.346a.694.694,0,0,1-.487-1.3l.988-.368,1-.379.6-.227a.693.693,0,1,1,.495,1.294l-.6.23-1.009.379ZM296.5,187.3a.694.694,0,1,1-.517-1.288l.509-.2.983-.4.98-.4.092-.038a.693.693,0,0,1,.53,1.28l-.1.041-.985.4-.986.4Zm6.421-2.652a.692.692,0,0,1-.552-1.27l.912-.392.95-.415.677-.3a.693.693,0,1,1,.563,1.266l-.682.3-.958.417Zm6.348-2.826a.694.694,0,0,1-.585-1.259l.233-.108.923-.428.915-.433.428-.206a.691.691,0,1,1,.6,1.245l-.433.211-.923.436-.926.433Zm6.261-3.03a.692.692,0,0,1-.628-1.234l.341-.173.883-.449.871-.452.358-.19a.694.694,0,0,1,.649,1.226l-.365.192-.88.455-.888.455Zm6.148-3.253a.693.693,0,1,1-.674-1.21l.265-.146.834-.469.825-.471.474-.273a.692.692,0,1,1,.7,1.2l-.482.282-.833.474-.845.471Zm6.012-3.514a.694.694,0,0,1-.737-1.175l.78-.481.774-.49.763-.493.017-.008a.693.693,0,0,1,.76,1.158l-.024.017-.771.495-.783.493Zm5.825-3.819a.693.693,0,0,1-.8-1.134l.26-.179.715-.509.709-.509.557-.406a.692.692,0,1,1,.823,1.113l-.568.416-.715.515-.725.514Zm5.587-4.18a.692.692,0,1,1-.871-1.075l.227-.181.641-.528.631-.528.617-.522a.692.692,0,0,1,.9,1.05l-.623.531-.641.536-.656.536Zm5.257-4.61a.693.693,0,0,1-.969-.99l.5-.485.552-.547.544-.552.344-.36a.693.693,0,1,1,1.007.953l-.357.373-.555.563-.563.561Zm4.78-5.124a.693.693,0,1,1-1.077-.872l.412-.5.454-.572.441-.571.385-.511a.693.693,0,1,1,1.115.823l-.4.527-.455.591-.465.584Zm4.088-5.709a.694.694,0,0,1-1.191-.712l.1-.162.347-.59.335-.59.32-.6.227-.441a.694.694,0,0,1,1.237.628l-.238.46-.333.617-.346.615-.358.609Zm3.081-6.342a.694.694,0,1,1-1.3-.477l.022-.054.219-.614.2-.612.192-.617.179-.62.011-.052a.693.693,0,1,1,1.343.339l-.019.081-.187.647-.2.644-.212.642-.227.639Zm1.7-6.873a.693.693,0,1,1-1.378-.157l.046-.36.065-.636.051-.642.038-.641.016-.42a.693.693,0,0,1,1.386.032l-.019.45-.037.674-.055.671-.067.669Zm.046-7.071a.692.692,0,1,1-1.375.157l-.009-.089-.083-.661-.1-.665-.113-.666-.117-.593a.694.694,0,0,1,1.359-.279l.119.623.122.695.106.7.086.693ZM356.5,121.4a.693.693,0,0,1-1.31.452l-.076-.228-.205-.587-.206-.582-.217-.574-.214-.568-.013-.038a.692.692,0,1,1,1.286-.512l.022.049.219.582.216.584.214.6.209.6Zm-2.607-6.5a.693.693,0,1,1-1.25.6l-.236-.5-.249-.511-.251-.5-.258-.5-.232-.444a.693.693,0,1,1,1.223-.652l.241.457.263.512.26.517.254.525Zm-3.375-6.145a.692.692,0,1,1-1.164.75l-.151-.238-.287-.442-.293-.435-.292-.431-.3-.425-.211-.295a.694.694,0,1,1,1.126-.812l.217.309.308.435.3.442.3.449.295.452Zm-4.171-5.647a.694.694,0,0,1-1.054.9l-.051-.062-.322-.373-.327-.368-.328-.363-.333-.36-.333-.352-.135-.144a.692.692,0,1,1,.991-.966l.146.154.346.363.341.368.336.376.336.377.335.384Zm-4.946-5a.692.692,0,1,1-.9,1.053l-.36-.311-.36-.3-.357-.3-.363-.295-.363-.289-.308-.247a.692.692,0,1,1,.85-1.093l.322.254.371.3.373.3.368.309.369.311Zm-5.582-4.241a.693.693,0,1,1-.763,1.158l-.084-.054-.382-.249-.384-.244-.384-.241L333.436,94l-.387-.233-.317-.186a.694.694,0,1,1,.7-1.2l.322.192.4.241.4.244.395.246.4.249.39.257Zm-6.079-3.487a.693.693,0,0,1-.618,1.24l-.013-.006-.4-.2-.4-.195-.4-.192-.4-.187-.4-.187-.4-.181-.054-.025a.694.694,0,0,1,.56-1.269l.062.027.412.187.411.189.412.192.411.195.406.2.409.2Zm-6.41-2.8a.693.693,0,0,1-.493,1.3l-.217-.084-.411-.154-.412-.152-.411-.151-.409-.146-.414-.147-.311-.108a.693.693,0,0,1,.452-1.31l.319.111.417.149.42.149.416.154.417.154.42.155Zm-6.611-2.244a.692.692,0,1,1-.395,1.326l-.287-.084-.412-.122-.411-.121-.409-.12-.408-.119-.412-.113-.308-.087a.693.693,0,1,1,.368-1.337l.316.089.415.116.414.119L315.6,85l.417.119.414.125Zm-6.708-1.847a.694.694,0,0,1-.341,1.346l-.151-.041-.4-.1-.4-.1-.4-.1-.4-.1-.4-.1-.4-.1-.135-.032a.694.694,0,0,1,.328-1.348l.132.032.4.1.4.1.4.1.4.1.406.1.4.1Zm-6.745-1.629a.693.693,0,1,1-.322,1.348l-.114-.027-.382-.089-.379-.09-.379-.092-.376-.089-.376-.089-.374-.09-.319-.078a.692.692,0,0,1,.325-1.346l.319.076.371.09.376.089.374.089.379.092.378.09.385.089Zm-6.714-1.651a.692.692,0,1,1-.357,1.337l-.322-.084-.347-.1-.343-.1-.341-.094-.341-.1-.339-.1-.336-.1-.316-.1a.692.692,0,1,1,.395-1.326l.309.092.33.1.336.094.332.1.339.095.338.092.344.092Zm-6.54-2.041a.693.693,0,1,1-.5,1.294l-.113-.044-.295-.114-.3-.116-.287-.119-.287-.119-.285-.122-.278-.124-.279-.125-.276-.124-.206-.1a.693.693,0,0,1,.6-1.25l.2.1.262.121.263.117.268.119.273.116.277.117.278.113.282.111.287.111Zm-5.944-3.116a.693.693,0,0,1-.839,1.1l-.041-.029-.216-.168-.212-.171-.205-.17-.2-.176-.2-.179-.2-.181-.19-.184-.187-.19-.181-.189-.179-.195-.13-.146a.693.693,0,0,1,1.051-.9l.108.124.162.173.163.171.168.168.17.167.176.163.179.162.184.157.189.157.192.155.2.151Zm-3.875-5.119a.693.693,0,0,1-1.314.441l-.046-.132-.085-.263-.079-.265-.072-.268-.068-.273-.06-.274-.057-.281-.05-.282-.045-.29-.039-.292-.027-.23a.693.693,0,0,1,1.379-.141l.023.2.035.263.041.257.046.254.05.249.054.247.061.243.064.239.069.232.074.231Zm-.522-6.6a.693.693,0,1,1-1.384-.07l.019-.363.029-.566.024-.557.022-.558.017-.549.006-.16a.693.693,0,0,1,1.386.038l-.006.165-.019.558-.023.563-.024.565-.029.572Zm.159-6.973a.693.693,0,0,1-1.386.025l-.007-.466-.009-.5-.014-.5-.014-.5-.019-.49-.014-.3a.693.693,0,0,1,1.385-.063l.013.3.019.5.017.5.013.509.01.514Zm-.376-6.978a.693.693,0,0,1-1.378.143l-.027-.265L278,48.82l-.05-.439-.053-.436-.054-.43-.059-.425-.041-.287a.693.693,0,0,1,1.372-.2l.043.3.059.434.055.441.054.444.052.446.048.452Zm-1.094-6.922a.693.693,0,0,1-1.352.306l-.017-.081-.087-.377-.089-.37-.091-.368-.093-.363-.1-.36-.1-.358-.1-.351,0-.014a.693.693,0,0,1,1.328-.4l.008.024.1.366.1.365.1.371.1.376.093.379.092.382.09.387Zm-2.088-6.724a.693.693,0,0,1-1.28.531l-.019-.046-.128-.3-.128-.3-.131-.295-.133-.29-.135-.29-.136-.281-.139-.282-.14-.276-.05-.1a.693.693,0,0,1,1.225-.647l.057.109.148.289.144.293.144.3.139.3.14.3.136.309.134.308.133.314Zm-3.438-6.2a.693.693,0,1,1-1.11.831l-.139-.19-.169-.222-.168-.216-.172-.214-.173-.214-.175-.206-.174-.2-.178-.2-.18-.2-.18-.195-.005,0a.694.694,0,0,1,1-.961l.018.019.192.208.19.211L271.6,28l.186.219.186.22.181.224.183.228.18.232.177.233Zm-5.024-5.032A.693.693,0,1,1,267,25.632l-.059-.043-.2-.146-.2-.144-.206-.138-.208-.138-.209-.133-.208-.13-.212-.13-.212-.127-.214-.124-.213-.119-.114-.063a.693.693,0,0,1,.659-1.22l.126.07.23.13.226.13.227.135.225.138.225.138.222.144.22.146.22.151.219.152.217.154Zm-6.341-3.227a.694.694,0,1,1-.433,1.318l-.233-.078-.235-.071-.233-.073-.237-.067-.237-.065-.238-.065-.238-.063-.24-.059L258.9,22l-.241-.054-.23-.052a.693.693,0,0,1,.289-1.356l.244.054.254.06.253.06.253.062.25.065.252.067.249.071.25.07.248.076.249.078ZM254.5,19.958a.693.693,0,0,1-.087,1.383l-.21-.013-.253-.016L253.7,21.3l-.254-.011-.254-.008-.258-.008-.254,0-.256,0-.258,0h-.255l-.211,0a.693.693,0,0,1-.018-1.386l.222,0h.268l.266,0,.266,0,.267.005.265.008.264.011.266.011.263.013.266.017Zm-7.04.182a.692.692,0,1,1,.157,1.375l-.119.013-.262.033-.261.03-.261.035-.261.035-.263.038-.26.035-.26.041-.261.04-.261.044-.237.04a.693.693,0,0,1-.233-1.367l.243-.04.268-.044.269-.043.269-.041.268-.038.269-.038.27-.037.268-.036.269-.032.27-.03Zm-6.9,1.261a.692.692,0,1,1,.338,1.343l-.167.043-.258.065-.257.065-.257.068-.256.07-.258.07-.255.071-.255.073-.255.073-.254.073-.174.051a.692.692,0,1,1-.4-1.326l.176-.054.261-.076.26-.076.261-.073.264-.073.26-.07.263-.071.262-.07.264-.068.264-.067Z" fill="#1e77d1" fill-rule="evenodd"/>
              <path id="Trazado_748342" data-name="Trazado 748342" d="M352.461,65.665h0c5.36,5.363,5.035,13.83,0,19.5l-9.75,10.979L332.96,85.166c-5.035-5.671-5.362-14.138,0-19.5a13.831,13.831,0,0,1,19.5,0" fill="#f57a44" fill-rule="evenodd"/>
              <path id="Trazado_748343" data-name="Trazado 748343" d="M342.711,65.665a9.542,9.542,0,1,1-9.546,9.542,9.544,9.544,0,0,1,9.546-9.542" fill="#f08261" fill-rule="evenodd"/>
              <path id="Trazado_748344" data-name="Trazado 748344" d="M342.711,67.83a7.377,7.377,0,1,1-7.38,7.376,7.375,7.375,0,0,1,7.38-7.376" fill="#f08261" fill-rule="evenodd"/>
              <path id="Trazado_748345" data-name="Trazado 748345" d="M352.932,65.031h0c5.36,5.36,5.032,13.827,0,19.5l-9.75,10.979-9.751-10.979c-5.035-5.671-5.362-14.138,0-19.5a13.831,13.831,0,0,1,19.5,0" fill="#fe7062" fill-rule="evenodd"/>
              <g id="Grupo_1019122" data-name="Grupo 1019122" opacity="0.44">
                <g id="Grupo_1019121" data-name="Grupo 1019121">
                  <g id="Grupo_1019120" data-name="Grupo 1019120" clip-path="url(#clip-path-4)">
                    <path id="Trazado_748346" data-name="Trazado 748346" d="M352.932,65.031h0c5.36,5.36,5.032,13.827,0,19.5l-9.75,10.979-5.008-5.638a19.5,19.5,0,0,1,.1-2.461c.45-4.669,3-6.163,5.376-6.938,3.636-1.183,5.227-2.826,4.605-7.62a9.4,9.4,0,0,0-7.458-7.8,26.91,26.91,0,0,0-7.192-.2,13.829,13.829,0,0,1,19.322.176" fill="#ffe2dc" fill-rule="evenodd"/>
                  </g>
                </g>
              </g>
              <path id="Trazado_748347" data-name="Trazado 748347" d="M343.182,65.031a9.542,9.542,0,1,1-9.545,9.542,9.544,9.544,0,0,1,9.545-9.542" fill="#dfedfa" fill-rule="evenodd"/>
              <g id="Grupo_1019125" data-name="Grupo 1019125" opacity="0.46">
                <g id="Grupo_1019124" data-name="Grupo 1019124">
                  <g id="Grupo_1019123" data-name="Grupo 1019123" clip-path="url(#clip-path-5)">
                    <path id="Trazado_748348" data-name="Trazado 748348" d="M343.182,65.031a9.542,9.542,0,1,1-3.649,18.361,7.287,7.287,0,0,1,4.123-2.921c3.635-1.183,5.227-2.826,4.6-7.62a9.334,9.334,0,0,0-6.881-7.652,9.651,9.651,0,0,1,1.8-.168" fill="#fff" fill-rule="evenodd"/>
                  </g>
                </g>
              </g>
              <path id="Trazado_748349" data-name="Trazado 748349" d="M343.471,98.034a4.434,4.434,0,1,1-4.437,4.434,4.435,4.435,0,0,1,4.437-4.434" fill="#f57a44" fill-rule="evenodd"/>
              <path id="Trazado_748350" data-name="Trazado 748350" d="M343.891,97.582a4.436,4.436,0,1,1-4.434,4.437,4.438,4.438,0,0,1,4.434-4.437" fill="#fe7062" fill-rule="evenodd"/>
              <g id="Grupo_1019128" data-name="Grupo 1019128" opacity="0.48">
                <g id="Grupo_1019127" data-name="Grupo 1019127">
                  <g id="Grupo_1019126" data-name="Grupo 1019126" clip-path="url(#clip-path-6)">
                    <path id="Trazado_748351" data-name="Trazado 748351" d="M343.891,97.582a4.435,4.435,0,0,1,.441,8.849c-.008-.991.136-2.193.136-3.579,0-2.945-2.786-3.408-3.252-4.374a4.433,4.433,0,0,1,2.675-.9" fill="#ffe2dc" fill-rule="evenodd"/>
                  </g>
                </g>
              </g>
              <path id="Trazado_748352" data-name="Trazado 748352" d="M249.616,4.656h0c5.363,5.362,5.035,13.83,0,19.5l-9.75,10.979-9.749-10.979c-5.035-5.671-5.363-14.139,0-19.5a13.827,13.827,0,0,1,19.5,0" fill="#f57a44" fill-rule="evenodd"/>
              <path id="Trazado_748353" data-name="Trazado 748353" d="M239.866,4.656a9.544,9.544,0,1,1-9.542,9.545,9.545,9.545,0,0,1,9.542-9.545" fill="#f08261" fill-rule="evenodd"/>
              <path id="Trazado_748354" data-name="Trazado 748354" d="M239.866,6.821a7.378,7.378,0,1,1-7.378,7.379,7.377,7.377,0,0,1,7.378-7.379" fill="#f08261" fill-rule="evenodd"/>
              <path id="Trazado_748355" data-name="Trazado 748355" d="M250.087,4.022h0c5.361,5.363,5.033,13.83,0,19.5L240.337,34.5l-9.75-10.979c-5.034-5.671-5.362-14.138,0-19.5a13.83,13.83,0,0,1,19.5,0" fill="#fe7062" fill-rule="evenodd"/>
              <g id="Grupo_1019131" data-name="Grupo 1019131" opacity="0.44">
                <g id="Grupo_1019130" data-name="Grupo 1019130">
                  <g id="Grupo_1019129" data-name="Grupo 1019129" clip-path="url(#clip-path-7)">
                    <path id="Trazado_748356" data-name="Trazado 748356" d="M250.087,4.022h0c5.361,5.363,5.033,13.83,0,19.5L240.338,34.5l-5.008-5.638a19.647,19.647,0,0,1,.1-2.461c.451-4.669,3-6.164,5.378-6.938,3.636-1.186,5.228-2.829,4.605-7.623a9.4,9.4,0,0,0-7.459-7.8,26.9,26.9,0,0,0-7.191-.2,13.829,13.829,0,0,1,19.32.176" fill="#ffe2dc" fill-rule="evenodd"/>
                  </g>
                </g>
              </g>
              <path id="Trazado_748357" data-name="Trazado 748357" d="M240.337,4.022a9.542,9.542,0,1,1-9.542,9.542,9.543,9.543,0,0,1,9.542-9.542" fill="#dfedfa" fill-rule="evenodd"/>
              <g id="Grupo_1019134" data-name="Grupo 1019134" opacity="0.46">
                <g id="Grupo_1019133" data-name="Grupo 1019133">
                  <g id="Grupo_1019132" data-name="Grupo 1019132" clip-path="url(#clip-path-8)">
                    <path id="Trazado_748358" data-name="Trazado 748358" d="M240.337,4.022a9.542,9.542,0,1,1-3.646,18.361,7.256,7.256,0,0,1,4.121-2.918c3.637-1.186,5.229-2.829,4.606-7.623a9.334,9.334,0,0,0-6.884-7.649,9.651,9.651,0,0,1,1.8-.171" fill="#fff" fill-rule="evenodd"/>
                  </g>
                </g>
              </g>
              <path id="Trazado_748359" data-name="Trazado 748359" d="M240.628,37.025a4.435,4.435,0,1,1-4.436,4.434,4.436,4.436,0,0,1,4.436-4.434" fill="#f57a44" fill-rule="evenodd"/>
              <path id="Trazado_748360" data-name="Trazado 748360" d="M241.047,36.576a4.435,4.435,0,1,1-4.435,4.434,4.433,4.433,0,0,1,4.435-4.434" fill="#fe7062" fill-rule="evenodd"/>
              <g id="Grupo_1019137" data-name="Grupo 1019137" opacity="0.48">
                <g id="Grupo_1019136" data-name="Grupo 1019136">
                  <g id="Grupo_1019135" data-name="Grupo 1019135" clip-path="url(#clip-path-9)">
                    <path id="Trazado_748361" data-name="Trazado 748361" d="M241.047,36.576a4.436,4.436,0,0,1,.441,8.849c-.008-.993.136-2.193.136-3.579,0-2.947-2.786-3.408-3.25-4.377a4.429,4.429,0,0,1,2.673-.893" fill="#ffe2dc" fill-rule="evenodd"/>
                  </g>
                </g>
              </g>
              <path id="Trazado_748362" data-name="Trazado 748362" d="M186.991,174.414h0c5.362,5.363,5.035,13.832,0,19.5l-9.75,10.979-9.749-10.979c-5.034-5.671-5.363-14.138,0-19.5a13.827,13.827,0,0,1,19.5,0" fill="#f57a44" fill-rule="evenodd"/>
              <path id="Trazado_748363" data-name="Trazado 748363" d="M177.24,174.414a9.544,9.544,0,1,1-9.542,9.545,9.545,9.545,0,0,1,9.542-9.545" fill="#f08261" fill-rule="evenodd"/>
              <path id="Trazado_748364" data-name="Trazado 748364" d="M177.24,176.579a7.378,7.378,0,1,1-7.377,7.379,7.377,7.377,0,0,1,7.377-7.379" fill="#f08261" fill-rule="evenodd"/>
              <path id="Trazado_748365" data-name="Trazado 748365" d="M187.462,173.78h0c5.363,5.362,5.035,13.83,0,19.5l-9.75,10.979-9.749-10.979c-5.035-5.671-5.363-14.139,0-19.5a13.827,13.827,0,0,1,19.5,0" fill="#fc9774" fill-rule="evenodd"/>
              <g id="Grupo_1019140" data-name="Grupo 1019140" opacity="0.44">
                <g id="Grupo_1019139" data-name="Grupo 1019139">
                  <g id="Grupo_1019138" data-name="Grupo 1019138" clip-path="url(#clip-path-10)">
                    <path id="Trazado_748366" data-name="Trazado 748366" d="M187.462,173.78h0c5.363,5.362,5.035,13.83,0,19.5l-9.749,10.979-5.008-5.638a19.311,19.311,0,0,1,.106-2.461c.449-4.669,3-6.164,5.376-6.938,3.636-1.186,5.228-2.829,4.606-7.623a9.4,9.4,0,0,0-7.459-7.8,26.905,26.905,0,0,0-7.192-.2,13.829,13.829,0,0,1,19.32.176" fill="#ffe2dc" fill-rule="evenodd"/>
                  </g>
                </g>
              </g>
              <path id="Trazado_748367" data-name="Trazado 748367" d="M177.712,173.78a9.542,9.542,0,1,1-9.543,9.542,9.543,9.543,0,0,1,9.543-9.542" fill="#dfedfa" fill-rule="evenodd"/>
              <g id="Grupo_1019143" data-name="Grupo 1019143" opacity="0.46">
                <g id="Grupo_1019142" data-name="Grupo 1019142">
                  <g id="Grupo_1019141" data-name="Grupo 1019141" clip-path="url(#clip-path-11)">
                    <path id="Trazado_748368" data-name="Trazado 748368" d="M177.712,173.78a9.542,9.542,0,1,1-3.647,18.361,7.256,7.256,0,0,1,4.121-2.918c3.638-1.186,5.229-2.829,4.606-7.623a9.338,9.338,0,0,0-6.884-7.649,9.661,9.661,0,0,1,1.8-.171" fill="#fff" fill-rule="evenodd"/>
                  </g>
                </g>
              </g>
              <path id="Trazado_748369" data-name="Trazado 748369" d="M178,206.783a4.436,4.436,0,1,1-4.436,4.434A4.436,4.436,0,0,1,178,206.783" fill="#f57a44" fill-rule="evenodd"/>
              <path id="Trazado_748370" data-name="Trazado 748370" d="M178.422,206.334a4.436,4.436,0,1,1-4.435,4.434,4.435,4.435,0,0,1,4.435-4.434" fill="#fc9774" fill-rule="evenodd"/>
              <g id="Grupo_1019146" data-name="Grupo 1019146" opacity="0.48">
                <g id="Grupo_1019145" data-name="Grupo 1019145">
                  <g id="Grupo_1019144" data-name="Grupo 1019144" clip-path="url(#clip-path-12)">
                    <path id="Trazado_748371" data-name="Trazado 748371" d="M178.422,206.334a4.435,4.435,0,0,1,.441,8.849c-.008-.994.136-2.193.136-3.579,0-2.945-2.785-3.408-3.249-4.374a4.409,4.409,0,0,1,2.672-.9" fill="#ffe2dc" fill-rule="evenodd"/>
                  </g>
                </g>
              </g>
              <path id="Trazado_748372" data-name="Trazado 748372" d="M339.8,153.616h0c5.363,5.363,5.032,13.83,0,19.5l-9.75,10.979-9.751-10.979c-5.032-5.671-5.362-14.138,0-19.5a13.829,13.829,0,0,1,19.5,0" fill="#f57a44" fill-rule="evenodd"/>
              <path id="Trazado_748373" data-name="Trazado 748373" d="M330.045,153.616a9.544,9.544,0,1,1-9.542,9.545,9.544,9.544,0,0,1,9.542-9.545" fill="#f08261" fill-rule="evenodd"/>
              <path id="Trazado_748374" data-name="Trazado 748374" d="M330.045,155.782a7.378,7.378,0,1,1-7.376,7.379,7.376,7.376,0,0,1,7.376-7.379" fill="#f08261" fill-rule="evenodd"/>
              <path id="Trazado_748375" data-name="Trazado 748375" d="M340.263,152.983h0c5.365,5.363,5.035,13.83,0,19.5l-9.75,10.982-9.748-10.982c-5.032-5.668-5.362-14.135,0-19.5a13.828,13.828,0,0,1,19.5,0" fill="#fe7062" fill-rule="evenodd"/>
              <g id="Grupo_1019149" data-name="Grupo 1019149" opacity="0.44">
                <g id="Grupo_1019148" data-name="Grupo 1019148">
                  <g id="Grupo_1019147" data-name="Grupo 1019147" clip-path="url(#clip-path-13)">
                    <path id="Trazado_748376" data-name="Trazado 748376" d="M340.263,152.983h0c5.365,5.363,5.035,13.83,0,19.5l-9.747,10.982-5.006-5.638a18.61,18.61,0,0,1,.1-2.464c.449-4.666,3-6.161,5.376-6.935,3.638-1.185,5.23-2.829,4.607-7.623a9.4,9.4,0,0,0-7.46-7.8,26.891,26.891,0,0,0-7.19-.2,13.826,13.826,0,0,1,19.317.176" fill="#ffe2dc" fill-rule="evenodd"/>
                  </g>
                </g>
              </g>
              <path id="Trazado_748377" data-name="Trazado 748377" d="M330.513,152.983a9.542,9.542,0,1,1-9.539,9.542,9.543,9.543,0,0,1,9.539-9.542" fill="#dfedfa" fill-rule="evenodd"/>
              <g id="Grupo_1019152" data-name="Grupo 1019152" opacity="0.46">
                <g id="Grupo_1019151" data-name="Grupo 1019151">
                  <g id="Grupo_1019150" data-name="Grupo 1019150" clip-path="url(#clip-path-14)">
                    <path id="Trazado_748378" data-name="Trazado 748378" d="M330.513,152.983a9.542,9.542,0,1,1-3.643,18.361,7.243,7.243,0,0,1,4.119-2.918c3.639-1.185,5.23-2.829,4.608-7.623a9.333,9.333,0,0,0-6.884-7.649,9.619,9.619,0,0,1,1.8-.171" fill="#fff" fill-rule="evenodd"/>
                  </g>
                </g>
              </g>
              <path id="Trazado_748379" data-name="Trazado 748379" d="M330.8,185.986a4.435,4.435,0,1,1-4.434,4.434,4.433,4.433,0,0,1,4.434-4.434" fill="#f57a44" fill-rule="evenodd"/>
              <path id="Trazado_748380" data-name="Trazado 748380" d="M331.228,185.536a4.436,4.436,0,1,1-4.437,4.434,4.434,4.434,0,0,1,4.437-4.434" fill="#fe7062" fill-rule="evenodd"/>
              <g id="Grupo_1019155" data-name="Grupo 1019155" opacity="0.48">
                <g id="Grupo_1019154" data-name="Grupo 1019154">
                  <g id="Grupo_1019153" data-name="Grupo 1019153" clip-path="url(#clip-path-15)">
                    <path id="Trazado_748381" data-name="Trazado 748381" d="M331.228,185.536a4.435,4.435,0,0,1,.439,8.849c-.009-.993.135-2.192.135-3.579,0-2.945-2.783-3.407-3.249-4.374a4.407,4.407,0,0,1,2.675-.9" fill="#ffe2dc" fill-rule="evenodd"/>
                  </g>
                </g>
              </g>
              <path id="Trazado_748382" data-name="Trazado 748382" d="M255,352.258c140.831,0,255,5,255,11.167s-114.169,11.169-255,11.169-255-5-255-11.169,114.166-11.167,255-11.167" fill="#4ec4c2" fill-rule="evenodd"/>
              <path id="Trazado_748383" data-name="Trazado 748383" d="M218.881,290.162c.74,10.147,2.236,11.549,11.912,12.33-9.676.781-11.172,2.18-11.912,12.33-.74-10.15-2.236-11.549-11.911-12.33,9.675-.781,11.171-2.183,11.911-12.33m-39.329,26.765c.394,5.417,1.195,6.164,6.361,6.582-5.166.417-5.967,1.164-6.361,6.583-.394-5.419-1.192-6.166-6.358-6.583,5.166-.418,5.964-1.165,6.358-6.582m17.224-41.7c.4,5.487,1.209,6.244,6.441,6.668-5.232.423-6.042,1.18-6.441,6.667-.4-5.487-1.209-6.244-6.441-6.667,5.232-.424,6.042-1.181,6.441-6.668" fill="#fff" fill-rule="evenodd"/>
              <path id="Trazado_748384" data-name="Trazado 748384" d="M373.442,265.146c-.565,7.77-1.711,8.843-9.118,9.442,7.407.6,8.553,1.669,9.118,9.439.567-7.77,1.713-8.841,9.12-9.439-7.407-.6-8.553-1.672-9.12-9.442m30.111,20.492c-.3,4.149-.913,4.721-4.867,5.04,3.954.318,4.565.893,4.867,5.039.3-4.146.915-4.721,4.869-5.039-3.954-.319-4.565-.891-4.869-5.04m-13.187-31.924c-.3,4.2-.925,4.779-4.93,5.1,4.005.323,4.626.9,4.93,5.105.307-4.2.927-4.782,4.933-5.105-4.006-.324-4.626-.9-4.933-5.1" fill="#fff" fill-rule="evenodd"/>
              <path id="Trazado_748385" data-name="Trazado 748385" d="M81.719,119.774a13.88,13.88,0,0,0-.694,3.185c-.073.6-.141,1.443-.221,2.429-.324,4.1-.864,10.87-2.871,12.654-.733.652-1.9.335-3.716-1.713a47.927,47.927,0,0,1-5.526-8.724,79.5,79.5,0,0,0-4.648-7.831H62.035V117.8H84.96v1.978Z" fill="#fc9774" fill-rule="evenodd"/>
              <path id="Trazado_748386" data-name="Trazado 748386" d="M105.313,316.5H252.766V128.364a12.881,12.881,0,0,0-12.844-12.844H95.526v1.368a16.361,16.361,0,0,1,9.787,14.939Z" fill="#fff" fill-rule="evenodd"/>
              <path id="Trazado_748387" data-name="Trazado 748387" d="M105.314,317.376H253.645V128.365a13.766,13.766,0,0,0-13.722-13.723H95.526l-4.222-.323,3.346,1.2v1.937a15.657,15.657,0,0,1,7.276,5.953,15.347,15.347,0,0,1,2.512,8.415v185.55Zm146.574-1.754h-145.7v-183.8a17.087,17.087,0,0,0-2.8-9.373,17.384,17.384,0,0,0-6.843-6.055H239.923a12,12,0,0,1,11.965,11.967Z" fill="#f57a44" fill-rule="evenodd"/>
              <path id="Trazado_748388" data-name="Trazado 748388" d="M94.507,117.3a1,1,0,0,0,1.153-1.623,8.928,8.928,0,0,0-5.132-1.38,10.314,10.314,0,0,0-5.361,1.433,8.43,8.43,0,0,0-3.058,3.171,11.542,11.542,0,0,0-1.083,4.057c-.073.6-.141,1.443-.222,2.428-.323,4.1-.863,10.87-2.871,12.654-.732.652-1.9.336-3.716-1.713a47.946,47.946,0,0,1-5.526-8.724,63.589,63.589,0,0,0-5.906-9.507,1,1,0,0,0-1.553,1.248,61.931,61.931,0,0,1,5.712,9.208,49.289,49.289,0,0,0,5.784,9.1c2.786,3.134,4.9,3.322,6.531,1.876,2.606-2.316,3.185-9.585,3.536-13.987.073-.954.139-1.767.209-2.343a9.835,9.835,0,0,1,.867-3.378,6.531,6.531,0,0,1,2.387-2.421,8.263,8.263,0,0,1,4.287-1.115,6.923,6.923,0,0,1,3.962,1.015" fill="#f57a44" fill-rule="evenodd"/>
              <path id="Trazado_748389" data-name="Trazado 748389" d="M82.795,125.544c.073-.954.139-1.767.209-2.343a9.835,9.835,0,0,1,.867-3.378,4.921,4.921,0,0,1,.542-.825,7.725,7.725,0,0,1,1.845-1.6,8.272,8.272,0,0,1,4.287-1.115,6.923,6.923,0,0,1,3.962,1.015.99.99,0,0,0,.144.085l.1.059.421.245a15.576,15.576,0,0,1,6.75,5.721,15.344,15.344,0,0,1,2.512,8.415v7.415q-11.181.178-25.736.705a3.992,3.992,0,0,0,.557-.416c2.606-2.316,3.186-9.585,3.536-13.987" fill="#fbbfa8" fill-rule="evenodd"/>
              <path id="Trazado_748390" data-name="Trazado 748390" d="M252.707,137.394H104.378V347.841A13.763,13.763,0,0,0,118.1,361.565H262.5l5.482-.185-4.606-.693V358.75A15.678,15.678,0,0,1,256.1,352.8a15.341,15.341,0,0,1-2.511-8.415V137.394Zm-146.574,1.757h145.7V344.38a17.073,17.073,0,0,0,2.8,9.371,17.366,17.366,0,0,0,6.843,6.057H118.1a12,12,0,0,1-11.968-11.967Z" fill="#f57a44" fill-rule="evenodd"/>
              <path id="Trazado_748391" data-name="Trazado 748391" d="M124.737,357.382c.37-1.022,1.336-1.879,1.492-3.2.08-.657.153-1.574.233-2.647.346-4.468.918-11.846,3.042-13.791.776-.71,2.949-.812,4.874,1.419,3.151,1.82,224.609,3.772,128.081,9.955,1.484,2.816,8.385,2.314,10.166,4.952.039.059,2.1.879,2.137.939-3.743,4.315-3.665,4.539-9.977,6.829l-146.823-.319-2.029-.117,6.935-3.394Z" fill="#fbbfa8" fill-rule="evenodd"/>
              <path id="Trazado_748392" data-name="Trazado 748392" d="M113.19,358.456a1,1,0,0,0-1.153,1.623,8.89,8.89,0,0,0,5.132,1.38,10.308,10.308,0,0,0,5.363-1.434,8.415,8.415,0,0,0,3.056-3.17,11.476,11.476,0,0,0,1.083-4.054c.076-.6.141-1.446.219-2.429.326-4.1.866-10.87,2.874-12.654.735-.652,1.9-.335,3.718,1.711a47.9,47.9,0,0,1,5.524,8.726,63.366,63.366,0,0,0,5.908,9.505,1,1,0,1,0,1.551-1.248,61.932,61.932,0,0,1-5.712-9.208,49.549,49.549,0,0,0-5.782-9.1c-2.788-3.134-4.9-3.322-6.533-1.874-2.606,2.317-3.186,9.585-3.536,13.985-.073.954-.141,1.767-.209,2.343a9.834,9.834,0,0,1-.867,3.378,6.565,6.565,0,0,1-2.387,2.424,8.283,8.283,0,0,1-4.287,1.114,6.923,6.923,0,0,1-3.962-1.017" fill="#f57a44" fill-rule="evenodd"/>
              <path id="Trazado_748393" data-name="Trazado 748393" d="M251.829,335.7H132a9.375,9.375,0,0,1,2.966,2.4,49.159,49.159,0,0,1,5.784,9.1,61.958,61.958,0,0,0,5.711,9.208,1,1,0,0,1-.15,1.4.985.985,0,0,1-.519.214H295.136a1,1,0,0,1-.669-.367,63.537,63.537,0,0,1-5.906-9.505c-.973-1.794-1.927-3.546-2.917-5.14-1.429-2.3-4.694-6.869-7.374-7.312H251.829Z" fill="#ffe2dc" fill-rule="evenodd"/>
              <path id="Trazado_748394" data-name="Trazado 748394" d="M178.7,335.7H131.984a9.359,9.359,0,0,1,2.969,2.4,49.528,49.528,0,0,1,5.789,9.1,61.822,61.822,0,0,0,5.711,9.216,1,1,0,0,1-.667,1.615h54.326c-4.969-5.249-9.351-11.218-15-16.863a51.274,51.274,0,0,0-6.41-5.473" fill="#ffe2dc" fill-rule="evenodd"/>
              <path id="Trazado_748395" data-name="Trazado 748395" d="M106.133,324.341H251.887V129.506l-1.036-4.925H106.133Z" fill="#fff" fill-rule="evenodd"/>
              <path id="Trazado_748396" data-name="Trazado 748396" d="M251.832,319.677h-145.7v28.169a11.926,11.926,0,0,0,3.512,8.449,12.19,12.19,0,0,0,2.681,2.02,1,1,0,0,1,.862.141,6.933,6.933,0,0,0,3.964,1.017,8.284,8.284,0,0,0,4.285-1.114,6.576,6.576,0,0,0,2.387-2.422,9.838,9.838,0,0,0,.866-3.38l.212-2.343c.348-4.4.93-11.668,3.533-13.985A3.069,3.069,0,0,1,132,335.7H251.832Z" fill="#fff" fill-rule="evenodd"/>
              <g id="Grupo_1019158" data-name="Grupo 1019158" opacity="0.35">
                <g id="Grupo_1019157" data-name="Grupo 1019157">
                  <g id="Grupo_1019156" data-name="Grupo 1019156" clip-path="url(#clip-path-16)">
                    <path id="Trazado_748397" data-name="Trazado 748397" d="M252.092,335.45V130.138a13.849,13.849,0,0,0-13.8-13.805H187.149c61.843,62.648-32.887,53.574-32.887,175.172,0,19.533-1.5,27.831,2.214,43.945Z" fill="#ffe2dc" fill-rule="evenodd"/>
                  </g>
                </g>
              </g>
              <path id="Trazado_748398" data-name="Trazado 748398" d="M149.677,280.847H160.7c.751,0,1.365.309,1.365.684v0c0,.373-.616.682-1.365.682H149.677c-.749,0-1.365-.307-1.365-.682v0c0-.375.613-.684,1.365-.684" fill="#fbbfa8" fill-rule="evenodd"/>
              <path id="Trazado_748399" data-name="Trazado 748399" d="M149.628,257.359h9.807c.722,0,1.316.3,1.316.657v0c0,.361-.594.657-1.316.657h-9.807c-.72,0-1.316-.3-1.316-.657v0c0-.36.593-.657,1.316-.657" fill="#fbbfa8" fill-rule="evenodd"/>
              <path id="Trazado_748400" data-name="Trazado 748400" d="M149.677,251.726h54.472c.752,0,1.365.309,1.365.684s-.616.684-1.365.684H149.677c-.747,0-1.365-.309-1.365-.684s.616-.684,1.365-.684" fill="#fbbfa8" fill-rule="evenodd"/>
              <path id="Trazado_748401" data-name="Trazado 748401" d="M149.674,258.1h31.155c.752,0,1.365.309,1.365.681s-.618.684-1.365.684H149.674c-.747,0-1.365-.306-1.365-.684s.616-.681,1.365-.681" fill="#fbbfa8" fill-rule="evenodd"/>
              <path id="Trazado_748402" data-name="Trazado 748402" d="M168.166,264.474h36.027c.749,0,1.365.309,1.365.684s-.618.684-1.365.684H168.166c-.747,0-1.365-.307-1.365-.684s.613-.684,1.365-.684" fill="#fbbfa8" fill-rule="evenodd"/>
              <path id="Trazado_748403" data-name="Trazado 748403" d="M188.738,258.1h15.537c.752,0,1.368.311,1.368.681v0c0,.372-.621.681-1.368.681H188.738c-.747,0-1.365-.306-1.365-.681v0c0-.374.616-.681,1.365-.681" fill="#fbbfa8" fill-rule="evenodd"/>
              <path id="Trazado_748404" data-name="Trazado 748404" d="M149.677,205.51h54.472c.752,0,1.365.311,1.365.684v0c0,.373-.616.682-1.365.682H149.677c-.747,0-1.365-.307-1.365-.682v0c0-.375.616-.684,1.365-.684" fill="#fbbfa8" fill-rule="evenodd"/>
              <path id="Trazado_748405" data-name="Trazado 748405" d="M149.674,211.886h31.155c.752,0,1.365.311,1.365.681v0c0,.372-.618.681-1.365.681H149.674c-.747,0-1.365-.306-1.365-.681v0c0-.374.616-.681,1.365-.681" fill="#fbbfa8" fill-rule="evenodd"/>
              <path id="Trazado_748406" data-name="Trazado 748406" d="M149.677,218.259H160.7c.751,0,1.365.311,1.365.684s-.616.683-1.365.683H149.677c-.749,0-1.365-.306-1.365-.683s.613-.684,1.365-.684" fill="#fbbfa8" fill-rule="evenodd"/>
              <path id="Trazado_748407" data-name="Trazado 748407" d="M168.166,218.259h36.027c.749,0,1.365.311,1.365.684s-.618.683-1.365.683H168.166c-.747,0-1.365-.306-1.365-.683s.613-.684,1.365-.684" fill="#fbbfa8" fill-rule="evenodd"/>
              <path id="Trazado_748408" data-name="Trazado 748408" d="M188.738,211.886h15.537c.752,0,1.368.311,1.368.681v0c0,.372-.621.684-1.368.684H188.738c-.747,0-1.365-.309-1.365-.684v0c0-.374.616-.681,1.365-.681" fill="#fbbfa8" fill-rule="evenodd"/>
              <path id="Trazado_748409" data-name="Trazado 748409" d="M149.626,228.7h87.145c.723,0,1.315.3,1.315.657v0c0,.358-.594.657-1.315.657H149.626c-.718,0-1.317-.3-1.317-.657v0c0-.36.594-.657,1.317-.657" fill="#fbbfa8" fill-rule="evenodd"/>
              <path id="Trazado_748410" data-name="Trazado 748410" d="M149.628,234.842h29.211c.725,0,1.316.3,1.316.66s-.6.657-1.316.657H149.628c-.72,0-1.316-.294-1.316-.657s.593-.66,1.316-.66" fill="#fbbfa8" fill-rule="evenodd"/>
              <path id="Trazado_748411" data-name="Trazado 748411" d="M163.818,240.987h72.953c.724,0,1.316.3,1.316.659s-.6.657-1.316.657H163.818c-.718,0-1.317-.3-1.317-.657s.591-.659,1.317-.659" fill="#fbbfa8" fill-rule="evenodd"/>
              <path id="Trazado_748412" data-name="Trazado 748412" d="M184.762,234.845h52.009c.726,0,1.317.3,1.317.655v0c0,.355-.6.657-1.317.657H184.762c-.718,0-1.316-.294-1.316-.657v0c0-.361.593-.655,1.316-.655" fill="#fbbfa8" fill-rule="evenodd"/>
              <path id="Trazado_748413" data-name="Trazado 748413" d="M149.626,163.521h87.145c.723,0,1.315.3,1.315.657v0c0,.357-.594.657-1.315.657H149.626c-.718,0-1.317-.3-1.317-.657v0c0-.36.594-.657,1.317-.657" fill="#fbbfa8" fill-rule="evenodd"/>
              <path id="Trazado_748414" data-name="Trazado 748414" d="M149.628,169.666h29.211c.725,0,1.316.3,1.316.657s-.6.659-1.316.659H149.628c-.72,0-1.316-.3-1.316-.659s.593-.657,1.316-.657" fill="#fbbfa8" fill-rule="evenodd"/>
              <path id="Trazado_748415" data-name="Trazado 748415" d="M149.628,175.808h9.807c.722,0,1.316.3,1.316.659s-.594.657-1.316.657h-9.807c-.72,0-1.316-.294-1.316-.657s.593-.659,1.316-.659" fill="#fbbfa8" fill-rule="evenodd"/>
              <path id="Trazado_748416" data-name="Trazado 748416" d="M163.818,175.808h72.953c.724,0,1.316.3,1.316.659s-.6.657-1.316.657H163.818c-.718,0-1.317-.294-1.317-.657s.591-.659,1.317-.659" fill="#fbbfa8" fill-rule="evenodd"/>
              <path id="Trazado_748417" data-name="Trazado 748417" d="M184.762,169.666h52.009c.726,0,1.317.3,1.317.657s-.6.659-1.317.659H184.762c-.718,0-1.316-.3-1.316-.659s.593-.657,1.316-.657" fill="#fbbfa8" fill-rule="evenodd"/>
              <path id="Trazado_748418" data-name="Trazado 748418" d="M128.358,161.12h11.6a3.286,3.286,0,0,1,3.278,3.278v11.853a3.286,3.286,0,0,1-3.278,3.278h-11.6a3.288,3.288,0,0,1-3.278-3.278V164.4a3.288,3.288,0,0,1,3.278-3.278" fill="#1a0f91" fill-rule="evenodd"/>
              <path id="Trazado_748419" data-name="Trazado 748419" d="M128.358,203.291h11.6a3.286,3.286,0,0,1,3.278,3.28v11.853a3.285,3.285,0,0,1-3.278,3.278h-11.6a3.287,3.287,0,0,1-3.278-3.278V206.571a3.288,3.288,0,0,1,3.278-3.28" fill="#1a0f91" fill-rule="evenodd"/>
              <path id="Trazado_748420" data-name="Trazado 748420" d="M128.358,226.3h11.6a3.286,3.286,0,0,1,3.278,3.278v11.853a3.286,3.286,0,0,1-3.278,3.28h-11.6a3.288,3.288,0,0,1-3.278-3.28V229.574a3.288,3.288,0,0,1,3.278-3.278" fill="#1a0f91" fill-rule="evenodd"/>
              <path id="Trazado_748421" data-name="Trazado 748421" d="M128.358,249.579h11.6a3.286,3.286,0,0,1,3.278,3.278V264.71a3.287,3.287,0,0,1-3.278,3.28h-11.6a3.289,3.289,0,0,1-3.278-3.28V252.857a3.288,3.288,0,0,1,3.278-3.278" fill="#1a0f91" fill-rule="evenodd"/>
              <path id="Trazado_748422" data-name="Trazado 748422" d="M127.231,187.337h76.918c.752,0,1.365.309,1.365.684s-.616.684-1.365.684H127.231c-.749,0-1.365-.307-1.365-.684s.613-.684,1.365-.684" fill="#fbbfa8" fill-rule="evenodd"/>
              <path id="Trazado_748423" data-name="Trazado 748423" d="M127.229,193.713h53.6c.752,0,1.365.309,1.365.681v0c0,.372-.616.681-1.365.681h-53.6c-.747,0-1.365-.306-1.365-.681v0c0-.374.616-.681,1.365-.681" fill="#fbbfa8" fill-rule="evenodd"/>
              <path id="Trazado_748424" data-name="Trazado 748424" d="M204.646,281.676a.447.447,0,0,1,.528-.46.648.648,0,0,1,.559.6c0,.092-.021.375-.073.808a1.881,1.881,0,0,1,1.317.776,5.955,5.955,0,0,1,.864,3.434v.026a60.7,60.7,0,0,1-.2,7.688,27.331,27.331,0,0,1,3.417-3.986c1.64-1.6,2.608-1.74,3.234-1.1h0c.565.579.589,1.745.616,2.968a5.74,5.74,0,0,0,.389,2.648c.265.319.983.1,2.621-1.258,2.867-2.38,3.64-2.73,4.58-1.6l.009.012a7.347,7.347,0,0,1,.623.985c.908,1.614,2.619,4.634,8.963,7.707,1.4.676,3.5.6,5.256.54l.62-.022a.658.658,0,0,1,.64.514.445.445,0,0,1-.428.552l-.62.022c-1.886.066-4.137.146-5.819-.667-6.726-3.258-8.565-6.514-9.546-8.251a6.93,6.93,0,0,0-.489-.793l-.01-.01c-.265-.319-.791.036-3,1.869-2.244,1.859-3.478,1.861-4.2.99-.62-.747-.65-2.1-.679-3.385a5.267,5.267,0,0,0-.255-2.154c-.122-.121-.582.173-1.679,1.242a21.632,21.632,0,0,0-4.619,6.1.16.16,0,0,1-.1.088,1.773,1.773,0,0,1-.411.791.633.633,0,0,1-.557-.346,22.007,22.007,0,0,1-3.015.557l-.054.266c-.263,1.321-.516,2.411-.732,3.1-.475,1.508-.993,1.847-1.536.552a5.86,5.86,0,0,1-.214-1.73v0a11.23,11.23,0,0,0-.209-1.876,251.477,251.477,0,0,1-31.944.691,63.52,63.52,0,0,1-7.838-.8c-2.2-.414-3.623-1.03-3.92-1.884h0l0-.005a1.167,1.167,0,0,1,.246-1.163c3.964-4.935,13.342-8.033,22.451-8.3a37.632,37.632,0,0,1,9.84.932,20.364,20.364,0,0,1,7.987,3.667,11.593,11.593,0,0,1,3.993,5.789l.961-.107c.193-1,.392-2.117.589-3.272-2.1-1.658-3.937-4.13-2.163-8.245a.452.452,0,0,1,.119-.158,14,14,0,0,1,2.745-2.672,4.9,4.9,0,0,1,1.034-.548c.076-.6.115-.995.11-1.1m.888,1.995c-.3,2.356-.908,6.541-1.545,10.381.464.336.927.63,1.343.893.4.251.762.482,1.063.7a52.548,52.548,0,0,0,.358-8.93v-.029a5.029,5.029,0,0,0-.6-2.741.7.7,0,0,0-.616-.277m-1.728,11.464c-.143.83-.287,1.635-.426,2.387a7.771,7.771,0,0,0,2.77-.7c.034-.03.046-.046.036-.056l-.005-.008-.007-.007a7.653,7.653,0,0,0-1.324-.944c-.328-.207-.681-.431-1.044-.674m-.813-1.883c.553-3.329,1.066-6.843,1.37-9.119l-.15.1a13.005,13.005,0,0,0-2.558,2.46l0,.01a5.233,5.233,0,0,0,1.34,6.551m-1.3,6.913c.1-.438.209-.93.318-1.47l-.518.058a11.853,11.853,0,0,1,.2,1.412m-1.5-2.278a10.324,10.324,0,0,0-3.545-5.117,19.031,19.031,0,0,0-7.476-3.412,36.519,36.519,0,0,0-9.539-.9c-8.865.263-17.956,3.239-21.76,7.972-.092.117-.129.2-.119.238.124.358,1.2.709,2.935,1.032a62.552,62.552,0,0,0,7.685.789,257,257,0,0,0,31.819-.6" fill="#fbbfa8" fill-rule="evenodd"/>
              <path id="Trazado_748425" data-name="Trazado 748425" d="M136.057,174.978V165.67h-1.528l-2.266,1.156.392,1.3,1.6-.834h.022v7.682Z" fill="#fff" fill-rule="evenodd"/>
              <path id="Trazado_748426" data-name="Trazado 748426" d="M137.072,215.718h-3.424v-.024l.776-.764c1.356-1.373,2.475-2.728,2.475-4.383a2.637,2.637,0,0,0-2.9-2.784,4.453,4.453,0,0,0-2.611.837l.506,1.3a3.063,3.063,0,0,1,1.735-.676,1.355,1.355,0,0,1,1.455,1.492c0,1.258-1.037,2.458-2.8,4.283l-1.034,1.109v1.12h5.823Z" fill="#fff" fill-rule="evenodd"/>
              <path id="Trazado_748427" data-name="Trazado 748427" d="M135.137,235.132a2.262,2.262,0,0,0,1.6-2.151c0-1.234-.934-2.283-2.72-2.283a4.755,4.755,0,0,0-2.427.643l.383,1.306a3.281,3.281,0,0,1,1.625-.506c.862,0,1.292.482,1.292,1.137,0,.9-.934,1.311-1.662,1.311h-.591v1.283h.628c1,0,1.91.491,1.91,1.538a1.483,1.483,0,0,1-1.674,1.452,3.771,3.771,0,0,1-1.811-.5l-.406,1.379a4.589,4.589,0,0,0,2.338.565c2.169,0,3.412-1.256,3.412-2.806a2.35,2.35,0,0,0-1.9-2.341Z" fill="#fff" fill-rule="evenodd"/>
              <path id="Trazado_748428" data-name="Trazado 748428" d="M136.347,261.135h1.071v-1.38h-1.071v-5.626h-2.059l-3.385,5.823v1.183h3.758v2.3h1.686Zm-3.818-1.4,1.367-2.341c.283-.528.5-1.044.787-1.635h.051c-.039.555-.073,1.146-.073,1.686v2.314h-2.132Z" fill="#fff" fill-rule="evenodd"/>
              <path id="Trazado_748429" data-name="Trazado 748429" d="M146.221,243.457q7.212,2.61,9.254.5,2.073-.481,2.7-3.68c1.431-3.246.207-8.429-1.806-5.862-1.664-4.261-8.344-1.791-12.111-4.151-2.285,1.494-1.416,5.185.226,6.434-.065,4.248.168,6.516,1.733,6.755" fill="#332208" fill-rule="evenodd"/>
              <path id="Trazado_748430" data-name="Trazado 748430" d="M113.507,281.428c1.346.876,7.807,2.083,7.807,2.083s3.311,3.857,3.007,4.531-.516.438-1.1.951a6.072,6.072,0,0,1-1.808.881,2.254,2.254,0,0,1-1.978.236c-.969-.435-2.92-3.465-3.976-3.942-.217-.1-1.159-.513-2.524-1.126Z" fill="#ffb27d" fill-rule="evenodd"/>
              <path id="Trazado_748431" data-name="Trazado 748431" d="M101.164,261.511c-.156-1.19-.759-2.365-1-3.577-.328,3.02-2.891,6.947-6.548,11.559a43.833,43.833,0,0,0,2.251,8.913c4.1,2.879,9.269,4.716,17.608,6.943a7.57,7.57,0,0,0,1.83-3.349c-7.084-3.842-9.773-5.613-12.951-6.606.015-6.03-1.2-10.1-1.192-13.883" fill="#477fa4" fill-rule="evenodd"/>
              <path id="Trazado_748432" data-name="Trazado 748432" d="M136.378,303.682a29.306,29.306,0,0,0,.93-3.643,7.183,7.183,0,0,1,3.574.684c-.126.384-1.2,3.633-1.2,4.008,0,7.884-1.02,5.553-2.407,6.139a1.631,1.631,0,0,1-1.477-.224c-.238-.25-1.691-.053-1.691-.2s-.6-1.2,0-2.08-1.645.9-1.645.226c0-.744,3.4-3.577,3.913-4.908" fill="#ffb27d" fill-rule="evenodd"/>
              <path id="Trazado_748433" data-name="Trazado 748433" d="M131.482,312.323v-2.772a.1.1,0,0,1,.1-.1h7.75a.1.1,0,0,1,.1.1v2.772h1.526v-2.772a1.668,1.668,0,0,0-1.621-1.7h-7.75a1.668,1.668,0,0,0-1.621,1.7v2.772Z" fill="#494949" fill-rule="evenodd"/>
              <path id="Trazado_748434" data-name="Trazado 748434" d="M147.207,330.729H122.5V314.564a2.874,2.874,0,0,1,2.877-2.874h18.5a3.323,3.323,0,0,1,3.324,3.321Z" fill="#494949" fill-rule="evenodd"/>
              <path id="Trazado_748435" data-name="Trazado 748435" d="M124.228,311.929a3.323,3.323,0,0,1,2.08,3.083v15.717h-3.8V314.564a2.874,2.874,0,0,1,1.723-2.635" fill="#5b5b5b" fill-rule="evenodd"/>
              <path id="Trazado_748436" data-name="Trazado 748436" d="M132.465,309.451s.528-1.183,1.088-1.134.155,1.134.155,1.134-.734.509-1.243,0" fill="#ffb27d" fill-rule="evenodd"/>
              <path id="Trazado_748437" data-name="Trazado 748437" d="M138.223,308.315s1.054,1.944.742,2.258-1.309.2-1.309.2-1.243.414-1.635.022c0,0-1.91-.061-1.91-.348s.917-2.6,1.34-2.6.6,1.56.6,1.56a4.24,4.24,0,0,1,.511-1.56c.326-.326.973,1.56.973,1.56s-.148-1.448.684-1.09" fill="#ffb27d" fill-rule="evenodd"/>
              <path id="Trazado_748438" data-name="Trazado 748438" d="M129.918,285.266c-1.443.7-8.006,1.088-8.006,1.088s-3.767,3.409-3.55,4.117.455.5.971,1.083a6.132,6.132,0,0,0,1.683,1.1,2.252,2.252,0,0,0,1.933.482c1.014-.309,3.331-3.074,4.438-3.412.229-.07,1.214-.365,2.645-.8Z" fill="#ffb27d" fill-rule="evenodd"/>
              <path id="Trazado_748439" data-name="Trazado 748439" d="M158.109,360.193l.472,2.6a26.818,26.818,0,0,1-3.648,5.259c-1.851,1.852-4.312,1.6-4.312.024s3.208-5.519,3.208-7.412,4.28-.472,4.28-.472" fill="#4d4d4e" fill-rule="evenodd"/>
              <path id="Trazado_748440" data-name="Trazado 748440" d="M145.5,360.668l.711,4.808H133.991s.4-1.185,3.942-1.893,3.743-1.939,3.743-1.939l-.275-3.1,3.232-.474Z" fill="#4d4d4e" fill-rule="evenodd"/>
              <path id="Trazado_748441" data-name="Trazado 748441" d="M150.621,305.631l-7.21,25.349,2.64,30.554H141.4l-6.383-32.313,6.383-37Z" fill="#282828" fill-rule="evenodd"/>
              <path id="Trazado_748442" data-name="Trazado 748442" d="M141.4,291.235l4.295,14.416s6.58,21.521,7.646,33.972a110.749,110.749,0,0,1,0,20.964l5.869.947s3.39-25.848,2.129-34.518.283-29.79.283-29.79l-2.412-5.991Z" fill="#383838" fill-rule="evenodd"/>
              <path id="Trazado_748443" data-name="Trazado 748443" d="M92.268,271.5c1.587,16.936,2.251,27.948,3.185,31.766a10.048,10.048,0,0,0,5.938-2.765c-.334-9.636-1.458-15.79-1.932-21.423.856-9.25,2.613-17.752.72-21.7a13.469,13.469,0,0,0-5.312-2.382,55.332,55.332,0,0,1,1.482,6.395c-.713.326-1.314.608-1.808.847q1,.67,2.075,1.479a49.3,49.3,0,0,1-4.348,7.787" fill="#477fa4" fill-rule="evenodd"/>
              <path id="Trazado_748444" data-name="Trazado 748444" d="M145.769,251.149l-2.949,2.908-3.517,35.09s-2.594,7.731-3.535,12.164a17.392,17.392,0,0,1,5.482,1.5c1.436-4.377,3.288-12.841,3.288-12.841Z" fill="#779fe5" fill-rule="evenodd"/>
              <path id="Trazado_748445" data-name="Trazado 748445" d="M152.738,297.883c-.368-.37-16.185,2.966-16.185,2.966L140.1,275.7l3.183-15.124,4.5-10.889s6.743-1.643,7.224-1.339l1.212,19.514Z" fill="#779fe5" fill-rule="evenodd"/>
              <path id="Trazado_748446" data-name="Trazado 748446" d="M159.038,251.475s-7.57-4.052-12.493.874-5.32,18.83-5.32,18.83v16.075l-.708,7.159,18.441-2.193-2.482-24.541Z" fill="#fff" fill-rule="evenodd"/>
              <path id="Trazado_748447" data-name="Trazado 748447" d="M143.411,275.315l12.082-25.643,7.777,2.676-2.718,22.967,5.083,25.77s-19.8-1.713-22.224.71Z" fill="#91b3fa" fill-rule="evenodd"/>
              <path id="Trazado_748448" data-name="Trazado 748448" d="M143.411,290.512h0v0Z" fill="#7f7898" fill-rule="evenodd"/>
              <path id="Trazado_748449" data-name="Trazado 748449" d="M143.411,290.512c5.366-1.682,10.656-3.4,11.839-3.986,1.092-.542,3.613-3.475,6.044-7.444l-.742-3.767.91-7.694c-3.312,4.555-10.162,9.692-12.262,11.89-.808.841-3.064,1.886-5.789,2.929Z" fill="#779fe5" fill-rule="evenodd"/>
              <path id="Trazado_748450" data-name="Trazado 748450" d="M146.72,252.349s-4.492,14.243-4.492,18.606-3.548,29.9-3.548,29.9h-2.127l2.957-29.9,3.65-13.678Z" fill="#779fe5" fill-rule="evenodd"/>
              <path id="Trazado_748451" data-name="Trazado 748451" d="M147.779,249.687,141.863,275.7l1.3-18.423,1.19-1.246-.939.212,2.358-5.094Z" fill="#91b3fa" fill-rule="evenodd"/>
              <path id="Trazado_748452" data-name="Trazado 748452" d="M130.682,284.536l-3.5.665,1.165,5.572,4.057-.976Z" fill="#fff" fill-rule="evenodd"/>
              <path id="Trazado_748453" data-name="Trazado 748453" d="M163.27,252.349s1.964,0,2.365,7.6c.5,9.483-8.8,22.811-11.284,23.993s-23.694,7.291-23.694,7.291l-1.574-6.843s16.927-4.433,19.426-6.935,9.235-12.415,10.7-17.078a36.082,36.082,0,0,1,4.059-8.03" fill="#91b3fa" fill-rule="evenodd"/>
              <path id="Trazado_748454" data-name="Trazado 748454" d="M143.411,275.315l12.8-16.372-.935-1.623h1.553l2.309-6.392-.6-.049-5.663,4.579Z" fill="#779fe5" fill-rule="evenodd"/>
              <path id="Trazado_748455" data-name="Trazado 748455" d="M131.275,289.2a.436.436,0,1,0,.436-.436.434.434,0,0,0-.436.436" fill="#4689cc" fill-rule="evenodd"/>
              <path id="Trazado_748456" data-name="Trazado 748456" d="M133.13,288.694a.436.436,0,1,0,.436-.436.436.436,0,0,0-.436.436" fill="#4689cc" fill-rule="evenodd"/>
              <path id="Trazado_748457" data-name="Trazado 748457" d="M135.018,288.176a.434.434,0,1,0,.436-.436.436.436,0,0,0-.436.436" fill="#4689cc" fill-rule="evenodd"/>
              <path id="Trazado_748458" data-name="Trazado 748458" d="M154.561,250.251a3.556,3.556,0,0,1-2.468,2.974c-1.394.438-2.72.776-3.45.949-.251.063-1.3-.553-1.292-.813.036-.939.652-2.507.46-4.225-.112-1.012-.224-1.932-.283-2.489.3-.74,2.541-6.385,2.4-6.023v0l.463-1.159s4.244,10.191,4.173,10.79" fill="#ffb27d" fill-rule="evenodd"/>
              <path id="Trazado_748459" data-name="Trazado 748459" d="M153.033,246.4c-.394.394-4.256,3.477-5.086,4.008-.148-1.377-.418-3.757-.418-3.757s.7.608,2.389-6.072l.007.044v.005c.1.572,3.66,5.225,3.108,5.772" fill="#f08261" fill-rule="evenodd"/>
              <path id="Trazado_748460" data-name="Trazado 748460" d="M145.839,247.577s7.419,1.117,8.527-3.935,2.893-8.208-2.222-9.634-6.541.28-7.32,1.877-1.061,11.067,1.015,11.692" fill="#ffb27d" fill-rule="evenodd"/>
              <path id="Trazado_748461" data-name="Trazado 748461" d="M143.411,275.315l11.111-16.863-1.18-2.524,2.482.156,3.387-5.264L155,248.348Z" fill="#91b3fa" fill-rule="evenodd"/>
              <path id="Trazado_748462" data-name="Trazado 748462" d="M156.561,233.979c.37.414.708.5,1.017.275a2.413,2.413,0,0,0-.336-2.059,3.093,3.093,0,0,1-.681,1.784" fill="#332208" fill-rule="evenodd"/>
              <path id="Trazado_748463" data-name="Trazado 748463" d="M153.926,235.544a1.607,1.607,0,0,1,2.056.36c-.036,1.358-.742,4.088-1.822,4.687a42.057,42.057,0,0,1-.234-5.047" fill="#332208" fill-rule="evenodd"/>
              <path id="Trazado_748464" data-name="Trazado 748464" d="M155.437,238.014c-1.195-.255-1.083,2.2-.993,3.417.178,2.394,2.876-3.018.993-3.417" fill="#ffb27d" fill-rule="evenodd"/>
              <path id="Trazado_748465" data-name="Trazado 748465" d="M157.459,234.884a1.087,1.087,0,0,1-.5-1.314,2.157,2.157,0,0,1,2.275-.044c-.438.027-1.027.477-1.774,1.358" fill="#332208" fill-rule="evenodd"/>
              <path id="Trazado_748466" data-name="Trazado 748466" d="M153.587,234.232q2.3,1.113,1.516,2.01a12.673,12.673,0,0,1-6.638-.747,10.931,10.931,0,0,0,5.122-1.263" fill="#332208" fill-rule="evenodd"/>
              <path id="Trazado_748467" data-name="Trazado 748467" d="M144.6,236.522c1.733-1.75,5.006-1.961,9.512-.314,2.852-.708,3.492-2.025,2.288-4.168-1.7-3.03-5.385-.635-9.9-3.485.17,2.215-6.546,4.11-1.9,7.967" fill="#332208" fill-rule="evenodd"/>
              <path id="Trazado_748468" data-name="Trazado 748468" d="M84.114,251.692a6.192,6.192,0,0,0,.988-1.939q-.213-.646-.439-1.633-4.128-2.936-1.054-4.234a5.442,5.442,0,0,1,1.478,2.151c.484-.01.03-1.273.286-1.742-.533-2.011-.043-2.616-.192-3.865,1.422-2.017,4.866-2.557,9.114-1.913.363,3.916,1.57,13.155-3.163,12.856l-.038.516a41.507,41.507,0,0,1-.658,4.692l-.188.353a31.241,31.241,0,0,1-6.134-5.242" fill="#ffb27d" fill-rule="evenodd"/>
              <path id="Trazado_748469" data-name="Trazado 748469" d="M94.076,238.834c-4.249-.642-7.473-.421-8.894,1.594.148,1.251-.2,2.015.333,4.023-.258.472.056,1.576-.428,1.586a5.454,5.454,0,0,0-1.477-2.151q-3.074,1.3,1.054,4.234.225.985.438,1.633c-4.836-2.84-6.95-9.719-2.546-12.948.893-5.7,9.091-.468,13.311-3.137,1.606,2.321-.5,5.142-1.791,5.166" fill="#332208" fill-rule="evenodd"/>
              <path id="Trazado_748470" data-name="Trazado 748470" d="M87.917,250.974a13.541,13.541,0,0,0,3.214.4l.032.567c-.049.309-.036.713-.105,1.022-.012,0-.163-.148-.172-.153a6.416,6.416,0,0,1-2.969-1.835" fill="#f08261" fill-rule="evenodd"/>
              <path id="Trazado_748471" data-name="Trazado 748471" d="M82.1,238.768a1.163,1.163,0,0,0,.089-1.506,2.32,2.32,0,0,0-2.343.688,3.521,3.521,0,0,1,2.254.818" fill="#332208" fill-rule="evenodd"/>
              <path id="Trazado_748472" data-name="Trazado 748472" d="M83.091,236.984c-.4.443-.759.54-1.093.292a2.6,2.6,0,0,1,.363-2.205,3.333,3.333,0,0,0,.73,1.913" fill="#332208" fill-rule="evenodd"/>
              <path id="Trazado_748473" data-name="Trazado 748473" d="M91.083,238.53q.054-1.851,1.443-2.219a4.06,4.06,0,0,1,2.584,3.416q-.78-.956-4.027-1.2" fill="#332208" fill-rule="evenodd"/>
              <path id="Trazado_748474" data-name="Trazado 748474" d="M88.243,234.183c.19.526-.056,1.212.686,1.372.492,2.264,2.275-.79,2.241-1.635a6.23,6.23,0,0,1-2.927.263" fill="#332208" fill-rule="evenodd"/>
              <path id="Trazado_748475" data-name="Trazado 748475" d="M81.77,253.819c-4.02,2.331-9.011,5.786-11.566,7.587A90.611,90.611,0,0,0,67.4,282.7c.236,8.762,1.109,15.1,2.141,18.518,1.509.068,3.115-.083,3.711-.655Q73.742,289,73.5,281.8a38.508,38.508,0,0,1,2.908-5.677c.365,2.609.869,4.869.988,7.2a153.757,153.757,0,0,1-1.91,17.1q2.383,2.284,10.549,2.725a225.183,225.183,0,0,0,.769-31.08c-1.767-1.394-2.723-4.677-5.329-7.806.532-.7,1.489-.793,2.019-2.528a8.412,8.412,0,0,1-2.3-1.419c-.073-1.409.435-3.82.579-6.5" fill="#477fa4" fill-rule="evenodd"/>
              <path id="Trazado_748476" data-name="Trazado 748476" d="M86.771,257.834a28.667,28.667,0,0,0-3.908-4.626c.141-.572.219-1.034.375-1.467.073-.205.518-.445,1.107-.555-.054.092-.173.492-.073.555a.494.494,0,0,1,.066.053,22.586,22.586,0,0,0,4.643,2.938c-.857,1-1.451,2.046-2.21,3.1" fill="#ededed" fill-rule="evenodd"/>
              <path id="Trazado_748477" data-name="Trazado 748477" d="M92.392,253.675a20.747,20.747,0,0,1-.088,3,4.3,4.3,0,0,0-1.63-2.2,21.347,21.347,0,0,0,.414-2.547c.864.323.859.671,1.3,1.742" fill="#ededed" fill-rule="evenodd"/>
              <path id="Trazado_748478" data-name="Trazado 748478" d="M94.105,291.841c-.472-5.251-1.027-12.114-1.8-20.429.455-6.871.693-12.846.708-17.591-.19-.07-.4-.087-.618-.146a21.814,21.814,0,0,1-.088,3,4.3,4.3,0,0,0-1.63-2.2,10.828,10.828,0,0,1-.715,1.567c-.426-.441-.828-.864-1.091-1.185-.8.959-1.372,1.961-2.1,2.971a29.59,29.59,0,0,0-3.884-4.626q-.657.339-1.183.65,2.716,9.746,5.1,18.211a184.391,184.391,0,0,1-.041,19.993c.637.1,1.292.161,1.959.193v-.066a.294.294,0,0,1,.284-.287l2.75-.078a.272.272,0,0,1,.282.27v.051c.675-.073,1.363-.173,2.064-.3" fill="#fff" fill-rule="evenodd"/>
              <path id="Trazado_748479" data-name="Trazado 748479" d="M91.652,257.442a2.791,2.791,0,0,0-1.694-1.394,4.218,4.218,0,0,0-1.54,1.46,4.281,4.281,0,0,0,1.36,1.545q-1.35,8.508-1.248,23.689a11.664,11.664,0,0,0,2.007,3.266,8.766,8.766,0,0,0,1.473-3.614q-.939-15.933-1.115-23.254a3.42,3.42,0,0,0,.757-1.7" fill="#fe7062" fill-rule="evenodd"/>
              <path id="Trazado_748480" data-name="Trazado 748480" d="M88.42,255.435c-.316.423-.6.854-.891,1.29.263.175.6.379,1.013.613a4.986,4.986,0,0,1,1.051-1.081q-.6-.445-1.173-.822m2.6-.684A6.128,6.128,0,0,1,90.4,256.2a2.866,2.866,0,0,1,1.008.881,4.038,4.038,0,0,0,.433-1.387,4.336,4.336,0,0,0-.822-.947" fill="#fe7062" fill-rule="evenodd"/>
              <path id="Trazado_748481" data-name="Trazado 748481" d="M100.449,332.082q.054-12.775-.861-30.074l-.042-.774a10.019,10.019,0,0,1-4.117,1.389,71.655,71.655,0,0,1-1.105-8.4c-.231.073-.462.141-.7.205h0a15.168,15.168,0,0,1-1.584.338v.292a.29.29,0,0,1-.283.285l-2.749.077a.272.272,0,0,1-.285-.267v-.21q-.746-.031-1.511-.131c-.195-.024-.392-.054-.589-.083q-.234,4.033-.592,8.425a26.224,26.224,0,0,1-8.757-1.592c-.032.227-.061.451-.09.677a238.167,238.167,0,0,0-1.855,27.755q-2.771,5.946-1.516,29.045a13.7,13.7,0,0,0,5.354,0,239.444,239.444,0,0,0,4.105-27.346,212.967,212.967,0,0,0,5.083-22.818,178,178,0,0,0,2.857,22.557q-.784,9.3,2.721,27.3a24.084,24.084,0,0,0,5.8-.521,212.225,212.225,0,0,1,.715-26.128" fill="#4d4d4e" fill-rule="evenodd"/>
              <path id="Trazado_748482" data-name="Trazado 748482" d="M73.643,361.614c.253.244.335.175.513.056.292-1.591,3.292-1.779,4.037-.153a.838.838,0,0,0,.47-.414c.523,1.03,1.708,2.037,1.392,3.83-.8,1.149-4.9,1.718-6.846-.63-.552-.893.129-2.024.434-2.689m20.7-1.747c-.5,1.36-.613,2.477-.022,2.918,1.509.3,4.6.265,9.369.893,3.363-.243,4.82-1.2,3.969-2.266a11.853,11.853,0,0,1-7.919-2.287q-.657,2.672-5.4.742" fill="#2b2b2b" fill-rule="evenodd"/>
              <path id="Trazado_748483" data-name="Trazado 748483" d="M73.951,359.064c-.08.954-.16,1.822-.241,2.611.2.168.285.1.446,0,.292-1.592,3.292-1.779,4.037-.154l.007,0,.005,0,0,0h0v0h0l0,0,0,0,.005,0,0,0h.005v0h0l0,0,.005,0,0,0,0,0,.005,0h0l0,0,0,0h0l0,0,0,0h0l0,0,.005,0h0l0,0,0,0h0l.005-.005h0l.005-.005h0l.007-.005h0l.005,0,0,0,.012-.007,0,0,0,0,.005,0h0l0,0,.005,0v0h0l0-.005,0,0,0,0h0l0,0,0,0h0l.007-.005v0l0,0,0,0h0l0,0,0,0,0,0h0l0-.005h0l0,0,0,0h0l0,0,0,0,0,0,0,0,0,0,0,0,.005,0q-.2-.957-.333-2.166a13.057,13.057,0,0,1-4.186-.124M99.2,358.3a4.324,4.324,0,0,0,.46,1.105c-.017.046-.034.09-.054.134a1.89,1.89,0,0,1-.328.515l0,0a1.362,1.362,0,0,1-.138.136l0,0-.046.039-.007,0a1.8,1.8,0,0,1-.589.312h0c-.019.007-.041.012-.061.019l-.012,0-.061.017-.007,0-.068.015h0l-.068.014-.01,0-.068.01,0,0a3.555,3.555,0,0,1-.749.032h-.01l-.083-.008h-.012l-.08-.007h-.02l-.08-.01h-.015l-.087-.012h0l-.092-.012-.022-.005c-.224-.034-.463-.08-.711-.141l-.027-.007-.1-.027-.012,0-.095-.025-.032-.009-.087-.025-.032-.01-.088-.024-.036-.012-.09-.027-.024-.01-.1-.031-.027-.007-.1-.035-.021-.007-.105-.034-.027-.01-.1-.036-.129-.047c-.083-.028-.166-.06-.248-.092l-.02-.01-.129-.048a9.7,9.7,0,0,0-.058-1.178,26.216,26.216,0,0,0,4.728-.46" fill="#ffb27d" fill-rule="evenodd"/>
              <path id="Trazado_748484" data-name="Trazado 748484" d="M78.035,283.122q-.428-5.314-.8-9.145a9.511,9.511,0,0,1-.822,2.144c.364,2.609.868,4.869.987,7.2a153.477,153.477,0,0,1-1.91,17.1,4.706,4.706,0,0,0,.485.4q1.559-6.125,2.063-17.7" fill="#386e90" fill-rule="evenodd"/>
              <path id="Trazado_748485" data-name="Trazado 748485" d="M86.625,294.724a16.511,16.511,0,0,0,7.7-.506q-.1-1.128-.219-2.377a21.922,21.922,0,0,1-7.339.219c-.041.876-.09,1.764-.141,2.664" fill="#904e28" fill-rule="evenodd"/>
              <path id="Trazado_748486" data-name="Trazado 748486" d="M89.009,291.9l2.75-.078a.277.277,0,0,1,.282.277v2.947a.291.291,0,0,1-.282.29l-2.75.078a.275.275,0,0,1-.285-.275v-2.947a.3.3,0,0,1,.285-.292" fill="#fff" fill-rule="evenodd"/>
              <path id="Trazado_748487" data-name="Trazado 748487" d="M89.272,292.43v2.445l2.222-.063v-2.445Z" fill="#904e28" fill-rule="evenodd"/>
              <path id="Trazado_748488" data-name="Trazado 748488" d="M84.512,308.059,83.388,334.2l-28.52-3,3.378-23.142Z" fill="#764a36" fill-rule="evenodd"/>
              <path id="Trazado_748489" data-name="Trazado 748489" d="M88.143,330.982a11.427,11.427,0,0,0-4.755,3.219l1.124-26.142,1.285-.031Z" fill="#904e28" fill-rule="evenodd"/>
              <path id="Trazado_748490" data-name="Trazado 748490" d="M84.512,308.059,81.2,318.547c-.477,1.163-.969,2.18-2.9,2.02l-18.3-1.161c-1.632-.105-1.671-.929-1.684-2.046v-9.3Z" fill="#904e28" fill-rule="evenodd"/>
              <path id="Trazado_748491" data-name="Trazado 748491" d="M71.3,318.7l-4.655-.3a.526.526,0,0,0-.552.418l-.633,4.134a.435.435,0,0,0,.375.516l4.842.49a.51.51,0,0,0,.552-.419l.443-4.324a.433.433,0,0,0-.372-.516" fill="#fff" fill-rule="evenodd"/>
              <path id="Trazado_748492" data-name="Trazado 748492" d="M70.442,319.818l-.3,2.917-3.411-.345.425-2.784Z" fill="#904e28" fill-rule="evenodd"/>
              <path id="Trazado_748493" data-name="Trazado 748493" d="M79.042,308.059a4.748,4.748,0,0,0-1.854-2.521,7.216,7.216,0,0,0-1.285-.747c-.275-.713-1.93-1.317-3.95-1.392-2.141-.083-3.915.453-4.09,1.21-.134.058-.265.121-.394.187a4.81,4.81,0,0,0-2.675,3.263h.986a3.954,3.954,0,0,1,2.117-2.421c.139-.071.282-.136.428-.2a7.046,7.046,0,0,0,3.514.895,6.75,6.75,0,0,0,3.672-.686,6.293,6.293,0,0,1,1.119.65,3.918,3.918,0,0,1,1.4,1.759Z" fill="#904e28" fill-rule="evenodd"/>
              <path id="Trazado_748494" data-name="Trazado 748494" d="M74.37,304.573c.015.628.241,1.577-.158,2.029a4.251,4.251,0,0,1-4.731.507c-.477-.329-.53-1.4-.542-2.084a12.359,12.359,0,0,0,.919-4.032,3.812,3.812,0,0,1,3.395-.43Z" fill="#ffb27d" fill-rule="evenodd"/>
              <path id="Trazado_748495" data-name="Trazado 748495" d="M89.338,242.043c-.268-.036-.506.214-.533.56a.606.606,0,0,0,.433.689c.268.036.506-.215.536-.56a.608.608,0,0,0-.436-.689" fill="#bbdbfa" fill-rule="evenodd"/>
              <path id="Trazado_748496" data-name="Trazado 748496" d="M89.238,243.292a.6.6,0,0,1-.433-.689c.027-.345.265-.6.533-.562a.446.446,0,0,1,.287.173l-.037-.012c-.087-.01-.165.07-.172.182a.2.2,0,0,0,.141.224c.085.012.163-.071.173-.182V242.4a.785.785,0,0,1,.043.331c-.029.346-.267.6-.535.56" fill="#42210b" fill-rule="evenodd"/>
              <path id="Trazado_748497" data-name="Trazado 748497" d="M90.182,241.627c.015.015.027.022.039.036a1.05,1.05,0,0,0-.112-.18.311.311,0,0,1,.073.066.608.608,0,0,1,.054.105.645.645,0,0,0-.015-.112.3.3,0,0,1,.036.124.43.43,0,0,0-.053-.238.363.363,0,0,1,.1.214.293.293,0,0,0,.014-.1.171.171,0,0,1,.02.107l.034-.046c-.005.027-.015.037-.02.058a.446.446,0,0,0,.163-.291.412.412,0,0,1-.056.121.672.672,0,0,0,.02-.194.922.922,0,0,0-.027.15.4.4,0,0,1-.056.137.618.618,0,0,0,.022-.3l0,.03a.782.782,0,0,1-.01.16c-.014-.1,0-.182-.082-.253a.617.617,0,0,1,.048.11c-.041-.044-.058-.124-.129-.134a.69.69,0,0,1,.093.112.219.219,0,0,1,.046.158.379.379,0,0,0-.26-.3c.031.017.131.09.138.131v.008c-.007.046-.007-.042,0,.012a.293.293,0,0,1,.063.083.4.4,0,0,1,.027.063.135.135,0,0,1,.007.036v.017l0,.013a.428.428,0,0,0-.151-.244.59.59,0,0,0-.224-.119l.005,0,.054.026a.487.487,0,0,1,.294.314c-.007-.007,0,0-.01-.015l-.007-.009a.685.685,0,0,0-.095-.139.626.626,0,0,0-.136-.112.8.8,0,0,0-.346-.1,1.617,1.617,0,0,1,.239.066.468.468,0,0,1,.2.131.364.364,0,0,1-.082-.039,1.7,1.7,0,0,0-.626-.177,1.4,1.4,0,0,1,.338.117l-.065-.015.053.029a.351.351,0,0,1,.051.027.72.72,0,0,1,.275.238c-.024-.022-.056-.046-.08-.07s-.056-.044-.088-.066a1.262,1.262,0,0,0-.182-.114,1.883,1.883,0,0,0-.407-.151.174.174,0,0,1,.059.036,5.487,5.487,0,0,0-.623-.119c.066.024.175.034.248.054l.066.027a1.811,1.811,0,0,1-.222-.042,3.029,3.029,0,0,0-.7-.083,1.289,1.289,0,0,0-.531.076,1.343,1.343,0,0,0-.321.187.661.661,0,0,0-.08.076,1.466,1.466,0,0,1,.394-.229,2.332,2.332,0,0,0-.613.46c.046-.029.111-.09.163-.132s.116-.082.177-.124a1.655,1.655,0,0,1,.424-.207,1.488,1.488,0,0,1-.161.093,5.7,5.7,0,0,0-.861.594c-.032.026-.1.092-.12.109.03-.012.142-.1.18-.126a2.171,2.171,0,0,1,.623-.329,5.469,5.469,0,0,0-.635.35l.375-.187a1.823,1.823,0,0,1,.428-.153,3.684,3.684,0,0,0-.808.375c.059-.02.144-.069.21-.1s.146-.061.224-.087a2.219,2.219,0,0,1,.484-.129,2.72,2.72,0,0,1,.65-.005,2.009,2.009,0,0,0,.2.022.611.611,0,0,0-.181-.034,2.338,2.338,0,0,0-.374-.03c-.051,0-.156.01-.195,0a2.441,2.441,0,0,1,.4-.039.053.053,0,0,1-.017,0c-.013,0,0,0-.015-.008a1.3,1.3,0,0,1,.307.039c.087.022.263.09.272.093a.585.585,0,0,1-.058-.044l.214.051-.263-.1c.051.007.122.034.173.046s.192.049.251.07a1,1,0,0,0,.265.047,1.4,1.4,0,0,0-.149-.054l-.141-.049c-.027-.012-.048-.017-.073-.029a1.891,1.891,0,0,0-.2-.087,1.547,1.547,0,0,0-.613-.12,1.319,1.319,0,0,1,.638.1l.284.12a.705.705,0,0,1,.071.029c.068.027.139.058.212.08l0-.017v-.007a.509.509,0,0,0,.131.049c-.068-.066-.238-.12-.3-.2a.865.865,0,0,1,.182.1.6.6,0,0,0,.059.034.8.8,0,0,0-.212-.206l-.085-.052a.474.474,0,0,1,.207.12,1.26,1.26,0,0,1,.141.158l.01.01c.009.009,0,.005.014.009l-.063-.112c.01.022.1.112.1.142a.5.5,0,0,0-.07-.149l.041.029a1.1,1.1,0,0,0-.321-.26.674.674,0,0,1,.335.236c.032.044.052.1.081.131l-.029-.087,0,0,.046.056a.594.594,0,0,0-.153-.238.166.166,0,0,1,.073.048.648.648,0,0,1,.058.068.775.775,0,0,1,.093.176.271.271,0,0,0-.022-.1c.019.005,0,0,.019.01a.3.3,0,0,1,.068.092l-.012-.068.044.066a.991.991,0,0,0-.041-.144.248.248,0,0,1,.07.117.188.188,0,0,0-.012-.078l.054.054c.012.017.024.039.036.056a.478.478,0,0,0-.065-.134c.056.034.075.088.114.146a.48.48,0,0,0-.1-.207c.06.01.1.168.126.2l0-.068.012.013.036.068,0-.088c.025.025.027.054.044.088a.634.634,0,0,0-.012-.112c.012.005,0,0,.017.009.027.027.037.064.061.09l-.027-.07c.01.005,0,0,.012.007Z" fill="#332208" fill-rule="evenodd"/>
              <path id="Trazado_748498" data-name="Trazado 748498" d="M93.623,241.9a.611.611,0,0,1,.4.689c-.027.345-.248.6-.5.559a.6.6,0,0,1-.4-.688c.024-.346.246-.6.494-.56" fill="#bbdbfa" fill-rule="evenodd"/>
              <path id="Trazado_748499" data-name="Trazado 748499" d="M93.531,243.153c.248.034.47-.217.5-.562s-.155-.655-.4-.689a.344.344,0,0,0-.285.093l.034,0a.2.2,0,0,1,.131.224c-.007.112-.08.195-.16.183a.2.2,0,0,1-.132-.224l.005-.025a.794.794,0,0,0-.09.312.614.614,0,0,0,.4.691" fill="#42210b" fill-rule="evenodd"/>
              <path id="Trazado_748500" data-name="Trazado 748500" d="M92.579,241.705l-.027.034a1.286,1.286,0,0,1,.083-.18.423.423,0,0,0-.054.068.511.511,0,0,0-.041.1.561.561,0,0,1,.015-.112.321.321,0,0,0-.029.121.6.6,0,0,1,.041-.238.444.444,0,0,0-.073.216.3.3,0,0,1-.01-.1.234.234,0,0,0-.017.107l-.022-.046c0,.029.01.036.012.06a.513.513,0,0,1-.109-.294.443.443,0,0,0,.036.124.844.844,0,0,1-.009-.2,1.447,1.447,0,0,1,.014.153.482.482,0,0,0,.039.134.864.864,0,0,1-.01-.3l0,.027a.891.891,0,0,0,.005.163.43.43,0,0,1,.063-.253.829.829,0,0,0-.039.107c.032-.044.044-.122.1-.131a.724.724,0,0,0-.066.111.273.273,0,0,0-.036.156c.036-.172.107-.263.192-.294a.314.314,0,0,0-.1.131v.007c0,.047.005-.041,0,.01a.284.284,0,0,0-.046.085.311.311,0,0,0-.02.061.24.24,0,0,0-.007.037v.019l0,.01a.5.5,0,0,1,.112-.243.433.433,0,0,1,.163-.117l0,0-.039.027a.477.477,0,0,0-.216.312c.005-.005,0,0,.007-.013l0-.009a.759.759,0,0,1,.073-.139.484.484,0,0,1,.1-.112.462.462,0,0,1,.246-.095,1.07,1.07,0,0,0-.171.066.371.371,0,0,0-.146.131.286.286,0,0,0,.061-.039.985.985,0,0,1,.45-.175.835.835,0,0,0-.243.114l.046-.014a.147.147,0,0,1-.039.029c-.012.01-.022.015-.036.027a.631.631,0,0,0-.2.238c.017-.024.039-.046.059-.07a.559.559,0,0,1,.063-.066,1.255,1.255,0,0,1,.131-.114,1.122,1.122,0,0,1,.295-.149.1.1,0,0,0-.042.037,2.8,2.8,0,0,1,.448-.117c-.049.024-.127.032-.178.054l-.051.026a1.188,1.188,0,0,0,.161-.044,1.7,1.7,0,0,1,.506-.08.69.69,0,0,1,.375.08.876.876,0,0,1,.228.188.481.481,0,0,1,.054.075c-.051-.036-.163-.2-.277-.231a1.9,1.9,0,0,1,.43.462c-.031-.029-.077-.09-.114-.131s-.08-.085-.124-.126a1.01,1.01,0,0,0-.3-.205,1.034,1.034,0,0,0,.111.09,4.311,4.311,0,0,1,.606.6c.022.027.066.093.083.11-.019-.012-.1-.1-.124-.127a1.388,1.388,0,0,0-.44-.328,3.614,3.614,0,0,1,.447.35l-.265-.19a1.206,1.206,0,0,0-.3-.153,2.3,2.3,0,0,1,.572.377,1.419,1.419,0,0,1-.146-.1c-.054-.032-.1-.063-.161-.09a1.236,1.236,0,0,0-.343-.129,1.346,1.346,0,0,0-.465-.007,1.1,1.1,0,0,1-.146.022.355.355,0,0,1,.129-.035,1.549,1.549,0,0,1,.27-.029.96.96,0,0,0,.139.005,1.462,1.462,0,0,0-.282-.039l.012-.005c.007,0,0,0,.01-.007a.7.7,0,0,0-.222.039c-.061.022-.187.09-.194.09a.248.248,0,0,0,.041-.044l-.153.051.189-.1a.546.546,0,0,0-.124.047,1.387,1.387,0,0,0-.18.068.5.5,0,0,1-.192.044.819.819,0,0,1,.107-.052l.1-.048a.3.3,0,0,0,.051-.03,1.389,1.389,0,0,1,.149-.085.834.834,0,0,1,.44-.119c-.119-.053-.37.054-.457.1l-.207.115c-.017.009-.032.022-.051.031a1.1,1.1,0,0,1-.153.078l0-.014v-.01a.254.254,0,0,1-.094.048c.048-.065.172-.116.216-.2a.616.616,0,0,0-.131.1c-.015.012-.029.019-.042.031a.665.665,0,0,1,.156-.2l.058-.049c-.048.005-.109.071-.148.117s-.071.1-.105.156a.019.019,0,0,1-.007.012c-.007.009,0,0-.01.007l.049-.109a.941.941,0,0,0-.078.141.782.782,0,0,1,.054-.151l-.03.032a.959.959,0,0,1,.234-.261c-.07.01-.2.146-.246.234a1.009,1.009,0,0,1-.058.131l.024-.087,0,0-.034.056a.65.65,0,0,1,.117-.236.1.1,0,0,0-.053.049.319.319,0,0,0-.044.068.958.958,0,0,0-.071.173.4.4,0,0,1,.02-.1c-.015,0,0,0-.015.01a.338.338,0,0,0-.051.092l.012-.068-.034.068a.985.985,0,0,1,.034-.146.249.249,0,0,0-.053.117.214.214,0,0,1,.007-.078l-.037.051-.026.056a.528.528,0,0,1,.046-.131.448.448,0,0,0-.083.146.627.627,0,0,1,.073-.207c-.044.01-.073.168-.092.2l0-.068-.01.012-.026.066,0-.085a.5.5,0,0,0-.034.085s0-.073.013-.112c-.01.008,0,0-.015.012s-.024.064-.044.088l.022-.068c-.007,0,0,0-.01.007Z" fill="#332208" fill-rule="evenodd"/>
              <path id="Trazado_748501" data-name="Trazado 748501" d="M91.837,246.448a.121.121,0,0,1-.1-.051.105.105,0,0,1,.032-.144.577.577,0,0,1,.285-.053c.338-.013.6-.056.642-.463a13.9,13.9,0,0,0-.915-2.657.109.109,0,0,1,.151-.156,12.458,12.458,0,0,1,.978,2.838c-.063.623-.574.642-.849.654a.771.771,0,0,0-.175.017.1.1,0,0,1-.054.015" fill="#fc9774"/>
              <path id="Trazado_748502" data-name="Trazado 748502" d="M89,247.531q3.417,2.335,3.979.3a9.138,9.138,0,0,1-3.979-.3" fill="#fff" fill-rule="evenodd"/>
              <path id="Trazado_748503" data-name="Trazado 748503" d="M80.719,264.847a49.548,49.548,0,0,0,6.166,7.461c-1.19-5.979-2.83-12.106-4.185-19a4.126,4.126,0,0,0-1.358.764c-.363,2.724-.562,5.274-.6,6.722a8.729,8.729,0,0,0,2.244,1.635,9.487,9.487,0,0,0-2.268,2.421" fill="#386e90" fill-rule="evenodd"/>
              <path id="Trazado_748504" data-name="Trazado 748504" d="M96.616,263.713a49.6,49.6,0,0,1-4.348,7.787c.474-7.115.715-12.98.722-17.856a6.676,6.676,0,0,1,1.657,1.08c.076.087.149.178.219.268a54.207,54.207,0,0,1,1.48,6.395q-1.066.489-1.806.847c.67.45,1.361.941,2.076,1.479" fill="#36759d" fill-rule="evenodd"/>
              <path id="Trazado_748505" data-name="Trazado 748505" d="M147.188,238.717c-.505-.236-.947-.5-1.476-.723-.766-.331-.983.312-1.524.365.118-.082.1-.129.235-.277.727-.8,1.348-.613,2.18-.156.465.253.55.117.585.791" fill="#332208" fill-rule="evenodd"/>
              <path id="Trazado_748506" data-name="Trazado 748506" d="M145.8,238.517a.6.6,0,1,0,.482.591.545.545,0,0,0-.482-.591" fill="#fff" fill-rule="evenodd"/>
              <path id="Trazado_748507" data-name="Trazado 748507" d="M145.8,239.7a.6.6,0,0,1,0-1.183.441.441,0,0,1,.3.124l-.039,0a.194.194,0,1,0,.158.189l0-.021a.684.684,0,0,1,.07.3.547.547,0,0,1-.484.591" fill="#125aa3" fill-rule="evenodd"/>
              <path id="Trazado_748508" data-name="Trazado 748508" d="M149.266,238.717c.5-.236.944-.5,1.475-.723.766-.331.983.312,1.525.365-.119-.082-.1-.129-.236-.277-.727-.8-1.348-.613-2.182-.156-.463.253-.55.117-.582.791" fill="#332208" fill-rule="evenodd"/>
              <path id="Trazado_748509" data-name="Trazado 748509" d="M150.655,238.517a.6.6,0,1,1-.482.591.545.545,0,0,1,.482-.591" fill="#fff" fill-rule="evenodd"/>
              <path id="Trazado_748510" data-name="Trazado 748510" d="M150.655,239.7a.6.6,0,0,0,0-1.183.428.428,0,0,0-.294.124l.036,0a.194.194,0,1,1-.158.189l0-.021a.7.7,0,0,0-.068.3.546.546,0,0,0,.482.591" fill="#125aa3" fill-rule="evenodd"/>
              <path id="Trazado_748511" data-name="Trazado 748511" d="M147.883,242.652a.741.741,0,0,1-.557-.287c-.1-.161-.132-.582.455-2.528a.1.1,0,1,1,.19.058c-.577,1.9-.533,2.28-.49,2.353a.5.5,0,0,0,.453.205.1.1,0,0,1,.107.087.094.094,0,0,1-.087.107.541.541,0,0,1-.071,0" fill="#fc9774"/>
              <path id="Trazado_748512" data-name="Trazado 748512" d="M146.173,244.545a2.444,2.444,0,0,0,3.66-.168,22,22,0,0,1-3.66.168" fill="#fff" fill-rule="evenodd"/>
              <path id="Trazado_748513" data-name="Trazado 748513" d="M38.857,223.323c-.7,9.612-2.119,10.938-11.284,11.678,9.165.74,10.583,2.066,11.284,11.678.7-9.612,2.117-10.938,11.281-11.678-9.164-.74-10.58-2.066-11.281-11.678" fill="#fff" fill-rule="evenodd"/>
              <path id="Trazado_748514" data-name="Trazado 748514" d="M79.385,203.7c-.44,6.074-1.338,6.913-7.128,7.381,5.79.467,6.688,1.3,7.128,7.38.443-6.076,1.341-6.913,7.13-7.38-5.789-.468-6.687-1.307-7.13-7.381" fill="#fff" fill-rule="evenodd"/>
              <path id="Trazado_748515" data-name="Trazado 748515" d="M84.454,157.645c-.981,13.467-2.966,15.323-15.805,16.362,12.839,1.037,14.824,2.894,15.805,16.36.981-13.466,2.966-15.323,15.805-16.36-12.839-1.039-14.824-2.9-15.805-16.362" fill="#fff" fill-rule="evenodd"/>
              <path id="Trazado_748516" data-name="Trazado 748516" d="M445.807,254.68c-.443,6.076-1.338,6.913-7.13,7.381,5.792.469,6.687,1.306,7.13,7.38.443-6.074,1.338-6.911,7.13-7.38-5.792-.468-6.687-1.3-7.13-7.381" fill="#fff" fill-rule="evenodd"/>
              <path id="Trazado_748517" data-name="Trazado 748517" d="M450.873,208.63c-.981,13.466-2.966,15.323-15.8,16.36,12.837,1.036,14.822,2.893,15.8,16.36.983-13.467,2.969-15.324,15.808-16.36-12.839-1.037-14.825-2.894-15.808-16.36" fill="#fff" fill-rule="evenodd"/>
              <path id="Trazado_748518" data-name="Trazado 748518" d="M459.358,164.977c-.7,9.612-2.117,10.938-11.281,11.678,9.164.74,10.582,2.068,11.281,11.68.7-9.612,2.119-10.94,11.284-11.68-9.165-.74-10.583-2.066-11.284-11.678" fill="#fff" fill-rule="evenodd"/>
              <path id="Trazado_748519" data-name="Trazado 748519" d="M124.52,56.824c-.7,9.612-2.12,10.938-11.284,11.678,9.164.74,10.583,2.066,11.284,11.678.7-9.612,2.117-10.938,11.281-11.678-9.164-.74-10.583-2.066-11.281-11.678" fill="#fff" fill-rule="evenodd"/>
              <path id="Trazado_748520" data-name="Trazado 748520" d="M392.762,260.033l-8.523-1.381-.293-.036-3.819.019v37.491l4.373-.035,8.521-.951a.33.33,0,0,0,.273-.344V260.7a.65.65,0,0,0-.532-.669" fill="#c2a98a" fill-rule="evenodd"/>
              <path id="Trazado_748521" data-name="Trazado 748521" d="M380.11,296.142V258.615h.017l3.819-.02.295.037,8.524,1.38a.671.671,0,0,1,.548.685v34.092a.346.346,0,0,1-.291.362l-8.519.955Zm.036-37.491v37.455l4.355-.035,8.518-.952a.31.31,0,0,0,.258-.326V260.7a.632.632,0,0,0-.518-.65l-8.522-1.381-.294-.036Z" fill="#bca694"/>
              <path id="Trazado_748522" data-name="Trazado 748522" d="M360.334,258.634h23.748a.759.759,0,0,1,.756.757V295.6a.526.526,0,0,1-.523.524h-24.28a.525.525,0,0,1-.524-.524V259.456a.825.825,0,0,1,.821-.821" fill="#f9dec1" fill-rule="evenodd"/>
              <path id="Trazado_748523" data-name="Trazado 748523" d="M384.314,296.166h-24.28a.567.567,0,0,1-.565-.565V259.457a.867.867,0,0,1,.865-.864h23.748a.8.8,0,0,1,.8.8V295.6a.565.565,0,0,1-.564.565m-23.98-37.491a.782.782,0,0,0-.781.78V295.6a.481.481,0,0,0,.482.481h24.28a.482.482,0,0,0,.482-.481V259.39a.716.716,0,0,0-.715-.715Z" fill="#bca694"/>
              <rect id="Rectángulo_355915" data-name="Rectángulo 355915" width="5.26" height="11.98" transform="translate(369.544 258.316)" fill="#fe7062"/>
              <rect id="Rectángulo_355916" data-name="Rectángulo 355916" width="0.526" height="9.642" transform="translate(371.708 258.316)" fill="#f9dec1"/>
              <path id="Trazado_748524" data-name="Trazado 748524" d="M387.2,259.132l3.388.547-.109,11.411-3.279-.319Z" fill="#fe7062" fill-rule="evenodd"/>
              <path id="Trazado_748525" data-name="Trazado 748525" d="M388.623,259.367l.526.085.046,9.542-.57-.19Z" fill="#f9dec1" fill-rule="evenodd"/>
              <path id="Trazado_748526" data-name="Trazado 748526" d="M256.995,352.318c0,6.957,3.18,7.1,7.242,7.1h40.185a1.085,1.085,0,0,0,1.088-1.085V302.7a1.087,1.087,0,0,0-1.088-1.085H277.015c-2.134,0-5.288,1.584-7.809,4.829,0,0-12.213,14.485-12.213,26.414,0,8.142,0,19.455,0,19.455" fill="#fe7062" fill-rule="evenodd"/>
              <path id="Trazado_748527" data-name="Trazado 748527" d="M277.37,343.612H256.995c0,4.84,0,8.707,0,8.707,0,6.957,3.182,7.1,7.244,7.1H277.37Z" fill="#61a0e0" fill-rule="evenodd"/>
              <path id="Trazado_748528" data-name="Trazado 748528" d="M298.787,318.983V303.574H278.3c-3.124,0-5.37,1.276-7.546,4.074l-.024.032-.024.029a69.572,69.572,0,0,0-9.35,15.133v10.9c13.961,0,37.436-12.1,37.436-14.759" fill="#4f8ecc" fill-rule="evenodd"/>
              <path id="Trazado_748529" data-name="Trazado 748529" d="M278.3,304.443c-2.808,0-4.8,1.083-6.862,3.74l-.022.032-.044.051a69.021,69.021,0,0,0-9.1,14.644l8.592,8.59a88.17,88.17,0,0,0,13.564-4.7c8.084-3.51,13.073-6.858,13.5-7.873V304.443Z" fill="#80c2dc" fill-rule="evenodd"/>
              <path id="Trazado_748530" data-name="Trazado 748530" d="M259.833,325.478c-.472,0-.876.681-1.046,1.657a4.735,4.735,0,0,1-1.341-3.36h1.579v-8.807h-3.358a1.088,1.088,0,0,0-1.088,1.088v6.633a1.087,1.087,0,0,0,1.088,1.086h.72c-.039,1.2.127,3.99,2.344,5.037.119,1.182.567,2.061,1.1,2.061.628,0,1.137-1.2,1.137-2.7s-.509-2.7-1.137-2.7" fill="#4f8ecc" fill-rule="evenodd"/>
              <path id="Trazado_748531" data-name="Trazado 748531" d="M256.913,341.833a7.976,7.976,0,0,0,.163,1.691h4.1s1.538-4.042,1.538-6.426a16.577,16.577,0,0,0-5.8,1.019Z" fill="#fff" fill-rule="evenodd"/>
              <path id="Trazado_748532" data-name="Trazado 748532" d="M288.094,339.82a17.049,17.049,0,0,1,10.5,19.6h5.825a1.087,1.087,0,0,0,1.088-1.085V339.82Z" fill="#61a0e0" fill-rule="evenodd"/>
              <path id="Trazado_748533" data-name="Trazado 748533" d="M301.371,355.725a16.41,16.41,0,0,0-12.386-15.9h-.316a16.406,16.406,0,0,0-3.7-.426c-.158,0-.313.008-.469.012l-.48.018a16.333,16.333,0,0,0-15.381,16.3c0,.08.005.161.007.241h-11.22l.021.068c.03.1.061.192.1.282.013.044.029.083.044.124.029.071.056.142.085.21.017.039.035.08.051.119.034.071.066.139.1.207.017.029.029.061.047.09.048.09.1.178.15.263.017.027.034.056.054.082.036.056.075.115.114.168.025.032.047.064.068.093l.117.146c.022.024.047.053.068.078.054.058.105.114.161.17.015.012.029.027.044.041.061.059.124.115.187.168.027.022.054.042.078.064.046.036.1.07.141.1a1.013,1.013,0,0,0,.085.061c.049.034.1.066.153.1.025.015.049.032.076.047.075.043.151.085.229.124a.522.522,0,0,1,.068.031l.18.081c.032.012.063.024.1.039.056.019.109.041.168.063.032.01.063.022.1.031.068.022.136.044.2.064l.063.017c.088.026.176.048.268.068.032.007.063.014.1.019.063.015.126.027.192.039.034.008.071.015.107.02.064.012.132.022.2.031.032.005.066.013.1.015.1.015.194.027.292.037a.561.561,0,0,0,.058,0c.083.01.166.018.251.025.036,0,.073.005.107.009l.214.013.112.007c.08,0,.16.005.241.01.027,0,.053,0,.08,0,.1,0,.214.005.321.01h.1c.08,0,.163,0,.244.005h.119c.08,0,.16,0,.238,0h37.159a16.5,16.5,0,0,0,.418-3.692" fill="#4f8ecc" fill-rule="evenodd"/>
              <path id="Rectángulo_355917" data-name="Rectángulo 355917" d="M1.085,0H7.149A1.086,1.086,0,0,1,8.235,1.086v1.8A1.086,1.086,0,0,1,7.149,3.974H1.083A1.083,1.083,0,0,1,0,2.891V1.085A1.085,1.085,0,0,1,1.085,0Z" transform="translate(292.194 331.259)" fill="#4f8ecc"/>
              <path id="Trazado_748534" data-name="Trazado 748534" d="M271.372,354.861A12.643,12.643,0,1,1,284.016,367.5a12.645,12.645,0,0,1-12.644-12.641" fill="#4d4d4e" fill-rule="evenodd"/>
              <path id="Trazado_748535" data-name="Trazado 748535" d="M277.923,348.768a8.617,8.617,0,1,1,0,12.187,8.618,8.618,0,0,1,0-12.187" fill="#dee9f0" fill-rule="evenodd"/>
              <path id="Trazado_748536" data-name="Trazado 748536" d="M278.911,349.759c3.368-3.365,2.438,2.132,5.259,4.95s8.315,1.89,4.949,5.256-2.436-2.132-5.256-4.952-8.315-1.889-4.952-5.254" fill="#282828" fill-rule="evenodd"/>
              <path id="Trazado_748537" data-name="Trazado 748537" d="M289.119,349.759c3.365,3.365-2.134,2.436-4.95,5.254s-1.89,8.317-5.258,4.952,2.134-2.436,4.952-5.256,1.891-8.315,5.256-4.95" fill="#282828" fill-rule="evenodd"/>
              <path id="Trazado_748538" data-name="Trazado 748538" d="M282.361,353.207a2.34,2.34,0,1,1,0,3.31,2.338,2.338,0,0,1,0-3.31" fill="#80c2dc" fill-rule="evenodd"/>
              <rect id="Rectángulo_355918" data-name="Rectángulo 355918" width="145.949" height="64.185" rx="3.911" transform="translate(307.394 295.121)" fill="#fe7062"/>
              <path id="Trazado_748539" data-name="Trazado 748539" d="M307.394,353.073v2.368a3.91,3.91,0,0,0,3.91,3.908H449.432a3.91,3.91,0,0,0,3.911-3.908v-2.368Z" fill="#4f8ecc" fill-rule="evenodd"/>
              <path id="Trazado_748540" data-name="Trazado 748540" d="M442.628,356.5a15.918,15.918,0,0,0,.085-1.642,15.684,15.684,0,1,0-31.367,0,15.917,15.917,0,0,0,.086,1.642Z" fill="#4f8ecc" fill-rule="evenodd"/>
              <path id="Trazado_748541" data-name="Trazado 748541" d="M414.389,354.861A12.643,12.643,0,1,1,427.031,367.5a12.641,12.641,0,0,1-12.642-12.641" fill="#4d4d4e" fill-rule="evenodd"/>
              <path id="Trazado_748542" data-name="Trazado 748542" d="M420.937,348.768a8.617,8.617,0,1,1,0,12.187,8.618,8.618,0,0,1,0-12.187" fill="#dee9f0" fill-rule="evenodd"/>
              <path id="Trazado_748543" data-name="Trazado 748543" d="M421.927,349.759c3.363-3.365,2.436,2.132,5.254,4.95s8.317,1.89,4.952,5.256-2.436-2.132-5.254-4.952-8.317-1.889-4.952-5.254" fill="#282828" fill-rule="evenodd"/>
              <path id="Trazado_748544" data-name="Trazado 748544" d="M432.133,349.759c3.365,3.365-2.132,2.436-4.952,5.254s-1.891,8.317-5.254,4.952,2.132-2.436,4.952-5.256,1.889-8.315,5.254-4.95" fill="#282828" fill-rule="evenodd"/>
              <path id="Trazado_748545" data-name="Trazado 748545" d="M425.375,353.207a2.341,2.341,0,1,1,0,3.31,2.339,2.339,0,0,1,0-3.31" fill="#80c2dc" fill-rule="evenodd"/>
              <path id="Trazado_748546" data-name="Trazado 748546" d="M258.28,347.717h-1.285c0,1.925,0,3.412,0,4.127h1.287a2.063,2.063,0,0,0,0-4.127" fill="#fff" fill-rule="evenodd"/>
              <path id="Trazado_748547" data-name="Trazado 748547" d="M453.343,334.5a3.91,3.91,0,0,0-3.419,3.877v8.575a3.906,3.906,0,0,0,3.419,3.876Z" fill="#af2d00" fill-rule="evenodd"/>
              <path id="Trazado_748548" data-name="Trazado 748548" d="M361.562,298.166l-8.523-1.381-.293-.036-3.819.019v37.491l4.373-.035,8.521-.951a.33.33,0,0,0,.273-.344V298.836a.65.65,0,0,0-.532-.669" fill="#c2a98a" fill-rule="evenodd"/>
              <path id="Trazado_748549" data-name="Trazado 748549" d="M348.91,334.275V296.748h.017l3.819-.02.295.037,8.524,1.38a.67.67,0,0,1,.548.685v34.092a.346.346,0,0,1-.291.362l-8.519.955Zm.036-37.491v37.455l4.355-.035,8.518-.952a.31.31,0,0,0,.258-.326V298.834a.632.632,0,0,0-.518-.65l-8.522-1.381-.294-.036Z" fill="#bca694"/>
              <path id="Trazado_748550" data-name="Trazado 748550" d="M329.133,296.768h23.748a.759.759,0,0,1,.756.757v36.211a.526.526,0,0,1-.523.524h-24.28a.525.525,0,0,1-.524-.524V297.59a.825.825,0,0,1,.821-.821" fill="#f9dec1" fill-rule="evenodd"/>
              <path id="Trazado_748551" data-name="Trazado 748551" d="M353.114,334.3h-24.28a.567.567,0,0,1-.565-.565V297.59a.866.866,0,0,1,.865-.864h23.748a.8.8,0,0,1,.8.8v36.209a.565.565,0,0,1-.564.565m-23.98-37.491a.783.783,0,0,0-.781.78v36.144a.481.481,0,0,0,.482.481h24.28a.482.482,0,0,0,.482-.481V297.523a.715.715,0,0,0-.715-.715Z" fill="#bca694"/>
              <rect id="Rectángulo_355919" data-name="Rectángulo 355919" width="5.26" height="11.98" transform="translate(338.344 296.45)" fill="#fe7062"/>
              <rect id="Rectángulo_355920" data-name="Rectángulo 355920" width="0.526" height="9.642" transform="translate(340.507 296.45)" fill="#f9dec1"/>
              <path id="Trazado_748552" data-name="Trazado 748552" d="M356,297.265l3.388.547-.109,11.411L356,308.9Z" fill="#fe7062" fill-rule="evenodd"/>
              <path id="Trazado_748553" data-name="Trazado 748553" d="M357.423,297.5l.526.085.046,9.542-.57-.19Z" fill="#f9dec1" fill-rule="evenodd"/>
              <path id="Trazado_748554" data-name="Trazado 748554" d="M356.141,333.949l-8.523-1.381-.293-.036-3.819.019v37.491l4.373-.035,8.521-.951a.33.33,0,0,0,.273-.344V334.619a.65.65,0,0,0-.532-.669" fill="#c2a98a" fill-rule="evenodd"/>
              <path id="Trazado_748555" data-name="Trazado 748555" d="M343.489,370.058V332.531h.017l3.819-.02.295.037,8.524,1.38a.67.67,0,0,1,.548.685V368.7a.346.346,0,0,1-.291.362l-8.519.955Zm.036-37.491v37.455l4.355-.035,8.518-.952a.31.31,0,0,0,.258-.326V334.617a.632.632,0,0,0-.518-.65l-8.522-1.381-.294-.036Z" fill="#bca694"/>
              <path id="Trazado_748556" data-name="Trazado 748556" d="M323.712,332.551H347.46a.759.759,0,0,1,.756.757v36.211a.526.526,0,0,1-.523.524h-24.28a.525.525,0,0,1-.524-.524V333.373a.825.825,0,0,1,.821-.821" fill="#f9dec1" fill-rule="evenodd"/>
              <path id="Trazado_748557" data-name="Trazado 748557" d="M347.693,370.083h-24.28a.567.567,0,0,1-.565-.565V333.374a.867.867,0,0,1,.865-.864h23.748a.8.8,0,0,1,.8.8v36.209a.565.565,0,0,1-.564.565m-23.98-37.491a.783.783,0,0,0-.781.78v36.144a.481.481,0,0,0,.482.481h24.28a.482.482,0,0,0,.482-.481V333.307a.715.715,0,0,0-.715-.715Z" fill="#bca694"/>
              <rect id="Rectángulo_355921" data-name="Rectángulo 355921" width="5.26" height="11.98" transform="translate(332.923 332.233)" fill="#fe7062"/>
              <rect id="Rectángulo_355922" data-name="Rectángulo 355922" width="0.526" height="9.642" transform="translate(335.086 332.233)" fill="#f9dec1"/>
              <path id="Trazado_748558" data-name="Trazado 748558" d="M350.58,333.048l3.388.547-.109,11.411-3.279-.319Z" fill="#fe7062" fill-rule="evenodd"/>
              <path id="Trazado_748559" data-name="Trazado 748559" d="M352,333.283l.526.085.046,9.542-.57-.19Z" fill="#f9dec1" fill-rule="evenodd"/>
              <path id="Trazado_748560" data-name="Trazado 748560" d="M385.781,333.949l-8.523-1.381-.293-.036-3.819.019v37.491l4.373-.035,8.521-.951a.33.33,0,0,0,.273-.344V334.619a.65.65,0,0,0-.532-.669" fill="#c2a98a" fill-rule="evenodd"/>
              <path id="Trazado_748561" data-name="Trazado 748561" d="M373.129,370.058V332.531h.017l3.819-.02.3.037,8.524,1.38a.67.67,0,0,1,.548.685V368.7a.346.346,0,0,1-.291.362l-8.519.955Zm.036-37.491v37.455l4.355-.035,8.518-.952a.31.31,0,0,0,.258-.326V334.617a.632.632,0,0,0-.518-.65l-8.522-1.381-.294-.036Z" fill="#bca694"/>
              <path id="Trazado_748562" data-name="Trazado 748562" d="M353.353,332.551H377.1a.759.759,0,0,1,.756.757v36.211a.526.526,0,0,1-.523.524h-24.28a.525.525,0,0,1-.524-.524V333.373a.825.825,0,0,1,.821-.821" fill="#f9dec1" fill-rule="evenodd"/>
              <path id="Trazado_748563" data-name="Trazado 748563" d="M377.334,370.083h-24.28a.567.567,0,0,1-.565-.565V333.374a.867.867,0,0,1,.865-.864H377.1a.8.8,0,0,1,.8.8v36.209a.565.565,0,0,1-.564.565m-23.98-37.491a.783.783,0,0,0-.781.78v36.144a.481.481,0,0,0,.482.481h24.28a.482.482,0,0,0,.482-.481V333.307a.715.715,0,0,0-.715-.715Z" fill="#bca694"/>
              <rect id="Rectángulo_355923" data-name="Rectángulo 355923" width="5.26" height="11.98" transform="translate(362.564 332.233)" fill="#fe7062"/>
              <rect id="Rectángulo_355924" data-name="Rectángulo 355924" width="0.526" height="9.642" transform="translate(364.727 332.233)" fill="#f9dec1"/>
              <path id="Trazado_748564" data-name="Trazado 748564" d="M380.221,333.048l3.388.547-.109,11.411-3.279-.319Z" fill="#fe7062" fill-rule="evenodd"/>
              <path id="Trazado_748565" data-name="Trazado 748565" d="M381.642,333.283l.526.085.046,9.542-.57-.19Z" fill="#f9dec1" fill-rule="evenodd"/>
            </g>
          </g>
        </g>
      </g>
    </g>
  </g>
</svg>
