<svg id="Grupo_1019174" data-name="Grupo 1019174" xmlns="http://www.w3.org/2000/svg" xmlns:xlink="http://www.w3.org/1999/xlink" width="42.466" height="47.931" viewBox="0 0 42.466 47.931">
  <defs>
    <clipPath id="clip-path">
      <rect id="Rectángulo_355931" data-name="Rectángulo 355931" width="42.466" height="47.931" transform="translate(0 0)" fill="none"/>
    </clipPath>
  </defs>
  <path id="Trazado_748591" data-name="Trazado 748591" d="M11.182,40.516h0Z" fill="#013177"/>
  <g id="Grupo_1019170" data-name="Grupo 1019170">
    <g id="Grupo_1019169" data-name="Grupo 1019169" clip-path="url(#clip-path)">
      <path id="Trazado_748592" data-name="Trazado 748592" d="M30.986,41.377h-19.8a.861.861,0,0,1,0-1.721h19.8a.861.861,0,0,1,0,1.721" fill="#161091"/>
      <path id="Trazado_748593" data-name="Trazado 748593" d="M8.532,44.568h0Z" fill="#013177"/>
      <path id="Trazado_748594" data-name="Trazado 748594" d="M33.393,45.429H8.532a.861.861,0,1,1,0-1.721H33.393a.861.861,0,1,1,0,1.721" fill="#161091"/>
      <path id="Trazado_748595" data-name="Trazado 748595" d="M13.737,37.218a.642.642,0,0,0-.386-.4l-3.226-1.222a.649.649,0,0,0-.725.19L.15,46.872a.646.646,0,0,0,.495,1.059H6.669a.647.647,0,0,0,.541-.292l6.453-9.868a.644.644,0,0,0,.074-.553" fill="#595bc1"/>
      <path id="Trazado_748596" data-name="Trazado 748596" d="M42.317,46.872l-9.251-11.09a.646.646,0,0,0-.724-.19l-3.227,1.221a.647.647,0,0,0-.312.957l6.454,9.869a.65.65,0,0,0,.54.292h6.024a.646.646,0,0,0,.5-1.059" fill="#595bc1"/>
      <path id="Trazado_748597" data-name="Trazado 748597" d="M28.288,0H14.137A8.036,8.036,0,0,0,6.11,8.026V30.095a8.035,8.035,0,0,0,8.027,8.025H28.288a8.034,8.034,0,0,0,8.025-8.025V8.026A8.035,8.035,0,0,0,28.288,0" fill="#fc7062"/>
      <path id="Trazado_748598" data-name="Trazado 748598" d="M28.288,0H14.137A8.036,8.036,0,0,0,6.11,8.026V22.588a.646.646,0,0,0,.646.645H35.668a.645.645,0,0,0,.645-.645V8.026A8.035,8.035,0,0,0,28.288,0" fill="#161091"/>
      <path id="Trazado_748599" data-name="Trazado 748599" d="M32.363,6.325H9.942a.86.86,0,0,0-.86.86V19.06a.86.86,0,0,0,.86.861H32.363a.86.86,0,0,0,.86-.861V7.185a.859.859,0,0,0-.86-.86" fill="#fff"/>
      <path id="Trazado_748600" data-name="Trazado 748600" d="M15.236,29.3a2.027,2.027,0,1,1-2.027-2.026A2.026,2.026,0,0,1,15.236,29.3" fill="#fff"/>
      <path id="Trazado_748601" data-name="Trazado 748601" d="M13.208,31.973A2.672,2.672,0,1,1,15.881,29.3a2.675,2.675,0,0,1-2.673,2.673m0-4.054A1.381,1.381,0,1,0,14.59,29.3a1.382,1.382,0,0,0-1.382-1.381" fill="#013177"/>
      <path id="Trazado_748602" data-name="Trazado 748602" d="M30.986,29.3a2.027,2.027,0,1,1-2.026-2.026A2.026,2.026,0,0,1,30.986,29.3" fill="#fff"/>
      <path id="Trazado_748603" data-name="Trazado 748603" d="M28.959,31.973A2.672,2.672,0,1,1,31.631,29.3a2.676,2.676,0,0,1-2.672,2.673m0-4.054A1.381,1.381,0,1,0,30.34,29.3a1.382,1.382,0,0,0-1.381-1.381" fill="#013177"/>
      <path id="Trazado_748604" data-name="Trazado 748604" d="M28.481,2.969H13.9a.861.861,0,0,0,0,1.721H28.481a.861.861,0,0,0,0-1.721" fill="#fff"/>
    </g>
  </g>
</svg>
