<svg xmlns="http://www.w3.org/2000/svg" xmlns:xlink="http://www.w3.org/1999/xlink" width="51.74" height="46.545" viewBox="0 0 51.74 46.545">
  <defs>
    <clipPath id="clip-path">
      <rect id="Rect치ngulo_355929" data-name="Rect치ngulo 355929" width="51.74" height="46.545" transform="translate(0 0.001)" fill="none"/>
    </clipPath>
  </defs>
  <g id="Grupo_1019173" data-name="Grupo 1019173" transform="translate(0 -0.001)">
    <g id="Grupo_1019165" data-name="Grupo 1019165" clip-path="url(#clip-path)">
      <path id="Trazado_748573" data-name="Trazado 748573" d="M51.2,11.658l-36.587-7a.646.646,0,0,0-.755.513L7.668,37.529a.645.645,0,0,0,.512.755l36.587,7a.647.647,0,0,0,.756-.513l6.194-32.361a.646.646,0,0,0-.513-.755" fill="#595bc1"/>
      <path id="Trazado_748574" data-name="Trazado 748574" d="M51.624,11.925,46.813,5.017a.645.645,0,0,0-.408-.265L21.639.012a.642.642,0,0,0-.477.1L14.14,4.75a.646.646,0,0,0,.235,1.173l36.6,7.005a.646.646,0,0,0,.651-1" fill="#161091"/>
      <path id="Trazado_748575" data-name="Trazado 748575" d="M39.455,34.987a3.382,3.382,0,0,1-2.683-3.952l.82-4.284a.646.646,0,0,1,.756-.512l5.366,1.027a.646.646,0,0,1,.513.755l-.82,4.284a3.381,3.381,0,0,1-3.952,2.682m-.716-7.359-.7,3.65a2.087,2.087,0,0,0,4.1.784l.7-3.65Z" fill="#fc7062"/>
      <path id="Trazado_748576" data-name="Trazado 748576" d="M41.106,40.9,35.74,39.87a.645.645,0,1,1,.242-1.268l5.367,1.027a.646.646,0,0,1-.243,1.268" fill="#fc7062"/>
      <path id="Trazado_748577" data-name="Trazado 748577" d="M38.422,40.383a.645.645,0,0,1-.512-.755l1.032-5.4a.646.646,0,0,1,1.268.243l-1.033,5.4a.645.645,0,0,1-.755.513" fill="#fc7062"/>
      <rect id="Rect치ngulo_355928" data-name="Rect치ngulo 355928" width="33.035" height="6.638" transform="translate(23.163 41.195) rotate(-79.164)" fill="#fc7062"/>
      <path id="Trazado_748578" data-name="Trazado 748578" d="M17.451,30.219,22,36.92Z" fill="#f7941e"/>
      <path id="Trazado_748579" data-name="Trazado 748579" d="M21.878,37.555a.645.645,0,0,1-.413-.271l-4.548-6.7a.645.645,0,0,1,1.068-.724l4.548,6.7a.644.644,0,0,1-.655,1" fill="#fff"/>
      <path id="Trazado_748580" data-name="Trazado 748580" d="M28.829,42.582l-5.171-7.619a2.542,2.542,0,0,0-3.526-.674,2.54,2.54,0,0,0-.675,3.526l5.171,7.619a2.539,2.539,0,1,0,4.2-2.852" fill="#013177"/>
      <path id="Trazado_748581" data-name="Trazado 748581" d="M12.115,14.533a.645.645,0,0,0,.729-.517l.638-3.327a.647.647,0,0,0-.53-.759,11.162,11.162,0,0,0-4.2,21.918l.017,0a.646.646,0,0,0,.755-.513l.637-3.327a.646.646,0,0,0-.487-.75,6.486,6.486,0,0,1,2.437-12.729" fill="#d1524b"/>
      <path id="Trazado_748582" data-name="Trazado 748582" d="M20.4,14.679A11.065,11.065,0,0,0,12.952,9.93h0l-.879,4.594c.014,0,.029.007.044.009A6.486,6.486,0,1,1,9.679,27.262c-.014,0-.029-.006-.044-.009l-.879,4.595c.105.023.21.044.315.064a11.051,11.051,0,0,0,8.356-1.729,11.175,11.175,0,0,0,2.968-15.5" fill="#fc7062"/>
      <path id="Trazado_748583" data-name="Trazado 748583" d="M35.878,2.754l-3.815-.73-2.69,6.728L35.893,10Z" fill="#d1524b"/>
    </g>
  </g>
</svg>
