<svg id="Grupo_1019175" data-name="Grupo 1019175" xmlns="http://www.w3.org/2000/svg" xmlns:xlink="http://www.w3.org/1999/xlink" width="59.829" height="46.693" viewBox="0 0 59.829 46.693">
  <defs>
    <clipPath id="clip-path">
      <rect id="Rectángulo_355930" data-name="Rectángulo 355930" width="59.829" height="46.693" transform="translate(0 0)" fill="none"/>
    </clipPath>
  </defs>
  <g id="Grupo_1019167" data-name="Grupo 1019167" clip-path="url(#clip-path)">
    <path id="Trazado_748584" data-name="Trazado 748584" d="M34.4,0H25.382a.645.645,0,0,0-.645.645v5.48a.645.645,0,0,0,.645.645H34.4a.645.645,0,0,0,.645-.645V.645A.644.644,0,0,0,34.4,0" fill="#595bc1"/>
    <path id="Trazado_748585" data-name="Trazado 748585" d="M38.969,8.811H36.017V6.125a.645.645,0,0,0-.645-.646H24.414a.646.646,0,0,0-.645.646V8.811H20.818a.646.646,0,0,0-.646.647V20.733a.645.645,0,0,0,.646.644h3.6a.645.645,0,0,0,.646-.644V19.268h9.666v1.465a.645.645,0,0,0,.646.644h3.6a.644.644,0,0,0,.645-.644V9.458a.646.646,0,0,0-.645-.647" fill="#161091"/>
    <path id="Trazado_748586" data-name="Trazado 748586" d="M30.273,10.08a.647.647,0,0,0-.664.032L14.572,20.184a.646.646,0,0,0-.255.736l6.1,18.747a.646.646,0,0,0,.511.437l3.99.646a.606.606,0,0,0,.1.009.59.59,0,0,0,.151-.019l4.835-1.163a.645.645,0,0,0,.5-.625l.107-28.3a.645.645,0,0,0-.34-.571" fill="#d1524b"/>
    <path id="Trazado_748587" data-name="Trazado 748587" d="M29.86,37.96a5.226,5.226,0,0,0-2.26.95,4.928,4.928,0,0,1-5.907.046l-.131-.092a4.928,4.928,0,0,0-5.907.046l-2.944,2.121H29.86Z" fill="#013177"/>
    <path id="Trazado_748588" data-name="Trazado 748588" d="M45.331,20.184,30.294,10.113A.638.638,0,0,0,29.968,10V39.585a.634.634,0,0,0,.352-.184.62.62,0,0,0,.557.292c.649,0,1.27.077,1.916.128.6.047,1.19.028,1.786.053.575.026,1.137.077,1.715.077H38.32a.838.838,0,0,0,.114-.008.624.624,0,0,0,.234.138.633.633,0,0,0,.2.032.644.644,0,0,0,.613-.446l6.1-18.747a.645.645,0,0,0-.254-.736" fill="#fc7062"/>
    <path id="Trazado_748589" data-name="Trazado 748589" d="M56.884,44.571a4.926,4.926,0,0,0-5.906-.045l-.132.092a4.925,4.925,0,0,1-5.906-.047,4.928,4.928,0,0,0-5.907-.045l-.131.092A4.925,4.925,0,0,1,33,44.571a5.232,5.232,0,0,0-6.164,0,4.926,4.926,0,0,1-5.907.047l-.131-.092a4.926,4.926,0,0,0-5.906.045,4.926,4.926,0,0,1-5.907.047l-.131-.092a4.928,4.928,0,0,0-5.907.045L0,46.693H59.828Z" fill="#161091"/>
    <path id="Trazado_748590" data-name="Trazado 748590" d="M44.065,38.91a4.926,4.926,0,0,0-5.906-.046l-.132.092a4.926,4.926,0,0,1-5.906-.046,5.23,5.23,0,0,0-2.261-.95,5.226,5.226,0,0,0-2.26.95,4.928,4.928,0,0,1-5.907.046l-.131-.092a4.928,4.928,0,0,0-5.907.046l-2.944,2.121h34.3Z" fill="#161091"/>
  </g>
</svg>
