<svg xmlns="http://www.w3.org/2000/svg" width="147.727" height="139.639" viewBox="0 0 147.727 139.639">
  <g id="_025-settings" data-name="025-settings" transform="translate(-5.5 -8.7)">
    <g id="Grupo_1022060" data-name="Grupo 1022060" transform="translate(8.667 9.216)">
      <path id="Trazado_756086" data-name="Trazado 756086" d="M130.944,78.72A61.822,61.822,0,1,1,7.3,78.72c0-34.146,29.473-65.057,63.619-63.08,8.087.539,11.861,1.8,14.557,4.313,0,0-25.7,29.473-3.594,53.735,22.824,25.34,49.062,2.875,49.062,5.032Z" transform="translate(-7.232 -3.756)" fill="#57dbd8"/>
      <path id="Trazado_756087" data-name="Trazado 756087" d="M123.707,57.065v-11.5l-6.829-1.438a27.778,27.778,0,0,0-1.258-4.133l5.032-4.673L114.9,25.435l-7.009,2.336c-.9-.9-1.8-1.8-2.875-2.7l2.157-7.009-9.884-5.751-5.032,5.571a28.727,28.727,0,0,0-3.774-.9L86.865,9.8h-11.5l-1.617,7.189a25.4,25.4,0,0,0-3.954,1.078L65.12,12.855l-9.884,5.751,2.157,6.47c-1.258,1.078-2.336,2.157-3.415,3.235l-6.11-1.977-5.751,9.884,4.493,4.133a41.121,41.121,0,0,0-1.438,5.032L39.6,46.642v11.5l5.391,1.078a50.433,50.433,0,0,0,1.438,5.571l-3.774,3.415,5.751,9.884,4.852-1.617a25.537,25.537,0,0,0,4.493,4.313l-1.8,4.852,9.884,5.751L69.073,87.8a33.918,33.918,0,0,0,6.11,1.617l.9,4.673h11.5l1.078-5.032a30.578,30.578,0,0,0,5.751-1.8l3.415,3.774,9.884-5.751-1.8-5.391a27.079,27.079,0,0,0,3.774-4.133l5.391,1.8,5.751-9.884-4.673-4.313a23.534,23.534,0,0,0,1.078-4.852Zm-23.183-4.133A19.23,19.23,0,1,1,81.294,33.7,19.251,19.251,0,0,1,100.524,52.932Z" transform="translate(18.516 -8.339)" fill="#fff"/>
      <g id="Grupo_1022058" data-name="Grupo 1022058">
        <path id="Trazado_756088" data-name="Trazado 756088" d="M47.9,14.222h-.359c-2.157-.359-4.313-.719-6.649-.9a2.076,2.076,0,0,1-1.977-2.336A2.171,2.171,0,0,1,41.246,9.01c2.336.18,4.852.539,7.189.9a1.96,1.96,0,0,1,1.617,2.516,2.135,2.135,0,0,1-2.157,1.8Z" transform="translate(17.948 -8.987)" fill="#445976"/>
        <path id="Trazado_756089" data-name="Trazado 756089" d="M9.487,43.636a1.32,1.32,0,0,1-1.078-.359,2.14,2.14,0,0,1-.9-2.875A61.233,61.233,0,0,1,52.439,9.31a2.186,2.186,0,1,1,.719,4.313A57.287,57.287,0,0,0,11.284,42.558a1.977,1.977,0,0,1-1.8,1.078Z" transform="translate(-7.262 -8.748)" fill="#445976"/>
      </g>
      <g id="Grupo_1022059" data-name="Grupo 1022059" transform="translate(100.641 31.225)">
        <path id="Trazado_756090" data-name="Trazado 756090" d="M69.718,40.82h-.359A1.96,1.96,0,0,1,67.741,38.3a4.976,4.976,0,0,0,.18-1.617,2.164,2.164,0,0,1,4.313.359,6.461,6.461,0,0,1-.359,1.977,2.448,2.448,0,0,1-2.157,1.8Z" transform="translate(-59.766 -19.726)" fill="#fff"/>
        <path id="Trazado_756091" data-name="Trazado 756091" d="M72.675,39.549A1.948,1.948,0,0,1,70.7,38.112a14.015,14.015,0,0,0-6.29-7.728,2.13,2.13,0,0,1,1.977-3.774,17.027,17.027,0,0,1,8.267,10.064,2.092,2.092,0,0,1-1.438,2.7.66.66,0,0,1-.539.18Z" transform="translate(-63.262 -26.362)" fill="#fff"/>
      </g>
    </g>
    <g id="Grupo_1022061" data-name="Grupo 1022061" transform="translate(5.5 8.7)">
      <path id="Trazado_756092" data-name="Trazado 756092" d="M153.226,59.919V45l-7.189-1.617-.539-1.617,5.391-4.852-7.548-12.94-7.548,2.336c-.359-.359-.719-.539-1.078-.9l2.336-7.189-12.94-7.548-5.391,5.931c-.359-.18-.9-.18-1.258-.359L115.845,8.7H100.929l-1.617,7.548a5.556,5.556,0,0,0-1.438.359l-5.032-5.571L79.9,18.584l.359,1.078A61.73,61.73,0,0,0,70.2,18.944a64.7,64.7,0,1,0,64.338,69.909l3.235-1.8-1.8-5.751c.719-.719,1.258-1.438,1.977-2.157l5.571,1.8,7.548-12.94-5.032-4.493c.18-.719.359-1.617.539-2.336ZM81.7,24.335l.359,1.078-1.438,1.438-6.47-2.157L66.6,37.634l4.852,4.313c-.18.719-.539,1.617-.719,2.516l-5.931,1.258v8.087a198.455,198.455,0,0,1-23.543-1.8C46.655,36.736,55.641,25.953,66.244,23.8a32.528,32.528,0,0,1,8.447-.359,46.752,46.752,0,0,1,7.009.9ZM93.74,94.963l3.415-3.774a21.02,21.02,0,0,0,3.594.9l1.078,4.852h1.617a110.143,110.143,0,0,1-2.875,14.2,236.37,236.37,0,0,0-28.215-2.157V77.351l2.516,4.313L79.9,80.047a33.212,33.212,0,0,0,2.516,2.516L80.8,87.415Zm5.391,20.308c-5.751,16.354-15.635,27.317-26.778,28.575V113.294A215.7,215.7,0,0,1,99.132,115.271Zm-58.048,0a256.788,256.788,0,0,1,26.957-1.977v30.552C56.719,142.588,46.835,131.446,41.084,115.271Zm-1.258-4.133A100.214,100.214,0,0,1,36.231,85.8h31.81v23.183A236.368,236.368,0,0,0,39.826,111.138Zm27.5-42.413.719,1.258v11.5H36.231a93.647,93.647,0,0,1,3.774-25.34,219.963,219.963,0,0,0,24.8,1.977v2.516L70.557,61.9c.359,1.078.539,2.157.9,3.235ZM53.484,25.593C46.655,31.344,40.9,40.33,37.13,51.293c-5.391-.9-10.783-1.977-15.635-3.235A60.253,60.253,0,0,1,53.484,25.593ZM18.8,51.832a155.547,155.547,0,0,0,16.893,3.594,99.085,99.085,0,0,0-3.774,26.059H9.813A60.386,60.386,0,0,1,18.8,51.832ZM9.813,85.8h22.1a98.824,98.824,0,0,0,3.774,25.879A155.542,155.542,0,0,0,18.8,115.271,59.16,59.16,0,0,1,9.813,85.8Zm11.5,33.247q7.548-1.887,15.635-3.235c3.774,10.963,9.345,19.948,15.995,25.7a60.741,60.741,0,0,1-31.63-22.464ZM87.271,141.51c6.649-5.751,12.4-14.557,16.174-25.7q8.087,1.348,15.635,3.235A60.9,60.9,0,0,1,87.27,141.51ZM121.6,115.271a161.741,161.741,0,0,0-16.714-3.594,118.526,118.526,0,0,0,3.055-14.737h8.986L118,91.729c1.258-.359,2.336-.719,3.415-1.078l3.594,3.954,5.032-3.055a62.419,62.419,0,0,1-8.447,23.722Zm24.262-46.546L141.9,75.734l-5.032-1.617L131.3,80.047l1.617,5.032-7.009,3.954-3.235-3.594-8.267,2.516-1.078,4.673h-8.087l-1.078-4.133-8.447-2.157-3.055,3.415L85.653,85.8l1.438-4.313-6.11-6.11-4.493,1.438L72.534,69.8l3.594-3.235-2.157-8.087L68.94,57.4V49.316l5.212-1.078,2.336-7.548-4.313-3.954,3.954-7.009,5.751,1.8,5.032-4.852-1.977-6.29,7.009-3.954,4.313,4.852,6.47-1.617,1.438-6.829h8.087l1.617,7.009,6.29,1.617,4.852-5.391,7.009,3.954-2.157,6.649,4.673,4.313,6.649-2.157,3.774,6.829-4.852,4.493,2.157,6.649,6.47,1.438v8.087L142.8,57.583l-1.617,7.189Z" transform="translate(-5.5 -8.7)" fill="#445976"/>
      <path id="Trazado_756093" data-name="Trazado 756093" d="M72.186,22A21.386,21.386,0,1,0,93.572,43.386,21.437,21.437,0,0,0,72.186,22Zm0,38.279A17.073,17.073,0,1,1,89.259,43.206,17.065,17.065,0,0,1,72.186,60.279Z" transform="translate(30.611 1.902)" fill="#445976"/>
    </g>
  </g>
</svg>
