<svg xmlns="http://www.w3.org/2000/svg" xmlns:xlink="http://www.w3.org/1999/xlink" width="83" height="79" viewBox="0 0 83 79">
  <defs>
    <clipPath id="clip-path">
      <rect id="Rectángulo_358097" data-name="Rectángulo 358097" width="83" height="79" transform="translate(0.467 -0.198)" fill="none"/>
    </clipPath>
  </defs>
  <g id="Grupo_1021729" data-name="Grupo 1021729" transform="translate(-0.467 0.198)">
    <g id="Grupo_1021724" data-name="Grupo 1021724">
      <g id="Grupo_1021723" data-name="Grupo 1021723" clip-path="url(#clip-path)">
        <path id="Trazado_752631" data-name="Trazado 752631" d="M70.3,35.848A29.375,29.375,0,1,1,40.929,6.477,29.374,29.374,0,0,1,70.3,35.848" transform="translate(3.838 2.152)" fill="#57dbd8"/>
        <path id="Trazado_752632" data-name="Trazado 752632" d="M61.237,36.333l3-1.2L59.042,19.748l-7.994,2.7-8.191-1.795-.9-2.9-9.7-1-10.386,3.4-5.6,16.487a6.553,6.553,0,0,0,2.1,2.294,2.747,2.747,0,0,0,1.5,2.5,3.058,3.058,0,0,0,2.794-.2l1.6.8a2.568,2.568,0,0,0,1.4,2.393,3.071,3.071,0,0,0,2.8-.2l1.295.7a2.747,2.747,0,0,0,1.5,2.5,2.949,2.949,0,0,0,3-.3l1.3.6a2.671,2.671,0,0,0,1.5,2.4,2.952,2.952,0,0,0,3-.3l3.3,1.7a2.591,2.591,0,0,0,3.392-1.1,2.631,2.631,0,0,0-.3-2.7c.1-.2.3-.4.4-.6l2.1,1.1a2.6,2.6,0,0,0,3.4-1.1,2.515,2.515,0,0,0-.8-3.2c-.1-.1-2.4-1.295-2.4-1.295l.2-.4,5,2.5a2.524,2.524,0,0,0,2.294-4.5l-5-2.5c.1-.2.1-.3.2-.5l7.29,3.694a2.588,2.588,0,0,0,3.4-1.1,2.985,2.985,0,0,0-1.3-3.5" transform="translate(5.407 5.566)" fill="#fff"/>
        <path id="Trazado_752633" data-name="Trazado 752633" d="M76.558,36.486a1.16,1.16,0,0,0-1.5-.8l-2.6.894L66.369,18.6l3.4-1.394a1.26,1.26,0,0,0,.7-1.6,1.171,1.171,0,0,0-1.6-.7L60.873,18.1a1.2,1.2,0,0,0-.7,1.5l.105.2-6.7,2.2-7.494-1.6-.7-2.4a1.533,1.533,0,0,0-1-.9l-9.492-.894c-.2,0-6.495,2.1-9.394,3a1.21,1.21,0,0,0-.8-1l-8.592-2.9a1.2,1.2,0,1,0-.7,2.294L19.2,18.9,13.01,37.084l-2.5-.7a1.2,1.2,0,1,0-.7,2.3l7.494,2.1a1.263,1.263,0,0,0,1.394-.8l.105-.4a4.109,4.109,0,0,0,.7.6c0,.2-.1,1.7,2,2.6a3.824,3.824,0,0,0,3.1.1l.9.5a2.827,2.827,0,0,0,1.9,2.3,4.237,4.237,0,0,0,3,.1l.7.3a2.7,2.7,0,0,0,1.9,2.4,4.316,4.316,0,0,0,3.1.1l.8.5a2.707,2.707,0,0,0,1.9,2.2c1,.4,2.6.5,3.1.1l3.1,1.5a3.684,3.684,0,0,0,5-1.7,3.916,3.916,0,0,0,.4-1.8,7.707,7.707,0,0,1,1.1.4,4.029,4.029,0,0,0,4.194-2,3.9,3.9,0,0,0,.4-1.8,3.684,3.684,0,0,0,4.9-1.7,4.3,4.3,0,0,0,.4-1.9,3.364,3.364,0,0,0,4.4-1.9,3.894,3.894,0,0,0,.2-2.794c-.1-.2.2-.6.2-.6s.8,2.5.8,2.6a1.141,1.141,0,0,0,1.4.7l7.4-2.4a1.16,1.16,0,0,0,.8-1.5m-59.65,1.7-1.6-.4L21.5,19.7l1.4.5Zm5.693,2.6c-1.2-.5-.6-1.8-.6-1.8l.9-1.795a1.339,1.339,0,0,1,1.795-.6,1.278,1.278,0,0,1,.6,1.7l-.9,1.795a1.355,1.355,0,0,1-1.8.7m5.9,2.9a1.231,1.231,0,0,1-.6-1.8L30,37.689a1.347,1.347,0,0,1,1.8-.6,1.269,1.269,0,0,1,.6,1.7l-2.1,4.194a1.245,1.245,0,0,1-1.8.7m5.594,2.892c-1.2-.5-.6-1.7-.6-1.795l2.6-5.2a1.269,1.269,0,0,1,1.7-.6,1.087,1.087,0,0,1,.7,1.6l-2.6,5.2c-.1.2-.8,1.295-1.8.8m5.594,2.7a1.2,1.2,0,0,1-.5-1.8l.9-1.795a1.226,1.226,0,0,1,1.6-.6,1.17,1.17,0,0,1,.6,1.8l-.9,1.8a1.269,1.269,0,0,1-1.7.6m23.685-9.7a1.123,1.123,0,0,1-1.7.5l-7.29-3.694a1.261,1.261,0,0,0-1.7.7,1.379,1.379,0,0,0,.5,1.9l5,2.5a1.178,1.178,0,0,1,.6,1.8,1.376,1.376,0,0,1-1.8.6l-5-2.5a1.161,1.161,0,0,0-1.6.5l-.2.4a1.34,1.34,0,0,0,.5,1.6l2.1,1.1a1.342,1.342,0,0,1-1.2,2.4l-2.1-1.1a1.161,1.161,0,0,0-1.6.5c-.1.2-.2.3-.3.5a1.374,1.374,0,0,0,0,1.5,1.4,1.4,0,0,1,.1,1.4,1.372,1.372,0,0,1-1.795.6l-2.2-1.1.9-1.8a3.652,3.652,0,0,0-1.7-5,3.7,3.7,0,0,0-2.8-.3s.6-1.2.6-1.295a4.04,4.04,0,0,0-1.795-4.7,4.359,4.359,0,0,0-4.2.5A3.763,3.763,0,0,0,32.8,34.691a3.327,3.327,0,0,0-4.2.7c-.4.5-1,1.4-1,1.4a3.039,3.039,0,0,0-1.9-2.5,3.663,3.663,0,0,0-5,1.7l-.7,1.4c-.1-.2-.2-.3-.3-.5L24.7,22l10.295-3.4,8.395.8.2.4a4.358,4.358,0,0,0-1.795-.2s-8.493,1.7-9.394,2a1.165,1.165,0,0,0-.7.8L29.9,30.99c-.3,1.3,2.5,1.7,2.5,1.7a5.654,5.654,0,0,0,6.593-4.4l3.4-.4c.1.1,4.9,3.195,4.9,3.195.1,0,3.1.6,3.195.6l12.392,6.192c.2.2,1.1.6.5,1.7m.2-4.1L51.282,29.294c-.2-.1-3.1-.5-3.4-.6-.8-.5-3.4-2.5-4-3a2.41,2.41,0,0,0-1.6-.5c-1.1.1-4.5.7-4.5.7a1.285,1.285,0,0,0-1.1,1l-.2.9a3.224,3.224,0,0,1-3.3,2.6c-.1,0-.8-.2-.8-.2l1.4-6.7,8.493-1.6s11.491,2.6,11.688,2.5L60.972,22l4.3,12.891ZM62.871,20l1.295-.5,6.1,17.789-1.4.5Z" transform="translate(2.978 4.913)" fill="#1a0f91"/>
        <path id="Trazado_752634" data-name="Trazado 752634" d="M6.426,77.935a1.214,1.214,0,0,1-.2-1.5l8.1-15.284a37.244,37.244,0,1,1,8.289,7.593L7.924,78.04a1.385,1.385,0,0,1-1.5-.105M43.4,2.4A35.017,35.017,0,0,0,16.713,60.153a1.056,1.056,0,0,1,.105,1.295l-6.4,12.1,11.589-7.3a1.224,1.224,0,0,1,1.3,0A35.081,35.081,0,1,0,43.4,2.4" transform="translate(1.969 0.034)" fill="#fff"/>
      </g>
    </g>
    <g id="Grupo_1021726" data-name="Grupo 1021726">
      <g id="Grupo_1021725" data-name="Grupo 1021725" clip-path="url(#clip-path)">
        <path id="Trazado_752635" data-name="Trazado 752635" d="M4.431,16.805a1.194,1.194,0,0,1-.5-1.6,33.668,33.668,0,0,1,2.4-4.1,1.164,1.164,0,0,1,1.7-.3,1.245,1.245,0,0,1,.3,1.7,36.889,36.889,0,0,0-2.294,3.9,1.139,1.139,0,0,1-1.6.4" transform="translate(1.261 3.512)" fill="#fff"/>
        <path id="Trazado_752636" data-name="Trazado 752636" d="M9.174,56.478A40.906,40.906,0,0,1,1.68,20.8a1.348,1.348,0,0,1,1.5-.9,1.345,1.345,0,0,1,.894,1.5,38.86,38.86,0,0,0,6.994,33.579,1.242,1.242,0,0,1-.2,1.7,1.22,1.22,0,0,1-1.7-.2" transform="translate(0.121 6.608)" fill="#fff"/>
      </g>
    </g>
    <g id="Grupo_1021728" data-name="Grupo 1021728">
      <g id="Grupo_1021727" data-name="Grupo 1021727" clip-path="url(#clip-path)">
        <path id="Trazado_752637" data-name="Trazado 752637" d="M61.72,4.875h-2.3v-2.3H57.026v2.3h-2.2v2.4h2.2v2.2h2.393v-2.2h2.3Z" transform="translate(18.217 0.855)" fill="#fff"/>
      </g>
    </g>
  </g>
</svg>
