<svg xmlns="http://www.w3.org/2000/svg" width="90" height="90" viewBox="0 0 90 90">
  <g id="Grupo_1021646" data-name="Grupo 1021646" transform="translate(-443 -3434)">
    <rect id="Rectángulo_346076" data-name="Rectángulo 346076" width="90" height="90" transform="translate(443 3434)" fill="none"/>
    <g id="_010-distribution" data-name="010-distribution" transform="translate(449 3440)">
      <circle id="Elipse_8529" data-name="Elipse 8529" cx="5" cy="5" r="5" transform="translate(34.011 1.7)" fill="#aadff1"/>
      <path id="Trazado_752427" data-name="Trazado 752427" d="M58.668,54.89V42.3L47.334,36,36,42.3V54.89l11.334,6.3Z" transform="translate(8.076 8.076)" fill="#fab349"/>
      <path id="Trazado_752428" data-name="Trazado 752428" d="M56.334,41V53.593L45,59.89V47.3Z" transform="translate(10.41 9.373)" fill="#fcd192"/>
      <path id="Trazado_752429" data-name="Trazado 752429" d="M32.668,54.89V42.3L21.334,36,10,42.3V54.89l11.334,6.3Z" transform="translate(1.334 8.076)" fill="#fab349"/>
      <path id="Trazado_752430" data-name="Trazado 752430" d="M30.334,41V53.593L19,59.89V47.3Z" transform="translate(3.668 9.373)" fill="#fcd192"/>
      <path id="Trazado_752431" data-name="Trazado 752431" d="M45.668,42.89V30.3L34.334,24,23,30.3V42.89l11.334,6.3Z" transform="translate(4.705 4.964)" fill="#fab349"/>
      <path id="Trazado_752432" data-name="Trazado 752432" d="M43.334,29V41.593L32,47.89V35.3Z" transform="translate(7.039 6.261)" fill="#fcd192"/>
      <g id="Grupo_1021644" data-name="Grupo 1021644" transform="translate(2.519 16.371)">
        <path id="Trazado_752433" data-name="Trazado 752433" d="M36.556,21.556H29L32.778,14Z" transform="translate(3.742 -14)" fill="#ef9596"/>
        <path id="Trazado_752434" data-name="Trazado 752434" d="M54.54,60.979l5.339-5.339,2.67,8.009Z" transform="translate(10.365 -3.202)" fill="#ef9596"/>
        <path id="Trazado_752435" data-name="Trazado 752435" d="M5.67,55.64l5.339,5.339L3,63.649Z" transform="translate(-3 -3.202)" fill="#ef9596"/>
        <path id="Trazado_752436" data-name="Trazado 752436" d="M54.929,37.059,49.59,31.72,57.6,29.05Z" transform="translate(9.081 -10.097)" fill="#ef9596"/>
        <path id="Trazado_752437" data-name="Trazado 752437" d="M16.059,31.72,10.72,37.059,8.05,29.05Z" transform="translate(-1.69 -10.097)" fill="#ef9596"/>
      </g>
      <circle id="Elipse_8530" data-name="Elipse 8530" cx="5" cy="5" r="5" transform="translate(1.011 21.7)" fill="#aadff1"/>
      <circle id="Elipse_8531" data-name="Elipse 8531" cx="5" cy="5" r="5" transform="translate(67.011 21.7)" fill="#aadff1"/>
      <path id="Trazado_752438" data-name="Trazado 752438" d="M18.86,35.577a1.259,1.259,0,0,0-.831-.907L10.02,32a1.24,1.24,0,0,0-1.285.3,1.272,1.272,0,0,0-.3,1.285L11.1,41.6a1.259,1.259,0,0,0,.907.831,1.143,1.143,0,0,0,.29.038,1.268,1.268,0,0,0,.894-.365l1.776-1.776L18.1,43.46l-6.637,3.69a1.25,1.25,0,0,0-.642,1.1V60.838a1.26,1.26,0,0,0,.642,1.1l1.776.982L8.609,67.551,6.834,65.775a1.31,1.31,0,0,0-1.184-.34,1.259,1.259,0,0,0-.907.831l-2.67,8.009a1.24,1.24,0,0,0,.3,1.285,1.268,1.268,0,0,0,.894.365,1.492,1.492,0,0,0,.4-.063l8.009-2.67a1.259,1.259,0,0,0,.491-2.09L10.4,69.326l5.151-5.151,7.266,4.042a1.328,1.328,0,0,0,.617.164,1.225,1.225,0,0,0,.617-.164l11.334-6.3a1.25,1.25,0,0,0,.642-1.1v-9.47l3.161,1.763a1.328,1.328,0,0,0,.617.164,1.225,1.225,0,0,0,.617-.164l3.161-1.763v9.47a1.26,1.26,0,0,0,.642,1.1l11.334,6.3a1.328,1.328,0,0,0,.617.164,1.225,1.225,0,0,0,.617-.164l7.178-3.992,5.1,5.1L67.293,71.1a1.259,1.259,0,0,0,.491,2.09l8.009,2.67a1.082,1.082,0,0,0,.4.063,1.268,1.268,0,0,0,.894-.365,1.246,1.246,0,0,0,.3-1.285l-2.67-8.009a1.259,1.259,0,0,0-2.09-.491l-1.776,1.776-4.6-4.6,1.864-1.033a1.25,1.25,0,0,0,.642-1.1V48.233a1.26,1.26,0,0,0-.642-1.1l-6.637-3.69,3.136-3.136L66.4,42.087a1.246,1.246,0,0,0,.894.365.766.766,0,0,0,.29-.038,1.259,1.259,0,0,0,.907-.831l2.67-8.009a1.254,1.254,0,0,0-1.587-1.587l-8.009,2.67a1.259,1.259,0,0,0-.491,2.09l1.776,1.776L59.2,42.175,56.791,40.84a1.242,1.242,0,0,0-1.222,0L52.408,42.6v-9.47a1.26,1.26,0,0,0-.642-1.1L41.074,26.106V23.072h2.519a1.258,1.258,0,0,0,1.07-.592,1.242,1.242,0,0,0,.05-1.222L40.936,13.7a1.31,1.31,0,0,0-2.254,0L34.9,21.258a1.275,1.275,0,0,0,.05,1.222,1.258,1.258,0,0,0,1.07.592h2.519v3.035L27.852,32.038a1.25,1.25,0,0,0-.642,1.1V42.6L24.049,40.84a1.242,1.242,0,0,0-1.222,0l-2.405,1.335L16.77,38.523l1.776-1.776a1.255,1.255,0,0,0,.34-1.184ZM5.247,72.7l1.234-3.69,2.456,2.456Zm67.7-3.69,1.234,3.69-3.69-1.234Zm-5-33.825-1.234,3.69L64.258,36.42Zm-45.8,29.808-8.815-4.9V50.386l8.815,4.9Zm11.334-4.9-8.815,4.9V55.285l8.815-4.9Zm21.408,4.9-8.815-4.9V50.386l8.815,4.9Zm11.334-4.9-8.815,4.9V55.285l8.815-4.9ZM52.37,45.727v-.239l3.778-2.09,8.74,4.861-8.74,4.861-7.858-4.37,3.438-1.914a1.25,1.25,0,0,0,.642-1.1Zm-2.519-.743-8.815,4.9V40.173l8.815-4.9ZM38.04,20.54l1.738-3.476,1.738,3.476Zm.479,8.437v2.9h2.519v-2.9l7.48,4.156-8.74,4.861-8.74-4.861Zm-8.815,6.3,8.815,4.9v9.709l-8.815-4.9Zm-6.3,8.11,3.778,2.09v.239a1.26,1.26,0,0,0,.642,1.1l3.438,1.914-7.858,4.37-8.74-4.861,8.74-4.861ZM12.841,38.876l-1.234-3.69L15.3,36.42Z" transform="translate(-0.739 2.127)"/>
      <path id="Trazado_752439" data-name="Trazado 752439" d="M28.914,2.4a6.3,6.3,0,1,0,8.765,0l-1.75,1.8a3.778,3.778,0,1,1-5.239,0l-1.75-1.8Z" transform="translate(5.742 -0.637)"/>
      <path id="Trazado_752440" data-name="Trazado 752440" d="M7.3,17a6.3,6.3,0,1,0,6.3,6.3A6.3,6.3,0,0,0,7.3,17Zm0,10.075A3.778,3.778,0,1,1,11.075,23.3,3.789,3.789,0,0,1,7.3,27.075Z" transform="translate(-1 3.149)"/>
      <path id="Trazado_752441" data-name="Trazado 752441" d="M59.3,17a6.3,6.3,0,1,0,6.3,6.3A6.3,6.3,0,0,0,59.3,17Zm0,10.075A3.778,3.778,0,1,1,63.075,23.3,3.789,3.789,0,0,1,59.3,27.075Z" transform="translate(12.484 3.149)"/>
      <path id="Trazado_752442" data-name="Trazado 752442" d="M31,1h2.519V3.519H31Z" transform="translate(6.779 -1)"/>
    </g>
  </g>
</svg>
