<svg xmlns="http://www.w3.org/2000/svg" xmlns:xlink="http://www.w3.org/1999/xlink" width="525" height="317" viewBox="0 0 525 317">
  <defs>
    <clipPath id="clip-path">
      <rect id="Rectángulo_358019" data-name="Rectángulo 358019" width="430.894" height="276.467" fill="none"/>
    </clipPath>
    <clipPath id="clip-path-3">
      <rect id="Rectángulo_358007" data-name="Rectángulo 358007" width="376.007" height="203.739" fill="none"/>
    </clipPath>
    <clipPath id="clip-path-5">
      <rect id="Rectángulo_358009" data-name="Rectángulo 358009" width="100.253" height="54.321" fill="none"/>
    </clipPath>
    <clipPath id="clip-path-6">
      <rect id="Rectángulo_358010" data-name="Rectángulo 358010" width="100.246" height="54.321" fill="none"/>
    </clipPath>
    <clipPath id="clip-path-8">
      <rect id="Rectángulo_358012" data-name="Rectángulo 358012" width="15.859" height="9.193" fill="none"/>
    </clipPath>
    <clipPath id="clip-path-9">
      <rect id="Rectángulo_358013" data-name="Rectángulo 358013" width="69.263" height="37.534" fill="none"/>
    </clipPath>
    <clipPath id="clip-path-10">
      <rect id="Rectángulo_358015" data-name="Rectángulo 358015" width="101.524" height="55.014" fill="none"/>
    </clipPath>
    <clipPath id="clip-path-11">
      <rect id="Rectángulo_358017" data-name="Rectángulo 358017" width="189.382" height="102.706" fill="none"/>
    </clipPath>
  </defs>
  <g id="Grupo_1021606" data-name="Grupo 1021606" transform="translate(8070 8474)">
    <rect id="AdobeStock_36302863" width="525" height="317" rx="15" transform="translate(-8070 -8474)" fill="none"/>
    <g id="Grupo_1021605" data-name="Grupo 1021605" transform="translate(-8023.413 -8453.733)">
      <g id="Grupo_1021604" data-name="Grupo 1021604" clip-path="url(#clip-path)">
        <g id="Grupo_1021581" data-name="Grupo 1021581">
          <g id="Grupo_1021580" data-name="Grupo 1021580" clip-path="url(#clip-path)">
            <g id="Grupo_1021579" data-name="Grupo 1021579" transform="translate(54.887 72.728)" opacity="0.3">
              <g id="Grupo_1021578" data-name="Grupo 1021578">
                <g id="Grupo_1021577" data-name="Grupo 1021577" clip-path="url(#clip-path-3)">
                  <path id="Trazado_752014" data-name="Trazado 752014" d="M226.123,287.13,62.933,198.687l212.8-115.3,163.2,88.428Z" transform="translate(-62.933 -83.391)"/>
                </g>
              </g>
            </g>
          </g>
        </g>
        <path id="Trazado_752015" data-name="Trazado 752015" d="M267.745,84.759l-13,13.223-20.5,4.942-171.306,92.8,163.19,88.43,171.321-92.8,7.413-17.874,26.11-.279,7.974-4.327-163.2-88.436Z" transform="translate(-8.047 -10.286)" fill="#fff"/>
        <path id="Trazado_752016" data-name="Trazado 752016" d="M422.559,191.99l33.532-18.153L292.86,85.392l-33.506,18.166Z" transform="translate(-33.162 -10.919)" fill="#57dbd8"/>
        <g id="Grupo_1021589" data-name="Grupo 1021589">
          <g id="Grupo_1021588" data-name="Grupo 1021588" clip-path="url(#clip-path)">
            <g id="Grupo_1021584" data-name="Grupo 1021584" transform="translate(185.364 125.724)" opacity="0.5">
              <g id="Grupo_1021583" data-name="Grupo 1021583">
                <g id="Grupo_1021582" data-name="Grupo 1021582" clip-path="url(#clip-path-5)">
                  <path id="Trazado_752017" data-name="Trazado 752017" d="M244.646,144.156l-32.106,17.4,68.149,36.923,32.1-17.388Zm36.043,50.579-61.245-33.181,25.2-13.653,61.232,33.188Z" transform="translate(-212.54 -144.156)" fill="#6cb5c4"/>
                  <path id="Trazado_752018" data-name="Trazado 752018" d="M297.727,181.244l-45.235-24.5-16.74,9.066,45.231,24.5Z" transform="translate(-215.508 -145.765)" fill="#6cb5c4"/>
                </g>
              </g>
            </g>
            <g id="Grupo_1021587" data-name="Grupo 1021587" transform="translate(216.114 127.198)" opacity="0.7">
              <g id="Grupo_1021586" data-name="Grupo 1021586">
                <g id="Grupo_1021585" data-name="Grupo 1021585" clip-path="url(#clip-path-6)">
                  <path id="Trazado_752019" data-name="Trazado 752019" d="M279.9,145.846l-32.1,17.4,68.15,36.919,32.1-17.389Zm36.046,50.58L254.7,163.248,279.9,149.6l61.235,33.182Z" transform="translate(-247.798 -145.846)" fill="#6cb5c4"/>
                  <path id="Trazado_752020" data-name="Trazado 752020" d="M332.985,182.937l-45.239-24.513L271,167.494l45.231,24.513Z" transform="translate(-250.765 -147.454)" fill="#6cb5c4"/>
                </g>
              </g>
            </g>
          </g>
        </g>
        <path id="Trazado_752021" data-name="Trazado 752021" d="M198.231,238.83l-74.612-40.419,5.774-3.1,74.57,40.4Z" transform="translate(-15.806 -24.973)" fill="#e0dedc"/>
        <path id="Trazado_752022" data-name="Trazado 752022" d="M267.719,260.108,138.772,190.232l5.76-3.107L273.45,256.993Z" transform="translate(-17.744 -23.927)" fill="#e0dedc"/>
        <path id="Trazado_752023" data-name="Trazado 752023" d="M227.879,234.853l-16.272,2.363-11.939,6.469-4.365,8.824,4.381,8.816,11.91,6.469,16.294,2.38,16.278-2.38,11.929-6.469,4.365-8.816-4.351-8.824-11.934-6.469Zm24.157,10.1,3.733,7.554-3.733,7.55-10.208,5.533-13.941,2.034-13.949-2.034-10.2-5.533L200,252.509l3.733-7.546,10.213-5.555,13.94-2.021,13.941,2.021Z" transform="translate(-24.972 -30.029)" fill="#6cb5c4"/>
        <path id="Trazado_752024" data-name="Trazado 752024" d="M223.658,247.448l-5.108,2.773-1.869,3.77,1.869,3.771,5.108,2.769,6.955,1.01,6.963-1.01,5.108-2.769,1.878-3.771-1.878-3.783-5.085-2.76-6.986-1Z" transform="translate(-27.706 -31.512)" fill="#6cb5c4"/>
        <path id="Trazado_752025" data-name="Trazado 752025" d="M218.469,243.049l-8.04,4.36-2.935,5.946,2.935,5.943,8.04,4.364,10.969,1.586,10.991-1.586,8.031-4.364,2.928-5.943-2.928-5.946-8.031-4.36-10.991-1.583Zm28.634,4.79,2.745,5.516-2.745,5.513-7.471,4.055-10.194,1.466-10.186-1.466-7.471-4.055-2.728-5.513,2.728-5.516,7.471-4.047,10.186-1.491,10.212,1.491Z" transform="translate(-26.531 -30.875)" fill="#6cb5c4"/>
        <path id="Trazado_752026" data-name="Trazado 752026" d="M255.606,122.116,189.184,158.1l128.877,69.893,66.465-36.014ZM197.442,158.1l58.164-31.516,120.652,65.395L318.07,223.517Z" transform="translate(-24.19 -15.614)" fill="#e0dedc"/>
        <path id="Trazado_752027" data-name="Trazado 752027" d="M255.68,230.654l45.707,24.768,1.7-.919-45.716-24.767Z" transform="translate(-32.692 -29.375)" fill="#b5afa7"/>
        <g id="Grupo_1021603" data-name="Grupo 1021603">
          <g id="Grupo_1021602" data-name="Grupo 1021602" clip-path="url(#clip-path)">
            <path id="Trazado_752028" data-name="Trazado 752028" d="M297.375,237.427,302.163,243l-4.6-5.708-.045-.051-.126.025-1.593.213.65-1.586,1.251-.134.151-.008.085-.063,7.035-3.424.174-.071v-.118l.579-5.362.058-.726-.948.53-6.964,3.7-.093.042-.017.084-2.02,5.041-3.774.4-2.919-.514.28-1.992.067-.464h-.854l-6.435.092c-.142-1.131-.311-2.251-.489-3.353l-.1-.568-1.015.175-8.739,1.553c.169-.392.351-.793.538-1.173l.013-.037-.013-.025q-1.534-3.076-3.087-6.147,1.274,3.087,2.634,6.159c-.227.46-.459.882-.7,1.333l-18.413,3.223-.446.088-.088.238c-.757,2.459-1.46,4.881-2.19,7.341l-.164.606,1.063-.235,16.948-3.541.218-.046.063-.113c1.073-2.217,2.1-4.451,3.124-6.681L280,230.219c.133.89.267,1.8.427,2.7l-2.154.012-.525.013-.2.25-2.608,3.244-.77.973,1.838-.388,5.954-1.224.574-.142-.058-.334c-.072-.53-.169-1.057-.241-1.575l5.487-.058-.16,1.306-2.7-.451-.57-.113-.178.343-2.532,4.589-.423.777,1.406-.338,5.617-1.37.4-.084.04-.255.32-2.217,2.82.467.129.021.139,0,3.475-.376-.654,1.62-3.555.481-.143.008-.04.1-2.064,3.771-.3.551.877-.33,4.912-1.9.125-.046.045-.1,1.006-2.456Zm-26.76-5.6c-1.122,2.088-2.252,4.185-3.329,6.293l-15.769,3.1c.726-2.147,1.41-4.306,2.1-6.464Zm9.954,1.95c.079.422.138.848.2,1.286l-3.533.764,1.575-2.025Zm6.608,4.034-3.845.961,1.78-3.508,2.354.388Zm10.18-2.589-.668.076,1.945-4.781,5.972-3.1-.481,4.514Zm-3.444,4.744-3.893,1.545,1.579-3.144,3.15-.522Z" transform="translate(-31.947 -28.557)" fill="#836e69"/>
            <path id="Trazado_752029" data-name="Trazado 752029" d="M279.17,202.747l-1.326-.409.079,10.941Z" transform="translate(-35.526 -25.872)" fill="#836e69"/>
            <path id="Trazado_752030" data-name="Trazado 752030" d="M280.983,202.768l-1.419.058-1.629,10.507Z" transform="translate(-35.538 -25.927)" fill="#403531"/>
            <path id="Trazado_752031" data-name="Trazado 752031" d="M280,203.155l-.191-.463-1.117.3-.757,10.336Z" transform="translate(-35.538 -25.917)" fill="#685750"/>
            <path id="Trazado_752032" data-name="Trazado 752032" d="M288.512,183.882l-7.68-4.226-6.763,2.431,1.708,7.028,2.1,12.01,1.811.222,4.183-11.3Z" transform="translate(-35.043 -22.971)" fill="#d1d1d1"/>
            <path id="Trazado_752033" data-name="Trazado 752033" d="M289.335,184.5l-4.556,1.758-4.272,15.705,1.33-.526Z" transform="translate(-35.867 -23.591)" fill="#adadad"/>
            <path id="Trazado_752034" data-name="Trazado 752034" d="M277.984,185.24l-3.916-2.8,2.643,18.22,1.161.819Z" transform="translate(-35.043 -23.328)" fill="#e6e1dd"/>
            <path id="Trazado_752035" data-name="Trazado 752035" d="M295.354,105.575l-6.274-.806-4.093-2.932.48-3.37,4.753-1.874,6.26.774,4.08,2.98-.484,3.368Z" transform="translate(-36.44 -12.351)" fill="#785b56"/>
            <path id="Trazado_752036" data-name="Trazado 752036" d="M287.625,105.538l-4.094-2.932-9.928,70.1,4.072,2.952L284.83,141.8Z" transform="translate(-34.984 -13.12)" fill="#fa5c52"/>
            <path id="Trazado_752037" data-name="Trazado 752037" d="M294.5,106.774l-6.274-.806-9.949,70.124,6.261.786L291.71,142.1Z" transform="translate(-35.581 -13.549)" fill="#c84030"/>
            <path id="Trazado_752038" data-name="Trazado 752038" d="M300.135,104.758l-4.722,1.86-9.962,70.1,4.761-1.845Z" transform="translate(-36.499 -13.395)" fill="#8a1c14"/>
            <g id="Grupo_1021592" data-name="Grupo 1021592" transform="translate(247.888 88.613)" opacity="0.3">
              <g id="Grupo_1021591" data-name="Grupo 1021591">
                <g id="Grupo_1021590" data-name="Grupo 1021590" clip-path="url(#clip-path-8)">
                  <path id="Trazado_752039" data-name="Trazado 752039" d="M300.09,103.48l-4.738,1.842-6.27-.767-4.068-2.95-.783,5.448,4.094,2.979,6.238.766,4.779-1.844Z" transform="translate(-284.231 -101.605)"/>
                </g>
              </g>
            </g>
            <path id="Trazado_752040" data-name="Trazado 752040" d="M304.685,41.345l-7.138-.9-4.658-3.343.556-3.871,5.42-2.1,7.155.883,4.632,3.365-.529,3.887Z" transform="translate(-37.45 -3.98)" fill="#d1d1d1"/>
            <path id="Trazado_752041" data-name="Trazado 752041" d="M296.33,41.325l-4.658-3.343-8.308,58.672,4.672,3.376,8.624-58.139Z" transform="translate(-36.232 -4.857)" fill="#fa5c52"/>
            <path id="Trazado_752042" data-name="Trazado 752042" d="M304.152,42.711l-7.138-.9-8.294,58.705,7.12.877,8.81-58.213Z" transform="translate(-36.917 -5.347)" fill="#c84030"/>
            <path id="Trazado_752043" data-name="Trazado 752043" d="M310.634,40.458l-5.438,2.08-8.311,58.687,5.451-2.1Z" transform="translate(-37.961 -5.173)" fill="#8a1c14"/>
            <path id="Trazado_752044" data-name="Trazado 752044" d="M292.89,35.081l.556-3.871,7.609-15.916,2.8.336L300.53,34.06Z" transform="translate(-37.45 -1.955)" fill="#d1d1d1"/>
            <path id="Trazado_752045" data-name="Trazado 752045" d="M311.612,37.312l.529-3.89-2.915-17.218-2.786-.361-1.9,18.59Z" transform="translate(-38.939 -2.026)" fill="gray"/>
            <path id="Trazado_752046" data-name="Trazado 752046" d="M303.644,17.35l-2.786-.344L292.89,35.3l4.649,3.353,3.755-8.517Z" transform="translate(-37.45 -2.174)" fill="#e6e1dd"/>
            <path id="Trazado_752047" data-name="Trazado 752047" d="M305.932,16.253l-2.585,1.959-5.126,20.345,7.145.885,1.94-9.609Z" transform="translate(-38.132 -2.078)" fill="#d1d1d1"/>
            <path id="Trazado_752048" data-name="Trazado 752048" d="M309.272,17.732l-2.292-1.478.16,2.288-.726,20.9,5.446-2.08Z" transform="translate(-39.179 -2.078)" fill="#adadad"/>
            <path id="Trazado_752049" data-name="Trazado 752049" d="M306.579,18.3l-2.745-.331-1.806-1.3.2-1.493,2.109-.827,2.768.342,1.806,1.327-.2,1.474Z" transform="translate(-38.618 -1.834)" fill="#f4efe9"/>
            <path id="Trazado_752050" data-name="Trazado 752050" d="M294.324,63.89l-4.663-3.373-.2,1.391,4.69,3.355.534-.8Z" transform="translate(-37.011 -7.738)" fill="#fbe979"/>
            <path id="Trazado_752051" data-name="Trazado 752051" d="M302.162,65.261l-7.151-.877-.178,1.374,7.129.891.7-.906Z" transform="translate(-37.699 -8.232)" fill="#e3bd5e"/>
            <path id="Trazado_752052" data-name="Trazado 752052" d="M308.631,63.005l-5.425,2.079-.2,1.388,5.419-2.1Z" transform="translate(-38.744 -8.056)" fill="#cc934c"/>
            <path id="Trazado_752053" data-name="Trazado 752053" d="M282.868,112.752l-3.658-2.637,8.979-63.276,4.2,2.211Z" transform="translate(-35.701 -5.989)" fill="#d1d1d1"/>
            <path id="Trazado_752054" data-name="Trazado 752054" d="M295.051,49.029l-1.9.309-3.639-2.657,2.8-1.075,3.644,2.627-.832.806Z" transform="translate(-37.018 -5.831)" fill="#f4efe9"/>
            <path id="Trazado_752055" data-name="Trazado 752055" d="M283.4,112.979l8.961-63.255,2.808-1.107-.112.783-2.042.781-8.86,62.52Z" transform="translate(-36.237 -6.216)" fill="#adadad"/>
            <g id="Grupo_1021595" data-name="Grupo 1021595" transform="translate(346.564 169.98)" opacity="0.3">
              <g id="Grupo_1021594" data-name="Grupo 1021594">
                <g id="Grupo_1021593" data-name="Grupo 1021593" clip-path="url(#clip-path-9)">
                  <path id="Trazado_752056" data-name="Trazado 752056" d="M432.01,232.435l-34.636-18.758L432.01,194.9l34.627,18.775Z" transform="translate(-397.374 -194.901)"/>
                </g>
              </g>
            </g>
            <path id="Trazado_752057" data-name="Trazado 752057" d="M476.562,164.785l-5.153-.05V177.5l2.608,4.915,2.545-1.369Z" transform="translate(-60.276 -21.064)" fill="#231f20"/>
            <path id="Trazado_752058" data-name="Trazado 752058" d="M469.234,163.564,434.006,144.47v16.263l35.228,19.093Z" transform="translate(-55.494 -18.472)" fill="#414042"/>
            <path id="Trazado_752059" data-name="Trazado 752059" d="M431.522,143.126v45.088l32.692,17.715,1.116-8.652V159.655Z" transform="translate(-55.176 -18.301)" fill="#857f79"/>
            <path id="Trazado_752060" data-name="Trazado 752060" d="M436.215,191.625l.347,34.419,28.785-15.6v-34.2Zm26.142,12.816-2.212,3.62-19.784,10.7-2.22-1.19V194.236l2.22-3.617,19.784-10.7,2.212,1.2Z" transform="translate(-55.776 -22.535)" fill="#d8d1c7"/>
            <path id="Trazado_752061" data-name="Trazado 752061" d="M402.307,164.8v45.075L432.64,226.31l1.122-8.639V180.028Z" transform="translate(-51.441 -21.072)" fill="#d8d1c7"/>
            <path id="Trazado_752062" data-name="Trazado 752062" d="M421.114,215.554V217l-3.582-1.947V178.956l1.348.735.7,33.233Z" transform="translate(-53.387 -22.882)" fill="#a39c95"/>
            <path id="Trazado_752063" data-name="Trazado 752063" d="M421.312,181.027v34.635l-2.234-1.224V179.8Z" transform="translate(-53.585 -22.99)" fill="#e6e1dd"/>
            <path id="Trazado_752064" data-name="Trazado 752064" d="M437.087,181.242v45.078l30.156-16.339V164.889Zm27.192,22.741-2.22,3.6L442.281,218.3l-2.22-1.206V193.744l2.22-3.591,19.778-10.716,2.22,1.211Z" transform="translate(-55.888 -21.083)" fill="#a39c95"/>
            <path id="Trazado_752065" data-name="Trazado 752065" d="M396.522,120.637l6.986-11.342,5.571,3.491-4.917,10.3Z" transform="translate(-50.701 -13.975)" fill="#6d6e71"/>
            <path id="Trazado_752066" data-name="Trazado 752066" d="M468.528,109.3l6.994,11.342-4.774,2.349-7.466-8.4Z" transform="translate(-59.237 -13.975)" fill="#6d6e71"/>
            <rect id="Rectángulo_358014" data-name="Rectángulo 358014" width="19.418" height="14.892" transform="translate(371.852 111.913)" fill="#6d6e71"/>
            <path id="Trazado_752067" data-name="Trazado 752067" d="M471.645,121.748l-6.995-3.761-7.827,1.451-13.4,10.073-7.013,11.344-3.453,22.178,3.453,14.874,35.237-19.1Z" transform="translate(-55.359 -15.086)" fill="#231f20"/>
            <path id="Trazado_752068" data-name="Trazado 752068" d="M439.054,185.108l-5.134-.042v12.77l2.611,4.907,2.523-1.39Z" transform="translate(-55.483 -23.663)" fill="#231f20"/>
            <path id="Trazado_752069" data-name="Trazado 752069" d="M431.75,140.853l-6.968-11.344-21.273-11.541-6.986,3.777v53.322l35.227,19.1Z" transform="translate(-50.701 -15.084)" fill="#414042"/>
            <path id="Trazado_752070" data-name="Trazado 752070" d="M413.1,176.252l1.014-.514,4.108,2.23-1.037,2.172Z" transform="translate(-52.82 -22.471)" fill="#808285"/>
            <path id="Trazado_752071" data-name="Trazado 752071" d="M417.782,178.826l1.037-.53,2.928,4.689-1.054,5Z" transform="translate(-53.419 -22.798)" fill="#6d6e71"/>
            <path id="Trazado_752072" data-name="Trazado 752072" d="M421.119,184.261l1.054-.589v4.505l-1.054.494Z" transform="translate(-53.846 -23.485)" fill="#231f20"/>
            <path id="Trazado_752073" data-name="Trazado 752073" d="M416.743,189.411l2.91-1.678v-4.41l-2.91-4.748-4.085-2.247-3,1.658v4.4l3,4.727Z" transform="translate(-52.381 -22.546)" fill="#58595b"/>
            <path id="Trazado_752074" data-name="Trazado 752074" d="M411.858,178.687l1.211-.664,3.3,1.766-1.228,1.929Z" transform="translate(-52.662 -22.763)" fill="#fa5c52"/>
            <path id="Trazado_752075" data-name="Trazado 752075" d="M415.629,180.7l1.219-.651,2.327,3.775-1.188,4.259Z" transform="translate(-53.144 -23.022)" fill="#ab281f"/>
            <path id="Trazado_752076" data-name="Trazado 752076" d="M418.333,185.057l1.188-.681v3.554l-1.188.706Z" transform="translate(-53.49 -23.575)" fill="#8a1c14"/>
            <path id="Trazado_752077" data-name="Trazado 752077" d="M414.813,189.207l2.358-1.286v-3.578l-2.358-3.805-3.289-1.753-2.278,1.257v3.578l2.278,3.792Z" transform="translate(-52.328 -22.86)" fill="#c84030"/>
            <path id="Trazado_752078" data-name="Trazado 752078" d="M461.016,115.189v-7.581l-21.23-11.513H425.805l-21.273,11.513v7.581l21.273,11.524h13.981Z" transform="translate(-51.725 -12.287)" fill="#58595b"/>
            <g id="Grupo_1021598" data-name="Grupo 1021598" transform="translate(266.648 220.413)" opacity="0.3">
              <g id="Grupo_1021597" data-name="Grupo 1021597">
                <g id="Grupo_1021596" data-name="Grupo 1021596" clip-path="url(#clip-path-10)">
                  <path id="Trazado_752079" data-name="Trazado 752079" d="M332.243,307.742l-26.5-14.365,75.035-40.649,26.489,14.362Z" transform="translate(-305.741 -252.728)"/>
                </g>
              </g>
            </g>
            <path id="Trazado_752080" data-name="Trazado 752080" d="M421.99,229.667l-3.938-.042v9.785l1.994,3.749,1.944-1.044Z" transform="translate(-53.454 -29.361)" fill="#231f20"/>
            <path id="Trazado_752081" data-name="Trazado 752081" d="M416.387,228.75l-26.952-14.624V226.57l26.952,14.607Z" transform="translate(-49.795 -27.379)" fill="#414042"/>
            <path id="Trazado_752082" data-name="Trazado 752082" d="M387.527,213.086V247.6l25.025,13.55.863-6.61V225.736Z" transform="translate(-49.551 -27.246)" fill="#857f79"/>
            <path id="Trazado_752083" data-name="Trazado 752083" d="M335.476,276.513l.254,26.339,70.562-38.227v-26.2Zm68.533-16.486-1.677,2.752-63.675,34.5-1.7-.918V278.506l1.7-2.765,63.675-34.489,1.677.919Z" transform="translate(-42.895 -30.485)" fill="#d8d1c7"/>
            <path id="Trazado_752084" data-name="Trazado 752084" d="M309.527,259.834V294.34l23.2,12.565.868-6.61V271.489Z" transform="translate(-39.577 -33.223)" fill="#d8d1c7"/>
            <path id="Trazado_752085" data-name="Trazado 752085" d="M323.914,298.68v1.111l-2.754-1.5V270.684l1.023.539.552,25.439Z" transform="translate(-41.065 -34.611)" fill="#a39c95"/>
            <path id="Trazado_752086" data-name="Trazado 752086" d="M324.064,272.233v26.526l-1.731-.944V271.3Z" transform="translate(-41.215 -34.69)" fill="#e6e1dd"/>
            <path id="Trazado_752087" data-name="Trazado 752087" d="M336.129,268.552v34.506l71.626-38.807V229.745Zm69.344-8.882-1.7,2.747L340.12,296.923,338.411,296v-9.73l1.709-2.773,63.653-34.493,1.7.939Z" transform="translate(-42.979 -29.376)" fill="#a39c95"/>
            <path id="Trazado_752088" data-name="Trazado 752088" d="M305.094,226.035l5.353-8.681,4.24,2.656-3.742,7.905Z" transform="translate(-39.01 -27.792)" fill="#6d6e71"/>
            <path id="Trazado_752089" data-name="Trazado 752089" d="M415.856,187.2l5.339,8.677-3.635,1.8-5.726-6.423Z" transform="translate(-52.659 -23.936)" fill="#6d6e71"/>
            <rect id="Rectángulo_358016" data-name="Rectángulo 358016" width="14.831" height="11.384" transform="translate(286.004 202.256)" fill="#6d6e71"/>
            <path id="Trazado_752090" data-name="Trazado 752090" d="M410.745,196.729l-5.339-2.882-5.985,1.1-58.807,34.01-5.371,8.681-5.14,12.908L335.243,266l75.5-40.9Z" transform="translate(-42.208 -24.786)" fill="#231f20"/>
            <path id="Trazado_752091" data-name="Trazado 752091" d="M337.651,275.363l-3.956-.025v9.777l2.007,3.754,1.949-1.057Z" transform="translate(-42.668 -35.206)" fill="#231f20"/>
            <path id="Trazado_752092" data-name="Trazado 752092" d="M332.045,241.493l-5.339-8.681-16.259-8.836-5.353,2.906v40.8L332.045,282.3Z" transform="translate(-39.01 -28.638)" fill="#414042"/>
            <path id="Trazado_752093" data-name="Trazado 752093" d="M317.782,268.608l.769-.409,3.164,1.715-.814,1.658Z" transform="translate(-40.633 -34.293)" fill="#808285"/>
            <path id="Trazado_752094" data-name="Trazado 752094" d="M321.359,270.563l.815-.4,2.22,3.587-.809,3.834Z" transform="translate(-41.09 -34.545)" fill="#6d6e71"/>
            <path id="Trazado_752095" data-name="Trazado 752095" d="M323.91,274.739l.809-.46v3.446l-.809.388Z" transform="translate(-41.416 -35.07)" fill="#231f20"/>
            <path id="Trazado_752096" data-name="Trazado 752096" d="M320.566,278.665l2.225-1.27v-3.374l-2.225-3.65-3.12-1.7-2.291,1.249v3.373l2.291,3.612Z" transform="translate(-40.297 -34.353)" fill="#58595b"/>
            <path id="Trazado_752097" data-name="Trazado 752097" d="M316.838,270.457l.921-.506,2.519,1.345-.948,1.487Z" transform="translate(-40.512 -34.517)" fill="#fa5c52"/>
            <path id="Trazado_752098" data-name="Trazado 752098" d="M319.716,272.011l.93-.518,1.794,2.889-.922,3.262Z" transform="translate(-40.88 -34.714)" fill="#ab281f"/>
            <path id="Trazado_752099" data-name="Trazado 752099" d="M321.782,275.333l.921-.527v2.732l-.921.53Z" transform="translate(-41.144 -35.138)" fill="#8a1c14"/>
            <path id="Trazado_752100" data-name="Trazado 752100" d="M319.091,278.507l1.8-.985v-2.735l-1.8-2.9-2.51-1.357-1.749.96v2.752l1.749,2.89Z" transform="translate(-40.256 -34.591)" fill="#c84030"/>
            <path id="Trazado_752101" data-name="Trazado 752101" d="M402.992,191.7v-5.8l-16.264-8.823h-10.7l-64.8,35.12V218l16.259,8.811H338.2Z" transform="translate(-39.795 -22.643)" fill="#58595b"/>
            <path id="Trazado_752102" data-name="Trazado 752102" d="M396.971,187.668v1.892l-6.8.752-65.085,24.935H319.3v-1.875l58.825-31.863H385.6Z" transform="translate(-40.827 -23.208)" fill="#211a1a"/>
            <path id="Trazado_752103" data-name="Trazado 752103" d="M396.971,189.834v2.151l-58.824,31.867h-7.48L319.3,217.705v-2.184l58.825-31.863H385.6Z" transform="translate(-40.827 -23.483)" fill="#e6e1dd"/>
            <path id="Trazado_752104" data-name="Trazado 752104" d="M389.473,192.246l-53.539,29L329.39,217.7l53.551-29Z" transform="translate(-42.117 -24.129)" fill="#6cb5c4"/>
            <g id="Grupo_1021601" data-name="Grupo 1021601" transform="translate(16.154 127.475)" opacity="0.3">
              <g id="Grupo_1021600" data-name="Grupo 1021600">
                <g id="Grupo_1021599" data-name="Grupo 1021599" clip-path="url(#clip-path-11)">
                  <path id="Trazado_752105" data-name="Trazado 752105" d="M111.485,146.164l96.42,52.272L114.961,248.87,18.523,196.612Z" transform="translate(-18.523 -146.164)"/>
                </g>
              </g>
            </g>
            <path id="Trazado_752106" data-name="Trazado 752106" d="M115.366,188.362l-93.24-50.546v58.075l93.24,50.533Z" transform="translate(-2.829 -17.622)" fill="#efc58b"/>
            <path id="Trazado_752107" data-name="Trazado 752107" d="M218.894,197.933l-89.859,48.754V188.624l89.859-48.757Z" transform="translate(-16.499 -17.884)" fill="#c79d5c"/>
            <path id="Trazado_752108" data-name="Trazado 752108" d="M137.076,231.642v15.627l14.432-7.821V223.812Zm.658,14.583V231.98l13.135-7.119v14.232Z" transform="translate(-17.527 -28.617)" fill="#995d43"/>
            <path id="Trazado_752109" data-name="Trazado 752109" d="M147.969,230.937l-2.127-.063-.977.539v-.46l-.136-.062-.207.1-.135.208v.464l-1,.539-2.107,2.359-1.231,2.777v.894l4.339-2.338v4.835l-.879,1.429-.492.271-.883-.481v-.8l-.147-.071-.2.113-.118.2v1.015l1.15.631.876-.447,1.179-1.9v-5.049l4.314-2.355v-.915Z" transform="translate(-17.907 -29.521)" fill="#995d43"/>
            <path id="Trazado_752110" data-name="Trazado 752110" d="M157.079,220.8v15.639l14.416-7.83V213Zm.658,14.6V221.156l13.111-7.124v14.232Z" transform="translate(-20.085 -27.235)" fill="#995d43"/>
            <path id="Trazado_752111" data-name="Trazado 752111" d="M191.511,202.16l-14.422,7.8.01,15.631,14.412-7.818Zm-13.785,22.387V210.32l13.141-7.129v14.237Z" transform="translate(-22.643 -25.849)" fill="#995d43"/>
            <path id="Trazado_752112" data-name="Trazado 752112" d="M160.477,228.321l1.041.572.5-.263v4.105l-.5.28-1.041.935v.067l3.582-1.942v-.062l-1.047.2-.492.28V228.35l.492-.267,1.047-1.708v-5.412l-3.582,1.942Z" transform="translate(-20.519 -28.253)" fill="#995d43"/>
            <path id="Trazado_752113" data-name="Trazado 752113" d="M166.132,225.25l1.057.555.489-.258v4.117l-.489.284-1.057.935v.054l3.588-1.946v-.054l-1.052.175-.5.3v-4.138l.5-.251,1.052-1.721V217.88l-3.588,1.958Zm.325-5.249,2.943-1.591v4.806l-.953,1.579-1.258.656-.732-.38Z" transform="translate(-21.242 -27.859)" fill="#995d43"/>
            <path id="Trazado_752114" data-name="Trazado 752114" d="M188.115,209.889l.3-.5-.112-.042-.258.418-.33.175-.229-.117v-.364l.229-.4.33-.159.258.141.112-.188-.3-.154-.458.263-.317.517v.485l.317.159Z" transform="translate(-23.954 -26.684)" fill="#995d43"/>
            <path id="Trazado_752115" data-name="Trazado 752115" d="M182.788,216.719l.3-.493-.1-.054-.249.4-.332.184-.236-.117v-.359l.236-.38.332-.175.249.138.1-.184-.3-.154-.44.256-.325.5v.5l.325.175Z" transform="translate(-23.274 -27.558)" fill="#995d43"/>
            <path id="Trazado_752116" data-name="Trazado 752116" d="M185.538,212.216v-2.961l-.376-.2-.508.276-.371.605v4.285l-1.015,1.633-1.446.794v.222l1.526-.86.935-1.491v3.308l-.766,1.211v1.245l.828.447,1.135-.626.8-1.315v-1.224l-.746-.41V212.5l.979-1.629,1.479-.793v-.2l-1.544.835Zm-.211.3-.845,1.412V209.9l.242-.4.358-.2.245.125Z" transform="translate(-23.249 -26.731)" fill="#995d43"/>
            <path id="Trazado_752117" data-name="Trazado 752117" d="M112.008,81.926l41.557,22.535,1.329,4.807,8.759.662,41.571,22.529-89.859,48.756L22.125,130.67Z" transform="translate(-2.829 -10.475)" fill="#f7e6bb"/>
            <path id="Trazado_752118" data-name="Trazado 752118" d="M79.819,161.944l-3.784.785L69.8,156.515l89.883-48.75,10.06,5.453Z" transform="translate(-8.925 -13.779)" fill="#b88f5a"/>
            <path id="Trazado_752119" data-name="Trazado 752119" d="M79.819,182.985,69.8,177.552v-13.89l10.018,5.429Z" transform="translate(-8.925 -20.927)" fill="#a16739"/>
            <path id="Trazado_752120" data-name="Trazado 752120" d="M67.252,82.119l-18.564,9.7-9.326,6.108L12.466,110.3l-11.38-12L0,86.276,12.174,75.74,38.465,59.462Z" transform="translate(0 -7.603)" fill="#f0c6b4"/>
            <path id="Trazado_752121" data-name="Trazado 752121" d="M79.745,82.065,55.055,98.188,43.8,100.813l-5.255-.694,1.254-2.63-5.057-9.805Z" transform="translate(-4.443 -10.493)" fill="#c7a495"/>
            <path id="Trazado_752122" data-name="Trazado 752122" d="M119.27,61.17l8.548-2.543,5.371.7.376,2.167-7.066.217-6.468.1Z" transform="translate(-15.25 -7.496)" fill="#d9d0ba"/>
            <path id="Trazado_752123" data-name="Trazado 752123" d="M84.926,58.316l11.1-.3,18.853,3.078,8.671-1.859,4.841.372,1.488,3.448L125.934,68.7l-11.1,2.518-6.733,2.51L95.9,74.877,85.551,66.249Z" transform="translate(-10.859 -7.418)" fill="#c7a495"/>
            <path id="Trazado_752124" data-name="Trazado 752124" d="M50.232,56.994l9.707,1.263,16.869-.49,22.548,4.378,4.5-.493,2.752-.986,4.343,1.107.135,4.241-7.568,6.462-17.941,1.7-47.66-8.962,5.4-6.072Z" transform="translate(-4.848 -7.287)" fill="#f0c6b4"/>
            <path id="Trazado_752125" data-name="Trazado 752125" d="M79.745,81.431,59.188,86.825l-24.44.225,24.624-9.939Z" transform="translate(-4.443 -9.86)" fill="#c7a495"/>
            <path id="Trazado_752126" data-name="Trazado 752126" d="M91.752,74.8l2.2-3.08-2.16-1.9L66.184,66.729l-16.564.057-11.707-.361L45.2,71.437Z" transform="translate(-4.848 -8.493)" fill="#c7a495"/>
            <path id="Trazado_752127" data-name="Trazado 752127" d="M90.709,70.032l1.257,1.98-1.32,3.616L87.876,78.3,82.1,79.8l-7.473.726L60.475,83.706,34.354,85.684,31.668,74.741l5.447-8.317L48,67.848l16.291.458L82.23,69.974l2.262,1.15Z" transform="translate(-4.049 -8.493)" fill="#f0c6b4"/>
            <path id="Trazado_752128" data-name="Trazado 752128" d="M49.045,100.9,48.06,99.26l-10.726.113-10.5-2.125L15.424,96.8l1.7,3.355,29.04,4.786Z" transform="translate(-1.972 -12.377)" fill="#c7a495"/>
            <path id="Trazado_752129" data-name="Trazado 752129" d="M58.064,117.473l3.384-4.134-5.319-9.323-8.958-3.5-10.5.514L25.056,98.078,14.53,96.8l-6.094,8.811,5.108,9.469,18.477,3.759,11.483-1.92,6.221-2.6Z" transform="translate(-1.079 -12.377)" fill="#f0c6b4"/>
            <path id="Trazado_752130" data-name="Trazado 752130" d="M118.733,62.228l-3.271-.43-10.85,3.209,3.272-2.4,6.713-1.994,3.212.246,1.92,1.232Z" transform="translate(-13.376 -7.75)" fill="#f7edd4"/>
            <path id="Trazado_752131" data-name="Trazado 752131" d="M58.162,108.807l.667,2.6,3.765,7.588-1.333,1.171-13.227-1.727L43.868,111.7l.927-3.027Z" transform="translate(-5.609 -13.895)" fill="#f7edd4"/>
            <path id="Trazado_752132" data-name="Trazado 752132" d="M88.987,70.471l8.764-.156-3.845,2.726-9.393,1.4Z" transform="translate(-10.806 -8.991)" fill="#f7edd4"/>
            <path id="Trazado_752133" data-name="Trazado 752133" d="M210.292,118.61l8.882,10.4,18.19,32.186,4.13,13.471L203.762,195.61l-30.634-20.52-7.943-16.128,3.421-14.1,5.861-21.5,23.247-9.271Z" transform="translate(-21.121 -14.589)" fill="#f0c6b4"/>
            <path id="Trazado_752134" data-name="Trazado 752134" d="M176.236,85.421l8.815,5.711,10.644,10.191,14.878,13.249-5.311.925-5.722-.746-32.167-27.9.07-2.905.433-1.438Z" transform="translate(-21.401 -10.55)" fill="#f0c6b4"/>
            <path id="Trazado_752135" data-name="Trazado 752135" d="M167.451,84.162l13.87,7.887,10.065,10.534,11.929,11.663-8.025-3.422L169.151,89.089Z" transform="translate(-21.411 -10.761)" fill="#c7a495"/>
            <path id="Trazado_752136" data-name="Trazado 752136" d="M201.272,113.261l-7.266-5.44L181.273,96.552l-4.4-4.525L156.684,77.184l-8.263-7.5-10.146-4.654-1.855,1.641-.243,4.228,12.887,16.339L187.616,115.7l5.2.1Z" transform="translate(-17.412 -8.315)" fill="#f0c6b4"/>
            <path id="Trazado_752137" data-name="Trazado 752137" d="M140.548,77.293l22.181,11.495,21.686,22.195,4.183,3.593-8.023-2.166L141.474,82.4Z" transform="translate(-17.971 -9.883)" fill="#c7a495"/>
            <path id="Trazado_752138" data-name="Trazado 752138" d="M118.526,63.855l-1.878,4.669,4.981,9.966,12.8,13.434,32.723,31.888,4.061-.917,19.111-7.247-9.778-5.721L158.726,88.665,134.273,73.583l-4.457-4.489Z" transform="translate(-14.915 -8.165)" fill="#f0c6b4"/>
            <path id="Trazado_752139" data-name="Trazado 752139" d="M203.888,201.018l-15.743-.977-17.843-6.1-19.877-16.959-23.254-25.123-9.289-8.4,3.177-4.608,14.831,1.932,11.634,7.982,15.05,15.656L185.531,179Z" transform="translate(-15.073 -17.755)" fill="#f0c6b4"/>
            <path id="Trazado_752140" data-name="Trazado 752140" d="M126.554,151.822l-11.2-7.842,1.755-3.007,4.065-.413,9.73,6.048Z" transform="translate(-14.75 -17.973)" fill="#f7edd4"/>
            <path id="Trazado_752141" data-name="Trazado 752141" d="M132.149,91.145l5.629,1.729,28.177,28.1,7.038,5.406-8.666-1.942L130.6,95.489Z" transform="translate(-16.699 -11.654)" fill="#c7a495"/>
            <path id="Trazado_752142" data-name="Trazado 752142" d="M158.065,154.484l.489-3.341L144.9,128.348l-13.609-15.654-8.548-10.249-8.432-9.158-4.817-11.4,2.149-2.188,5.151-.631,5.441,5.56,9.948,6.859,30.854,29.347,7.258,4Z" transform="translate(-14 -10.11)" fill="#f0c6b4"/>
            <path id="Trazado_752143" data-name="Trazado 752143" d="M122.507,84.328l-2.014,1.08-3.48-.449-5.345-3.932-.054-2.253,4.47-2.065Z" transform="translate(-14.271 -9.808)" fill="#f7edd4"/>
            <path id="Trazado_752144" data-name="Trazado 752144" d="M130.059,68.745l-8.924-7.619-2.588.731.592,4.395,7.446,5.189,4.51-.671Z" transform="translate(-15.158 -7.816)" fill="#f7edd4"/>
            <path id="Trazado_752145" data-name="Trazado 752145" d="M148.623,69.376l-7.943-6.742-1.306.06-1.624,1.047,5.672,7.765,3.891-.569Z" transform="translate(-17.613 -8.009)" fill="#f7edd4"/>
            <path id="Trazado_752146" data-name="Trazado 752146" d="M176.305,85.293l-1.413.7-3.17.44-3.807-3.011.056-1.7,2.9-.207Z" transform="translate(-21.47 -10.422)" fill="#f7edd4"/>
            <path id="Trazado_752147" data-name="Trazado 752147" d="M247.139,183.306l-7.4-1.687-25.741,11.634-4.652,11.437,6.24,1.8,25.39-14.47Z" transform="translate(-26.767 -23.223)" fill="#c7a495"/>
            <path id="Trazado_752148" data-name="Trazado 752148" d="M177.3,46.632l7.033,3.813,6.094-3.3L183.4,43.331Z" transform="translate(-22.671 -5.54)" fill="#d1d3d4"/>
            <path id="Trazado_752149" data-name="Trazado 752149" d="M200.592,59.738V55.925l-4.957-8.082-7.046-3.813-4.968,2.7v3.808l-7.046-3.816-4.968,2.7V57.04l4.968,8.085,31.063,16.833,4.97-2.7V71.631l-4.97-8.085Z" transform="translate(-21.942 -5.63)" fill="#bcbec0"/>
            <path id="Trazado_752150" data-name="Trazado 752150" d="M191.078,43.546l7.046,3.813,6.081-3.3-7.039-3.81Z" transform="translate(-24.432 -5.146)" fill="#d1d3d4"/>
            <path id="Trazado_752151" data-name="Trazado 752151" d="M204.852,61.557l7.037,3.809,6.091-3.295-7.035-3.815Z" transform="translate(-26.193 -7.449)" fill="#d1d3d4"/>
            <path id="Trazado_752152" data-name="Trazado 752152" d="M199.157,47.918,204.115,56l6.1-3.3-4.975-8.08Z" transform="translate(-25.465 -5.705)" fill="#a7a9ac"/>
            <path id="Trazado_752153" data-name="Trazado 752153" d="M212.92,65.924l4.97,8.085,6.1-3.3-4.975-8.083Z" transform="translate(-27.225 -8.008)" fill="#a7a9ac"/>
            <path id="Trazado_752154" data-name="Trazado 752154" d="M204.841,61l6.1-3.307V53.882l-6.1,3.3Z" transform="translate(-26.192 -6.89)" fill="#939598"/>
            <path id="Trazado_752155" data-name="Trazado 752155" d="M218.619,82.823l6.1-3.305V71.9l-6.1,3.3Z" transform="translate(-27.953 -9.193)" fill="#939598"/>
            <path id="Trazado_752156" data-name="Trazado 752156" d="M45.778,5.817,52.194,9.3l5.554-3.011L51.332,2.808Z" transform="translate(-5.853 -0.359)" fill="#d1d3d4"/>
            <path id="Trazado_752157" data-name="Trazado 752157" d="M67.018,17.769V14.3L62.492,6.931,56.076,3.449,51.539,5.9V9.382L45.114,5.9l-4.53,2.466v6.951l4.53,7.373,28.322,15.35,4.539-2.456V28.629l-4.539-7.375Z" transform="translate(-5.189 -0.441)" fill="#bcbec0"/>
            <path id="Trazado_752158" data-name="Trazado 752158" d="M58.347,3.009l6.416,3.481,5.549-3.018L63.891,0Z" transform="translate(-7.46 0)" fill="#d1d3d4"/>
            <path id="Trazado_752159" data-name="Trazado 752159" d="M70.906,19.436l6.408,3.476,5.562-3-6.416-3.487Z" transform="translate(-9.066 -2.1)" fill="#d1d3d4"/>
            <path id="Trazado_752160" data-name="Trazado 752160" d="M65.7,7l4.526,7.369,5.56-3.016-4.537-7.37Z" transform="translate(-8.401 -0.509)" fill="#a7a9ac"/>
            <path id="Trazado_752161" data-name="Trazado 752161" d="M78.252,23.424,82.791,30.8l5.556-3.015-4.532-7.364Z" transform="translate(-10.006 -2.611)" fill="#a7a9ac"/>
            <path id="Trazado_752162" data-name="Trazado 752162" d="M70.893,18.918l5.56-3.009V12.432l-5.56,3.015Z" transform="translate(-9.065 -1.59)" fill="#939598"/>
            <path id="Trazado_752163" data-name="Trazado 752163" d="M83.456,38.833l5.556-3.015V28.863l-5.556,3.016Z" transform="translate(-10.671 -3.691)" fill="#939598"/>
            <path id="Trazado_752164" data-name="Trazado 752164" d="M108.665,16.891l4.445,2.411,3.836-2.09L112.51,14.8Z" transform="translate(-13.894 -1.893)" fill="#d1d3d4"/>
            <path id="Trazado_752165" data-name="Trazado 752165" d="M123.359,25.167v-2.4l-3.13-5.1-4.441-2.408-3.133,1.7v2.4l-4.45-2.411-3.137,1.706v4.806l3.137,5.1,19.606,10.619,3.13-1.7V32.672l-3.13-5.1Z" transform="translate(-13.434 -1.951)" fill="#bcbec0"/>
            <path id="Trazado_752166" data-name="Trazado 752166" d="M117.359,14.949l4.441,2.407,3.84-2.088L121.2,12.863Z" transform="translate(-15.006 -1.645)" fill="#d1d3d4"/>
            <path id="Trazado_752167" data-name="Trazado 752167" d="M126.048,26.314l4.445,2.405,3.844-2.082-4.445-2.411Z" transform="translate(-16.117 -3.098)" fill="#d1d3d4"/>
            <path id="Trazado_752168" data-name="Trazado 752168" d="M122.451,17.709l3.13,5.1,3.847-2.086-3.137-5.1Z" transform="translate(-15.657 -1.997)" fill="#a7a9ac"/>
            <path id="Trazado_752169" data-name="Trazado 752169" d="M131.145,29.073l3.13,5.1,3.844-2.084-3.13-5.1Z" transform="translate(-16.769 -3.451)" fill="#a7a9ac"/>
            <path id="Trazado_752170" data-name="Trazado 752170" d="M126.04,25.962l3.847-2.088v-2.4l-3.847,2.085Z" transform="translate(-16.116 -2.746)" fill="#939598"/>
            <path id="Trazado_752171" data-name="Trazado 752171" d="M134.734,39.734l3.844-2.088V32.837l-3.844,2.084Z" transform="translate(-17.228 -4.199)" fill="#939598"/>
            <path id="Trazado_752172" data-name="Trazado 752172" d="M150.744,5.509l5.366,2.9L160.747,5.9l-5.359-2.905Z" transform="translate(-19.275 -0.383)" fill="#d1d3d4"/>
            <path id="Trazado_752173" data-name="Trazado 752173" d="M168.493,15.5V12.6l-3.78-6.162-5.371-2.909L155.56,5.579V8.487l-5.371-2.91L146.4,7.633v5.811l3.789,6.16,23.67,12.834,3.794-2.065V24.567l-3.794-6.162Z" transform="translate(-18.719 -0.451)" fill="#bcbec0"/>
            <path id="Trazado_752174" data-name="Trazado 752174" d="M161.239,3.157l5.371,2.909,4.635-2.516L165.878.641Z" transform="translate(-20.617 -0.082)" fill="#d1d3d4"/>
            <path id="Trazado_752175" data-name="Trazado 752175" d="M171.737,16.892l5.362,2.9,4.648-2.52-5.362-2.9Z" transform="translate(-21.959 -1.837)" fill="#d1d3d4"/>
            <path id="Trazado_752176" data-name="Trazado 752176" d="M167.4,6.493l3.78,6.162,4.652-2.52-3.8-6.157Z" transform="translate(-21.404 -0.508)" fill="#a7a9ac"/>
            <path id="Trazado_752177" data-name="Trazado 752177" d="M177.885,20.217l3.793,6.162,4.639-2.516L182.533,17.7Z" transform="translate(-22.745 -2.263)" fill="#a7a9ac"/>
            <path id="Trazado_752178" data-name="Trazado 752178" d="M171.732,16.461l4.652-2.518V11.037l-4.652,2.52Z" transform="translate(-21.958 -1.411)" fill="#939598"/>
            <path id="Trazado_752179" data-name="Trazado 752179" d="M182.234,33.089l4.639-2.507V24.767l-4.639,2.516Z" transform="translate(-23.301 -3.167)" fill="#939598"/>
          </g>
        </g>
      </g>
    </g>
  </g>
</svg>
