<svg id="Grupo_1021676" data-name="Grupo 1021676" xmlns="http://www.w3.org/2000/svg" xmlns:xlink="http://www.w3.org/1999/xlink" width="90" height="90" viewBox="0 0 90 90">
  <defs>
    <clipPath id="clip-path">
      <rect id="Rectángulo_358047" data-name="Rectángulo 358047" width="90" height="90" fill="none"/>
    </clipPath>
  </defs>
  <g id="Grupo_1021676-2" data-name="Grupo 1021676" clip-path="url(#clip-path)">
    <path id="Trazado_752496" data-name="Trazado 752496" d="M59.468,34.3A21.572,21.572,0,1,1,37.9,12.732,21.572,21.572,0,0,1,59.468,34.3" fill="#e9eaec"/>
    <path id="Trazado_752497" data-name="Trazado 752497" d="M7.751,45.442h22.1v-3.8l11.4,7.515-11.4,7.514v-3.8H7.751" fill="#fff"/>
    <path id="Trazado_752498" data-name="Trazado 752498" d="M56.9,57.906H53.186a1.062,1.062,0,0,1,0-2.123H56.9a1.062,1.062,0,0,1,0,2.123" fill="#445976"/>
    <path id="Trazado_752499" data-name="Trazado 752499" d="M44.7,60.116c.883.442,1.505-.268,1.593-1.152l.971-20.246a1.583,1.583,0,0,0-1.594-1.587H9.339A1.579,1.579,0,0,0,7.75,38.718v6.456h22.1v-3.71l11.4,7.514-11.4,7.515V52.776H7.75v6.369c0,.884.7,1.587,1.589,1.145Z" fill="#57dbd8"/>
    <path id="Trazado_752500" data-name="Trazado 752500" d="M61.056,54.811l6.63.175-5.921-9.1L52.3,45.442l-.174,8.131,8.131.267Zm-6.718-7.072c.442,0,4.775.087,6.276.174,1.593,2.3,2.652,3.8,3.361,4.863l-1.855-.088-.8-.884-7.072-.174Z" fill="#445976"/>
    <path id="Trazado_752501" data-name="Trazado 752501" d="M76.794,59.406c-.087-.355-2.21-6.45-2.21-6.45l-4.065-1.419L64.237,42.7,49.476,41.9l-.971,20.683H28.346a8.56,8.56,0,0,0-11.667-3.1H9.339a.569.569,0,0,1-.53-.529v-5.3H28.788v4.688L43.2,48.885,28.788,39.428v4.688H8.809V38.811a.576.576,0,0,1,.53-.535H45.765a.676.676,0,0,1,.349.18.848.848,0,0,1,.093.262L45.23,58.964a.564.564,0,0,1-.529.529,1.062,1.062,0,0,0,0,2.123,2.7,2.7,0,0,0,2.652-2.565l.971-20.24a2.866,2.866,0,0,0-.7-1.861,2.748,2.748,0,0,0-1.949-.791H9.339a2.658,2.658,0,0,0-2.652,2.652v7.422H30.911V43.406l8.4,5.391-8.4,5.572V51.537H6.687v7.427a2.657,2.657,0,0,0,2.652,2.652H14.2a5.678,5.678,0,0,0-.616.884H7.925l.268,5.392,4.42,1.151a8.781,8.781,0,0,0,5.834,6.1H6.954a1.062,1.062,0,1,0,0,2.123H74.229a1.062,1.062,0,0,0,0-2.123h-3.8a8.533,8.533,0,0,0,6.1-7.6l1.506-.8.791-6.717ZM12.346,66.921,10.223,66.3l-.087-1.768H12.7a7.049,7.049,0,0,0-.354,2.385m2.123.087a6.453,6.453,0,1,1,6.45,6.456,6.483,6.483,0,0,1-6.45-6.456M23.4,75.145a8.119,8.119,0,0,0,4.863-3.8H49.208l.977-2.21H59.73a8.524,8.524,0,0,0,5.833,6.014Zm44.645-1.681A6.453,6.453,0,1,1,74.5,67.008a6.494,6.494,0,0,1-6.456,6.456m8.224-8.928a8.567,8.567,0,0,0-16.8,2.385v.087H48.859l-.977,2.21H29.143a9.712,9.712,0,0,0,.354-2.3,6.553,6.553,0,0,0-.354-2.3H50.534l1.065-20.6c5.3.094,9.282.355,11.492.623l6.1,8.66,3.885,1.326c.18.355,1.861,6.456,1.861,6.456l1.588.442s-.175,1.855-.262,3.007" fill="#445976"/>
    <path id="Trazado_752502" data-name="Trazado 752502" d="M25.339,67.008a4.491,4.491,0,0,0-4.421-4.42,4.42,4.42,0,1,0,0,8.84,4.37,4.37,0,0,0,4.421-4.42m-6.718-.087a2.279,2.279,0,0,1,2.3-2.3,2.232,2.232,0,0,1,2.3,2.3,2.342,2.342,0,0,1-2.3,2.3,2.283,2.283,0,0,1-2.3-2.3" fill="#445976"/>
    <path id="Trazado_752503" data-name="Trazado 752503" d="M68.041,62.588a4.42,4.42,0,1,0,0,8.84,4.42,4.42,0,0,0,0-8.84m0,6.63a2.3,2.3,0,0,1,0-4.6,2.3,2.3,0,0,1,0,4.6" fill="#445976"/>
    <path id="Trazado_752504" data-name="Trazado 752504" d="M76.707,44.378a1.021,1.021,0,0,1-1.064-1.058V16.356a1.062,1.062,0,1,1,2.123,0V43.32a1.021,1.021,0,0,1-1.059,1.058" fill="#bcc0c3"/>
    <path id="Trazado_752505" data-name="Trazado 752505" d="M82.982,23.69a.813.813,0,0,1-.71-.349L76,17.06a1.061,1.061,0,0,1,1.5-1.5l6.282,6.276a1.021,1.021,0,0,1,0,1.506,1.1,1.1,0,0,1-.8.349" fill="#bcc0c3"/>
    <path id="Trazado_752506" data-name="Trazado 752506" d="M82.982,30.855a.819.819,0,0,1-.71-.355L76,24.225a1.063,1.063,0,0,1,1.5-1.507l6.282,6.276a1.021,1.021,0,0,1,0,1.506,1.106,1.106,0,0,1-.8.355" fill="#bcc0c3"/>
    <path id="Trazado_752507" data-name="Trazado 752507" d="M82.982,37.928a.819.819,0,0,1-.71-.355L76,31.3a1.063,1.063,0,1,1,1.5-1.507l6.282,6.276a1.021,1.021,0,0,1,0,1.506,1.106,1.106,0,0,1-.8.355" fill="#bcc0c3"/>
    <path id="Trazado_752508" data-name="Trazado 752508" d="M70.251,23.69a.813.813,0,0,1-.71-.349,1.021,1.021,0,0,1,0-1.506l6.282-6.276a1.061,1.061,0,0,1,1.5,1.5l-6.275,6.281a1.088,1.088,0,0,1-.8.349" fill="#bcc0c3"/>
    <path id="Trazado_752509" data-name="Trazado 752509" d="M70.251,30.855a.819.819,0,0,1-.71-.355,1.021,1.021,0,0,1,0-1.506l6.282-6.276a1.063,1.063,0,1,1,1.5,1.507L71.048,30.5a1.1,1.1,0,0,1-.8.355" fill="#bcc0c3"/>
    <path id="Trazado_752510" data-name="Trazado 752510" d="M70.251,37.928a.819.819,0,0,1-.71-.355,1.021,1.021,0,0,1,0-1.506l6.282-6.276a1.063,1.063,0,1,1,1.5,1.507l-6.275,6.275a1.1,1.1,0,0,1-.8.355" fill="#bcc0c3"/>
    <path id="Trazado_752511" data-name="Trazado 752511" d="M63.091,37.928a1.023,1.023,0,0,1-1.064-1.064V21.573a1.062,1.062,0,1,1,2.123,0V36.864a1.022,1.022,0,0,1-1.059,1.064" fill="#445976"/>
    <path id="Trazado_752512" data-name="Trazado 752512" d="M67.244,26.784a.8.8,0,0,1-.7-.349l-4.158-4.158a1.063,1.063,0,0,1,1.506-1.5l4.153,4.153a1.021,1.021,0,0,1,0,1.506,1.088,1.088,0,0,1-.8.349" fill="#445976"/>
    <path id="Trazado_752513" data-name="Trazado 752513" d="M67.244,32.972a.8.8,0,0,1-.7-.349l-4.158-4.158a1.063,1.063,0,1,1,1.506-1.5l4.153,4.153a1.021,1.021,0,0,1,0,1.506,1.088,1.088,0,0,1-.8.349" fill="#445976"/>
    <path id="Trazado_752514" data-name="Trazado 752514" d="M58.845,26.784a.8.8,0,0,1-.7-.349,1.021,1.021,0,0,1,0-1.506l4.153-4.153a1.061,1.061,0,1,1,1.5,1.5l-4.153,4.158a1.088,1.088,0,0,1-.8.349" fill="#445976"/>
    <path id="Trazado_752515" data-name="Trazado 752515" d="M58.845,32.972a.8.8,0,0,1-.7-.349,1.021,1.021,0,0,1,0-1.506l4.153-4.153a1.061,1.061,0,1,1,1.5,1.5l-4.153,4.158a1.088,1.088,0,0,1-.8.349" fill="#445976"/>
    <path id="Trazado_752516" data-name="Trazado 752516" d="M50.714,37.928a1.023,1.023,0,0,1-1.064-1.064V21.573a1.062,1.062,0,1,1,2.123,0V36.864a1.022,1.022,0,0,1-1.059,1.064" fill="#445976"/>
    <path id="Trazado_752517" data-name="Trazado 752517" d="M54.867,26.784a.8.8,0,0,1-.7-.349l-4.158-4.158a1.063,1.063,0,0,1,1.506-1.5l4.153,4.153a1.021,1.021,0,0,1,0,1.506,1.088,1.088,0,0,1-.8.349" fill="#445976"/>
    <path id="Trazado_752518" data-name="Trazado 752518" d="M54.867,32.972a.8.8,0,0,1-.7-.349l-4.158-4.158a1.063,1.063,0,0,1,1.506-1.5l4.153,4.153a1.021,1.021,0,0,1,0,1.506,1.089,1.089,0,0,1-.8.349" fill="#445976"/>
    <path id="Trazado_752519" data-name="Trazado 752519" d="M46.469,26.784a.8.8,0,0,1-.7-.349,1.021,1.021,0,0,1,0-1.506l4.153-4.153a1.061,1.061,0,1,1,1.5,1.5l-4.153,4.158a1.088,1.088,0,0,1-.8.349" fill="#445976"/>
    <path id="Trazado_752520" data-name="Trazado 752520" d="M46.469,32.972a.8.8,0,0,1-.7-.349,1.021,1.021,0,0,1,0-1.506l4.153-4.153a1.061,1.061,0,1,1,1.5,1.5l-4.153,4.158a1.088,1.088,0,0,1-.8.349" fill="#445976"/>
  </g>
</svg>
