<svg xmlns="http://www.w3.org/2000/svg" width="90" height="90" viewBox="0 0 90 90">
  <g id="Grupo_1021645" data-name="Grupo 1021645" transform="translate(-1063 -3434)">
    <rect id="Rectángulo_351171" data-name="Rectángulo 351171" width="90" height="90" transform="translate(1063 3434)" fill="none"/>
    <g id="_022-service" data-name="022-service" transform="translate(1069 3440)">
      <path id="Trazado_752414" data-name="Trazado 752414" d="M20,32.408V43.742a2.526,2.526,0,0,0,2.519,2.519H32.593l8.815,10.075V46.261H55.261a2.526,2.526,0,0,0,2.519-2.519V13.519A2.526,2.526,0,0,0,55.261,11H22.519A2.526,2.526,0,0,0,20,13.519V24.852" transform="translate(3.927 1.581)" fill="#aadff1"/>
      <path id="Trazado_752415" data-name="Trazado 752415" d="M24.668,60.89V48.3L13.334,42,2,48.3V60.89l11.334,6.3Z" transform="translate(-0.741 9.619)" fill="#fab349"/>
      <path id="Trazado_752416" data-name="Trazado 752416" d="M22.334,47V59.593L11,65.89V53.3Z" transform="translate(1.593 10.916)" fill="#fcd192"/>
      <path id="Trazado_752417" data-name="Trazado 752417" d="M48.668,33.89V21.3L37.334,15,26,21.3V33.89l11.334,6.3Z" transform="translate(5.483 2.618)" fill="#fab349"/>
      <path id="Trazado_752418" data-name="Trazado 752418" d="M46.334,20V32.593L35,38.89V26.3Z" transform="translate(7.817 3.914)" fill="#fcd192"/>
      <path id="Trazado_752419" data-name="Trazado 752419" d="M15.556,35.556H8L11.778,28Z" transform="translate(0.815 5.989)" fill="#ef9596"/>
      <path id="Trazado_752420" data-name="Trazado 752420" d="M28,57.556V50l7.556,3.778Z" transform="translate(6.001 11.694)" fill="#ef9596"/>
      <path id="Trazado_752421" data-name="Trazado 752421" d="M54,19h2.519a2.526,2.526,0,0,1,2.519,2.519V31.593a2.526,2.526,0,0,1-2.519,2.519H54Z" transform="translate(12.744 3.655)" fill="#75777a"/>
      <path id="Trazado_752422" data-name="Trazado 752422" d="M58,21a5.037,5.037,0,0,1,0,10.075" transform="translate(13.781 4.174)" fill="#aadff1"/>
      <circle id="Elipse_8528" data-name="Elipse 8528" cx="2.5" cy="2.5" r="2.5" transform="translate(50 53.99)" fill="#ef9596"/>
      <path id="Trazado_752423" data-name="Trazado 752423" d="M36.973,41.541a1.328,1.328,0,0,0,.617.164,1.225,1.225,0,0,0,.617-.164l11.334-6.3a1.25,1.25,0,0,0,.642-1.1V21.555a1.26,1.26,0,0,0-.642-1.1l-11.334-6.3a1.242,1.242,0,0,0-1.222,0l-11.334,6.3a1.25,1.25,0,0,0-.642,1.1V34.148a1.26,1.26,0,0,0,.642,1.1l11.334,6.3Zm10.692-8.135L38.85,38.3V28.595l8.815-4.9ZM37.591,16.694l8.74,4.861-8.74,4.861-8.74-4.861Zm-10.075,7,8.815,4.9V38.3l-8.815-4.9Z" transform="translate(5.226 2.359)"/>
      <path id="Trazado_752424" data-name="Trazado 752424" d="M1.642,65.859l11.334,6.3a1.328,1.328,0,0,0,.617.164,1.225,1.225,0,0,0,.617-.164l11.334-6.3a1.25,1.25,0,0,0,.642-1.1V60.986h7.556V63.5a1.258,1.258,0,0,0,.592,1.07,1.245,1.245,0,0,0,.667.189,1.3,1.3,0,0,0,.567-.139l7.556-3.778a1.253,1.253,0,0,0,0-2.242l-7.556-3.778a1.275,1.275,0,0,0-1.222.05,1.258,1.258,0,0,0-.592,1.07v2.519H26.2v-6.3a1.26,1.26,0,0,0-.642-1.1L14.865,45.144V37.072h2.519a1.258,1.258,0,0,0,1.07-.592,1.242,1.242,0,0,0,.05-1.222L14.727,27.7a1.31,1.31,0,0,0-2.254,0L8.694,35.258a1.275,1.275,0,0,0,.05,1.222,1.258,1.258,0,0,0,1.07.592h2.519v8.072L1.642,51.075A1.25,1.25,0,0,0,1,52.171V64.764a1.26,1.26,0,0,0,.642,1.1Zm34.619-7.883,3.476,1.738-3.476,1.738ZM23.668,64.008l-8.815,4.9V59.2l8.815-4.9ZM11.855,34.528l1.738-3.476,1.738,3.476ZM13.593,47.3l8.74,4.861-8.74,4.861-8.74-4.861Zm-10.075,7,8.815,4.9v9.709l-8.815-4.9Z" transform="translate(-1 5.745)"/>
      <path id="Trazado_752425" data-name="Trazado 752425" d="M69.171,25.038a3.774,3.774,0,0,0-2.317-2.393V15.492a14.479,14.479,0,0,0-28.612-3.148H22.778A3.789,3.789,0,0,0,19,16.122V27.456h2.519V16.109a1.263,1.263,0,0,1,1.259-1.259H55.52a1.263,1.263,0,0,1,1.259,1.259V46.333a1.263,1.263,0,0,1-1.259,1.259H41.668a1.263,1.263,0,0,0-1.259,1.259v6.725L33.8,48.02a1.235,1.235,0,0,0-.944-.428H22.778a1.263,1.263,0,0,1-1.259-1.259V35H19V46.333a3.789,3.789,0,0,0,3.778,3.778h9.508l8.437,9.646a1.254,1.254,0,0,0,.944.428,1.3,1.3,0,0,0,.441-.076,1.268,1.268,0,0,0,.819-1.184V50.111H55.52A3.789,3.789,0,0,0,59.3,46.333V16.109a3.789,3.789,0,0,0-3.778-3.778H40.836A12,12,0,0,1,52.372,3.516,12,12,0,0,1,64.335,15.48v6.926H63.076a1.263,1.263,0,0,0-1.259,1.259V38.777a1.263,1.263,0,0,0,1.259,1.259h1.259v7.556a8.825,8.825,0,0,1-8.815,8.815H52.775a3.778,3.778,0,1,0,0,2.519H55.52A11.351,11.351,0,0,0,66.854,47.592V39.809a3.716,3.716,0,0,0,2.317-2.393,6.268,6.268,0,0,0,0-12.366ZM49.224,58.926a1.259,1.259,0,1,1,1.259-1.259A1.263,1.263,0,0,1,49.224,58.926Zm17.63-22.668a1.263,1.263,0,0,1-1.259,1.259H64.335V24.924h1.259a1.263,1.263,0,0,1,1.259,1.259Zm2.519-1.486v-7.09a3.763,3.763,0,0,1,0,7.1Z" transform="translate(3.668 -1.01)"/>
      <path id="Trazado_752426" data-name="Trazado 752426" d="M19,24h2.519v2.519H19Z" transform="translate(3.668 4.952)"/>
    </g>
  </g>
</svg>
