<svg xmlns="http://www.w3.org/2000/svg" xmlns:xlink="http://www.w3.org/1999/xlink" width="525" height="317" viewBox="0 0 525 317">
  <defs>
    <clipPath id="clip-path">
      <rect id="Rectángulo_357991" data-name="Rectángulo 357991" width="395.572" height="281.726" fill="none"/>
    </clipPath>
    <clipPath id="clip-path-3">
      <rect id="Rectángulo_357969" data-name="Rectángulo 357969" width="314.552" height="170.423" fill="none"/>
    </clipPath>
    <clipPath id="clip-path-5">
      <rect id="Rectángulo_357971" data-name="Rectángulo 357971" width="84.632" height="46.123" fill="none"/>
    </clipPath>
    <clipPath id="clip-path-7">
      <rect id="Rectángulo_357975" data-name="Rectángulo 357975" width="183.123" height="99.31" fill="none"/>
    </clipPath>
    <clipPath id="clip-path-9">
      <rect id="Rectángulo_357977" data-name="Rectángulo 357977" width="35.43" height="20.012" fill="none"/>
    </clipPath>
    <clipPath id="clip-path-11">
      <rect id="Rectángulo_357979" data-name="Rectángulo 357979" width="37.833" height="14.735" fill="none"/>
    </clipPath>
    <clipPath id="clip-path-13">
      <rect id="Rectángulo_357981" data-name="Rectángulo 357981" width="11.645" height="6.952" fill="none"/>
    </clipPath>
    <clipPath id="clip-path-15">
      <rect id="Rectángulo_357983" data-name="Rectángulo 357983" width="120.456" height="65.329" fill="none"/>
    </clipPath>
    <clipPath id="clip-path-17">
      <rect id="Rectángulo_357985" data-name="Rectángulo 357985" width="120.447" height="65.342" fill="none"/>
    </clipPath>
    <clipPath id="clip-path-19">
      <rect id="Rectángulo_357987" data-name="Rectángulo 357987" width="89.785" height="48.638" fill="none"/>
    </clipPath>
    <clipPath id="clip-path-21">
      <rect id="Rectángulo_357989" data-name="Rectángulo 357989" width="89.895" height="48.711" fill="none"/>
    </clipPath>
  </defs>
  <g id="Grupo_1021608" data-name="Grupo 1021608" transform="translate(8070 9395)">
    <rect id="AdobeStock_36302863" width="525" height="317" rx="15" transform="translate(-8070 -9395)" fill="none"/>
    <g id="Grupo_1021537" data-name="Grupo 1021537" transform="translate(-8004.92 -9377.733)">
      <g id="Grupo_1021536" data-name="Grupo 1021536" clip-path="url(#clip-path)">
        <path id="Trazado_751504" data-name="Trazado 751504" d="M365.992,181.17l-.395.184v.282l.395.2h.477l.4-.2v-.282l-.4-.184Z" transform="translate(-40.681 -20.159)" fill="#d8d1c7"/>
        <path id="Trazado_751505" data-name="Trazado 751505" d="M365.6,188.027l.395.2.018-6.3-.018-.038-.395-.2Z" transform="translate(-40.681 -20.218)" fill="#f4efe9"/>
        <path id="Trazado_751506" data-name="Trazado 751506" d="M366.042,181.919v6.334l.477-.009.023-6.287-.023-.038Z" transform="translate(-40.731 -20.243)" fill="#d8d1c7"/>
        <path id="Trazado_751507" data-name="Trazado 751507" d="M366.579,181.894v6.325l.4-.192v-6.333Z" transform="translate(-40.79 -20.218)" fill="#a39c95"/>
        <path id="Trazado_751508" data-name="Trazado 751508" d="M297.67,144.256l-.372.183v.282l.372.22h.485l.359-.22v-.282l-.359-.183Z" transform="translate(-33.081 -16.052)" fill="#d8d1c7"/>
        <path id="Trazado_751509" data-name="Trazado 751509" d="M297.3,151.117l.372.2.028-6.3-.028-.018-.372-.221Z" transform="translate(-33.081 -16.11)" fill="#f4efe9"/>
        <path id="Trazado_751510" data-name="Trazado 751510" d="M297.716,145.027v6.322h.485l.042-6.3-.042-.018Z" transform="translate(-33.128 -16.138)" fill="#d8d1c7"/>
        <path id="Trazado_751511" data-name="Trazado 751511" d="M298.263,145v6.322l.359-.205v-6.338Z" transform="translate(-33.189 -16.11)" fill="#a39c95"/>
        <g id="Grupo_1021490" data-name="Grupo 1021490">
          <g id="Grupo_1021489" data-name="Grupo 1021489" clip-path="url(#clip-path)">
            <g id="Grupo_1021488" data-name="Grupo 1021488" transform="translate(47.634 111.303)" opacity="0.3">
              <g id="Grupo_1021487" data-name="Grupo 1021487">
                <g id="Grupo_1021486" data-name="Grupo 1021486" clip-path="url(#clip-path-3)">
                  <path id="Trazado_751512" data-name="Trazado 751512" d="M188.756,295.662,53.6,222.451l179.426-97.212L368.15,198.445Z" transform="translate(-53.598 -125.239)"/>
                </g>
              </g>
            </g>
          </g>
        </g>
        <path id="Trazado_751513" data-name="Trazado 751513" d="M189.068,294.473,56.4,222.625l176.933-95.818,132.6,71.813Z" transform="translate(-6.276 -14.11)" fill="#853e2a"/>
        <path id="Trazado_751514" data-name="Trazado 751514" d="M189.613,291.2,61.3,221.695l172.582-93.487L362.126,197.7Z" transform="translate(-6.821 -14.266)" fill="#d18067"/>
        <path id="Trazado_751515" data-name="Trazado 751515" d="M382.3,207.476,205.426,303.329l-2.012-1.91,2.012-1.517L377.94,206.4Z" transform="translate(-22.635 -22.967)" fill="#693121"/>
        <path id="Trazado_751516" data-name="Trazado 751516" d="M189.068,306.334,56.4,234.486l4.351-1.086,128.313,69.506Z" transform="translate(-6.276 -25.971)" fill="#944e39"/>
        <g id="Grupo_1021495" data-name="Grupo 1021495">
          <g id="Grupo_1021494" data-name="Grupo 1021494" clip-path="url(#clip-path)">
            <g id="Grupo_1021493" data-name="Grupo 1021493" transform="translate(242.538 128.907)" opacity="0.3">
              <g id="Grupo_1021492" data-name="Grupo 1021492">
                <g id="Grupo_1021491" data-name="Grupo 1021491" clip-path="url(#clip-path-5)">
                  <path id="Trazado_751517" data-name="Trazado 751517" d="M339.914,191.17l-67.009-36.3,18.131-9.825L352.627,178.4l4.192,4.241.718.384-2.453-.052Z" transform="translate(-272.905 -145.047)"/>
                </g>
              </g>
            </g>
          </g>
        </g>
        <path id="Trazado_751518" data-name="Trazado 751518" d="M340.073,191.582l-65.737-35.625V154.8l82.642,26.452Z" transform="translate(-30.526 -17.225)" fill="#d8d1c7"/>
        <path id="Trazado_751519" data-name="Trazado 751519" d="M348.3,194.894v-1.168l5.21-6.875,11.695-2.285v2.477h-2.371Z" transform="translate(-38.757 -20.537)" fill="#a39c95"/>
        <path id="Trazado_751520" data-name="Trazado 751520" d="M340.073,189.264l-65.737-35.612,16.859-9.19L356.978,180.1Z" transform="translate(-30.526 -16.075)" fill="#e6e1dd"/>
        <path id="Trazado_751521" data-name="Trazado 751521" d="M350.789,182.149h-2.535l-1.739.951v1.355l1.739.993h2.535l1.785-.993V183.1Z" transform="translate(-38.558 -20.268)" fill="#f4efe9"/>
        <path id="Trazado_751522" data-name="Trazado 751522" d="M353.033,185.166l-1.785.968-.6-.205.6-.191,1.785-.993Z" transform="translate(-39.017 -20.557)" fill="#a39c95"/>
        <path id="Trazado_751523" data-name="Trazado 751523" d="M348.255,186.133l-1.739-.968v-.421l1.739.993,1.044.192Z" transform="translate(-38.558 -20.557)" fill="#d8d1c7"/>
        <rect id="Rectángulo_357973" data-name="Rectángulo 357973" width="2.534" height="0.396" transform="translate(309.697 165.18)" fill="#b5afa7"/>
        <path id="Trazado_751524" data-name="Trazado 751524" d="M294.418,151.608h-2.5l-1.8.963v1.338l1.8.976h2.5l1.817-.976v-1.338Z" transform="translate(-32.282 -16.87)" fill="#f4efe9"/>
        <path id="Trazado_751525" data-name="Trazado 751525" d="M296.7,154.645l-1.817.933-.568-.183.568-.221,1.817-.977Z" transform="translate(-32.75 -17.158)" fill="#a39c95"/>
        <path id="Trazado_751526" data-name="Trazado 751526" d="M291.92,155.579l-1.8-.933V154.2l1.8.977,1,.221Z" transform="translate(-32.282 -17.158)" fill="#d8d1c7"/>
        <rect id="Rectángulo_357974" data-name="Rectángulo 357974" width="2.499" height="0.404" transform="translate(259.637 138.017)" fill="#b5afa7"/>
        <path id="Trazado_751527" data-name="Trazado 751527" d="M361.009,202.865l10.41-5.63L254.477,133.891l-9.714,5.281,18.584,13.742,63.385,37.015Z" transform="translate(-27.236 -14.898)" fill="#fff"/>
        <path id="Trazado_751528" data-name="Trazado 751528" d="M243.447,139.833l-10.5,6.777,15.9,22.51,66.941,33.4,34.085,7.4,9.828-6.385Z" transform="translate(-25.92 -15.56)" fill="#f4efe9"/>
        <path id="Trazado_751529" data-name="Trazado 751529" d="M215.788,147.46l-137.006,74.2,116.9,63.334L332.711,210.76Z" transform="translate(-8.766 -16.408)" fill="#fff"/>
        <path id="Trazado_751530" data-name="Trazado 751530" d="M241.66,162.807l-4.742,2.613,85.008,46.038,4.741-2.553Z" transform="translate(-26.363 -18.116)" fill="#e0dedc"/>
        <path id="Trazado_751531" data-name="Trazado 751531" d="M288.841,204.156,227.1,170.735l-4.7,2.583,61.686,33.43Z" transform="translate(-24.747 -18.998)" fill="#e0dedc"/>
        <path id="Trazado_751532" data-name="Trazado 751532" d="M138.57,236.232l-13.734-7.447,13.734-7.438,13.743,7.438Zm0-18.563-20.52,11.116,20.52,11.121L159.1,228.785Z" transform="translate(-13.136 -24.221)" fill="#e0dedc"/>
        <path id="Trazado_751533" data-name="Trazado 751533" d="M174.368,216.841l-13.743-7.447,13.743-7.438,13.748,7.438Zm0-18.563-20.52,11.116,20.52,11.121,20.524-11.121Z" transform="translate(-17.119 -22.063)" fill="#e0dedc"/>
        <path id="Trazado_751534" data-name="Trazado 751534" d="M210.146,197.451,196.4,190.009l13.743-7.451,13.748,7.451Zm0-18.563-20.52,11.121,20.52,11.116,20.524-11.116Z" transform="translate(-21.1 -19.905)" fill="#e0dedc"/>
        <path id="Trazado_751535" data-name="Trazado 751535" d="M172.184,201.805l.127,9.659,38.405,4.084-32.042-7.472,2.639-7.48Z" transform="translate(-19.16 -22.321)" fill="#cfdb77"/>
        <path id="Trazado_751536" data-name="Trazado 751536" d="M207.814,182.981l.136,9.646,38.392,4.1-32.033-7.477,2.643-7.476Z" transform="translate(-23.124 -20.226)" fill="#cfdb77"/>
        <path id="Trazado_751537" data-name="Trazado 751537" d="M189.953,265.623l23.69,12.839,4.746-2.562L194.7,263.049Z" transform="translate(-21.137 -29.27)" fill="#e0dedc"/>
        <path id="Trazado_751538" data-name="Trazado 751538" d="M279.748,153.577v.4l.283.4.326.192.263-.132v-.392l-.263-.417-.326-.175Z" transform="translate(-31.129 -17.074)" fill="#d8d1c7"/>
        <path id="Trazado_751539" data-name="Trazado 751539" d="M280.392,152.536l-.327-.175L296,143.709l.382.166-15.914,8.661Z" transform="translate(-31.164 -15.991)" fill="#f4efe9"/>
        <path id="Trazado_751540" data-name="Trazado 751540" d="M280.7,152.975l-.263-.418L296.42,143.9l.218.457-15.887,8.682Z" transform="translate(-31.205 -16.012)" fill="#d8d1c7"/>
        <path id="Trazado_751541" data-name="Trazado 751541" d="M280.729,153.424v-.392l15.941-8.623v.4Z" transform="translate(-31.238 -16.069)" fill="#a39c95"/>
        <path id="Trazado_751542" data-name="Trazado 751542" d="M348.053,190.813l.314-.422.349-.209.264.175v.371l-.264.427-.349.153-.314-.119Z" transform="translate(-38.729 -21.162)" fill="#d8d1c7"/>
        <path id="Trazado_751543" data-name="Trazado 751543" d="M340.843,186.3l.35-.209-60.419-32.65-.34.175L340.752,186.3Z" transform="translate(-31.205 -17.074)" fill="#f4efe9"/>
        <path id="Trazado_751544" data-name="Trazado 751544" d="M340.453,186.747l.314-.422-60.409-32.684-.609.264,60.7,32.863Z" transform="translate(-31.129 -17.096)" fill="#d8d1c7"/>
        <path id="Trazado_751545" data-name="Trazado 751545" d="M341.116,187.5v-.375l-61.368-33.182v.089l.283.4Z" transform="translate(-31.128 -17.129)" fill="#a39c95"/>
        <path id="Trazado_751546" data-name="Trazado 751546" d="M348.756,189.506l-.35-.166,15.933-8.606.336.174-15.891,8.6Z" transform="translate(-38.768 -20.111)" fill="#f4efe9"/>
        <path id="Trazado_751547" data-name="Trazado 751547" d="M348.8,190.125v-.6l15.919-8.6.282.4-15.764,8.687Z" transform="translate(-38.812 -20.133)" fill="#d8d1c7"/>
        <path id="Trazado_751548" data-name="Trazado 751548" d="M348.776,190.55l-.191-.221.191-.154,16.2-8.8v.4Z" transform="translate(-38.788 -20.182)" fill="#a39c95"/>
        <g id="Grupo_1021500" data-name="Grupo 1021500">
          <g id="Grupo_1021499" data-name="Grupo 1021499" clip-path="url(#clip-path)">
            <g id="Grupo_1021498" data-name="Grupo 1021498" transform="translate(49.905 54.166)" opacity="0.3">
              <g id="Grupo_1021497" data-name="Grupo 1021497">
                <g id="Grupo_1021496" data-name="Grupo 1021496" clip-path="url(#clip-path-7)">
                  <path id="Trazado_751549" data-name="Trazado 751549" d="M146.039,60.948l93.238,50.539-89.868,48.771L56.153,109.731Z" transform="translate(-56.153 -60.948)"/>
                </g>
              </g>
            </g>
          </g>
        </g>
        <path id="Trazado_751550" data-name="Trazado 751550" d="M149.729,101.895,59.567,53.04v56.14L82.28,119.243l29.439,18.2,38.01,20.6,4.233-33.647Z" transform="translate(-6.628 -5.902)" fill="#efc58b"/>
        <g id="Grupo_1021505" data-name="Grupo 1021505">
          <g id="Grupo_1021504" data-name="Grupo 1021504" clip-path="url(#clip-path)">
            <g id="Grupo_1021503" data-name="Grupo 1021503" transform="translate(61.786 99.632)" opacity="0.1">
              <g id="Grupo_1021502" data-name="Grupo 1021502">
                <g id="Grupo_1021501" data-name="Grupo 1021501" clip-path="url(#clip-path-9)">
                  <path id="Trazado_751551" data-name="Trazado 751551" d="M69.522,112.107l14.592.857,20.838,19.156L83.9,117.9Z" transform="translate(-69.522 -112.107)"/>
                </g>
              </g>
            </g>
          </g>
        </g>
        <path id="Trazado_751552" data-name="Trazado 751552" d="M247.893,111.112,161.018,158.25l2.516-32.488-2.516-23.652,86.875-47.134v7.072l-4.169,30.088,3.125,9.974Z" transform="translate(-17.917 -6.117)" fill="#c79d5c"/>
        <g id="Grupo_1021510" data-name="Grupo 1021510">
          <g id="Grupo_1021509" data-name="Grupo 1021509" clip-path="url(#clip-path)">
            <g id="Grupo_1021508" data-name="Grupo 1021508" transform="translate(182.505 85.609)" opacity="0.1">
              <g id="Grupo_1021507" data-name="Grupo 1021507">
                <g id="Grupo_1021506" data-name="Grupo 1021506" clip-path="url(#clip-path-11)">
                  <path id="Trazado_751553" data-name="Trazado 751553" d="M243.189,96.328l-23.972,3.892-13.861,10.843,18.917-8.614Z" transform="translate(-205.356 -96.328)"/>
                </g>
              </g>
            </g>
          </g>
        </g>
        <path id="Trazado_751554" data-name="Trazado 751554" d="M168.648,142.2V157.31l13.943-7.566V134.625Zm.627,14.1V142.523l12.708-6.879v13.763Z" transform="translate(-18.766 -14.98)" fill="#995d43"/>
        <path id="Trazado_751555" data-name="Trazado 751555" d="M179.131,141.389l-2.067-.064-.944.529v-.448l-.137-.072-.186.115-.132.2v.431l-.962.532-2.049,2.28-1.185,2.681v.869l4.2-2.264v4.689l-.862,1.373-.464.251-.859-.468v-.767l-.154-.068-.187.116-.109.191v.985l1.108.614.864-.443,1.126-1.833v-4.884l4.183-2.276v-.882Z" transform="translate(-19.08 -15.726)" fill="#995d43"/>
        <path id="Trazado_751556" data-name="Trazado 751556" d="M187.623,131.9V147.03l13.944-7.583v-15.08Zm.641,14.117V132.248l12.685-6.884v13.759Z" transform="translate(-20.877 -13.839)" fill="#995d43"/>
        <path id="Trazado_751557" data-name="Trazado 751557" d="M220.557,114.079l-13.939,7.544.005,15.106,13.933-7.54Zm-13.326,21.649V121.964l12.7-6.888v13.767Z" transform="translate(-22.991 -12.694)" fill="#995d43"/>
        <path id="Trazado_751558" data-name="Trazado 751558" d="M190.842,139.033l1.022.563.477-.265v3.977l-.477.265-1.022.912v.06l3.475-1.875V142.6l-1.009.192-.486.268v-3.994l.486-.26,1.009-1.649v-5.243l-3.475,1.881Z" transform="translate(-21.236 -14.679)" fill="#995d43"/>
        <path id="Trazado_751559" data-name="Trazado 751559" d="M196.213,136.125l1.022.537.477-.243V140.4l-.477.264-1.022.916v.035l3.462-1.867v-.051l-1.009.17-.482.286v-4l.482-.247,1.009-1.658v-5.252l-3.462,1.893Zm.314-5.072,2.847-1.547v4.654l-.922,1.521-1.218.649-.708-.376Z" transform="translate(-21.833 -14.354)" fill="#995d43"/>
        <path id="Trazado_751560" data-name="Trazado 751560" d="M217.1,121.436l.286-.486-.1-.043-.246.405-.322.175-.223-.128v-.341l.223-.384.322-.162.246.137.1-.175-.286-.145-.45.247-.3.491v.482l.3.148Z" transform="translate(-24.073 -13.385)" fill="#995d43"/>
        <path id="Trazado_751561" data-name="Trazado 751561" d="M212.04,127.916l.282-.477-.1-.052-.231.4-.323.175-.222-.116V127.5l.222-.371.323-.166.231.14.1-.183-.282-.148-.432.238-.308.494v.469l.308.166Z" transform="translate(-23.512 -14.107)" fill="#995d43"/>
        <path id="Trazado_751562" data-name="Trazado 751562" d="M214.7,123.687v-2.873l-.359-.179-.5.252-.346.587v4.148l-.976,1.581-1.413.768v.2l1.476-.826.913-1.433v3.2l-.74,1.16v1.206l.8.435,1.1-.605.771-1.27v-1.18l-.726-.405v-4.5l.949-1.577,1.431-.759v-.2l-1.495.806Zm-.2.285-.831,1.351v-3.878l.25-.388.336-.187.245.119Z" transform="translate(-23.49 -13.423)" fill="#995d43"/>
        <path id="Trazado_751563" data-name="Trazado 751563" d="M146.478,0,135.56,5.92,127.6,13.887,97.386,30.907,71.13,38.919,59.567,47.138,88.493,62.8l25.693,16.337,3.319,4.962,25.915,8.482,6.309,3.414L236.6,48.86,196.418,27.066l-8.465-.635-1.281-4.642Z" transform="translate(-6.628 0)" fill="#f7e6bb"/>
        <path id="Trazado_751564" data-name="Trazado 751564" d="M92.115,68.7l29.012-11.752,16.627-.75,14.884,2.438,37.76-5.6L141.339,73.674,121.127,90Z" transform="translate(-10.25 -5.902)" fill="#e8d8b0"/>
        <path id="Trazado_751565" data-name="Trazado 751565" d="M143.469,53.024l52.552-28.507,9.733,5.268-47.4,25.676L147.78,56.894Z" transform="translate(-15.964 -2.728)" fill="#b88f5a"/>
        <path id="Trazado_751566" data-name="Trazado 751566" d="M154.329,59.031,117,86.119l-6.122-3.542-3.566-3.558,32.137-22.424Z" transform="translate(-11.941 -6.297)" fill="#ab8554"/>
        <path id="Trazado_751567" data-name="Trazado 751567" d="M117,100.512l-9.687-5.264V81.825l9.687,7.1Z" transform="translate(-11.941 -9.105)" fill="#a16739"/>
        <path id="Trazado_751568" data-name="Trazado 751568" d="M183.883,266.132l-1.013-.008,2.6,7.557Z" transform="translate(-20.349 -29.612)" fill="#836e69"/>
        <path id="Trazado_751569" data-name="Trazado 751569" d="M185.279,265.7l-.962.328,1.317,7.608Z" transform="translate(-20.51 -29.565)" fill="#403531"/>
        <path id="Trazado_751570" data-name="Trazado 751570" d="M184.628,266.194l-.245-.277-.7.426,1.881,7.315Z" transform="translate(-20.439 -29.589)" fill="#685750"/>
        <path id="Trazado_751571" data-name="Trazado 751571" d="M186.186,251.257l-6.3-1.364-4.11,3.078,2.812,4.514,4.245,7.9,1.3-.226.273-8.687Z" transform="translate(-19.559 -27.806)" fill="#d1d1d1"/>
        <path id="Trazado_751572" data-name="Trazado 751572" d="M187.146,251.428l-2.748,2.148.691,11.756.809-.635Z" transform="translate(-20.519 -27.977)" fill="#adadad"/>
        <path id="Trazado_751573" data-name="Trazado 751573" d="M179.133,254.5l-3.36-1.146,6.063,12.083.994.333Z" transform="translate(-19.559 -28.192)" fill="#e6e1dd"/>
        <path id="Trazado_751574" data-name="Trazado 751574" d="M172.959,196.651l-4.533.729-3.525-1.194-.45-2.425,2.866-2.272,4.509-.747,3.52,1.224.454,2.425Z" transform="translate(-18.299 -21.225)" fill="#785b56"/>
        <path id="Trazado_751575" data-name="Trazado 751575" d="M168.483,198.062l-3.525-1.194,9.434,50.611L177.9,248.7l-2.916-24.926Z" transform="translate(-18.355 -21.906)" fill="#fa5c52"/>
        <path id="Trazado_751576" data-name="Trazado 751576" d="M173.457,197.391l-4.532.729,9.415,50.637,4.519-.746-3.107-25.562Z" transform="translate(-18.797 -21.964)" fill="#c84030"/>
        <path id="Trazado_751577" data-name="Trazado 751577" d="M176.867,194.849l-2.843,2.259,9.4,50.62,2.874-2.255Z" transform="translate(-19.364 -21.682)" fill="#8a1c14"/>
        <g id="Grupo_1021515" data-name="Grupo 1021515">
          <g id="Grupo_1021514" data-name="Grupo 1021514" clip-path="url(#clip-path)">
            <g id="Grupo_1021513" data-name="Grupo 1021513" transform="translate(146.494 172.545)" opacity="0.3">
              <g id="Grupo_1021512" data-name="Grupo 1021512">
                <g id="Grupo_1021511" data-name="Grupo 1021511" clip-path="url(#clip-path-13)">
                  <path id="Trazado_751578" data-name="Trazado 751578" d="M175.722,194.149l-2.866,2.242-4.514.755-3.507-1.2.723,3.934L169.1,201.1l4.5-.746,2.884-2.259Z" transform="translate(-164.836 -194.149)"/>
                </g>
              </g>
            </g>
          </g>
        </g>
        <path id="Trazado_751579" data-name="Trazado 751579" d="M164.681,151.077l-5.146.843-4-1.36L155,147.769l3.271-2.579,5.169-.843,3.992,1.377.545,2.8Z" transform="translate(-17.247 -16.062)" fill="#d1d1d1"/>
        <path id="Trazado_751580" data-name="Trazado 751580" d="M159.6,152.7l-4-1.36,7.871,42.359,4.024,1.386-7.539-42.057Z" transform="translate(-17.314 -16.84)" fill="#fa5c52"/>
        <path id="Trazado_751581" data-name="Trazado 751581" d="M165.25,151.92l-5.146.843L168,195.149l5.141-.857-7.426-42.147Z" transform="translate(-17.815 -16.905)" fill="#c84030"/>
        <path id="Trazado_751582" data-name="Trazado 751582" d="M169.187,149.052l-3.293,2.549,7.889,42.373,3.293-2.571Z" transform="translate(-18.46 -16.585)" fill="#8a1c14"/>
        <path id="Trazado_751583" data-name="Trazado 751583" d="M155.534,149.371,155,146.579l1.58-12.6,2.017-.336,1.981,13.452Z" transform="translate(-17.247 -14.871)" fill="#d1d1d1"/>
        <path id="Trazado_751584" data-name="Trazado 751584" d="M168.522,147.282l-.545-2.8-6.032-11.329-2.021.32,3.024,13.273Z" transform="translate(-17.795 -14.816)" fill="gray"/>
        <path id="Trazado_751585" data-name="Trazado 751585" d="M158.871,134.855l-2.017.345-1.253,14.3,4,1.372.6-6.671Z" transform="translate(-17.314 -15.006)" fill="#e6e1dd"/>
        <path id="Trazado_751586" data-name="Trazado 751586" d="M160.109,133.709l-1.34,1.884,1.186,15.157,5.147-.857-.895-7.047Z" transform="translate(-17.667 -14.878)" fill="#d1d1d1"/>
        <path id="Trazado_751587" data-name="Trazado 751587" d="M162.2,134.263l-1.921-.554.636,1.555,4.356,14.628,3.3-2.549Z" transform="translate(-17.835 -14.878)" fill="#adadad"/>
        <path id="Trazado_751588" data-name="Trazado 751588" d="M160.523,135.132l-1.976.328-1.562-.52-.209-1.082,1.267-1,2.008-.337,1.544.558.213,1.053Z" transform="translate(-17.445 -14.746)" fill="#f4efe9"/>
        <path id="Trazado_751589" data-name="Trazado 751589" d="M162.566,168.691l-4-1.381.172,1,4.033,1.372.181-.677Z" transform="translate(-17.644 -18.617)" fill="#fbe979"/>
        <path id="Trazado_751590" data-name="Trazado 751590" d="M168.24,167.9l-5.173.857.205.993,5.15-.843.268-.78Z" transform="translate(-18.145 -18.683)" fill="#e3bd5e"/>
        <path id="Trazado_751591" data-name="Trazado 751591" d="M172.149,165.022l-3.261,2.558.181,1.005,3.265-2.578Z" transform="translate(-18.793 -18.363)" fill="#cc934c"/>
        <path id="Trazado_751592" data-name="Trazado 751592" d="M166.951,204.8l-3.143-1.078-8.494-45.681,3.411.67Z" transform="translate(-17.282 -17.586)" fill="#d1d1d1"/>
        <path id="Trazado_751593" data-name="Trazado 751593" d="M159.7,158.364l-1.244.605-3.139-1.091L157,156.552l3.148,1.083-.391.729Z" transform="translate(-17.282 -17.42)" fill="#f4efe9"/>
        <path id="Trazado_751594" data-name="Trazado 751594" d="M167.344,204.772l-8.5-45.667,1.689-1.334.1.554-1.231.972,8.4,45.13Z" transform="translate(-17.675 -17.556)" fill="#adadad"/>
        <g id="Grupo_1021520" data-name="Grupo 1021520">
          <g id="Grupo_1021519" data-name="Grupo 1021519" clip-path="url(#clip-path)">
            <g id="Grupo_1021518" data-name="Grupo 1021518" transform="translate(16.882 121.78)" opacity="0.3">
              <g id="Grupo_1021517" data-name="Grupo 1021517">
                <g id="Grupo_1021516" data-name="Grupo 1021516" clip-path="url(#clip-path-15)">
                  <path id="Trazado_751595" data-name="Trazado 751595" d="M78.133,137.028l61.319,33.246L80.336,202.357,19,169.12Z" transform="translate(-18.995 -137.028)"/>
                </g>
              </g>
            </g>
          </g>
        </g>
        <path id="Trazado_751596" data-name="Trazado 751596" d="M80.56,163.972,21.249,131.829v36.929L80.56,200.9Z" transform="translate(-2.364 -14.669)" fill="#efc58b"/>
        <path id="Trazado_751597" data-name="Trazado 751597" d="M145.125,170.03l-57.14,31.009V164.114l57.14-31.009Z" transform="translate(-9.79 -14.811)" fill="#c79d5c"/>
        <path id="Trazado_751598" data-name="Trazado 751598" d="M93.3,180.664v15.123l13.948-7.566V173.089Zm.622,14.109v-13.78l12.712-6.884V187.88Z" transform="translate(-10.382 -19.26)" fill="#995d43"/>
        <path id="Trazado_751599" data-name="Trazado 751599" d="M103.783,179.859l-2.071-.055-.954.515v-.443l-.117-.064-.2.1-.123.209v.443l-.972.516-2.048,2.28-1.181,2.689v.87l4.2-2.264v4.693l-.854,1.364-.486.264-.854-.465v-.776l-.14-.068-.186.111-.118.2v.988l1.1.614.864-.451,1.126-1.833v-4.88l4.2-2.285v-.874Z" transform="translate(-10.695 -20.007)" fill="#995d43"/>
        <path id="Trazado_751600" data-name="Trazado 751600" d="M112.286,170.361v15.145l13.952-7.583v-15.1Zm.627,14.134V170.715l12.7-6.888v13.764Z" transform="translate(-12.494 -18.118)" fill="#995d43"/>
        <path id="Trazado_751601" data-name="Trazado 751601" d="M145.238,152.528l-13.957,7.562.009,15.114,13.948-7.561ZM131.9,174.19V160.435l12.712-6.9v13.772Z" transform="translate(-14.608 -16.972)" fill="#995d43"/>
        <path id="Trazado_751602" data-name="Trazado 751602" d="M115.51,177.515l1,.555L117,177.8v3.977l-.486.264-1,.921v.06l3.461-1.888v-.073l-1,.205-.482.273v-4.007l.482-.264,1-1.658V170.38l-3.461,1.883Z" transform="translate(-12.853 -18.959)" fill="#995d43"/>
        <path id="Trazado_751603" data-name="Trazado 751603" d="M120.872,174.589l1.017.541.491-.26v4l-.491.264-1.017.9v.051l3.469-1.875v-.06l-1.008.183-.485.282v-4l.485-.238,1.008-1.667v-5.255l-3.469,1.905Zm.317-5.076,2.847-1.543v4.654l-.926,1.522-1.222.648-.7-.367Z" transform="translate(-13.45 -18.633)" fill="#995d43"/>
        <path id="Trazado_751604" data-name="Trazado 751604" d="M141.775,159.9l.282-.491-.1-.043-.244.41-.323.162-.223-.115v-.346l.223-.388.323-.162.244.145.1-.179-.282-.145-.454.251-.3.494v.482l.3.141Z" transform="translate(-15.692 -17.664)" fill="#995d43"/>
        <path id="Trazado_751605" data-name="Trazado 751605" d="M136.7,166.375l.3-.473-.1-.056-.232.4-.317.171-.236-.111v-.349l.236-.363.317-.17.232.145.1-.192-.3-.149-.422.238-.3.5v.473l.3.175Z" transform="translate(-15.131 -18.386)" fill="#995d43"/>
        <path id="Trazado_751606" data-name="Trazado 751606" d="M139.367,162.144v-2.868l-.364-.2-.485.268-.359.584v4.148l-.972,1.581-1.4.763v.208l1.481-.818.895-1.454v3.206l-.74,1.172v1.2l.8.439,1.1-.605.772-1.274v-1.177l-.726-.41v-4.5l.958-1.573,1.43-.776v-.192l-1.494.811Zm-.191.286-.826,1.36V159.9l.236-.388.35-.2.241.128Z" transform="translate(-15.109 -17.701)" fill="#995d43"/>
        <path id="Trazado_751607" data-name="Trazado 751607" d="M78.42,96.938l25.506,13.836,1.626,4.139,8.1,1.125L137.7,129.08,80.56,160.089,21.249,127.946Z" transform="translate(-2.364 -10.787)" fill="#f7e6bb"/>
        <path id="Trazado_751608" data-name="Trazado 751608" d="M59.667,148.753,56,149.516l-6.027-6.01,57.15-31,9.728,5.264Z" transform="translate(-5.561 -12.519)" fill="#b88f5a"/>
        <path id="Trazado_751609" data-name="Trazado 751609" d="M59.667,166.082l-9.692-5.247V147.388l9.692,5.247Z" transform="translate(-5.561 -16.4)" fill="#a16739"/>
        <path id="Trazado_751610" data-name="Trazado 751610" d="M0,101.232l5.882,1.206L11.236,98.4l-5.89-.06Z" transform="translate(0 -10.942)" fill="#a1b346"/>
        <path id="Trazado_751611" data-name="Trazado 751611" d="M6.618,101.3l20.657,11.188,5.349-2.9L11.972,98.4Z" transform="translate(-0.736 -10.95)" fill="#dde65c"/>
        <path id="Trazado_751612" data-name="Trazado 751612" d="M29.86,113.888l5.413,7.562,5.818-4.148L35.21,110.99Z" transform="translate(-3.323 -12.35)" fill="#a1b346"/>
        <path id="Trazado_751613" data-name="Trazado 751613" d="M41.46,144.494l-5.346,2.886-2.943-18.469,2.943-7.92,5.346-2.9Z" transform="translate(-3.691 -13.141)" fill="#92a145"/>
        <path id="Trazado_751614" data-name="Trazado 751614" d="M0,127.992l16.218,23.8,16.205-6.244V119.156l-5.886-6.313L5.882,101.654,0,101.595Z" transform="translate(0 -11.305)" fill="#b4c342"/>
        <path id="Trazado_751615" data-name="Trazado 751615" d="M28.575,119.853V141.77L16.43,146.449,4.29,128.612V106.678Zm1.435-.793L2.828,104.338l-.922.5.895,3-.418,20.77,14.047,19.9,11.613-4.471,1.032-.26.935-.507Z" transform="translate(-0.212 -11.61)" fill="#d1d1d1"/>
        <path id="Trazado_751616" data-name="Trazado 751616" d="M26.814,130v-1.453l-.949-1.53-1.313-.7-9.133,4.935-3.91-6.377-1.326-.729-1.9,1.044.268,1.965,6.2,7.941,1.348.716Z" transform="translate(-0.921 -13.814)" fill="#d1d1d1"/>
        <path id="Trazado_751617" data-name="Trazado 751617" d="M27.631,120.419v21.926l-12.144,4.671L3.346,129.182V107.253Zm1.444-.78L1.907,104.9v24.219l13.58,19.956,13.589-5.238Z" transform="translate(-0.212 -11.673)" fill="#fff"/>
        <path id="Trazado_751618" data-name="Trazado 751618" d="M24.8,131.168v-1.436l-.954-1.538-1.317-.725L13.4,132.413l-3.915-6.369-1.327-.729-.944.5v1.453l5.531,8.994,1.33.712Z" transform="translate(-0.803 -13.944)" fill="#fff"/>
        <g id="Grupo_1021525" data-name="Grupo 1021525">
          <g id="Grupo_1021524" data-name="Grupo 1021524" clip-path="url(#clip-path)">
            <g id="Grupo_1021523" data-name="Grupo 1021523" transform="translate(275.125 95.993)" opacity="0.3">
              <g id="Grupo_1021522" data-name="Grupo 1021522">
                <g id="Grupo_1021521" data-name="Grupo 1021521" clip-path="url(#clip-path-17)">
                  <path id="Trazado_751619" data-name="Trazado 751619" d="M368.7,108.012l61.323,33.255-59.107,32.087-61.341-33.242Z" transform="translate(-309.572 -108.012)"/>
                </g>
              </g>
            </g>
          </g>
        </g>
        <path id="Trazado_751620" data-name="Trazado 751620" d="M371.118,134.965l-59.292-32.147v36.929l59.292,32.135Z" transform="translate(-34.698 -11.441)" fill="#efc58b"/>
        <path id="Trazado_751621" data-name="Trazado 751621" d="M435.7,141.018l-57.159,31.005V135.106L435.7,104.093Z" transform="translate(-42.122 -11.583)" fill="#c79d5c"/>
        <path id="Trazado_751622" data-name="Trazado 751622" d="M383.873,151.656v15.119l13.948-7.566V144.073Zm.622,14.117V151.984l12.712-6.884v13.768Z" transform="translate(-42.715 -16.032)" fill="#995d43"/>
        <path id="Trazado_751623" data-name="Trazado 751623" d="M394.351,150.857l-2.057-.06-.962.5v-.435l-.127-.068-.191.119-.127.2v.448l-.968.52-2.048,2.276-1.177,2.685v.866l4.192-2.259v4.689l-.85,1.377-.491.255-.854-.459v-.777l-.136-.072-.2.111-.113.2v.985l1.108.618.862-.451,1.131-1.833V155.4l4.192-2.284v-.878Z" transform="translate(-43.029 -16.78)" fill="#995d43"/>
        <path id="Trazado_751624" data-name="Trazado 751624" d="M402.853,141.359V156.5l13.952-7.591V133.815Zm.635,14.125V141.713l12.69-6.892V148.58Z" transform="translate(-44.827 -14.89)" fill="#995d43"/>
        <path id="Trazado_751625" data-name="Trazado 751625" d="M435.809,123.532l-13.961,7.54,0,15.131,13.957-7.569Zm-13.334,21.653V131.418l12.708-6.889v13.764Z" transform="translate(-46.94 -13.746)" fill="#995d43"/>
        <path id="Trazado_751626" data-name="Trazado 751626" d="M406.077,148.5l1.013.563.486-.268v3.977l-.486.268-1.013.921v.055l3.47-1.888v-.068l-1.012.2-.477.273v-4l.477-.26,1.012-1.654v-5.243l-3.47,1.884Z" transform="translate(-45.186 -15.731)" fill="#995d43"/>
        <path id="Trazado_751627" data-name="Trazado 751627" d="M411.448,145.586l1.018.542.491-.265v4l-.491.273-1.018.895v.056l3.465-1.876v-.063l-1.012.179-.486.277v-4l.486-.235,1.012-1.675v-5.247l-3.465,1.893Zm.314-5.084,2.847-1.543v4.65l-.922,1.53-1.222.643-.7-.366Z" transform="translate(-45.783 -15.405)" fill="#995d43"/>
        <path id="Trazado_751628" data-name="Trazado 751628" d="M432.348,130.888l.291-.5-.118-.034-.24.409-.314.166-.236-.119v-.349l.236-.384.314-.166.24.145.118-.166-.291-.157-.454.246-.3.495v.486l.3.145Z" transform="translate(-48.025 -14.436)" fill="#995d43"/>
        <path id="Trazado_751629" data-name="Trazado 751629" d="M427.284,137.369l.286-.473-.1-.06-.236.405-.323.166-.222-.1v-.35l.222-.366.323-.175.236.149.1-.2-.286-.145-.431.243-.314.49v.474l.314.175Z" transform="translate(-47.462 -15.158)" fill="#995d43"/>
        <path id="Trazado_751630" data-name="Trazado 751630" d="M429.943,133.129v-2.869l-.368-.188-.486.265-.359.587v4.148l-.967,1.573-1.412.776v.2l1.475-.819.9-1.458v3.206l-.74,1.171v1.2l.813.435,1.085-.6.782-1.283v-1.163l-.727-.413V133.4l.949-1.572,1.435-.763v-.2l-1.495.81Zm-.2.294-.813,1.355V130.9l.232-.4.354-.192.228.119Z" transform="translate(-47.442 -14.474)" fill="#995d43"/>
        <path id="Trazado_751631" data-name="Trazado 751631" d="M368.988,67.931,394.5,81.762l1.622,4.143,8.1,1.134,24.048,13.03-57.158,31.014L311.827,98.935Z" transform="translate(-34.698 -7.559)" fill="#f7e6bb"/>
        <path id="Trazado_751632" data-name="Trazado 751632" d="M350.238,119.75l-3.665.763-6.032-6.018,57.158-31,9.724,5.276Z" transform="translate(-37.893 -9.291)" fill="#b88f5a"/>
        <path id="Trazado_751633" data-name="Trazado 751633" d="M350.238,137.066l-9.7-5.238V118.376l9.7,5.256Z" transform="translate(-37.893 -13.172)" fill="#a16739"/>
        <path id="Trazado_751634" data-name="Trazado 751634" d="M358.587,91.205l-59.3-32.147V95.992l59.3,32.138Z" transform="translate(-33.302 -6.572)" fill="#efc58b"/>
        <path id="Trazado_751635" data-name="Trazado 751635" d="M423.165,97.26l-57.153,31.013V91.349l57.153-31.005Z" transform="translate(-40.727 -6.715)" fill="#c79d5c"/>
        <path id="Trazado_751636" data-name="Trazado 751636" d="M371.332,107.9v15.119l13.957-7.562V100.319Zm.622,14.113V108.226l12.708-6.88V115.1Z" transform="translate(-41.319 -11.163)" fill="#995d43"/>
        <path id="Trazado_751637" data-name="Trazado 751637" d="M381.8,107.093l-2.053-.06-.954.515v-.443l-.127-.063-.2.11-.118.2v.456l-.977.515-2.035,2.28-1.189,2.685v.866l4.2-2.255v4.684l-.854,1.377-.486.26-.859-.478v-.767l-.136-.072-.186.111-.114.2v.988l1.1.614.864-.456,1.13-1.829v-4.88L383,109.365v-.882Z" transform="translate(-41.633 -11.91)" fill="#995d43"/>
        <path id="Trazado_751638" data-name="Trazado 751638" d="M390.322,97.593v15.148l13.948-7.587V90.069Zm.631,14.138V97.95l12.689-6.883V104.83Z" transform="translate(-43.432 -10.022)" fill="#995d43"/>
        <path id="Trazado_751639" data-name="Trazado 751639" d="M423.269,79.758l-13.962,7.558.019,15.118,13.943-7.557Zm-13.344,21.674V87.665l12.721-6.9V94.54Z" transform="translate(-45.545 -8.875)" fill="#995d43"/>
        <path id="Trazado_751640" data-name="Trazado 751640" d="M393.541,104.745l1.013.555.472-.265v3.977l-.472.264-1.013.922v.059l3.47-1.883V108.3l-1.012.2-.482.273v-4l.482-.26,1.012-1.654V97.615l-3.47,1.883Z" transform="translate(-43.791 -10.862)" fill="#995d43"/>
        <path id="Trazado_751641" data-name="Trazado 751641" d="M398.907,101.824l1.022.538.482-.252v3.99l-.482.268-1.022.9v.055l3.475-1.875v-.064l-1.018.179-.482.277v-4l.482-.234,1.018-1.663V94.693l-3.475,1.893Zm.318-5.072,2.847-1.552v4.654l-.926,1.527-1.218.648-.7-.371Z" transform="translate(-44.388 -10.537)" fill="#995d43"/>
        <path id="Trazado_751642" data-name="Trazado 751642" d="M419.8,87.129l.291-.491-.1-.038-.24.405-.323.171-.236-.128V86.7l.236-.387.323-.158.24.141.1-.171-.291-.154-.441.252-.309.494v.491l.309.137Z" transform="translate(-46.629 -9.567)" fill="#995d43"/>
        <path id="Trazado_751643" data-name="Trazado 751643" d="M414.74,93.6l.291-.468-.1-.06-.232.4-.323.18-.232-.116V93.2l.232-.367.323-.175.232.145.1-.2-.291-.149-.427.238-.3.5v.473l.3.162Z" transform="translate(-46.068 -10.288)" fill="#995d43"/>
        <path id="Trazado_751644" data-name="Trazado 751644" d="M417.4,89.375V86.512l-.367-.192-.487.264-.358.583v4.144l-.968,1.581-1.412.768v.208l1.48-.827.9-1.449V94.8l-.736,1.176v1.2l.8.435,1.1-.61.777-1.274V94.555l-.727-.41V89.653l.954-1.585,1.435-.764v-.195l-1.494.806Zm-.195.285-.818,1.361V87.138l.236-.4.34-.187.242.124Z" transform="translate(-46.046 -9.605)" fill="#995d43"/>
        <path id="Trazado_751645" data-name="Trazado 751645" d="M356.457,24.172,381.963,38l1.626,4.151,8.1,1.122L415.74,56.319l-57.153,31-59.3-32.147Z" transform="translate(-33.302 -2.69)" fill="#f7e6bb"/>
        <path id="Trazado_751646" data-name="Trazado 751646" d="M337.7,75.987l-3.661.767L328,70.735l57.158-31,9.724,5.273Z" transform="translate(-36.498 -4.421)" fill="#b88f5a"/>
        <path id="Trazado_751647" data-name="Trazado 751647" d="M337.7,93.312,328,88.065V74.617l9.7,5.251Z" transform="translate(-36.498 -8.303)" fill="#a16739"/>
        <path id="Trazado_751648" data-name="Trazado 751648" d="M289.268,26.786l-5.891-.073-5.337,2.895,5.873,1.215Z" transform="translate(-30.939 -2.972)" fill="#a1b346"/>
        <path id="Trazado_751649" data-name="Trazado 751649" d="M284.649,29.677l20.666,11.193,5.331-2.894L290,26.8Z" transform="translate(-31.674 -2.982)" fill="#dde65c"/>
        <path id="Trazado_751650" data-name="Trazado 751650" d="M307.9,42.269l5.4,7.566,5.823-4.151-5.895-6.308Z" transform="translate(-34.261 -4.381)" fill="#a1b346"/>
        <path id="Trazado_751651" data-name="Trazado 751651" d="M319.5,72.862l-5.341,2.9L311.2,57.292l2.952-7.924,5.341-2.894Z" transform="translate(-34.629 -5.171)" fill="#92a145"/>
        <path id="Trazado_751652" data-name="Trazado 751652" d="M304.579,41.223,283.913,30.03l-5.872-.06v26.4l16.209,23.8,16.214-6.241v-26.4Z" transform="translate(-30.939 -3.335)" fill="#b4c342"/>
        <path id="Trazado_751653" data-name="Trazado 751653" d="M306.611,48.233V70.154l-12.149,4.672L282.317,56.992V35.058Zm1.435-.793L280.868,32.714l-.935.507.908,3-.427,20.775,14.048,19.9,11.622-4.48,1.022-.252.94-.507Z" transform="translate(-31.149 -3.64)" fill="#d1d1d1"/>
        <path id="Trazado_751654" data-name="Trazado 751654" d="M304.84,58.373V56.932L303.9,55.4l-1.326-.712-9.12,4.936-3.915-6.377-1.33-.729-1.9,1.049.273,1.974,6.2,7.932,1.335.716Z" transform="translate(-31.859 -5.844)" fill="#d1d1d1"/>
        <path id="Trazado_751655" data-name="Trazado 751655" d="M305.674,48.8V70.725L293.512,75.4,281.381,57.563V35.642Zm1.431-.78L279.932,33.285V57.5l13.58,19.964L307.1,72.222Z" transform="translate(-31.149 -3.704)" fill="#fff"/>
        <path id="Trazado_751656" data-name="Trazado 751656" d="M302.829,59.557V58.112l-.94-1.538-1.33-.721L291.434,60.8l-3.91-6.377-1.331-.729-.939.511v1.445l5.527,8.994,1.322.72Z" transform="translate(-31.741 -5.975)" fill="#fff"/>
        <g id="Grupo_1021530" data-name="Grupo 1021530">
          <g id="Grupo_1021529" data-name="Grupo 1021529" clip-path="url(#clip-path)">
            <g id="Grupo_1021528" data-name="Grupo 1021528" transform="translate(229.34 231.208)" opacity="0.3">
              <g id="Grupo_1021527" data-name="Grupo 1021527">
                <g id="Grupo_1021526" data-name="Grupo 1021526" clip-path="url(#clip-path-19)">
                  <path id="Trazado_751657" data-name="Trazado 751657" d="M347.84,268.55l-74.3,40.245-15.483-8.38,74.3-40.258Z" transform="translate(-258.055 -260.157)"/>
                </g>
              </g>
            </g>
          </g>
        </g>
        <path id="Trazado_751658" data-name="Trazado 751658" d="M358.454,261.139l-2.352,2.169-.958-2.391-3.129-3.738,3.629-.606Z" transform="translate(-39.17 -28.55)" fill="#dde65c"/>
        <path id="Trazado_751659" data-name="Trazado 751659" d="M358.857,266.029,357,267.043l-1.358-3.162L357,262.725l1.862-1.015Z" transform="translate(-39.573 -29.121)" fill="#92a145"/>
        <path id="Trazado_751660" data-name="Trazado 751660" d="M352.146,256.9l-11.927-6.462-2.82,1.522v4.317l2.82,4.569,11.927,6.466,2.821-1.522V261.47Z" transform="translate(-37.544 -27.867)" fill="#e3bd5e"/>
        <path id="Trazado_751661" data-name="Trazado 751661" d="M352.5,256.771l-11.927-6.462,1.866-1.005,11.931,6.461Z" transform="translate(-37.897 -27.741)" fill="#edf763"/>
        <path id="Trazado_751662" data-name="Trazado 751662" d="M299.375,296.591l-12.362-6.7-3.126-5.072v-4.778l3.126-1.7,12.362,6.7,3.111,5.063v4.787Z" transform="translate(-31.589 -30.972)" fill="#685750"/>
        <path id="Trazado_751663" data-name="Trazado 751663" d="M346.514,256.532l-21.237,15.2-25.512,10.136-12.362-6.7,46.749-25.336Z" transform="translate(-31.98 -27.8)" fill="#836e69"/>
        <path id="Trazado_751664" data-name="Trazado 751664" d="M344.467,257.733l-19.693,10.673L321.98,266.9l19.689-10.673Z" transform="translate(-35.828 -28.511)" fill="#a39685"/>
        <path id="Trazado_751665" data-name="Trazado 751665" d="M351.581,267.865,304.814,293.2V288.41l19.43-13.491,27.336-11.832Z" transform="translate(-33.918 -29.275)" fill="#362c29"/>
        <path id="Trazado_751666" data-name="Trazado 751666" d="M351.191,262.451l-46.767,25.323-3.111-5.064,46.748-25.34Z" transform="translate(-33.528 -28.638)" fill="#685750"/>
        <path id="Trazado_751667" data-name="Trazado 751667" d="M303.429,290.963l-2.348,2.169-.949-2.4L296.975,287l3.629-.619Z" transform="translate(-33.045 -31.866)" fill="#dde65c"/>
        <path id="Trazado_751668" data-name="Trazado 751668" d="M303.833,295.847l-1.881,1.006-1.345-3.145,1.345-1.16,1.881-1.01Z" transform="translate(-33.45 -32.44)" fill="#92a145"/>
        <path id="Trazado_751669" data-name="Trazado 751669" d="M297.113,286.719,285.2,280.257l-2.816,1.522v4.314l2.816,4.573,11.918,6.462,2.811-1.53v-4.305Z" transform="translate(-31.421 -31.185)" fill="#e3bd5e"/>
        <path id="Trazado_751670" data-name="Trazado 751670" d="M297.466,286.593l-11.918-6.462,1.867-1.01,11.918,6.449Z" transform="translate(-31.774 -31.059)" fill="#edf763"/>
        <path id="Trazado_751671" data-name="Trazado 751671" d="M298.178,295.261l-3.493,1.9-2.775-5.119,6.268-1.091Z" transform="translate(-32.482 -32.375)" fill="#cc934c"/>
        <path id="Trazado_751672" data-name="Trazado 751672" d="M281.647,299.578l-4.674-2.519v-4.318l7.726.806Z" transform="translate(-30.82 -32.574)" fill="#e3bd5e"/>
        <path id="Trazado_751673" data-name="Trazado 751673" d="M293.609,297.249l-11.377,2.216v-4.309l4.6-3.431,6.781,1.21Z" transform="translate(-31.405 -32.461)" fill="#ffd46a"/>
        <path id="Trazado_751674" data-name="Trazado 751674" d="M284.581,283.672l-3.516,1.9-4.092,6.163,4.673,2.528,11.377-2.22,3.493-1.9Z" transform="translate(-30.82 -31.565)" fill="#fbe979"/>
        <path id="Trazado_751675" data-name="Trazado 751675" d="M275.1,295.915l-3.379,2.634-1.885,2.907,6.7-5.6-.413-.5Z" transform="translate(-30.026 -32.866)" fill="#e3bd5e"/>
        <path id="Trazado_751676" data-name="Trazado 751676" d="M269.839,301.88l3.62-.094,4.119-1.453,1.013-.55-.255-.605Z" transform="translate(-30.026 -33.29)" fill="#e3bd5e"/>
        <path id="Trazado_751677" data-name="Trazado 751677" d="M276.125,295.249l-3.684,2.784-2.6,3.308,3.451-2.617,1.072-.2,1.172-.567,1.058-.988,1.422-.2,1.24-1.658-1.444-.78Z" transform="translate(-30.026 -32.75)" fill="#fbe979"/>
        <path id="Trazado_751678" data-name="Trazado 751678" d="M277.56,296.114l-4.106,2.575-3.614,2.749,2.861-.613,1.176-.772,1.054-.2,1.635-.473.795-.644,1.231-.618,1.681-1.258-1.018-1.657Z" transform="translate(-30.026 -32.848)" fill="#fff3ab"/>
        <path id="Trazado_751679" data-name="Trazado 751679" d="M269.86,301.645l4.324-.482,4.41-1.616,1.681-.921v-1.56l-1.681.908-4.414,2.084Z" transform="translate(-30.028 -33.056)" fill="#fbe979"/>
        <path id="Trazado_751680" data-name="Trazado 751680" d="M274.773,309.924,262.4,303.219l-3.111-5.068v-4.778l3.111-1.7,12.376,6.7,3.107,5.08v4.774Z" transform="translate(-28.852 -32.456)" fill="#685750"/>
        <path id="Trazado_751681" data-name="Trazado 751681" d="M295.374,286.046l-10.192,7.881-10.019,3.078-12.376-6.7,20.229-10.958Z" transform="translate(-29.241 -31.084)" fill="#836e69"/>
        <path id="Trazado_751682" data-name="Trazado 751682" d="M300.442,297.371l-20.234,10.962V303.56l10.4-7.413,9.833-3.555Z" transform="translate(-31.18 -32.558)" fill="#362c29"/>
        <path id="Trazado_751683" data-name="Trazado 751683" d="M300.053,291.957l-20.234,10.967-3.107-5.08,20.211-10.959Z" transform="translate(-30.791 -31.923)" fill="#685750"/>
        <path id="Trazado_751684" data-name="Trazado 751684" d="M278.815,304.293l-2.352,2.174-.954-2.392-3.129-3.737,3.619-.619Z" transform="translate(-30.309 -33.351)" fill="#dde65c"/>
        <path id="Trazado_751685" data-name="Trazado 751685" d="M279.217,309.183l-1.872,1.01L276,307.04l1.348-1.16,1.872-1.015Z" transform="translate(-30.711 -33.923)" fill="#92a145"/>
        <path id="Trazado_751686" data-name="Trazado 751686" d="M272.52,300.052l-11.94-6.462-2.812,1.526v4.3L260.58,304l11.94,6.462,2.8-1.521v-4.314Z" transform="translate(-28.683 -32.669)" fill="#b4c342"/>
        <path id="Trazado_751687" data-name="Trazado 751687" d="M272.872,299.924l-11.94-6.462,1.871-1.018,11.922,6.466Z" transform="translate(-29.035 -32.541)" fill="#edf763"/>
        <g id="Grupo_1021535" data-name="Grupo 1021535">
          <g id="Grupo_1021534" data-name="Grupo 1021534" clip-path="url(#clip-path)">
            <g id="Grupo_1021533" data-name="Grupo 1021533" transform="translate(206.055 178.926)" opacity="0.3">
              <g id="Grupo_1021532" data-name="Grupo 1021532">
                <g id="Grupo_1021531" data-name="Grupo 1021531" clip-path="url(#clip-path-21)">
                  <path id="Trazado_751688" data-name="Trazado 751688" d="M321.748,209.734,247.355,250.04l-15.5-8.4,74.389-40.314Z" transform="translate(-231.854 -201.328)"/>
                </g>
              </g>
            </g>
          </g>
        </g>
        <path id="Trazado_751689" data-name="Trazado 751689" d="M332.39,202.324l-2.358,2.174-.953-2.4-3.143-3.738,3.633-.61Z" transform="translate(-36.268 -22.004)" fill="#bf261b"/>
        <path id="Trazado_751690" data-name="Trazado 751690" d="M332.794,207.21l-1.872,1.015-1.354-3.154,1.354-1.173,1.872-1Z" transform="translate(-36.672 -22.577)" fill="#991f16"/>
        <path id="Trazado_751691" data-name="Trazado 751691" d="M326.071,198.068l-11.94-6.47-2.821,1.521v4.326l2.821,4.577,11.94,6.466,2.82-1.521v-4.326Z" transform="translate(-34.641 -21.32)" fill="#c84030"/>
        <path id="Trazado_751692" data-name="Trazado 751692" d="M326.424,197.942l-11.94-6.47,1.871-1.006,11.94,6.47Z" transform="translate(-34.994 -21.194)" fill="#fa5c52"/>
        <path id="Trazado_751693" data-name="Trazado 751693" d="M273.218,237.821l-12.376-6.709-3.125-5.089v-4.787l3.125-1.7,12.376,6.713,3.134,5.09v4.782Z" transform="translate(-28.677 -24.429)" fill="#685750"/>
        <path id="Trazado_751694" data-name="Trazado 751694" d="M320.439,197.711l-21.282,15.208L273.61,223.076l-12.376-6.713L308.054,191Z" transform="translate(-29.068 -21.253)" fill="#836e69"/>
        <path id="Trazado_751695" data-name="Trazado 751695" d="M318.378,198.909,298.654,209.6l-2.8-1.508L315.58,197.4Z" transform="translate(-32.92 -21.965)" fill="#a39685"/>
        <path id="Trazado_751696" data-name="Trazado 751696" d="M325.515,209.041l-46.83,25.382v-4.782l19.443-13.533,27.387-11.849Z" transform="translate(-31.01 -22.729)" fill="#362c29"/>
        <path id="Trazado_751697" data-name="Trazado 751697" d="M325.123,203.624l-46.83,25.382-3.134-5.089,46.83-25.365Z" transform="translate(-30.618 -22.094)" fill="#685750"/>
        <path id="Trazado_751698" data-name="Trazado 751698" d="M277.284,232.18l-2.367,2.174-.944-2.392-3.148-3.746,3.642-.61Z" transform="translate(-30.136 -25.327)" fill="#bf261b"/>
        <path id="Trazado_751699" data-name="Trazado 751699" d="M277.689,237.079l-1.881,1.014-1.345-3.167,1.345-1.168,1.881-1.006Z" transform="translate(-30.54 -25.899)" fill="#991f16"/>
        <path id="Trazado_751700" data-name="Trazado 751700" d="M270.97,227.931l-11.949-6.479-2.816,1.53V227.3l2.816,4.587,11.949,6.47,2.807-1.517V232.5Z" transform="translate(-28.509 -24.642)" fill="#c84030"/>
        <path id="Trazado_751701" data-name="Trazado 751701" d="M271.322,227.805l-11.949-6.479,1.866-1.006,11.953,6.475Z" transform="translate(-28.861 -24.516)" fill="#fa5c52"/>
        <path id="Trazado_751702" data-name="Trazado 751702" d="M272.037,236.494l-3.52,1.905-2.761-5.128,6.281-1.095Z" transform="translate(-29.572 -25.835)" fill="#991f16"/>
        <path id="Trazado_751703" data-name="Trazado 751703" d="M255.462,240.819l-4.664-2.536v-4.318l7.735.814Z" transform="translate(-27.907 -26.034)" fill="#c84030"/>
        <path id="Trazado_751704" data-name="Trazado 751704" d="M267.437,238.486l-11.391,2.221v-4.322l4.61-3.431,6.781,1.215Z" transform="translate(-28.491 -25.922)" fill="#bf261b"/>
        <path id="Trazado_751705" data-name="Trazado 751705" d="M258.4,224.887l-3.51,1.892-4.092,6.177,4.664,2.532,11.391-2.216,3.519-1.905Z" transform="translate(-27.907 -25.024)" fill="#fa5c52"/>
        <path id="Trazado_751706" data-name="Trazado 751706" d="M248.907,237.14l-3.375,2.639-1.885,2.907,6.7-5.593-.422-.5Z" transform="translate(-27.112 -26.327)" fill="#991f16"/>
        <path id="Trazado_751707" data-name="Trazado 751707" d="M243.648,243.11l3.633-.081,4.11-1.458,1.031-.554-.272-.6Z" transform="translate(-27.112 -26.752)" fill="#991f16"/>
        <path id="Trazado_751708" data-name="Trazado 751708" d="M249.93,236.477l-3.684,2.792-2.6,3.3,3.438-2.613,1.081-.2,1.19-.571,1.054-.988,1.43-.2,1.231-1.667-1.444-.78Z" transform="translate(-27.112 -26.21)" fill="#bf261b"/>
        <path id="Trazado_751709" data-name="Trazado 751709" d="M251.374,237.346l-4.1,2.562-3.624,2.758,2.866-.623,1.167-.763,1.059-.192,1.631-.473.827-.648,1.217-.614,1.681-1.274-1.022-1.658Z" transform="translate(-27.112 -26.307)" fill="#fa5c52"/>
        <path id="Trazado_751710" data-name="Trazado 751710" d="M243.658,242.873l4.342-.482,4.423-1.611,1.681-.925-.009-1.569-1.681.917-4.423,2.093Z" transform="translate(-27.113 -26.515)" fill="#bf261b"/>
        <path id="Trazado_751711" data-name="Trazado 751711" d="M248.575,251.177,236.2,244.468l-3.134-5.089v-4.8L236.2,232.9l12.372,6.713,3.125,5.082v4.782Z" transform="translate(-25.934 -25.915)" fill="#685750"/>
        <path id="Trazado_751712" data-name="Trazado 751712" d="M269.224,227.247l-10.236,7.9-10.02,3.086L236.6,231.522l20.242-10.971Z" transform="translate(-26.327 -24.541)" fill="#836e69"/>
        <path id="Trazado_751713" data-name="Trazado 751713" d="M274.284,238.608l-20.251,10.967v-4.782l10.419-7.416,9.833-3.558Z" transform="translate(-28.267 -26.018)" fill="#362c29"/>
        <path id="Trazado_751714" data-name="Trazado 751714" d="M273.893,233.18l-20.251,10.976-3.125-5.081,20.256-10.988Z" transform="translate(-27.876 -25.38)" fill="#685750"/>
        <path id="Trazado_751715" data-name="Trazado 751715" d="M252.627,245.532l-2.344,2.178-.954-2.4-3.152-3.738,3.638-.61Z" transform="translate(-27.393 -26.812)" fill="#bf261b"/>
        <path id="Trazado_751716" data-name="Trazado 751716" d="M253.032,250.426l-1.857,1.018-1.362-3.162,1.362-1.16,1.857-1.019Z" transform="translate(-27.797 -27.385)" fill="#991f16"/>
        <path id="Trazado_751717" data-name="Trazado 751717" d="M246.327,241.28l-11.954-6.47-2.811,1.53v4.317l2.811,4.578,11.954,6.474,2.816-1.522v-4.322Z" transform="translate(-25.767 -26.128)" fill="#c84030"/>
        <path id="Trazado_751718" data-name="Trazado 751718" d="M246.679,241.153l-11.954-6.47,1.863-1.015,11.953,6.479Z" transform="translate(-26.119 -26.001)" fill="#fa5c52"/>
      </g>
    </g>
  </g>
</svg>
