<svg id="Grupo_1021718" data-name="Grupo 1021718" xmlns="http://www.w3.org/2000/svg" width="84.397" height="59.793" viewBox="0 0 84.397 59.793">
  <path id="Trazado_752615" data-name="Trazado 752615" d="M17.556,10.611.9,18.1v2.155H5.3V58.43h9.074V23.15H64.9V58.331h8.89V20.251h3.366V18L60.6,10.611,39.077.977Z" transform="translate(0.222 0.242)" fill="#57dbd8"/>
  <path id="Trazado_752616" data-name="Trazado 752616" d="M2.247,19,39.3,2.432,76.167,19v.376H72.794V57.453h-6.55V22.272H13.475V57.361H6.642V19.274h-4.4ZM39.3,0,0,17.594v4.02H4.4V59.793H15.716V24.519H64V59.7h11.13V21.521h3.374V17.5Z" fill="#1a0f91"/>
  <rect id="Rectángulo_358089" data-name="Rectángulo 358089" width="33.968" height="2.247" transform="translate(22.266 15.907)" fill="#1a0f91"/>
  <rect id="Rectángulo_358090" data-name="Rectángulo 358090" width="19.09" height="2.247" transform="translate(29.752 10.761)" fill="#1a0f91"/>
  <rect id="Rectángulo_358091" data-name="Rectángulo 358091" width="35.649" height="14.688" transform="translate(21.429 43.326)" fill="#57dbd8"/>
  <path id="Trazado_752617" data-name="Trazado 752617" d="M42.045,41.837l-1.311-.751-1.588.751-1.5-.751-1.5.751v-7.11h5.9Z" transform="translate(8.95 8.599)" fill="#fff"/>
  <path id="Trazado_752618" data-name="Trazado 752618" d="M27.8,41.837l-1.311-.751-1.588.751-1.5-.751-1.5.751v-7.11h5.9Z" transform="translate(5.422 8.599)" fill="#fff"/>
  <rect id="Rectángulo_358092" data-name="Rectángulo 358092" width="17.871" height="14.688" transform="translate(30.318 28.73)" fill="#fff"/>
  <path id="Trazado_752619" data-name="Trazado 752619" d="M34.92,30.138l-1.311-.751-1.5.751-1.594-.751-1.5.751v-7.11h5.9Z" transform="translate(7.186 5.702)" fill="#57dbd8"/>
  <path id="Trazado_752620" data-name="Trazado 752620" d="M24.416,43.178V38.968h3.645v4.118l-1.681.653Zm5.892-4.211H34.05V51.415H18.52V38.968h3.65v7.861l2.616-1.31,1.594.75,1.5-.75,2.432,1.4ZM42.2,43.178V38.968H45.84v4.118l-1.681.653Zm5.89-4.211h3.836V51.415H36.391V38.968h3.558v7.861l2.616-1.31,1.594.75,1.5-.75,2.43,1.4ZM33.307,28.583V24.372h3.644V28.4l-1.681.652ZM39.2,24.372h3.835V36.721H27.409V24.372h3.65v7.861l2.616-1.311,1.594.752,1.5-.752,2.432,1.4ZM25.162,22.125v14.6H16.273V53.662h37.9V36.721h-8.89v-14.6Z" transform="translate(4.029 5.478)" fill="#1a0f91"/>
  <path id="Trazado_752621" data-name="Trazado 752621" d="M53.7,7.669l15.155,7.953v5.984H64.46V39.014h2.247V23.853H71.1V14.219L54.727,5.7Z" transform="translate(13.296 1.411)" fill="#fff"/>
  <rect id="Rectángulo_358093" data-name="Rectángulo 358093" width="2.247" height="5.43" transform="translate(77.756 43.978)" fill="#fff"/>
</svg>
