<svg id="Grupo_1024262" data-name="Grupo 1024262" xmlns="http://www.w3.org/2000/svg" xmlns:xlink="http://www.w3.org/1999/xlink" width="160.847" height="172" viewBox="0 0 160.847 172">
  <defs>
    <clipPath id="clip-path">
      <rect id="Rectángulo_358101" data-name="Rectángulo 358101" width="160.847" height="172" fill="none"/>
    </clipPath>
  </defs>
  <g id="Grupo_1021733" data-name="Grupo 1021733" clip-path="url(#clip-path)">
    <path id="Trazado_752660" data-name="Trazado 752660" d="M40.962,21.692a1.33,1.33,0,0,0,.635-.163,78.957,78.957,0,0,1,7.6-3.644,1.326,1.326,0,1,0-1.016-2.45A81.253,81.253,0,0,0,40.324,19.2a1.326,1.326,0,0,0,.638,2.49" fill="#1a0f91"/>
    <path id="Trazado_752661" data-name="Trazado 752661" d="M56.773,15.133a1.373,1.373,0,0,0,.374-.053,78.463,78.463,0,0,1,8.2-1.935,1.327,1.327,0,0,0-.47-2.612,81.519,81.519,0,0,0-8.48,2,1.326,1.326,0,0,0,.373,2.6" fill="#1a0f91"/>
    <path id="Trazado_752662" data-name="Trazado 752662" d="M12.019,131.705A79.055,79.055,0,0,1,7.7,123.582a1.326,1.326,0,1,0-2.411,1.106,81.609,81.609,0,0,0,4.467,8.4,1.327,1.327,0,0,0,2.266-1.38Z" fill="#1a0f91"/>
    <path id="Trazado_752663" data-name="Trazado 752663" d="M26.905,31.467a1.333,1.333,0,0,0,.869-.324,79.464,79.464,0,0,1,6.655-5.176,1.327,1.327,0,0,0-1.514-2.179,82.429,82.429,0,0,0-6.879,5.35,1.326,1.326,0,0,0,.869,2.329" fill="#1a0f91"/>
    <path id="Trazado_752664" data-name="Trazado 752664" d="M155.229,69.13a1.332,1.332,0,0,0,1.276.963,1.294,1.294,0,0,0,.363-.051,1.327,1.327,0,0,0,.913-1.638,81.1,81.1,0,0,0-3.379-9.559,1.326,1.326,0,1,0-2.44,1.039,78.539,78.539,0,0,1,3.267,9.246" fill="#1a0f91"/>
    <path id="Trazado_752665" data-name="Trazado 752665" d="M73.618,12.1l.1,0c1.876-.133,3.783-.2,5.651-.2.417.011.835.015,1.252.019.512.005,1.023.011,1.538.029a1.327,1.327,0,0,0,.083-2.652c-.944-.032-1.921-.046-2.858-.048-1.948,0-3.918.07-5.854.208A1.326,1.326,0,0,0,72.3,10.871,1.332,1.332,0,0,0,73.618,12.1m0-.569Z" fill="#1a0f91"/>
    <path id="Trazado_752666" data-name="Trazado 752666" d="M157.316,78.711a79.533,79.533,0,0,1,.879,9.769,1.326,1.326,0,1,0,2.651-.075,82.429,82.429,0,0,0-.908-10.1,1.326,1.326,0,1,0-2.622.4" fill="#1a0f91"/>
    <path id="Trazado_752667" data-name="Trazado 752667" d="M100.009,54.533h35.876a1.329,1.329,0,0,0,1.327-1.327V15.276a1.329,1.329,0,0,0-1.327-1.326h-.029a14.445,14.445,0,0,1,.286-12.03,1.315,1.315,0,0,0-.057-1.291A1.335,1.335,0,0,0,134.957,0h-35.1a8.237,8.237,0,0,0-8.151,8.3V46.232a8.311,8.311,0,0,0,8.3,8.3m32.16-48.644H118.718a1.326,1.326,0,1,0,0,2.652h13.318a19.061,19.061,0,0,0,1,5.409H99.858A5.581,5.581,0,0,1,94.36,8.3a5.582,5.582,0,0,1,5.5-5.649h33.093a16.1,16.1,0,0,0-.782,3.237M94.36,14.419a7.976,7.976,0,0,0,5.5,2.184h34.7V51.88h-34.55a5.655,5.655,0,0,1-5.649-5.648Z" fill="#1a0f91"/>
    <path id="Trazado_752668" data-name="Trazado 752668" d="M17.257,139.271a1.326,1.326,0,0,0-2.089,1.634,82.3,82.3,0,0,0,6.285,7.139,1.327,1.327,0,1,0,1.886-1.866,79.755,79.755,0,0,1-6.082-6.907" fill="#1a0f91"/>
    <path id="Trazado_752669" data-name="Trazado 752669" d="M72.039,122.654h2.925a1.327,1.327,0,0,0,0-2.653H73.346v-1.814a1.327,1.327,0,1,0-2.653,0v2.028a4.268,4.268,0,0,0,1.328,8.324,1.616,1.616,0,1,1,0,3.232H69.079a1.327,1.327,0,0,0,0,2.653h1.614v1.362a1.327,1.327,0,0,0,2.653,0v-1.573a4.268,4.268,0,0,0-1.325-8.326,1.617,1.617,0,1,1,.018-3.233" fill="#fe7062"/>
    <path id="Trazado_752670" data-name="Trazado 752670" d="M145.232,56.637a7.614,7.614,0,0,0-7.1.8l-12.507,8.474a7.339,7.339,0,0,0-6.373-5.972L94.831,56.965c-.8-.1-3.829-.28-4.729-.306-.337-.007-.68,0-1.012.021A10.6,10.6,0,0,0,79.926,63.6L77.9,63.456a1.327,1.327,0,0,0-1.1,2.191,1.351,1.351,0,0,0,.962.458l1.625.119-.6,4.478a1.326,1.326,0,0,0,1.141,1.49l.175.011a1.328,1.328,0,0,0,1.313-1.151l.764-5.763a7.93,7.93,0,0,1,7.09-5.963c.248-.016.5-.021.754-.014.895.025,3.817.207,4.486.287l24.419,2.975a4.7,4.7,0,0,1,4.123,5.2c-.015.131-.037.257-.063.382a4.723,4.723,0,0,1-5.18,3.686L102.25,69.963a1.326,1.326,0,1,0-.319,2.633L117.5,74.475a7.361,7.361,0,0,0,7.952-5.235l14.172-9.606a5,5,0,0,1,4.714-.5,3.593,3.593,0,0,1,2.383,3.383,6.078,6.078,0,0,1-2.708,5.423L123.558,81.8a4.656,4.656,0,0,1-3.051,1L77.8,82.944a1.328,1.328,0,0,0-.937.393,1.312,1.312,0,0,0-.385.938A1.329,1.329,0,0,0,77.807,85.6l42.668-.148a7.345,7.345,0,0,0,4.67-1.526L145.5,70.135a8.741,8.741,0,0,0,3.873-7.646,6.224,6.224,0,0,0-4.137-5.852" fill="#1a0f91"/>
    <path id="Trazado_752671" data-name="Trazado 752671" d="M146.58,134.494a1.331,1.331,0,0,0-1.842.356,79.339,79.339,0,0,1-5.989,7.768,1.327,1.327,0,0,0,2,1.747,82.111,82.111,0,0,0,6.189-8.029,1.327,1.327,0,0,0-.354-1.841Z" fill="#1a0f91"/>
    <path id="Trazado_752672" data-name="Trazado 752672" d="M108.762,106.718a1.327,1.327,0,0,0,.307,1.851l4.35,3.11.064.04a1.172,1.172,0,0,0,.212.107l.107.033a1.323,1.323,0,0,0,.274.052l.1,0,.108-.006a1.824,1.824,0,0,0,.347-.08,1.259,1.259,0,0,0,.225-.107l.105-.069a1.481,1.481,0,0,0,.22-.206l.076-.089a.614.614,0,0,0,.1-.181l1.912-4.869a1.326,1.326,0,0,0-2.472-.963l-.468,1.2a16.284,16.284,0,0,0-15.668-10.7c-7.057.008-15.054,4.291-16.686,12.461a1.327,1.327,0,1,0,2.6.519c1.352-6.771,8.11-10.32,14.1-10.327a13.714,13.714,0,0,1,13.054,8.715l-1.122-.8a1.329,1.329,0,0,0-1.85.308" fill="#fe7062"/>
    <path id="Trazado_752673" data-name="Trazado 752673" d="M155.3,116.6h0a1.331,1.331,0,0,0-1.7.8,78.564,78.564,0,0,1-3.888,9,1.329,1.329,0,0,0,.584,1.785,1.346,1.346,0,0,0,.6.143,1.324,1.324,0,0,0,1.184-.726,81.562,81.562,0,0,0,4.019-9.309,1.328,1.328,0,0,0-.8-1.7" fill="#1a0f91"/>
    <path id="Trazado_752674" data-name="Trazado 752674" d="M159.318,97.09a1.323,1.323,0,0,0-1.448,1.2,79.125,79.125,0,0,1-1.534,9.689,1.327,1.327,0,0,0,1.008,1.584,1.323,1.323,0,0,0,1.581-1.006,81.524,81.524,0,0,0,1.585-10.017,1.328,1.328,0,0,0-1.192-1.445" fill="#1a0f91"/>
    <path id="Trazado_752675" data-name="Trazado 752675" d="M149.856,49.783a81.763,81.763,0,0,0-5.636-8.426,1.327,1.327,0,0,0-2.11,1.609,79.259,79.259,0,0,1,5.453,8.152,1.327,1.327,0,0,0,2.293-1.335" fill="#1a0f91"/>
    <path id="Trazado_752676" data-name="Trazado 752676" d="M121.917,113.615c-7.765,0-14.082,6.6-14.082,14.709,0,.208,0,.42.013.638a18.9,18.9,0,0,0,1.208,5.948,36.416,36.416,0,0,0-10.8-1.581,37.338,37.338,0,0,0-17.263,4.223l1.439-2.03a19.567,19.567,0,0,0,3.662-10.578c.009-.217.013-.431.013-.638,0-8.11-6.318-14.709-14.082-14.709s-14.082,6.6-14.082,14.709c0,.207,0,.421.013.638a19.567,19.567,0,0,0,3.662,10.578l4.379,6.176a8.846,8.846,0,0,0-2.857,5.723c-.027.282-.043.567-.043.855a8.931,8.931,0,0,0,1.854,5.438,36.925,36.925,0,0,0-4.039,16.96,1.327,1.327,0,0,0,2.653,0,34.38,34.38,0,0,1,3.4-15.05,9.059,9.059,0,0,0,9.982.094q1.177.342,2.354.646a45.98,45.98,0,0,0-2.815,14.31,1.326,1.326,0,0,0,2.651.017,43.522,43.522,0,0,1,2.755-13.7,75.554,75.554,0,0,0,15.042,1.827v11.854a1.327,1.327,0,0,0,2.653,0V158.817a75.112,75.112,0,0,0,14.945-1.8c.171.255.351.5.536.72a41.055,41.055,0,0,1,2.348,12.952A1.334,1.334,0,0,0,118.75,172a1.3,1.3,0,0,0,1.3-1.224l.011-.06v-.058a42.591,42.591,0,0,0-1.439-10.336,8.863,8.863,0,0,0,3.295.639,8.958,8.958,0,0,0,7.868-4.733,34.886,34.886,0,0,1,3.16,14.446,1.326,1.326,0,1,0,2.652,0,37.425,37.425,0,0,0-4.768-18.246c.008-.131.016-.263.016-.4a8.9,8.9,0,0,0-2.789-6.472l4.267-6.019a19.568,19.568,0,0,0,3.663-10.579c.008-.218.012-.43.012-.638a14.932,14.932,0,0,0-4.176-10.442,13.693,13.693,0,0,0-9.905-4.267m-6.14,31.945a8.873,8.873,0,0,0-2.017,2.858,63.9,63.9,0,0,0-8.413-11.72,32.609,32.609,0,0,1,5.081,1.48l.339.238q.351.571.743,1.125Zm1.558,2.2,3.5,4.936a1.375,1.375,0,0,0,2.163,0l3.5-4.936a6.276,6.276,0,1,1-9.163,0m4.582,1.876-8.244-11.626a16.944,16.944,0,0,1-3.175-9.146c-.006-.183-.01-.362-.01-.537,0-6.647,5.127-12.056,11.429-12.056s11.429,5.409,11.429,12.056c0,.175,0,.354-.011.537a16.944,16.944,0,0,1-3.175,9.146Zm-8.555,4.927a72.35,72.35,0,0,1-13.783,1.608V136.013c.5.017.994.042,1.485.079a59.573,59.573,0,0,1,11.965,16.69,8.866,8.866,0,0,0,.333,1.778M96.926,136.011v20.156a72.885,72.885,0,0,1-14.051-1.676,62.216,62.216,0,0,1,12.24-18.365c.59-.053,1.2-.091,1.811-.115M80.949,148.276a8.827,8.827,0,0,0-2.313-5.981l1.973-1.5a34.347,34.347,0,0,1,10.329-4.037,66.454,66.454,0,0,0-10.677,17.114q-.54-.136-1.082-.281a8.877,8.877,0,0,0,1.77-5.317m-13.4-4.39,3.4,4.788a1.376,1.376,0,0,0,2.164,0l3.4-4.788a6.276,6.276,0,1,1-8.954,0m-3.766-9.9a16.931,16.931,0,0,1-3.176-9.145c-.006-.183-.01-.363-.01-.537,0-6.647,5.127-12.056,11.429-12.056s11.429,5.409,11.429,12.056c0,.175,0,.355-.01.537a16.931,16.931,0,0,1-3.176,9.145l-8.243,11.626Z" fill="#1a0f91"/>
    <path id="Trazado_752677" data-name="Trazado 752677" d="M66.472,49.19V41.153a5.834,5.834,0,0,0-5.832-5.825l-4.419,0-.071-.018-41.334.045A5.819,5.819,0,0,0,9.007,41.17v59.11H1.326A1.327,1.327,0,0,0,0,101.606v8.037a5.831,5.831,0,0,0,5.825,5.825H51.649a5.831,5.831,0,0,0,5.825-5.825V50.517h7.672a1.328,1.328,0,0,0,1.326-1.327m-2.653-8.037v6.711H57.474V41.153a3.173,3.173,0,0,1,6.345,0M46.765,112.816H5.825a3.177,3.177,0,0,1-3.173-3.173v-6.71H45.823v6.71a5.761,5.761,0,0,0,.942,3.173m5.064-.005-2.078-.631a3.179,3.179,0,0,1-1.275-2.537v-8.037a1.327,1.327,0,0,0-1.326-1.326H11.66V41.17a3.164,3.164,0,0,1,3.158-3.16l40.941-.026a5.769,5.769,0,0,0-.938,3.169v68.49a3.2,3.2,0,0,1-2.992,3.168" fill="#1a0f91"/>
    <path id="Trazado_752678" data-name="Trazado 752678" d="M33.439,68.089a7,7,0,0,0,5.248-2.409,1.326,1.326,0,0,0-1.976-1.77,4.379,4.379,0,0,1-3.272,1.526c-2.586,0-4.689-2.407-4.689-5.365s2.1-5.366,4.689-5.366a4.36,4.36,0,0,1,3.067,1.31,1.565,1.565,0,0,0,.939.385,1.326,1.326,0,0,0,.928-2.268,6.99,6.99,0,0,0-4.934-2.079c-4.048,0-7.341,3.6-7.341,8.018s3.293,8.018,7.341,8.018" fill="#fe7062"/>
    <path id="Trazado_752679" data-name="Trazado 752679" d="M33.083,73.914a13.859,13.859,0,1,0-14.19-13.855,14.041,14.041,0,0,0,14.19,13.855M21.545,60.059a11.543,11.543,0,1,1,11.538,11.2,11.387,11.387,0,0,1-11.538-11.2" fill="#fe7062"/>
    <path id="Trazado_752680" data-name="Trazado 752680" d="M54.305,165.5a78.608,78.608,0,0,1-8.539-3.434,1.326,1.326,0,0,0-1.132,2.4,81.414,81.414,0,0,0,8.828,3.551,1.345,1.345,0,0,0,.421.069,1.327,1.327,0,0,0,.422-2.585" fill="#1a0f91"/>
    <path id="Trazado_752681" data-name="Trazado 752681" d="M49.262,83.662H16.905a1.327,1.327,0,1,0,0,2.653H49.262a1.327,1.327,0,0,0,0-2.653" fill="#1a0f91"/>
    <path id="Trazado_752682" data-name="Trazado 752682" d="M37.689,157.655h0a78.976,78.976,0,0,1-7.508-5.321,1.334,1.334,0,0,0-.976-.282,1.315,1.315,0,0,0-.889.49,1.329,1.329,0,0,0,.207,1.865,81.992,81.992,0,0,0,7.762,5.5,1.326,1.326,0,1,0,1.4-2.25" fill="#1a0f91"/>
    <path id="Trazado_752683" data-name="Trazado 752683" d="M124.859,126.673a1.326,1.326,0,1,0,0-2.652h-1.618v-1.816a1.327,1.327,0,0,0-2.653,0v2.028a4.269,4.269,0,0,0,1.329,8.325,1.616,1.616,0,0,1,0,3.232h-2.943a1.326,1.326,0,0,0,0,2.652h1.614V139.8a1.327,1.327,0,0,0,2.653,0v-1.574a4.268,4.268,0,0,0-1.324-8.326,1.615,1.615,0,0,1-.009-3.23l0-.569.033.567Z" fill="#fe7062"/>
    <path id="Trazado_752684" data-name="Trazado 752684" d="M49.262,90.258H16.905a1.326,1.326,0,1,0,0,2.652H49.262a1.326,1.326,0,1,0,0-2.652" fill="#1a0f91"/>
  </g>
</svg>
