<svg id="Grupo_1024263" data-name="Grupo 1024263" xmlns="http://www.w3.org/2000/svg" xmlns:xlink="http://www.w3.org/1999/xlink" width="160.265" height="155.943" viewBox="0 0 160.265 155.943">
  <defs>
    <clipPath id="clip-path">
      <rect id="Rectángulo_358102" data-name="Rectángulo 358102" width="160.265" height="155.943" fill="none"/>
    </clipPath>
  </defs>
  <g id="Grupo_1021735" data-name="Grupo 1021735" clip-path="url(#clip-path)">
    <path id="Trazado_752685" data-name="Trazado 752685" d="M23.962,134.535a1.4,1.4,0,0,0-1.978-.037,1.4,1.4,0,0,0-.036,1.979,81.522,81.522,0,0,0,6.171,5.769,1.4,1.4,0,0,0,1.971-.17,1.4,1.4,0,0,0-.169-1.972,78.745,78.745,0,0,1-5.959-5.569" fill="#1a0f91"/>
    <path id="Trazado_752686" data-name="Trazado 752686" d="M49.525,8.86a1.389,1.389,0,0,0,.538-.108A77.427,77.427,0,0,1,59.574,5.5a1.4,1.4,0,1,0-.732-2.7,80.223,80.223,0,0,0-9.855,3.373,1.4,1.4,0,0,0,.538,2.691" fill="#1a0f91"/>
    <path id="Trazado_752687" data-name="Trazado 752687" d="M115.491,25.653A12.388,12.388,0,1,0,103.1,13.264a12.4,12.4,0,0,0,12.388,12.389M105.9,13.264a9.59,9.59,0,1,1,9.59,9.59,9.6,9.6,0,0,1-9.59-9.59" fill="#1a0f91"/>
    <path id="Trazado_752688" data-name="Trazado 752688" d="M89.5,3.376a77.78,77.78,0,0,1,9.881,1.865,1.366,1.366,0,0,0,.348.044,1.4,1.4,0,0,0,.348-2.754A80.312,80.312,0,0,0,89.842.6,1.4,1.4,0,1,0,89.5,3.376" fill="#1a0f91"/>
    <path id="Trazado_752689" data-name="Trazado 752689" d="M13.943,121.695a1.4,1.4,0,0,0-2.375,1.482A81.386,81.386,0,0,0,16.41,130.1a1.394,1.394,0,0,0,1.1.537,1.414,1.414,0,0,0,.861-.3,1.4,1.4,0,0,0,.241-1.963,77.946,77.946,0,0,1-4.673-6.682" fill="#1a0f91"/>
    <path id="Trazado_752690" data-name="Trazado 752690" d="M115.491,16.674h-2.4a1.4,1.4,0,1,0,0,2.8h1v.793a1.4,1.4,0,1,0,2.8,0V19.2a3.8,3.8,0,0,0-1.4-7.325,1,1,0,0,1-.009-2h2.408a1.4,1.4,0,0,0,0-2.8h-1V5.919a1.4,1.4,0,0,0-2.8,0V7.352a3.8,3.8,0,0,0,1.4,7.324,1,1,0,1,1,0,2" fill="#fe7062"/>
    <path id="Trazado_752691" data-name="Trazado 752691" d="M69.239,3.517l.189-.012A78.567,78.567,0,0,1,79.459,2.8,1.4,1.4,0,0,0,79.442,0,81.514,81.514,0,0,0,69.054.731a1.4,1.4,0,0,0-1.2,1.575,1.4,1.4,0,0,0,1.386,1.211" fill="#1a0f91"/>
    <path id="Trazado_752692" data-name="Trazado 752692" d="M6.817,107.051A1.4,1.4,0,1,0,4.186,108a80.5,80.5,0,0,0,3.292,7.782,1.4,1.4,0,0,0,2.516-1.225,77.677,77.677,0,0,1-3.177-7.51" fill="#1a0f91"/>
    <path id="Trazado_752693" data-name="Trazado 752693" d="M43.411,149.233a78.071,78.071,0,0,1-6.984-4.211,1.4,1.4,0,0,0-1.943.375,1.4,1.4,0,0,0,.374,1.943A81.022,81.022,0,0,0,42.1,151.7a1.4,1.4,0,0,0,1.316-2.469" fill="#1a0f91"/>
    <path id="Trazado_752694" data-name="Trazado 752694" d="M31.845,19.093a1.387,1.387,0,0,0,.85-.288,78.239,78.239,0,0,1,8.359-5.59,1.4,1.4,0,0,0,.509-1.912,1.4,1.4,0,0,0-1.912-.51,81.055,81.055,0,0,0-8.657,5.79,1.4,1.4,0,0,0,.851,2.51" fill="#1a0f91"/>
    <path id="Trazado_752695" data-name="Trazado 752695" d="M63.734,116.776a17.464,17.464,0,0,0-12.128,14.8A17.515,17.515,0,0,0,69.024,151a17.355,17.355,0,0,0,12.221-4.982A17.352,17.352,0,0,0,93.465,151a17.521,17.521,0,0,0,5.29-34.225,17.52,17.52,0,0,0-35.021,0m12.209,16.7A17.311,17.311,0,0,0,79.4,143.912,14.572,14.572,0,0,1,69.024,148.2a14.724,14.724,0,1,1,0-29.448A14.572,14.572,0,0,1,79.4,123.046a17.311,17.311,0,0,0-3.457,10.433m9.289-15.46a4.928,4.928,0,0,0-3.987-2.045,2.123,2.123,0,0,1-.1-4.244l3.614,0a1.4,1.4,0,0,0,0-2.8H82.641v-2.358a1.4,1.4,0,1,0-2.8,0v2.564a4.917,4.917,0,0,0,1.4,9.631,2.092,2.092,0,0,1,1.619.768,17.759,17.759,0,0,0-1.619,1.4,17.442,17.442,0,0,0-14.67-4.807,14.721,14.721,0,0,1,29.34,0,17.423,17.423,0,0,0-10.683,1.888m-6.491,15.46A14.725,14.725,0,1,1,93.465,148.2a14.741,14.741,0,0,1-14.724-14.724" fill="#1a0f91"/>
    <path id="Trazado_752696" data-name="Trazado 752696" d="M150.546,116.494a1.4,1.4,0,0,0-1.893.578,78.118,78.118,0,0,1-4.053,6.761,1.4,1.4,0,0,0,1.161,2.179,1.4,1.4,0,0,0,1.163-.62,81.389,81.389,0,0,0,4.2-7,1.4,1.4,0,0,0-.578-1.893" fill="#1a0f91"/>
    <path id="Trazado_752697" data-name="Trazado 752697" d="M158.536,77.312c-.39-6-1.183-12.692-4.1-16.847a16.078,16.078,0,0,0-5.68-5.265,10.241,10.241,0,0,0,2.3-6.5,9.842,9.842,0,1,0-19.676,0,10.217,10.217,0,0,0,2.43,6.658,11.07,11.07,0,0,0-1.214.761,14.535,14.535,0,0,0-1.293,1.055,19.577,19.577,0,0,0-2.815-6.877,16.45,16.45,0,0,0-5.68-5.264,10.323,10.323,0,0,0,2.3-6.5,10,10,0,0,0-9.839-10.136,9.57,9.57,0,0,0-5.7,1.889,10.308,10.308,0,0,0-1.708,14.9,16.48,16.48,0,0,0-5.092,4.722,19.726,19.726,0,0,0-3.059,7.287A11.868,11.868,0,0,0,96.857,55.2a10.245,10.245,0,0,0,2.3-6.5,9.843,9.843,0,1,0-19.677,0,10.214,10.214,0,0,0,2.43,6.658,16.451,16.451,0,0,0-5.091,4.721c-3.112,4.214-3.956,11.064-4.371,17.21a7.023,7.023,0,0,0,1.87,5.253,6.9,6.9,0,0,0,5.09,2.211H99.68a6.9,6.9,0,0,0,5.085-2.2,7.018,7.018,0,0,0,1.876-5.235c-.059-.9-.126-1.814-.209-2.733h18.125c-.084.91-.154,1.815-.214,2.706a7.026,7.026,0,0,0,1.869,5.254,6.9,6.9,0,0,0,5.09,2.21h20.272a6.9,6.9,0,0,0,5.086-2.2,7.019,7.019,0,0,0,1.876-5.235M89.318,56.035a7.344,7.344,0,1,1,7.04-7.338,7.2,7.2,0,0,1-7.04,7.338m5.161,1.281c1.767.356,3.436,1.907,4.588,3.245-.283,1.872-.5,3.965-.672,6.554a7.027,7.027,0,0,0,1.87,5.253,6.894,6.894,0,0,0,3.333,1.986c.1,1.073.185,2.129.25,3.139a4.183,4.183,0,0,1-4.169,4.459H79.408a4.184,4.184,0,0,1-4.167-4.477c.365-5.406,1.129-12.08,3.83-15.736.813-1.1,2.912-3.677,5.206-4.351a9.673,9.673,0,0,0,10.2-.072M105.355,71.78a4.183,4.183,0,0,1-4.166-4.477c.364-5.405,1.129-12.079,3.828-15.736.814-1.1,2.913-3.676,5.207-4.35a9.76,9.76,0,0,0,1.584.792v12.47a1.4,1.4,0,0,0,.482,1.056l2.283,1.984a1.436,1.436,0,0,0,1.837,0l2.284-1.985a1.4,1.4,0,0,0,.48-1.055V47.817a9.735,9.735,0,0,0,1.251-.672c2.541.511,4.87,3.48,5.769,4.758,2.54,3.612,3.259,10.137,3.6,15.419a4.183,4.183,0,0,1-4.169,4.459Zm11.02-11.939-.884.768-.884-.768V48.634a8.3,8.3,0,0,0,1.768-.041Zm-8.149-21.316a7.046,7.046,0,1,1,7.039,7.339,7.2,7.2,0,0,1-7.039-7.339m19.167,35.828a6.9,6.9,0,0,0,3.32-1.977,7.021,7.021,0,0,0,1.875-5.235c-.169-2.622-.379-4.73-.658-6.6a10.081,10.081,0,0,1,4.242-3.149,9.674,9.674,0,0,0,10.2-.072c2.539.511,4.869,3.48,5.769,4.759,2.523,3.589,3.236,9.808,3.6,15.418a4.181,4.181,0,0,1-4.168,4.459H131.3a4.184,4.184,0,0,1-4.166-4.477c.067-1,.15-2.055.257-3.122m6.78-25.656a7.046,7.046,0,1,1,7.04,7.338,7.2,7.2,0,0,1-7.04-7.338" fill="#1a0f91"/>
    <path id="Trazado_752698" data-name="Trazado 752698" d="M53.691,20.768a6.248,6.248,0,1,0,6.248,6.247,6.254,6.254,0,0,0-6.248-6.247m3.449,6.247a3.449,3.449,0,1,1-3.449-3.449,3.453,3.453,0,0,1,3.449,3.449" fill="#fe7062"/>
    <path id="Trazado_752699" data-name="Trazado 752699" d="M158.982,85.727a1.359,1.359,0,0,0-1.017.325,1.387,1.387,0,0,0-.495.955,78.1,78.1,0,0,1-1.04,7.816,1.4,1.4,0,0,0,1.121,1.631,1.474,1.474,0,0,0,.255.023,1.4,1.4,0,0,0,1.375-1.144,80.979,80.979,0,0,0,1.079-8.1,1.4,1.4,0,0,0-1.278-1.508" fill="#1a0f91"/>
    <path id="Trazado_752700" data-name="Trazado 752700" d="M139.882,130.15c-1.672,2.017-3.465,3.971-5.33,5.81a1.4,1.4,0,1,0,1.965,1.993,81.228,81.228,0,0,0,5.519-6.018,1.4,1.4,0,1,0-2.154-1.785" fill="#1a0f91"/>
    <path id="Trazado_752701" data-name="Trazado 752701" d="M156.337,101.543h0a1.4,1.4,0,0,0-1.735.95,77.523,77.523,0,0,1-2.6,7.44,1.4,1.4,0,0,0,2.591,1.059,80.525,80.525,0,0,0,2.7-7.711,1.4,1.4,0,0,0-.948-1.737" fill="#1a0f91"/>
    <path id="Trazado_752702" data-name="Trazado 752702" d="M54.24,97.913v-.059h3.951a2.783,2.783,0,0,0,2.781-2.78V91.685a2.782,2.782,0,0,0-1.8-2.6V84.293a10.644,10.644,0,0,0-.859-4.2l-1.194-2.8a6.1,6.1,0,0,0,2.538-1.945,5.248,5.248,0,0,0,1.068-3.913,8.386,8.386,0,0,0-.509-1.813,4.663,4.663,0,0,1-.372-1.417,2.364,2.364,0,0,1,1.481-2.015,11.194,11.194,0,0,1,1.184-.444,8.447,8.447,0,0,0,2.568-1.21,4.8,4.8,0,0,0,1.581-5.677,5.176,5.176,0,0,0-.805-1.122,2.528,2.528,0,0,1-.415-.551.888.888,0,0,1,.05-.8,3.039,3.039,0,0,1,1.865-1.438c1.686-.449,4.508-1.2,4.951-4.128a7,7,0,0,0-.548-3.415c-1.684-4.732-4.146-10.15-8.433-11.1l1.306-1.928A12.975,12.975,0,0,0,66.573,24a13.61,13.61,0,0,0-1.212-3.209,13.211,13.211,0,0,0-23.339,0,13.511,13.511,0,0,0-1.3,3.619l-3.265-.359a15.816,15.816,0,0,0-4.31-.692H33.1A9.406,9.406,0,0,0,25.462,27a18.721,18.721,0,0,0-1.221,1.934,7.223,7.223,0,0,1-1.859,2.457c-.922.588-2.106.274-3.612-.126-1.677-.445-3.766-1-5.7.113-2.6,1.5-3.421,5.443-2.683,8.232a8.715,8.715,0,0,0,5.348,5.923c.275.1.554.184.835.268a4.942,4.942,0,0,1,1.4.569,3.461,3.461,0,0,1,1.04,2.781,3.417,3.417,0,0,1-1.069,2.725,5.266,5.266,0,0,1-1.013.465,6.272,6.272,0,0,0-2.018,1.1,5.133,5.133,0,0,0-1.645,3.6H4.9a2.907,2.907,0,0,0-2.9,2.9V89.027a2.763,2.763,0,0,0-2,2.658v3.389a2.784,2.784,0,0,0,2.781,2.78h9.073c0,.02,0,.04,0,.059a5.621,5.621,0,1,0,11.241,0c0-.019,0-.039,0-.059H43v.059a5.62,5.62,0,1,0,11.24,0M21.813,49.176a6.038,6.038,0,0,0-2.241-5.1,7.441,7.441,0,0,0-2.195-.952c-.23-.069-.461-.138-.687-.219A5.882,5.882,0,0,1,13.1,38.894c-.516-1.951.141-4.378,1.377-5.092.926-.537,2.155-.21,3.579.169,1.728.458,3.879,1.029,5.837-.223a9.216,9.216,0,0,0,2.779-3.422A16.1,16.1,0,0,1,27.7,28.682a6.628,6.628,0,0,1,5.425-2.53h0a13.219,13.219,0,0,1,3.616.6,1.5,1.5,0,0,0,.236.048l3.478.389a13.127,13.127,0,0,0,2.3,7.193l7.871,11.624a3.7,3.7,0,0,0,6.135,0l4.779-7.059.58.015c3.711.134,6.188,7.095,7,9.382a4.651,4.651,0,0,1,.418,2.059c-.144.953-1.013,1.338-3,1.867a5.815,5.815,0,0,0-3.572,2.906,3.653,3.653,0,0,0-.088,3.136,4.848,4.848,0,0,0,.876,1.272,2.8,2.8,0,0,1,.4.525A2.118,2.118,0,0,1,63.4,62.3a6.247,6.247,0,0,1-1.785.8,13.606,13.606,0,0,0-1.476.561,5.158,5.158,0,0,0-3.092,4.6A7,7,0,0,0,57.6,70.6a6.118,6.118,0,0,1,.358,1.212,2.455,2.455,0,0,1-.519,1.837,3.361,3.361,0,0,1-1.413,1.069l-2.588-6.062a3.493,3.493,0,0,0-3.215-2.123H38.11a3.341,3.341,0,0,0-.7.074V59.946a2.907,2.907,0,0,0-2.9-2.9H31.926a8.742,8.742,0,0,1,6.145-6.808V50.7a2.221,2.221,0,0,0,3.881,1.474l4.007-4.516a2.225,2.225,0,0,0,0-2.948L41.952,40.2a2.22,2.22,0,0,0-3.881,1.473V42.9A15.955,15.955,0,0,0,24.047,57.043H16.079a2.331,2.331,0,0,1,.682-1.5,3.82,3.82,0,0,1,1.174-.591A7.549,7.549,0,0,0,19.5,54.2a5.992,5.992,0,0,0,2.311-5.026M54.441,44.44a.922.922,0,0,1-1.5,0L45.071,32.815a10.411,10.411,0,1,1,17.242,0Zm-9.975,32.5L44.448,72.8h7.709l1.763,4.131Zm-7.053-6.914a.7.7,0,0,1,.7-.7H50.218a.7.7,0,0,1,.641.423l.1.241H44.448a2.785,2.785,0,0,0-2.781,2.781v4.165a2.784,2.784,0,0,0,2.781,2.781H55.114l.625,1.465a7.844,7.844,0,0,1,.636,3.1V88.9H37.413ZM28.97,58.673v3.951a1.124,1.124,0,0,1-1.161,1.108A1.108,1.108,0,0,1,26.7,62.61l.043-3.773A13.2,13.2,0,0,1,39.52,45.591a1.393,1.393,0,0,0,1.349-1.4l-.006-1.008,2.668,3L40.869,49.2v-.661a1.4,1.4,0,0,0-1.548-1.391A11.565,11.565,0,0,0,28.97,58.673M21.1,59.841h2.829l-.03,2.738a3.933,3.933,0,0,0,7.865.045V59.841h2.741a.105.105,0,0,1,.106.1V73.352H21.1ZM34.615,88.9H21.1V76.15H34.615Zm-16.31,0H4.8V76.15h13.51ZM4.9,59.841h13.4V73.352H4.8V59.946a.106.106,0,0,1,.106-.1M17.473,95.092a2.821,2.821,0,1,1-2.821,2.821,2.825,2.825,0,0,1,2.821-2.821m31.147-2.8a5.6,5.6,0,0,0-4.834,2.762H22.307a5.611,5.611,0,0,0-9.668,0l-9.84.018L2.781,91.7l55.393-.018.017,3.371H53.453a5.594,5.594,0,0,0-4.833-2.762m0,2.8A2.821,2.821,0,1,1,45.8,97.913a2.824,2.824,0,0,1,2.822-2.821" fill="#1a0f91"/>
    <path id="Trazado_752703" data-name="Trazado 752703" d="M67.622,122.7v2.564a4.917,4.917,0,0,0,1.4,9.631,2.119,2.119,0,1,1,0,4.239H65.5a1.4,1.4,0,0,0,0,2.8h2.117v1.818a1.4,1.4,0,1,0,2.8,0v-2.021a4.918,4.918,0,0,0-1.4-9.633,2.123,2.123,0,0,1-.1-4.244l3.617.005a1.4,1.4,0,0,0,0-2.8H70.42V122.7a1.4,1.4,0,1,0-2.8,0" fill="#fe7062"/>
    <path id="Trazado_752704" data-name="Trazado 752704" d="M136.54,101.284a3.566,3.566,0,0,0-.686-3.665,3.476,3.476,0,0,0-.288-.3l-12.053-10.7a3.6,3.6,0,0,0-4.767,0l-12.053,10.7a3.591,3.591,0,0,0,2.383,6.276h4.977v49.545H49.41a1.4,1.4,0,1,0,0,2.8h77.4a1.4,1.4,0,0,0,1.4-1.4V103.6h4.978a3.71,3.71,0,0,0,.495-.036,3.581,3.581,0,0,0,2.861-2.28m-11.132.917v50.944h-8.557V102.2a1.4,1.4,0,0,0-1.4-1.4h-6.376a.791.791,0,0,1-.525-1.384l12.053-10.7a.794.794,0,0,1,1.051,0l12.054,10.7a.791.791,0,0,1-.525,1.384h-6.377a1.4,1.4,0,0,0-1.4,1.4" fill="#1a0f91"/>
    <path id="Trazado_752705" data-name="Trazado 752705" d="M93.465,139.136H89.947a1.4,1.4,0,1,0,0,2.8h2.117v1.817a1.4,1.4,0,1,0,2.8,0v-2.021a4.918,4.918,0,0,0-1.4-9.633,2.123,2.123,0,0,1-.094-4.244l3.613.005a1.4,1.4,0,0,0,0-2.8H94.862V122.7a1.4,1.4,0,1,0-2.8,0v2.564a4.917,4.917,0,0,0,1.4,9.631,2.119,2.119,0,1,1,0,4.239" fill="#fe7062"/>
  </g>
</svg>
