<svg id="Grupo_1024264" data-name="Grupo 1024264" xmlns="http://www.w3.org/2000/svg" xmlns:xlink="http://www.w3.org/1999/xlink" width="169.776" height="168.176" viewBox="0 0 169.776 168.176">
  <defs>
    <clipPath id="clip-path">
      <rect id="Rectángulo_358103" data-name="Rectángulo 358103" width="169.776" height="168.176" fill="none"/>
    </clipPath>
  </defs>
  <g id="Grupo_1021737" data-name="Grupo 1021737" clip-path="url(#clip-path)">
    <path id="Trazado_752706" data-name="Trazado 752706" d="M80.8,45.07H77.956a1.4,1.4,0,0,0,0,2.8H79.4v1.2a1.4,1.4,0,1,0,2.8,0V47.63a4.241,4.241,0,0,0-1.4-8.246,1.451,1.451,0,0,1-.118-2.9l2.961.009a1.4,1.4,0,1,0,0-2.8H82.2V32.061a1.4,1.4,0,1,0-2.8,0v1.878a4.24,4.24,0,0,0,1.4,8.243,1.444,1.444,0,0,1,0,2.888" fill="#fe7062"/>
    <path id="Trazado_752707" data-name="Trazado 752707" d="M156.073,68.886a77.635,77.635,0,0,1,1.664,8.979,1.4,1.4,0,0,0,1.387,1.225l.175-.011a1.4,1.4,0,0,0,1.214-1.561,80.64,80.64,0,0,0-1.723-9.3,1.4,1.4,0,1,0-2.717.672" fill="#1a0f91"/>
    <path id="Trazado_752708" data-name="Trazado 752708" d="M77.008,9.914a80.609,80.609,0,0,1,8.35.063,1.4,1.4,0,0,0,.083-2.8,82.6,82.6,0,0,0-8.562-.063A1.4,1.4,0,0,0,76,9.559a1.339,1.339,0,0,0,1.005.355" fill="#1a0f91"/>
    <path id="Trazado_752709" data-name="Trazado 752709" d="M109.384,15.348a77.248,77.248,0,0,1,7.5,3.469,1.418,1.418,0,0,0,.653.162,1.4,1.4,0,0,0,.656-2.637,80.724,80.724,0,0,0-7.772-3.594,1.4,1.4,0,0,0-1.037,2.6" fill="#1a0f91"/>
    <path id="Trazado_752710" data-name="Trazado 752710" d="M126.742,74.464a20.357,20.357,0,0,0,9.932-2.6A21.7,21.7,0,0,0,147.623,52.9c0-11.893-9.367-21.568-20.881-21.568a20.649,20.649,0,0,0-15.3,6.907A21.883,21.883,0,0,0,105.862,52.9c0,11.893,9.366,21.568,20.88,21.568M108.66,52.9c0-10.35,8.111-18.77,18.082-18.77s18.082,8.42,18.082,18.77-8.112,18.77-18.082,18.77S108.66,63.246,108.66,52.9" fill="#1a0f91"/>
    <path id="Trazado_752711" data-name="Trazado 752711" d="M120.685,64.484a1.4,1.4,0,0,0,.7-.188,10.817,10.817,0,0,1,10.133-.313,1.4,1.4,0,1,0,1.247-2.505,13.357,13.357,0,0,0-6.022-1.417,13.544,13.544,0,0,0-6.758,1.812,1.4,1.4,0,0,0,.7,2.611" fill="#fe7062"/>
    <path id="Trazado_752712" data-name="Trazado 752712" d="M123.973,23.064a78.227,78.227,0,0,1,6.6,4.974,1.4,1.4,0,1,0,1.8-2.143,81.272,81.272,0,0,0-6.836-5.152,1.4,1.4,0,0,0-1.942.377,1.4,1.4,0,0,0,.377,1.943Z" fill="#1a0f91"/>
    <path id="Trazado_752713" data-name="Trazado 752713" d="M93.488,10.9a77.65,77.65,0,0,1,8.074,1.8,1.427,1.427,0,0,0,.371.049A1.4,1.4,0,0,0,102.309,10,80.923,80.923,0,0,0,93.95,8.143a1.4,1.4,0,1,0-.462,2.76" fill="#1a0f91"/>
    <path id="Trazado_752714" data-name="Trazado 752714" d="M153.362,60.167a1.408,1.408,0,0,0,1.31.9,1.4,1.4,0,0,0,1.309-1.894,80.5,80.5,0,0,0-3.856-8.64,1.4,1.4,0,0,0-2.485,1.29,77.6,77.6,0,0,1,3.722,8.339" fill="#1a0f91"/>
    <path id="Trazado_752715" data-name="Trazado 752715" d="M27.931,29.868a1.4,1.4,0,0,0,.929-.353,78.072,78.072,0,0,1,7.208-5.7,1.4,1.4,0,0,0-1.6-2.294A81.625,81.625,0,0,0,27,27.425a1.4,1.4,0,0,0,.932,2.443" fill="#1a0f91"/>
    <path id="Trazado_752716" data-name="Trazado 752716" d="M20.833,69.533a5.215,5.215,0,0,0,3.04,4.724,5.125,5.125,0,0,0,2.159.475H54.214a2.705,2.705,0,0,0,2.7,2.581l34.843,0a2.68,2.68,0,0,0,2.677-2.677V54.069a2.681,2.681,0,0,0-2.677-2.678h-2.47a13.312,13.312,0,0,0,5.147-10.85c-.1-5.932-2.962-9.227-5.344-10.948a14.522,14.522,0,0,0-8.451-2.653,14.777,14.777,0,0,0-7.462,2A26.118,26.118,0,0,0,69,25.919,4.75,4.75,0,0,0,67.514,18.4L72.9,5.276a1.4,1.4,0,0,0-.521-1.7,8.513,8.513,0,0,0-9.343.1,8.335,8.335,0,0,0-13.823,0,8.343,8.343,0,0,0-10.027.406A1.393,1.393,0,0,0,38.784,5.7l5.273,12.84a4.752,4.752,0,0,0-1.333,7.271C32.458,31.668,28.87,42.8,26.891,51.91c-.107.493-.752,3.773-1.339,7.04-.5,2.789-.777,4.507-.9,5.564a5.2,5.2,0,0,0-3.824,5.019m6.551-4.171c.081-1.659,1.865-11.123,2.241-12.857,1.966-9.053,5.569-20.072,16.056-25.085a4.508,4.508,0,0,0,.652.047H65.5c.139,0,.277-.007.413-.02a23.516,23.516,0,0,1,4.974,3.22,13.541,13.541,0,0,0-4.041,9.923,13.26,13.26,0,0,0,5.144,10.8H69.521a2.681,2.681,0,0,0-2.678,2.678V62.7H56.912a2.7,2.7,0,0,0-2.7,2.7v6.531H26.032a2.4,2.4,0,0,1,0-4.807,1.4,1.4,0,0,0,1.4-1.4,1.413,1.413,0,0,0-.047-.366M46.333,20.753H65.5a1.958,1.958,0,0,1,0,3.916H46.333a1.958,1.958,0,1,1,0-3.916M79.474,74.515H57.012V65.5H79.474Zm.1-11.813H69.642V54.19H91.633V74.516H82.272V65.4a2.7,2.7,0,0,0-2.7-2.7m-9.93-22.137c.138-7.437,5.8-10.826,11-10.827s10.87,3.386,11,10.8c-.126,7.455-5.789,10.85-11,10.85S69.78,48,69.641,40.565M56.132,2.8a5.588,5.588,0,0,1,5.187,3.585,1.4,1.4,0,0,0,2.344.443,5.671,5.671,0,0,1,6.171-1.44l-5.16,12.567h-3.3L63,10.666a1.4,1.4,0,0,0-2.732-.607l-1.757,7.9H53.748l-1.757-7.9a1.4,1.4,0,0,0-2.546-.448,1.392,1.392,0,0,0-.186,1.056l1.623,7.288h-4.04L41.8,5.681A5.546,5.546,0,0,1,48.6,6.827a1.4,1.4,0,0,0,2.343-.441A5.594,5.594,0,0,1,56.132,2.8" fill="#1a0f91"/>
    <path id="Trazado_752717" data-name="Trazado 752717" d="M168.444,106.24A41.811,41.811,0,0,1,156.9,84.3a8.88,8.88,0,0,0-8.735-7.261h-11.13a8.84,8.84,0,0,0-8.656,6.878l-.113.483c-.265,1.146-.508,2.311-.727,3.487-.22-1.178-.463-2.344-.729-3.49l-.11-.476a8.844,8.844,0,0,0-8.658-6.882h-11.13A8.882,8.882,0,0,0,98.176,84.3a41.793,41.793,0,0,1-11.541,21.939,4.548,4.548,0,0,0,.422,6.808,4.634,4.634,0,0,0,6.1-.47l6.211-6.21a2.121,2.121,0,0,1,1.606,2.055v19.859a4.543,4.543,0,0,0,4.667,4.544,4.358,4.358,0,0,0,1.683-.387,4.55,4.55,0,0,0,8.99.007,4.97,4.97,0,0,0,1.546.363,2.242,2.242,0,0,0,.26.018,4.556,4.556,0,0,0,4.55-4.559v-1.036a4.681,4.681,0,0,0,.6.2,4.459,4.459,0,0,0,1.038.16,4.411,4.411,0,0,0,3.227-1.3h0a4.407,4.407,0,0,0,3.223,1.3,4.488,4.488,0,0,0,1.641-.353v1.041a4.549,4.549,0,0,0,6.358,4.17,4.549,4.549,0,0,0,8.988-.013,4.369,4.369,0,0,0,1.687.387,4.568,4.568,0,0,0,3.291-1.288,4.512,4.512,0,0,0,1.373-3.256V108.42a2.12,2.12,0,0,1,1.6-2.055l6.21,6.21a4.631,4.631,0,0,0,6.107.468,4.546,4.546,0,0,0,.422-6.8m-29.74,10V128.28a1.751,1.751,0,0,1-3.5,0V116.235Zm-9.209,8.061a1.965,1.965,0,0,1-.594-1.392v-6.669h3.5v6.807a1.761,1.761,0,0,1-1.709,1.751,1.516,1.516,0,0,1-1.2-.5m-5.113.5a1.761,1.761,0,0,1-1.708-1.751v-6.807H126.1V122.9q0,.213.021.423a1.981,1.981,0,0,1-.541.967,1.707,1.707,0,0,1-1.2.5m-4.507-8.558v12.044a1.751,1.751,0,0,1-3.5,0V116.235Zm46.424-5.4a1.853,1.853,0,0,1-2.4-.242l-6.679-6.679c-.052-.052-.1-.092-.1-.079l-3.533-3.533a1.431,1.431,0,0,0-1.978,0,1.4,1.4,0,0,0,0,1.979l1.981,1.982a4.907,4.907,0,0,0-2.289,4.154v19.859a1.732,1.732,0,0,1-.527,1.251,1.633,1.633,0,0,1-1.269.495,1.84,1.84,0,0,1-1.7-1.888V115.39a3.008,3.008,0,0,0,.95-2.191V96.626a3.04,3.04,0,0,0-3.036-3.037H129.491a81.7,81.7,0,0,1,1.5-8.558l.114-.483a6.055,6.055,0,0,1,5.93-4.712h11.13a6.085,6.085,0,0,1,5.984,4.975,44.626,44.626,0,0,0,12.318,23.409,1.748,1.748,0,0,1-.168,2.618M145.954,96.626V113.2a.238.238,0,0,1-.237.238H109.288a.239.239,0,0,1-.238-.238V96.626a.239.239,0,0,1,.238-.238h36.429a.238.238,0,0,1,.237.238M104.3,129.53a1.731,1.731,0,0,1-.527-1.251V108.42a4.907,4.907,0,0,0-2.289-4.154l1.982-1.982a1.4,1.4,0,1,0-1.979-1.979l-3.468,3.478a1.345,1.345,0,0,0-.157.131L91.183,110.6a1.852,1.852,0,0,1-2.4.242,1.747,1.747,0,0,1-.167-2.62,44.607,44.607,0,0,0,12.316-23.407,6.079,6.079,0,0,1,5.984-4.975h11.13a6.061,6.061,0,0,1,5.932,4.716l.11.475a81.274,81.274,0,0,1,1.5,8.562h-16.3a3.04,3.04,0,0,0-3.037,3.037V113.2a3.043,3.043,0,0,0,1.022,2.262v12.681a1.836,1.836,0,0,1-1.7,1.883,1.8,1.8,0,0,1-1.271-.495m9.272-13.295V131.73a1.752,1.752,0,1,1-3.5,0V116.235Zm31.43,0V131.73a1.751,1.751,0,1,1-3.5,0V116.235Z" fill="#1a0f91"/>
    <path id="Trazado_752718" data-name="Trazado 752718" d="M81.989,122.681a17.264,17.264,0,0,0-3.676.4L55.4,86.119A6.027,6.027,0,0,0,45.1,86.2L12.057,141.45a6.026,6.026,0,0,0,5.171,9.121H68.277a17.317,17.317,0,1,0,13.712-27.89M66.518,147.773H17.228a3.227,3.227,0,0,1-2.769-4.885L47.5,87.639a3.228,3.228,0,0,1,5.513-.045l22.529,36.333a17.3,17.3,0,0,0-9.028,23.846M96.511,140A14.521,14.521,0,1,1,81.989,125.48,14.538,14.538,0,0,1,96.511,140" fill="#1a0f91"/>
    <path id="Trazado_752719" data-name="Trazado 752719" d="M50.881,101.3a6.036,6.036,0,0,0-6.029,6.029V122.05a6.029,6.029,0,1,0,12.058,0V107.331a6.036,6.036,0,0,0-6.029-6.029m3.231,6.029V122.05a3.231,3.231,0,1,1-6.462,0V107.331a3.231,3.231,0,0,1,6.462,0" fill="#fe7062"/>
    <path id="Trazado_752720" data-name="Trazado 752720" d="M81.978,134.472l3.485,0a1.4,1.4,0,0,0,0-2.8H83.385V129.36a1.4,1.4,0,1,0-2.8,0v2.518a4.874,4.874,0,0,0,1.4,9.542,2.075,2.075,0,1,1,0,4.15H78.514a1.4,1.4,0,1,0,0,2.8h2.073v1.778a1.4,1.4,0,0,0,2.8,0v-1.983a4.873,4.873,0,0,0-1.4-9.542,2.075,2.075,0,0,1-.011-4.149" fill="#fe7062"/>
    <path id="Trazado_752721" data-name="Trazado 752721" d="M50.881,130.018a6.036,6.036,0,0,0-6.029,6.029v1.14a6.029,6.029,0,1,0,12.058,0v-1.14a6.036,6.036,0,0,0-6.029-6.029m3.231,6.029v1.14a3.231,3.231,0,1,1-6.462,0v-1.14a3.231,3.231,0,1,1,6.462,0" fill="#fe7062"/>
    <path id="Trazado_752722" data-name="Trazado 752722" d="M127.575,108.093h-2.233a1.4,1.4,0,1,0,0,2.8h.832v.642a1.4,1.4,0,1,0,2.8,0v-.924a3.631,3.631,0,0,0-1.4-6.983.834.834,0,0,1,0-1.667l2.238,0a1.4,1.4,0,1,0,0-2.8h-.835v-.985a1.4,1.4,0,0,0-2.8,0v1.27a3.631,3.631,0,0,0,1.4,6.981.834.834,0,1,1,0,1.667" fill="#fe7062"/>
    <path id="Trazado_752723" data-name="Trazado 752723" d="M14.742,43.587a1.4,1.4,0,0,0,1.947-.351,78.531,78.531,0,0,1,5.682-7.219,1.4,1.4,0,0,0-.118-1.975,1.365,1.365,0,0,0-1.012-.349,1.386,1.386,0,0,0-.963.467,81.139,81.139,0,0,0-5.887,7.479,1.4,1.4,0,0,0,.35,1.947Z" fill="#1a0f91"/>
    <path id="Trazado_752724" data-name="Trazado 752724" d="M138.857,139.094a78.451,78.451,0,0,1-5.714,5.82,1.4,1.4,0,1,0,1.894,2.062,81.472,81.472,0,0,0,5.917-6.029,1.4,1.4,0,0,0-.122-1.975,1.4,1.4,0,0,0-1.975.122" fill="#1a0f91"/>
    <path id="Trazado_752725" data-name="Trazado 752725" d="M112.833,158.389a77.2,77.2,0,0,1-7.586,2.99,1.4,1.4,0,0,0,.444,2.727,1.427,1.427,0,0,0,.444-.071,80.691,80.691,0,0,0,7.86-3.1,1.4,1.4,0,1,0-1.162-2.546" fill="#1a0f91"/>
    <path id="Trazado_752726" data-name="Trazado 752726" d="M127.9,149.848a1.411,1.411,0,0,0-1.039.261,78.31,78.31,0,0,1-6.794,4.509,1.4,1.4,0,0,0-.5,1.916,1.4,1.4,0,0,0,1.917.494,80.981,80.981,0,0,0,7.039-4.672,1.4,1.4,0,0,0,.29-1.957,1.386,1.386,0,0,0-.918-.551" fill="#1a0f91"/>
    <path id="Trazado_752727" data-name="Trazado 752727" d="M98.443,163.741a1.389,1.389,0,0,0-1.054-.188,77.938,77.938,0,0,1-8.042,1.334,1.4,1.4,0,0,0,.155,2.79l.157-.008a81.26,81.26,0,0,0,8.334-1.382,1.4,1.4,0,0,0,.45-2.546" fill="#1a0f91"/>
    <path id="Trazado_752728" data-name="Trazado 752728" d="M81.2,165.375l-.634,0c-2.51,0-5.038-.121-7.51-.357a1.348,1.348,0,0,0-1.023.307,1.4,1.4,0,0,0,.753,2.478c2.571.247,5.188.371,7.783.371l.655,0a1.4,1.4,0,0,0,1.389-1.41,1.415,1.415,0,0,0-.432-1,1.392,1.392,0,0,0-.981-.387" fill="#1a0f91"/>
    <path id="Trazado_752729" data-name="Trazado 752729" d="M2.888,96.552A1.389,1.389,0,0,0,3.2,95.527a78.916,78.916,0,0,1-.4-7.922q0-.63.01-1.261A1.4,1.4,0,1,0,.01,86.3Q0,86.954,0,87.605a82.05,82.05,0,0,0,.412,8.2A1.4,1.4,0,0,0,1.8,97.065l.142-.007a1.389,1.389,0,0,0,.943-.506" fill="#1a0f91"/>
    <path id="Trazado_752730" data-name="Trazado 752730" d="M12,50.008a1.4,1.4,0,0,0-2.574-.251,80.411,80.411,0,0,0-3.972,8.65,1.4,1.4,0,0,0,1.3,1.908,1.411,1.411,0,0,0,1.305-.892,77.54,77.54,0,0,1,3.833-8.35,1.387,1.387,0,0,0,.1-1.065" fill="#1a0f91"/>
    <path id="Trazado_752731" data-name="Trazado 752731" d="M1.917,78.384l.188.013A1.4,1.4,0,0,0,3.49,77.183a77.808,77.808,0,0,1,1.757-9.016,1.4,1.4,0,0,0-2.71-.7,80.588,80.588,0,0,0-1.82,9.344,1.4,1.4,0,0,0,1.2,1.572" fill="#1a0f91"/>
    <path id="Trazado_752732" data-name="Trazado 752732" d="M4.66,104.593h0a1.4,1.4,0,1,0-2.73.61,80.622,80.622,0,0,0,2.617,9.149,1.4,1.4,0,1,0,2.641-.929,76.917,76.917,0,0,1-2.526-8.829" fill="#1a0f91"/>
    <path id="Trazado_752733" data-name="Trazado 752733" d="M64.989,163.816a77.853,77.853,0,0,1-7.895-2.044,1.4,1.4,0,0,0-1.755.911,1.4,1.4,0,0,0,.912,1.757,79.814,79.814,0,0,0,8.183,2.118,1.385,1.385,0,0,0,.277.028,1.4,1.4,0,0,0,1.371-1.121,1.4,1.4,0,0,0-1.093-1.649" fill="#1a0f91"/>
    <path id="Trazado_752734" data-name="Trazado 752734" d="M49.462,158.906h0a77.734,77.734,0,0,1-7.29-3.653,1.4,1.4,0,1,0-1.383,2.431,80.359,80.359,0,0,0,7.555,3.788,1.4,1.4,0,0,0,1.119-2.566" fill="#1a0f91"/>
    <path id="Trazado_752735" data-name="Trazado 752735" d="M14.106,132.039a1.4,1.4,0,0,0,1.173-2.161,78.225,78.225,0,0,1-4.536-7.989,1.4,1.4,0,0,0-2.511,1.236,80.975,80.975,0,0,0,4.7,8.275,1.394,1.394,0,0,0,1.175.639" fill="#1a0f91"/>
  </g>
</svg>
