<svg id="Grupo_1024267" data-name="Grupo 1024267" xmlns="http://www.w3.org/2000/svg" xmlns:xlink="http://www.w3.org/1999/xlink" width="161.256" height="159.358" viewBox="0 0 161.256 159.358">
  <defs>
    <clipPath id="clip-path">
      <rect id="Rectángulo_358106" data-name="Rectángulo 358106" width="161.256" height="159.358" fill="none"/>
    </clipPath>
  </defs>
  <g id="Grupo_1021743" data-name="Grupo 1021743" clip-path="url(#clip-path)">
    <path id="Trazado_752779" data-name="Trazado 752779" d="M79.239,3.154A77.719,77.719,0,0,1,87.06,4.345a1.351,1.351,0,0,0,.275.028,1.385,1.385,0,0,0,.278-2.741A80.342,80.342,0,0,0,79.516.4,1.361,1.361,0,0,0,78.5.7a1.383,1.383,0,0,0,.736,2.45" fill="#1a0f91"/>
    <path id="Trazado_752780" data-name="Trazado 752780" d="M94.708,6.334a76.935,76.935,0,0,1,7.4,2.771,1.384,1.384,0,0,0,1.1-2.54,79.506,79.506,0,0,0-7.672-2.87,1.384,1.384,0,1,0-.834,2.639" fill="#1a0f91"/>
    <path id="Trazado_752781" data-name="Trazado 752781" d="M25.786,119.45A25.834,25.834,0,0,0,51.572,93.664V79.976a1.384,1.384,0,0,0-2.769,0V93.664a23.017,23.017,0,1,1-46.034,0V72.606A23.023,23.023,0,0,1,33.43,50.893a1.348,1.348,0,0,0,.537.077,1.384,1.384,0,0,0,.386-2.687A25.8,25.8,0,0,0,0,72.606V93.664A25.816,25.816,0,0,0,25.786,119.45" fill="#1a0f91"/>
    <path id="Trazado_752782" data-name="Trazado 752782" d="M2.8,114.423h0a1.384,1.384,0,1,0-2.469,1.251,79.846,79.846,0,0,0,4.742,8.131,1.384,1.384,0,1,0,2.305-1.534A77.238,77.238,0,0,1,2.8,114.423" fill="#1a0f91"/>
    <path id="Trazado_752783" data-name="Trazado 752783" d="M12.851,129.528a1.384,1.384,0,1,0-2.109,1.793,80.42,80.42,0,0,0,6.509,6.8,1.384,1.384,0,1,0,1.884-2.028,77.8,77.8,0,0,1-6.284-6.566" fill="#1a0f91"/>
    <path id="Trazado_752784" data-name="Trazado 752784" d="M47.567,6.488a1.413,1.413,0,0,0,.423-.066A76.749,76.749,0,0,1,55.633,4.4a1.384,1.384,0,0,0-.568-2.709,79.362,79.362,0,0,0-7.921,2.091,1.385,1.385,0,0,0,.423,2.7" fill="#1a0f91"/>
    <path id="Trazado_752785" data-name="Trazado 752785" d="M32.847,12.947a1.4,1.4,0,0,0,.683-.181A77.054,77.054,0,0,1,40.6,9.22,1.384,1.384,0,0,0,41.307,7.4a1.39,1.39,0,0,0-1.824-.714,80.084,80.084,0,0,0-7.321,3.676,1.385,1.385,0,0,0,.685,2.588" fill="#1a0f91"/>
    <path id="Trazado_752786" data-name="Trazado 752786" d="M63.3,3.191l.145-.008a78.3,78.3,0,0,1,7.9-.415A1.384,1.384,0,0,0,71.335,0a80.6,80.6,0,0,0-8.179.429A1.385,1.385,0,0,0,63.3,3.191m0-.563Z" fill="#1a0f91"/>
    <path id="Trazado_752787" data-name="Trazado 752787" d="M1.385,56.928A1.386,1.386,0,0,0,2.77,55.543V40.934a23.017,23.017,0,1,1,46.033,0V61.992A23.024,23.024,0,0,1,17.845,83.6a1.227,1.227,0,0,0-.493-.085,1.382,1.382,0,0,0-.47,2.68,25.788,25.788,0,0,0,34.69-24.2V40.934A25.786,25.786,0,0,0,0,40.934V55.543a1.386,1.386,0,0,0,1.385,1.385" fill="#1a0f91"/>
    <path id="Trazado_752788" data-name="Trazado 752788" d="M25.786,74.876A12.76,12.76,0,0,1,18.1,72.327a1.384,1.384,0,1,0-1.654,2.22c.114.085.231.163.347.24l.169.114A15.63,15.63,0,0,0,41.438,61.992V40.934a15.652,15.652,0,0,0-31.3,0v5.441a1.385,1.385,0,0,0,2.769,0V40.934a12.883,12.883,0,0,1,25.766,0V61.992A12.9,12.9,0,0,1,25.786,74.876" fill="#1a0f91"/>
    <path id="Trazado_752789" data-name="Trazado 752789" d="M33.79,146.8h0a77.524,77.524,0,0,1-7.642-4.92,1.384,1.384,0,1,0-1.634,2.235,80.1,80.1,0,0,0,7.919,5.1A1.384,1.384,0,0,0,33.79,146.8" fill="#1a0f91"/>
    <path id="Trazado_752790" data-name="Trazado 752790" d="M34.791,59.826a15.508,15.508,0,0,0-9.005-2.871A15.669,15.669,0,0,0,10.134,72.607V93.665a15.652,15.652,0,1,0,31.3,0V88.224a1.384,1.384,0,0,0-2.768,0v5.441a12.9,12.9,0,0,1-12.883,12.884,12.764,12.764,0,0,1-5.263-1.129A12.917,12.917,0,0,1,12.9,93.665V72.607a12.876,12.876,0,0,1,20.77-10.18,1.384,1.384,0,1,0,1.7-2.186c-.141-.11-.287-.212-.433-.313Z" fill="#1a0f91"/>
    <path id="Trazado_752791" data-name="Trazado 752791" d="M137.669,121.635a1.36,1.36,0,0,0-1.04-.2,1.381,1.381,0,0,0-.878.593,77.343,77.343,0,0,1-4.994,6.742,1.384,1.384,0,1,0,2.131,1.767,80.36,80.36,0,0,0,5.175-6.983,1.386,1.386,0,0,0-.394-1.919" fill="#1a0f91"/>
    <path id="Trazado_752792" data-name="Trazado 752792" d="M115.61,71.646h-2.84a1.384,1.384,0,1,0,0,2.769h1.453v.657a1.384,1.384,0,1,0,2.769,0v-.893a4.223,4.223,0,0,0-1.382-8.213,1.463,1.463,0,0,1-.116-2.92l2.955.009a1.384,1.384,0,1,0,0-2.768h-1.457v-.542a1.384,1.384,0,0,0-2.769,0v.778a4.223,4.223,0,0,0,1.387,8.212,1.456,1.456,0,0,1,0,2.911" fill="#fe7062"/>
    <path id="Trazado_752793" data-name="Trazado 752793" d="M145.186,106.32a1.384,1.384,0,0,0-1.787.8,76.546,76.546,0,0,1-3.415,7.663,1.384,1.384,0,1,0,2.463,1.264,79.321,79.321,0,0,0,3.539-7.94,1.384,1.384,0,0,0-.8-1.787" fill="#1a0f91"/>
    <path id="Trazado_752794" data-name="Trazado 752794" d="M123.624,122.477l-.041-.119a1.37,1.37,0,0,0-.252-.4l-8.49-9.174a1.477,1.477,0,0,0-.715-.41,1.326,1.326,0,0,0-.3-.034H99.712a21.194,21.194,0,0,0-1.218-1.979c-1.919-2.727-5.733-7.378-10.422-9.09a16.43,16.43,0,0,0,4.533-11.353,15.649,15.649,0,1,0-31.282,0,16.4,16.4,0,0,0,4.734,11.556c-3.977,1.684-7.289,5.362-9.421,8.251-4.669,6.325-6.106,16.412-6.78,23.449-.164,1.717-.3,3.429-.414,5.11a10.889,10.889,0,0,0,2.9,8.14,10.69,10.69,0,0,0,7.883,3.423H89.837v.452a3.31,3.31,0,0,0,3.306,3.306h27.251A3.31,3.31,0,0,0,123.7,150.3l-.011-27.489a1.463,1.463,0,0,0-.065-.339m-48.751,3.9V105.919a14.967,14.967,0,0,0,4.946-.125v20.587l-2.472,2.147ZM68.59,103.55a15.378,15.378,0,0,0,3.514,1.716v21.745a1.387,1.387,0,0,0,.477,1.046l3.858,3.351a1.42,1.42,0,0,0,1.816,0l3.856-3.35a1.387,1.387,0,0,0,.477-1.046V104.986a15.5,15.5,0,0,0,2.9-1.528c4.8.715,9.1,6.167,10.746,8.5.089.126.176.255.263.384H93.143a3.31,3.31,0,0,0-3.306,3.306v31.433H60.222a8.05,8.05,0,0,1-8.017-8.608c.626-9.266,1.949-20.722,6.659-27.1,1.493-2.025,5.4-6.785,9.726-7.824m-4.5-13.627A12.882,12.882,0,1,1,76.965,103.3,13.146,13.146,0,0,1,64.092,89.923m28.513,25.728a.539.539,0,0,1,.538-.538h19.3v5.229a3.95,3.95,0,0,0,3.946,3.946h4.545V150.3a.538.538,0,0,1-.537.537H93.143a.539.539,0,0,1-.538-.537Zm22.6,4.691v-3.079l3.938,4.256h-2.761a1.178,1.178,0,0,1-1.177-1.177m7.873,2.289Z" fill="#1a0f91"/>
    <path id="Trazado_752795" data-name="Trazado 752795" d="M150.511,73a1.39,1.39,0,0,0-1-.327,1.381,1.381,0,0,0-1.28,1.479c.13,1.84.2,3.709.2,5.558,0,.944-.018,1.9-.051,2.833a1.4,1.4,0,0,0,1.383,1.435,1.379,1.379,0,0,0,1.383-1.333c.036-.972.054-1.958.054-2.935,0-1.911-.069-3.847-.205-5.756a1.381,1.381,0,0,0-.479-.954" fill="#1a0f91"/>
    <path id="Trazado_752796" data-name="Trazado 752796" d="M149.187,89.731a1.386,1.386,0,0,0-1.57,1.171,76.908,76.908,0,0,1-1.663,8.224,1.384,1.384,0,0,0,.986,1.687,1.3,1.3,0,0,0,.354.047,1.384,1.384,0,0,0,1.339-1.035,79.583,79.583,0,0,0,1.724-8.523,1.388,1.388,0,0,0-1.17-1.571" fill="#1a0f91"/>
    <path id="Trazado_752797" data-name="Trazado 752797" d="M86.568,155.17h0a77.534,77.534,0,0,1-9,1.242A1.382,1.382,0,0,0,76.29,157.9a1.412,1.412,0,0,0,1.479,1.272h.009a79.847,79.847,0,0,0,9.326-1.286,1.382,1.382,0,0,0,1.089-1.626,1.4,1.4,0,0,0-1.625-1.09" fill="#1a0f91"/>
    <path id="Trazado_752798" data-name="Trazado 752798" d="M50.546,153.765a76.348,76.348,0,0,1-8.585-2.985,1.39,1.39,0,0,0-1.06,0,1.372,1.372,0,0,0-.75.748,1.387,1.387,0,0,0,.746,1.811,79.8,79.8,0,0,0,8.9,3.093,1.41,1.41,0,0,0,.376.052,1.385,1.385,0,0,0,.375-2.718" fill="#1a0f91"/>
    <path id="Trazado_752799" data-name="Trazado 752799" d="M68.474,156.59h0a77.228,77.228,0,0,1-9.044-.881A1.385,1.385,0,0,0,59,158.445a80.712,80.712,0,0,0,9.423.913,1.385,1.385,0,0,0,.053-2.768" fill="#1a0f91"/>
    <path id="Trazado_752800" data-name="Trazado 752800" d="M159.872,58.848h-8.133a1.377,1.377,0,0,0-1.228.745l-.093.179a13.4,13.4,0,0,1-1.641,2.49,15.085,15.085,0,0,1-7.922,4.918l-9.861,2.445a1.889,1.889,0,0,1-2.289-1.379,1.888,1.888,0,0,1,1.379-2.29l5.753-1.427a1.383,1.383,0,0,0,1.051-1.344V57.076a2.727,2.727,0,0,0-2.724-2.724h-12.64l-10.2,1.357a1.663,1.663,0,0,1-1.865-1.378,1.75,1.75,0,0,1,1.5-1.954l7.49-1.006a54.616,54.616,0,0,1,7.233-.484h9.526a1.385,1.385,0,0,0,0-2.769l-11.158-.043a2.19,2.19,0,0,1,1.305-.779l11.151-2.085a1.385,1.385,0,0,0-.489-2.726l-9.469,1.621a2.2,2.2,0,0,1,1.386-.9l6.59-1.233a11.993,11.993,0,0,1,7.766,1.172l4.865,2.56c1.883.991,11.039,2.183,12.71,2.183a1.384,1.384,0,0,0,0-2.769c-1.808,0-10.261-1.254-11.42-1.863l-4.865-2.56a14.764,14.764,0,0,0-9.565-1.444l-6.589,1.233a4.882,4.882,0,0,0-1.8.726V24.708a4.146,4.146,0,0,0-4.141-4.141H106.255V17.328a4.146,4.146,0,0,0-4.141-4.141H68.877a4.146,4.146,0,0,0-4.141,4.141V51.019A3.981,3.981,0,0,0,68.712,55h15.4v3.4a3.981,3.981,0,0,0,3.977,3.976h6.373V76.83a2.843,2.843,0,0,0,2.72,2.947h40.093A2.846,2.846,0,0,0,140,76.827V70.245l1.524-.378a17.83,17.83,0,0,0,9.368-5.815,15.718,15.718,0,0,0,1.679-2.436h7.3a1.384,1.384,0,1,0,0-2.768M81.2,31.139h2.912V52.228h-15.4A1.209,1.209,0,0,1,67.5,51.019V17.328a1.373,1.373,0,0,1,1.372-1.372H79.815v13.8A1.386,1.386,0,0,0,81.2,31.139m7.208-10.572h-.155a4.146,4.146,0,0,0-4.141,4.141v3.661H82.584V15.956h5.823Zm2.769,0V15.956h10.938a1.374,1.374,0,0,1,1.373,1.372v3.239Zm10.783,2.769h5.824V35.75h-5.824ZM97.223,54.754l9.5-.069.006.042a4.447,4.447,0,0,0,4.973,3.726l9.882-1.333,12.541-.044V62.1l-4.7,1.167a4.66,4.66,0,0,0,2.244,9.045l5.567-1.381v5.9a.391.391,0,0,1-.043.182H97.272a.385.385,0,0,1-.042-.179v-21.9c0-.1.033-.168-.007-.179M86.88,24.708a1.373,1.373,0,0,1,1.372-1.372H99.19v13.8a1.386,1.386,0,0,0,1.385,1.385h8.592a1.386,1.386,0,0,0,1.384-1.385v-13.8h10.938a1.373,1.373,0,0,1,1.372,1.372V45.432a4.96,4.96,0,0,0-1.927,2.885c-.945.079-1.9.183-2.851.31l-7.492,1.007a4.479,4.479,0,0,0-3.33,2.278l-10.079.074a2.844,2.844,0,0,0-2.721,2.947v4.675H88.088A1.209,1.209,0,0,1,86.88,58.4Z" fill="#1a0f91"/>
    <path id="Trazado_752801" data-name="Trazado 752801" d="M96.19,136.53h21.157a1.384,1.384,0,1,0,0-2.769H96.19a1.384,1.384,0,1,0,0,2.769" fill="#fe7062"/>
    <path id="Trazado_752802" data-name="Trazado 752802" d="M113.288,140.082H101.272a1.384,1.384,0,1,0,0,2.768h12.016a1.384,1.384,0,0,0,0-2.768" fill="#fe7062"/>
    <path id="Trazado_752803" data-name="Trazado 752803" d="M101.272,130.5h12.016a1.384,1.384,0,0,0,0-2.769H101.272a1.384,1.384,0,1,0,0,2.769" fill="#fe7062"/>
  </g>
</svg>
