<svg xmlns="http://www.w3.org/2000/svg" width="152" height="152" viewBox="0 0 152 152">
  <g id="Grupo_1021639" data-name="Grupo 1021639" transform="translate(-829 -2772)">
    <g id="Grupo_1020472" data-name="Grupo 1020472" transform="translate(836.173 2779)">
      <circle id="Elipse_8460" data-name="Elipse 8460" cx="76" cy="76" r="76" transform="translate(-7.173 -7)" fill="#91b3fa" opacity="0.45"/>
      <circle id="Elipse_8461" data-name="Elipse 8461" cx="62" cy="62" r="62" transform="translate(6.827 7)" fill="#fff"/>
    </g>
    <g id="_025-team" data-name="025-team" transform="translate(871 2814)">
      <ellipse id="Elipse_8512" data-name="Elipse 8512" cx="29.759" cy="29.759" rx="29.759" ry="29.759" transform="translate(4.409 4.414)" fill="#d6eff8"/>
      <path id="Trazado_752283" data-name="Trazado 752283" d="M42.84,38.533V27.511L32.92,22,23,27.511V38.533l9.92,5.511Z" transform="translate(1.248 1.151)" fill="#fab349"/>
      <path id="Trazado_752284" data-name="Trazado 752284" d="M41.92,27V38.022L32,43.533V32.511Z" transform="translate(2.168 1.662)" fill="#fcd192"/>
      <g id="Grupo_1021634" data-name="Grupo 1021634" transform="translate(1.102 1.107)">
        <ellipse id="Elipse_8513" data-name="Elipse 8513" cx="3.307" cy="3.307" rx="3.307" ry="3.307" transform="translate(2.204)" fill="#75777a"/>
        <path id="Trazado_752285" data-name="Trazado 752285" d="M6.409,11h2.2a4.408,4.408,0,0,1,4.409,4.409v4.409H2V15.409A4.408,4.408,0,0,1,6.409,11Z" transform="translate(-2 -1.08)" fill="#75777a"/>
        <ellipse id="Elipse_8514" data-name="Elipse 8514" cx="3.307" cy="3.307" rx="3.307" ry="3.307" transform="translate(57.314)" fill="#75777a"/>
        <path id="Trazado_752286" data-name="Trazado 752286" d="M56.409,11h2.2a4.408,4.408,0,0,1,4.409,4.409v4.409H52V15.409A4.408,4.408,0,0,1,56.409,11Z" transform="translate(3.11 -1.08)" fill="#75777a"/>
        <ellipse id="Elipse_8515" data-name="Elipse 8515" cx="3.307" cy="3.307" rx="3.307" ry="3.307" transform="translate(2.204 47.394)" fill="#75777a"/>
        <path id="Trazado_752287" data-name="Trazado 752287" d="M6.409,54h2.2a4.408,4.408,0,0,1,4.409,4.409v4.409H2V58.409A4.408,4.408,0,0,1,6.409,54Z" transform="translate(-2 3.314)" fill="#75777a"/>
        <ellipse id="Elipse_8516" data-name="Elipse 8516" cx="3.307" cy="3.307" rx="3.307" ry="3.307" transform="translate(57.314 47.394)" fill="#75777a"/>
        <path id="Trazado_752288" data-name="Trazado 752288" d="M56.409,54h2.2a4.408,4.408,0,0,1,4.409,4.409v4.409H52V58.409A4.408,4.408,0,0,1,56.409,54Z" transform="translate(3.11 3.314)" fill="#75777a"/>
      </g>
      <path id="Trazado_752289" data-name="Trazado 752289" d="M8.613,32.613H2L5.307,26Z" transform="translate(-0.898 1.56)" fill="#ef9596"/>
      <path id="Trazado_752290" data-name="Trazado 752290" d="M56,32h6.613l-3.307,6.613Z" transform="translate(4.621 2.173)" fill="#ef9596"/>
      <path id="Trazado_752291" data-name="Trazado 752291" d="M32,8.613V2l6.613,3.307Z" transform="translate(2.168 -0.893)" fill="#ef9596"/>
      <path id="Trazado_752292" data-name="Trazado 752292" d="M32.613,56v6.613L26,59.307Z" transform="translate(1.555 4.626)" fill="#ef9596"/>
      <path id="Trazado_752293" data-name="Trazado 752293" d="M43.48,26.47,36.867,22.8,35.8,24.729,40.68,27.44l-7.649,4.254L25.382,27.44l4.883-2.711L29.2,22.8l-6.613,3.67a1.094,1.094,0,0,0-.562.959V38.451a1.1,1.1,0,0,0,.562.959l9.92,5.511a1.162,1.162,0,0,0,.54.143,1.072,1.072,0,0,0,.54-.143L43.5,39.41a1.094,1.094,0,0,0,.562-.959V27.429a1.1,1.1,0,0,0-.562-.959ZM31.918,42.088,24.2,37.8V29.3l7.715,4.288Zm9.92-4.288-7.715,4.288v-8.5L41.837,29.3Z" transform="translate(1.148 1.233)"/>
      <path id="Trazado_752294" data-name="Trazado 752294" d="M7.409,9.818A4.409,4.409,0,1,0,3,5.409,4.408,4.408,0,0,0,7.409,9.818Zm0-6.613a2.2,2.2,0,1,1-2.2,2.2A2.211,2.211,0,0,1,7.409,3.2Z" transform="translate(-0.796 -0.995)"/>
      <path id="Trazado_752295" data-name="Trazado 752295" d="M57.409,9.818A4.409,4.409,0,1,0,53,5.409,4.408,4.408,0,0,0,57.409,9.818Zm0-6.613a2.2,2.2,0,1,1-2.2,2.2A2.211,2.211,0,0,1,57.409,3.2Z" transform="translate(4.314 -0.995)"/>
      <path id="Trazado_752296" data-name="Trazado 752296" d="M63.825,10.92h-2.2a5.513,5.513,0,0,0-4.607,2.491A31.006,31.006,0,0,0,42.861,5.3a1.081,1.081,0,0,0-.6-.882L35.653,1.111a1.116,1.116,0,0,0-1.069.044,1.1,1.1,0,0,0-.518.937V4.329a30.835,30.835,0,0,0-20.754,9.06,5.525,5.525,0,0,0-4.6-2.48h-2.2A5.513,5.513,0,0,0,1,16.42v4.409a1.105,1.105,0,0,0,1.1,1.1H7.316A30.3,30.3,0,0,0,5.3,27.508a1.048,1.048,0,0,0-.871.551L1.121,34.673a1.087,1.087,0,0,0,.044,1.069,1.1,1.1,0,0,0,.937.518H4.34A30.787,30.787,0,0,0,7.3,48.417a4.4,4.4,0,0,0-4.1,4.376A4.48,4.48,0,0,0,7.613,57.2a4.387,4.387,0,0,0,3.847-2.3,30.617,30.617,0,0,0,16,10.129,1.1,1.1,0,0,0,.6.871L34.672,69.2a1.1,1.1,0,0,0,.5.121,1.117,1.117,0,0,0,.584-.165,1.1,1.1,0,0,0,.518-.937V65.986a30.876,30.876,0,0,0,22.595-11.1,4.4,4.4,0,0,0,8.266-2.094,4.323,4.323,0,0,0-4.111-4.376,30.638,30.638,0,0,0,2.006-5.555,1.081,1.081,0,0,0,.882-.6l3.307-6.613a1.087,1.087,0,0,0-.044-1.069,1.1,1.1,0,0,0-.937-.518H66a30.887,30.887,0,0,0-2.943-12.124h5.18a1.105,1.105,0,0,0,1.1-1.1V16.431a5.513,5.513,0,0,0-5.511-5.511ZM36.27,3.888l3.042,1.521L36.27,6.93ZM3.2,19.738V16.431a3.316,3.316,0,0,1,3.307-3.307h2.2a3.316,3.316,0,0,1,3.307,3.307v3.307Zm.683,14.329,1.521-3.042L6.93,34.066ZM7.613,55.008a2.2,2.2,0,1,1,2.2-2.2A2.211,2.211,0,0,1,7.613,55.008ZM34.066,66.449l-3.042-1.521,3.042-1.521ZM64.927,52.8a2.2,2.2,0,1,1-2.2-2.2A2.211,2.211,0,0,1,64.927,52.8Zm1.521-16.533-1.521,3.042-1.521-3.042Zm-2.656-2.2H61.621a1.1,1.1,0,0,0-.937.518,1.087,1.087,0,0,0-.044,1.069l2.6,5.2a28.026,28.026,0,0,1-3.152,8.432A4.379,4.379,0,0,0,58.413,51.9,28.683,28.683,0,0,1,36.281,63.793V61.621a1.1,1.1,0,0,0-.518-.937,1.088,1.088,0,0,0-1.069-.044l-5.213,2.6A28.386,28.386,0,0,1,11.956,51.933a4.4,4.4,0,0,0-1.708-2.656A28.537,28.537,0,0,1,6.566,36.271H8.737a1.1,1.1,0,0,0,.937-.518,1.087,1.087,0,0,0,.044-1.069l-2.6-5.2A28.094,28.094,0,0,1,9.8,21.953h3.351a1.105,1.105,0,0,0,1.1-1.1V16.442a5.088,5.088,0,0,0-.077-.716,28.628,28.628,0,0,1,19.917-9.17V8.727a1.1,1.1,0,0,0,.518.937,1.089,1.089,0,0,0,.584.165,1.135,1.135,0,0,0,.5-.121l5.2-2.6a28.771,28.771,0,0,1,15.321,8.608,5.271,5.271,0,0,0-.077.716V20.84a1.105,1.105,0,0,0,1.1,1.1h3.373a28.64,28.64,0,0,1,3.207,12.124Zm3.34-14.329H58.314V16.431a3.316,3.316,0,0,1,3.307-3.307h2.2a3.316,3.316,0,0,1,3.307,3.307Z" transform="translate(-1 -0.996)"/>
      <path id="Trazado_752297" data-name="Trazado 752297" d="M2.1,64.022H13.124a1.105,1.105,0,0,0,1.1-1.1V58.511A5.513,5.513,0,0,0,8.715,53h-2.2A5.513,5.513,0,0,0,1,58.511V62.92A1.105,1.105,0,0,0,2.1,64.022Zm1.1-5.511A3.316,3.316,0,0,1,6.511,55.2h2.2a3.316,3.316,0,0,1,3.307,3.307v3.307H3.2Z" transform="translate(-1 4.319)"/>
      <path id="Trazado_752298" data-name="Trazado 752298" d="M58.715,53h-2.2A5.513,5.513,0,0,0,51,58.511V62.92a1.105,1.105,0,0,0,1.1,1.1H63.124a1.105,1.105,0,0,0,1.1-1.1V58.511A5.513,5.513,0,0,0,58.715,53Zm3.307,8.818H53.2V58.511A3.316,3.316,0,0,1,56.511,55.2h2.2a3.316,3.316,0,0,1,3.307,3.307Z" transform="translate(4.11 4.319)"/>
      <path id="Trazado_752299" data-name="Trazado 752299" d="M31,21h2.2v2.2H31Z" transform="translate(2.066 1.049)"/>
    </g>
  </g>
</svg>
