<svg xmlns="http://www.w3.org/2000/svg" width="152" height="152" viewBox="0 0 152 152">
  <g id="Grupo_1021643" data-name="Grupo 1021643" transform="translate(-934 -3052)">
    <g id="Grupo_1020472" data-name="Grupo 1020472" transform="translate(941.173 3059)">
      <circle id="Elipse_8460" data-name="Elipse 8460" cx="76" cy="76" r="76" transform="translate(-7.173 -7)" fill="#91b3fa" opacity="0.45"/>
      <circle id="Elipse_8461" data-name="Elipse 8461" cx="62" cy="62" r="62" transform="translate(6.827 7)" fill="#fff"/>
    </g>
    <g id="_019-quantity" data-name="019-quantity" transform="translate(974.901 3099.113)">
      <path id="Trazado_752341" data-name="Trazado 752341" d="M49.774,23.927A15.93,15.93,0,0,1,33.847,39.854C12.721,39.012,12.721,8.83,33.847,8A15.93,15.93,0,0,1,49.774,23.927Z" transform="translate(1.34 -6.858)" fill="#ffbc0a"/>
      <path id="Trazado_752342" data-name="Trazado 752342" d="M2,40H31.578V58.2H2Z" transform="translate(-0.862 -2.454)" fill="#6096ba"/>
      <ellipse id="Elipse_8520" data-name="Elipse 8520" cx="8.257" cy="7.741" rx="8.257" ry="7.741" transform="translate(7.7 39.169)" fill="#e7ecef"/>
      <g id="Grupo_1021635" data-name="Grupo 1021635" transform="translate(1.138 37.546)">
        <path id="Trazado_752343" data-name="Trazado 752343" d="M2,44.551A4.549,4.549,0,0,0,6.551,40H2Z" transform="translate(-2 -40)" fill="#274c77"/>
        <path id="Trazado_752344" data-name="Trazado 752344" d="M28.551,44.551A4.549,4.549,0,0,1,24,40h4.551Z" transform="translate(1.028 -40)" fill="#274c77"/>
        <path id="Trazado_752345" data-name="Trazado 752345" d="M24,56.551A4.549,4.549,0,0,1,28.551,52v4.551Z" transform="translate(1.028 -38.348)" fill="#274c77"/>
        <path id="Trazado_752346" data-name="Trazado 752346" d="M2,52a4.549,4.549,0,0,1,4.551,4.551H2Z" transform="translate(-2 -38.348)" fill="#274c77"/>
      </g>
      <path id="Trazado_752347" data-name="Trazado 752347" d="M36,40H65.578V58.2H36Z" transform="translate(3.817 -2.454)" fill="#6096ba"/>
      <circle id="Elipse_8521" data-name="Elipse 8521" cx="7.741" cy="7.741" r="7.741" transform="translate(46.922 39.169)" fill="#e7ecef"/>
      <path id="Trazado_752348" data-name="Trazado 752348" d="M36,44.551A4.549,4.549,0,0,0,40.551,40H36Z" transform="translate(3.817 -2.454)" fill="#274c77"/>
      <path id="Trazado_752349" data-name="Trazado 752349" d="M62.551,44.551A4.549,4.549,0,0,1,58,40h4.551Z" transform="translate(6.845 -2.454)" fill="#274c77"/>
      <path id="Trazado_752350" data-name="Trazado 752350" d="M58,56.551A4.549,4.549,0,0,1,62.551,52v4.551Z" transform="translate(6.845 -0.802)" fill="#274c77"/>
      <path id="Trazado_752351" data-name="Trazado 752351" d="M36,52a4.549,4.549,0,0,1,4.551,4.551H36Z" transform="translate(3.817 -0.802)" fill="#274c77"/>
      <path id="Trazado_752352" data-name="Trazado 752352" d="M24,15H42.2V28.652H24Z" transform="translate(2.166 -5.895)" fill="#8b8c89"/>
      <path id="Trazado_752353" data-name="Trazado 752353" d="M35.826,15l-1.138,6.826-2.275-2.275-2.275,2.275L29,15" transform="translate(2.854 -5.895)" fill="#e7ecef"/>
      <path id="Trazado_752354" data-name="Trazado 752354" d="M15.413,52.239A1.141,1.141,0,0,1,14.275,51.1H12a3.425,3.425,0,0,0,2.275,3.208v1.342h2.275V54.309a3.407,3.407,0,0,0-1.138-6.621,1.138,1.138,0,1,1,1.138-1.138h2.275a3.425,3.425,0,0,0-2.275-3.208V42H14.275v1.342a3.407,3.407,0,0,0,1.138,6.621,1.138,1.138,0,0,1,0,2.275Z" transform="translate(0.514 -2.178)"/>
      <path id="Trazado_752355" data-name="Trazado 752355" d="M2.138,59.477H31.716a1.141,1.141,0,0,0,1.138-1.138v-18.2A1.141,1.141,0,0,0,31.716,39H2.138A1.141,1.141,0,0,0,1,40.138v18.2A1.141,1.141,0,0,0,2.138,59.477ZM30.578,57.2h-2.07a3.424,3.424,0,0,1,2.07-2.07Zm0-15.927v2.07a3.424,3.424,0,0,1-2.07-2.07Zm-27.3,0h2.07a3.424,3.424,0,0,1-2.07,2.07Zm0,4.437a5.7,5.7,0,0,0,4.437-4.437h18.43a5.7,5.7,0,0,0,4.437,4.437v7.053A5.7,5.7,0,0,0,26.142,57.2H7.712a5.7,5.7,0,0,0-4.437-4.437Zm0,9.431a3.424,3.424,0,0,1,2.07,2.07H3.275Z" transform="translate(-1 -2.591)"/>
      <path id="Trazado_752356" data-name="Trazado 752356" d="M49.413,45.413a1.141,1.141,0,0,1,1.138,1.138h2.275a3.425,3.425,0,0,0-2.275-3.208V42H48.275v1.342a3.407,3.407,0,0,0,1.138,6.621A1.138,1.138,0,1,1,48.275,51.1H46a3.425,3.425,0,0,0,2.275,3.208v1.342h2.275V54.309a3.407,3.407,0,0,0-1.138-6.621,1.138,1.138,0,0,1,0-2.275Z" transform="translate(5.193 -2.178)"/>
      <path id="Trazado_752357" data-name="Trazado 752357" d="M65.716,39H36.138A1.141,1.141,0,0,0,35,40.138v18.2a1.141,1.141,0,0,0,1.138,1.138H65.716a1.141,1.141,0,0,0,1.138-1.138v-18.2A1.141,1.141,0,0,0,65.716,39ZM37.275,41.275h2.07a3.424,3.424,0,0,1-2.07,2.07Zm0,15.927v-2.07a3.424,3.424,0,0,1,2.07,2.07Zm27.3,0h-2.07a3.424,3.424,0,0,1,2.07-2.07Zm0-4.437A5.7,5.7,0,0,0,60.142,57.2H41.712a5.7,5.7,0,0,0-4.437-4.437V45.712a5.7,5.7,0,0,0,4.437-4.437h18.43a5.7,5.7,0,0,0,4.437,4.437Zm0-9.431a3.424,3.424,0,0,1-2.07-2.07h2.07Z" transform="translate(3.68 -2.591)"/>
      <path id="Trazado_752358" data-name="Trazado 752358" d="M42.32,10.947a17.049,17.049,0,0,0-4.1-2.617L37.28,10.4a14.7,14.7,0,0,1,3.549,2.264l1.479-1.729Z" transform="translate(3.993 -6.813)"/>
      <path id="Trazado_752359" data-name="Trazado 752359" d="M32.229,9.276a15.649,15.649,0,0,1,2.059.137l.319-2.253A14.166,14.166,0,0,0,32.195,7a23.873,23.873,0,0,0-2.435.228L30.1,9.481a19.694,19.694,0,0,1,2.139-.2Z" transform="translate(2.958 -6.996)"/>
      <path id="Trazado_752360" data-name="Trazado 752360" d="M45.114,30.259,43.2,29.03a15.323,15.323,0,0,1-2.753,3.185l1.49,1.718a17.1,17.1,0,0,0,3.174-3.663Z" transform="translate(4.43 -3.964)"/>
      <path id="Trazado_752361" data-name="Trazado 752361" d="M47.277,22.008V21.94L45,22.008a15.031,15.031,0,0,1-.592,4.164l2.184.637a17.12,17.12,0,0,0,.683-4.8Z" transform="translate(4.975 -4.939)"/>
      <path id="Trazado_752362" data-name="Trazado 752362" d="M46.778,18.243a17.019,17.019,0,0,0-2.036-4.4L42.83,15.08A14.4,14.4,0,0,1,44.593,18.9l2.184-.648Z" transform="translate(4.757 -6.054)"/>
      <path id="Trazado_752363" data-name="Trazado 752363" d="M21.428,15.095,19.494,13.9a17.363,17.363,0,0,0-1.934,4.46l2.2.6a14.781,14.781,0,0,1,1.672-3.857Z" transform="translate(1.279 -6.046)"/>
      <path id="Trazado_752364" data-name="Trazado 752364" d="M27.07,10.452,26.16,8.37a16.606,16.606,0,0,0-4.13,2.582l1.49,1.718A13.721,13.721,0,0,1,27.07,10.452Z" transform="translate(1.894 -6.807)"/>
      <path id="Trazado_752365" data-name="Trazado 752365" d="M22.465,33.993l1.479-1.729a13.8,13.8,0,0,1-2.73-3.174L19.28,30.3a16.248,16.248,0,0,0,3.174,3.7Z" transform="translate(1.516 -3.955)"/>
      <path id="Trazado_752366" data-name="Trazado 752366" d="M19.844,26.216a15.681,15.681,0,0,1-.569-4.186H17a17.846,17.846,0,0,0,.66,4.8l2.2-.614Z" transform="translate(1.202 -4.927)"/>
      <path id="Trazado_752367" data-name="Trazado 752367" d="M37.819,33.82A14.225,14.225,0,0,1,33.78,35l.319,2.253a17.049,17.049,0,0,0,4.664-1.365Z" transform="translate(3.512 -3.304)"/>
      <path id="Trazado_752368" data-name="Trazado 752368" d="M25.721,35.912a19.167,19.167,0,0,0,4.642,1.308l.33-2.253a16.762,16.762,0,0,1-4.084-1.138l-.9,2.093Z" transform="translate(2.401 -3.303)"/>
      <path id="Trazado_752369" data-name="Trazado 752369" d="M7,27H9.275v2.275H7Z" transform="translate(-0.174 -4.243)"/>
      <path id="Trazado_752370" data-name="Trazado 752370" d="M7,23H9.275v2.275H7Z" transform="translate(-0.174 -4.794)"/>
      <path id="Trazado_752371" data-name="Trazado 752371" d="M7,19H9.275v2.275H7Z" transform="translate(-0.174 -5.344)"/>
      <path id="Trazado_752372" data-name="Trazado 752372" d="M12.331,23.276l1.888,1.263,2.275-3.413a1.156,1.156,0,0,0,0-1.263L14.219,16.45l-1.888,1.263,1.092,1.65H11v2.275h2.423l-1.092,1.65Z" transform="translate(0.376 -5.695)"/>
      <path id="Trazado_752373" data-name="Trazado 752373" d="M55,27h2.275v2.275H55Z" transform="translate(6.432 -4.243)"/>
      <path id="Trazado_752374" data-name="Trazado 752374" d="M7,31H9.275v2.275H7Z" transform="translate(-0.174 -3.692)"/>
      <path id="Trazado_752375" data-name="Trazado 752375" d="M55,31h2.275v2.275H55Z" transform="translate(6.432 -3.692)"/>
      <path id="Trazado_752376" data-name="Trazado 752376" d="M7,35H9.275v2.275H7Z" transform="translate(-0.174 -3.142)"/>
      <path id="Trazado_752377" data-name="Trazado 752377" d="M55,35h2.275v2.275H55Z" transform="translate(6.432 -3.142)"/>
      <path id="Trazado_752378" data-name="Trazado 752378" d="M55,23h2.275v2.275H55Z" transform="translate(6.432 -4.794)"/>
      <path id="Trazado_752379" data-name="Trazado 752379" d="M55,19h2.275v2.275H55Z" transform="translate(6.432 -5.344)"/>
      <path id="Trazado_752380" data-name="Trazado 752380" d="M50.468,24.53l1.888-1.263-1.092-1.65h2.423V19.342H51.264l1.092-1.65L50.468,16.43l-2.275,3.413a1.156,1.156,0,0,0,0,1.263l2.275,3.413Z" transform="translate(5.469 -5.698)"/>
      <path id="Trazado_752381" data-name="Trazado 752381" d="M43.477,28.789V15.138A1.141,1.141,0,0,0,42.34,14h-18.2A1.141,1.141,0,0,0,23,15.138V28.789a1.141,1.141,0,0,0,1.138,1.138h18.2A1.141,1.141,0,0,0,43.477,28.789ZM35.309,16.275,34.752,19.6l-.717-.717a1.133,1.133,0,0,0-1.6,0l-.717.717-.557-3.322H35.3ZM41.2,27.652H25.275V16.275h3.584l.978,5.87a1.131,1.131,0,0,0,1.923.614l1.468-1.468,1.468,1.468a1.145,1.145,0,0,0,.808.33,1.269,1.269,0,0,0,.353-.057,1.123,1.123,0,0,0,.774-.9l.978-5.87h3.584V27.64Z" transform="translate(2.028 -6.032)"/>
    </g>
  </g>
</svg>
